<?xml version="1.0" encoding="utf-8"?>
<!-- Generator: Adobe Illustrator 19.2.0, SVG Export Plug-In . SVG Version: 6.00 Build 0)  -->
<svg version="1.1" id="Capa_1" xmlns="http://www.w3.org/2000/svg" xmlns:xlink="http://www.w3.org/1999/xlink" x="0px" y="0px"
	 viewBox="0 0 561 561" style="enable-background:new 0 0 561 561;" xml:space="preserve">
<style type="text/css">
	.st0{fill:#21628A;}
</style>
<g>
	<g id="gps-fixed">
		<path class="st0" d="M280.5,178.5c-56.1,0-102,45.9-102,102s45.9,102,102,102s102-45.9,102-102S336.6,178.5,280.5,178.5z
			 M507.5,255C494.7,147.9,410.5,63.8,306,53.5V0h-51v53.5C147.9,63.8,63.8,147.9,53.5,255H0v51h53.5
			C66.3,413.1,150.4,497.2,255,507.5V561h51v-53.5c107.1-12.8,191.2-96.9,201.5-201.5H561v-51H507.5z M280.5,459
			C181.1,459,102,380,102,280.5S181.1,102,280.5,102S459,181.1,459,280.5S380,459,280.5,459z"/>
	</g>
</g>
</svg>
