<?xml version="1.0" encoding="UTF-8" standalone="no"?>
<!-- Created with Inkscape (http://www.inkscape.org/) -->

<svg
   xmlns:dc="http://purl.org/dc/elements/1.1/"
   xmlns:cc="http://creativecommons.org/ns#"
   xmlns:rdf="http://www.w3.org/1999/02/22-rdf-syntax-ns#"
   xmlns:svg="http://www.w3.org/2000/svg"
   xmlns="http://www.w3.org/2000/svg"
   xmlns:sodipodi="http://sodipodi.sourceforge.net/DTD/sodipodi-0.dtd"
   xmlns:inkscape="http://www.inkscape.org/namespaces/inkscape"
   width="72"
   height="72"
   viewBox="0 0 19.05 19.050001"
   version="1.1"
   id="svg4491"
   sodipodi:docname="кубок.svg"
   inkscape:version="0.92.1 r15371">
  <defs
     id="defs4485" />
  <sodipodi:namedview
     id="base"
     pagecolor="#ffffff"
     bordercolor="#666666"
     borderopacity="1.0"
     inkscape:pageopacity="0.0"
     inkscape:pageshadow="2"
     inkscape:zoom="2.8"
     inkscape:cx="69.717951"
     inkscape:cy="3.2290124"
     inkscape:document-units="mm"
     inkscape:current-layer="layer1"
     showgrid="false"
     units="px"
     inkscape:window-width="1920"
     inkscape:window-height="1017"
     inkscape:window-x="-8"
     inkscape:window-y="-8"
     inkscape:window-maximized="1" />
  <metadata
     id="metadata4488">
    <rdf:RDF>
      <cc:Work
         rdf:about="">
        <dc:format>image/svg+xml</dc:format>
        <dc:type
           rdf:resource="http://purl.org/dc/dcmitype/StillImage" />
        <dc:title></dc:title>
      </cc:Work>
    </rdf:RDF>
  </metadata>
  <g
     inkscape:label="Layer 1"
     inkscape:groupmode="layer"
     id="layer1"
     transform="translate(0,-277.94998)">
    <g
       id="g5217"
       transform="matrix(0.03701748,0,0,0.03701748,0.04852437,277.99851)">
      <g
         id="g5150">
        <g
           id="g5148">
          <g
             id="g5146">
            <path
               id="path5126"
               d="m 119.467,341.333 c 0,-4.71 -3.823,-8.533 -8.533,-8.533 -4.71,0 -8.533,3.823 -8.533,8.533 -4.71,0 -8.533,3.823 -8.533,8.533 0,4.71 3.823,8.533 8.533,8.533 0,4.71 3.823,8.533 8.533,8.533 4.71,0 8.533,-3.823 8.533,-8.533 4.71,0 8.533,-3.823 8.533,-8.533 0,-4.71 -3.823,-8.533 -8.533,-8.533 z"
               inkscape:connector-curvature="0" />
            <path
               id="path5128"
               d="m 42.667,307.2 h -8.533 v -8.533 c 0,-4.71 -3.823,-8.533 -8.533,-8.533 -4.71,0 -8.533,3.823 -8.533,8.533 V 307.2 H 8.533 c -4.71,0 -8.533,3.823 -8.533,8.533 0,4.71 3.823,8.533 8.533,8.533 h 8.533 v 8.533 c 0,4.71 3.823,8.533 8.533,8.533 4.71,0 8.533,-3.823 8.533,-8.533 v -8.533 h 8.533 c 4.71,0 8.533,-3.823 8.533,-8.533 0,-4.71 -3.821,-8.533 -8.531,-8.533 z"
               inkscape:connector-curvature="0" />
            <path
               id="path5130"
               d="m 418.125,187.733 c 0.691,0 1.382,-0.077 2.082,-0.256 37.18,-9.293 57.66,-33.451 57.66,-68.011 V 59.733 c 0,-14.114 -11.486,-25.6 -25.6,-25.6 H 435.2 c -4.71,0 -8.533,3.823 -8.533,8.533 0,4.71 3.823,8.533 8.533,8.533 h 17.067 c 4.702,0 8.533,3.831 8.533,8.533 v 59.733 c 0,26.718 -15.053,44.032 -44.74,51.456 -4.565,1.143 -7.347,5.777 -6.204,10.351 0.973,3.876 4.446,6.461 8.269,6.461 z"
               inkscape:connector-curvature="0" />
            <path
               id="path5132"
               d="m 298.138,460.8 h -84.804 c -4.71,0 -8.533,3.823 -8.533,8.533 0,4.71 3.823,8.533 8.533,8.533 h 84.804 c 4.71,0 8.533,-3.823 8.533,-8.533 0,-4.71 -3.823,-8.533 -8.533,-8.533 z"
               inkscape:connector-curvature="0" />
            <path
               id="path5134"
               d="M 102.144,181.274 C 103.287,176.7 100.506,172.067 95.94,170.923 66.253,163.499 51.2,146.185 51.2,119.467 V 59.733 c 0,-4.702 3.831,-8.533 8.533,-8.533 H 76.8 c 4.71,0 8.533,-3.823 8.533,-8.533 0,-4.71 -3.823,-8.533 -8.533,-8.533 H 59.733 c -14.114,0 -25.6,11.486 -25.6,25.6 v 59.733 c 0,34.56 20.48,58.718 57.66,68.011 0.7,0.179 1.391,0.256 2.082,0.256 3.823,-0.001 7.296,-2.586 8.269,-6.46 z"
               inkscape:connector-curvature="0" />
            <path
               id="path5136"
               d="m 358.144,433.126 c -0.947,-3.797 -4.361,-6.46 -8.277,-6.46 h -188.8 c -3.917,0 -7.33,2.662 -8.277,6.46 l -17.067,68.267 c -0.64,2.552 -0.068,5.257 1.553,7.322 1.613,2.074 4.096,3.285 6.724,3.285 h 222.933 c 2.628,0 5.111,-1.212 6.724,-3.285 1.621,-2.065 2.193,-4.77 1.553,-7.322 z m -203.213,61.807 12.8,-51.2 h 175.471 l 12.8,51.2 z"
               inkscape:connector-curvature="0" />
            <path
               id="path5138"
               d="m 452.267,392.533 h -8.533 V 384 c 0,-4.71 -3.823,-8.533 -8.533,-8.533 -4.71,0 -8.533,3.823 -8.533,8.533 v 8.533 h -8.533 c -4.71,0 -8.533,3.823 -8.533,8.533 0,4.71 3.823,8.533 8.533,8.533 h 8.533 v 8.533 c 0,4.71 3.823,8.533 8.533,8.533 4.71,0 8.533,-3.823 8.533,-8.533 V 409.6 h 8.533 c 4.71,0 8.533,-3.823 8.533,-8.533 0,-4.71 -3.823,-8.534 -8.533,-8.534 z"
               inkscape:connector-curvature="0" />
            <path
               id="path5140"
               d="M 503.467,221.867 H 486.4 V 204.8 c 0,-4.71 -3.823,-8.533 -8.533,-8.533 -4.71,0 -8.533,3.823 -8.533,8.533 v 17.067 h -17.067 c -4.71,0 -8.533,3.823 -8.533,8.533 0,4.71 3.823,8.533 8.533,8.533 h 17.067 V 256 c 0,4.71 3.823,8.533 8.533,8.533 4.71,0 8.533,-3.823 8.533,-8.533 v -17.067 h 17.067 c 4.71,0 8.533,-3.823 8.533,-8.533 0,-4.71 -3.823,-8.533 -8.533,-8.533 z"
               inkscape:connector-curvature="0" />
            <path
               id="path5142"
               d="M 409.6,8.533 C 409.6,3.823 405.777,0 401.067,0 H 110.933 c -4.71,0 -8.533,3.823 -8.533,8.533 v 34.133 c 0,103.228 17.237,138.88 17.758,139.895 9.719,22.673 23.987,38.306 37.777,53.436 24.107,26.419 46.865,51.371 46.865,113.869 0,0.23 -0.179,23.287 -15.633,46.464 -2.611,3.925 -1.553,9.225 2.364,11.836 3.917,2.611 9.216,1.553 11.836,-2.364 18.295,-27.435 18.5,-54.784 18.5,-55.936 0,-69.111 -26.095,-97.715 -51.32,-125.372 -13.431,-14.72 -26.12,-28.629 -34.893,-49.058 -0.162,-0.333 -16.188,-34.62 -16.188,-132.77 v -25.6 h 273.067 v 25.6 c 0,98.15 -16.026,132.437 -16.375,133.171 -8.585,20.028 -21.274,33.937 -34.705,48.657 -25.225,27.657 -51.319,56.26 -51.319,125.372 0,1.152 0.205,28.501 18.5,55.936 1.647,2.466 4.352,3.797 7.108,3.797 1.621,0 3.268,-0.461 4.727,-1.434 3.917,-2.611 4.975,-7.91 2.364,-11.836 C 307.524,373.366 307.2,350.07 307.2,349.865 c 0,-62.498 22.758,-87.45 46.865,-113.869 13.79,-15.13 28.058,-30.763 37.572,-52.983 0.725,-1.468 17.963,-37.12 17.963,-140.348 z"
               inkscape:connector-curvature="0" />
            <path
               id="path5144"
               d="m 216.166,177.015 c 1.596,1.442 3.635,2.185 5.7,2.185 1.357,0 2.714,-0.324 3.959,-0.973 l 30.788,-16.145 29.431,16.068 c 3.098,1.698 6.921,1.297 9.617,-0.981 2.688,-2.287 3.695,-5.999 2.517,-9.335 l -10.317,-29.303 24.858,-21.086 c 2.731,-2.321 3.721,-6.093 2.492,-9.455 -1.237,-3.354 -4.437,-5.589 -8.013,-5.589 H 276.964 L 263.771,73.277 c -1.382,-3.055 -4.42,-5.009 -7.774,-5.009 h -0.017 c -3.362,0.009 -6.4,1.98 -7.774,5.043 l -13.022,29.09 H 204.8 c -3.627,0 -6.852,2.295 -8.055,5.709 -1.195,3.422 -0.102,7.228 2.731,9.489 l 26.001,20.779 -11.546,29.15 c -1.306,3.318 -0.418,7.098 2.235,9.487 z m 24.551,-57.548 c 3.362,0 6.409,-1.971 7.791,-5.043 l 7.535,-16.845 7.654,16.879 c 1.374,3.055 4.42,5.009 7.774,5.009 h 12.484 l -11.605,9.847 c -2.697,2.287 -3.712,5.999 -2.534,9.344 l 4.881,13.85 -13.901,-7.595 c -1.28,-0.691 -2.688,-1.041 -4.096,-1.041 -1.357,0 -2.722,0.324 -3.959,0.973 l -14.481,7.586 5.41,-13.645 c 1.382,-3.49 0.324,-7.467 -2.611,-9.805 l -11.904,-9.515 h 11.562 z"
               inkscape:connector-curvature="0" />
          </g>
        </g>
      </g>
      <g
         id="g5152" />
      <g
         id="g5154" />
      <g
         id="g5156" />
      <g
         id="g5158" />
      <g
         id="g5160" />
      <g
         id="g5162" />
      <g
         id="g5164" />
      <g
         id="g5166" />
      <g
         id="g5168" />
      <g
         id="g5170" />
      <g
         id="g5172" />
      <g
         id="g5174" />
      <g
         id="g5176" />
      <g
         id="g5178" />
      <g
         id="g5180" />
    </g>
  </g>
</svg>
