<?xml version="1.0" encoding="UTF-8" standalone="no"?>
<!-- Created with Inkscape (http://www.inkscape.org/) -->

<svg
   xmlns:dc="http://purl.org/dc/elements/1.1/"
   xmlns:cc="http://creativecommons.org/ns#"
   xmlns:rdf="http://www.w3.org/1999/02/22-rdf-syntax-ns#"
   xmlns:svg="http://www.w3.org/2000/svg"
   xmlns="http://www.w3.org/2000/svg"
   xmlns:sodipodi="http://sodipodi.sourceforge.net/DTD/sodipodi-0.dtd"
   xmlns:inkscape="http://www.inkscape.org/namespaces/inkscape"
   width="377.95276"
   height="158.74016"
   viewBox="0 0 100 42"
   version="1.1"
   id="svg5385"
   inkscape:version="0.92.1 r15371"
   sodipodi:docname="daxmer.svg">
  <defs
     id="defs5379" />
  <sodipodi:namedview
     id="base"
     pagecolor="#ffffff"
     bordercolor="#666666"
     borderopacity="1.0"
     inkscape:pageopacity="0.0"
     inkscape:pageshadow="2"
     inkscape:zoom="0.35"
     inkscape:cx="355.93896"
     inkscape:cy="-473.09229"
     inkscape:document-units="mm"
     inkscape:current-layer="layer1"
     showgrid="false"
     units="px"
     inkscape:window-width="1920"
     inkscape:window-height="1017"
     inkscape:window-x="-8"
     inkscape:window-y="-8"
     inkscape:window-maximized="1" />
  <metadata
     id="metadata5382">
    <rdf:RDF>
      <cc:Work
         rdf:about="">
        <dc:format>image/svg+xml</dc:format>
        <dc:type
           rdf:resource="http://purl.org/dc/dcmitype/StillImage" />
        <dc:title />
      </cc:Work>
    </rdf:RDF>
  </metadata>
  <g
     inkscape:label="Layer 1"
     inkscape:groupmode="layer"
     id="layer1"
     transform="translate(0,-255)">
    <g
       id="g6148"
       transform="translate(0,1.5308025)">
      <circle
         r="14.021071"
         cy="279.66479"
         cx="56.943958"
         id="path5134"
         style="opacity:1;fill:#b3b3b3;fill-opacity:0.51893939;stroke:none;stroke-width:23.15938377;stroke-miterlimit:4;stroke-dasharray:none;stroke-opacity:1" />
      <circle
         r="12.018061"
         cy="279.58466"
         cx="56.823776"
         id="path5134-5"
         style="opacity:1;fill:#999999;fill-opacity:0.30545457;stroke:none;stroke-width:19.85089874;stroke-miterlimit:4;stroke-dasharray:none;stroke-opacity:1" />
      <path
         d="m 237.91016,70.964844 c -0.0257,-0.01512 0.28605,0.02976 0.87695,0.148437 -0.0215,-0.0189 -0.043,-0.04051 -0.0645,-0.06055 -0.43047,-0.01512 -0.78254,-0.07164 -0.8125,-0.08789 z m -89.25977,12.71289 -3.57227,2.144532 c -1.96382,1.179326 -4.46125,2.750152 -5.55078,3.492187 -1.22309,0.833046 -2.25181,1.252629 -2.6875,1.095703 -0.3881,-0.139842 -2.19312,-1.49086 -4.01172,-3.001953 -1.81859,-1.511168 -3.58675,-2.915324 -3.92773,-3.123047 C 128.16771,83.838718 109.8898,83.564561 109.89062,84 c 3.5e-4,0.164031 3.10072,2.716662 6.89063,5.671875 3.78991,2.955213 7.35962,5.82097 7.93359,6.367187 l 1.04493,0.990235 -1.32032,1.101562 c -0.72559,0.605745 -2.94694,2.011271 -4.9375,3.121091 -7.43931,4.14777 -10.45349,6.0402 -10.21875,6.41993 0.13293,0.21505 1.72678,0.39257 3.54102,0.39257 3.74919,0 3.89187,-0.0574 11.3125,-4.53906 2.64161,-1.59534 5.14176,-2.90234 5.55859,-2.90234 0.41685,0 2.61639,1.46841 4.88477,3.26172 2.26843,1.79331 4.51038,3.46597 4.98242,3.71875 1.04846,0.56095 18.68359,0.64581 18.68359,0.0898 0,-0.20447 -3.72603,-3.30674 -8.28125,-6.89453 -5.35375,-4.216707 -8.2395,-6.752727 -8.16211,-7.171877 0.0658,-0.356787 3.41578,-2.601358 7.44532,-4.988281 4.02952,-2.386885 7.33073,-4.479896 7.33593,-4.650391 0.005,-0.170456 -1.77804,-0.310547 -3.96289,-0.310547 z M 0.56640625,83.884766 0.45703125,95.453125 c -0.0605182,6.362005 -0.017595,11.808295 0.0957031,12.103515 0.16603766,0.4309 4.16431845,0.51528 20.57031265,0.41992 19.701875,-0.11414 20.422364,-0.14815 22.242187,-0.99023 4.593744,-2.12549 7.189453,-6.13783 7.189454,-11.115236 0,-4.977373 -2.59571,-8.989742 -7.189454,-11.115235 -1.832277,-0.847899 -2.409527,-0.871093 -22.339843,-0.871093 z m 83.90429675,0 c -22.695715,0 -22.557648,-0.01419 -25.925781,3.027343 -3.102146,2.802596 -3.401257,3.839823 -3.556641,12.396485 -0.07567,4.164436 -0.03507,7.840746 0.08984,8.166016 0.183685,0.47875 1.483843,0.58984 6.820313,0.58984 3.625742,0 6.884582,-0.11362 7.24414,-0.25195 0.540253,-0.20712 0.654297,-1.02512 0.654297,-4.70898 0,-3.683872 0.11404,-4.501682 0.654297,-4.708989 0.359584,-0.137953 4.602306,-0.25 9.427734,-0.25 6.375602,0 8.959984,0.142196 9.460938,0.517578 0.552707,0.414237 0.714164,1.375881 0.804687,4.855471 l 0.111328,4.33984 h 7.232422 7.234383 V 95.871094 83.884766 Z m 198.804687,0 -2.10351,1.111328 c -4.03287,2.127949 -6.51327,6.109681 -6.51368,10.460937 -6.7e-4,5.732939 3.27388,10.364129 8.48242,11.996089 1.40631,0.44074 5.58417,0.54369 19.56055,0.48243 l 17.77149,-0.0781 v -2.0664 -2.06641 l -11.36524,-0.20703 c -10.80618,-0.19654 -11.45291,-0.25352 -13.11719,-1.14258 -1.9426,-1.0379 -3.21964,-2.652827 -2.85351,-3.607422 0.20428,-0.532384 1.74731,-0.623047 10.58594,-0.623047 h 10.34375 v -2.273437 -2.273438 h -10.28125 c -11.62159,0 -12.10318,-0.116759 -10.14063,-2.449218 2.21972,-2.63796 2.53163,-2.696566 15.25781,-2.923829 l 11.57032,-0.207031 v -2.066406 -2.066406 h -18.59961 z m 44.22461,0 -0.11133,11.568359 c -0.0605,6.362005 -0.0165,11.806805 0.0957,12.099605 0.1579,0.41088 1.81906,0.5057 7.34179,0.41797 l 7.14063,-0.11328 0.22461,-9.298826 c 0.12457,-5.114797 0.26489,-9.3455 0.31054,-9.402344 0.0459,-0.05669 3.61833,-0.103516 7.9375,-0.103516 7.30193,0 7.91106,0.05768 8.67969,0.826172 1.09085,1.090847 1.04124,1.888489 -0.18945,3.119141 -0.97769,0.97765 -1.21775,1.013672 -6.63672,1.013672 -3.56521,0 -5.53168,0.147629 -5.37305,0.404297 0.13765,0.222614 3.80949,3.385504 8.1582,7.027344 l 7.90821,6.62109 h 7.19336 c 4.1682,0 7.13635,-0.15812 7.05664,-0.37695 -0.0758,-0.20787 -2.27837,-2.0874 -4.89258,-4.17578 -2.61424,-2.08838 -4.75195,-4.105465 -4.75195,-4.48047 0,-0.526186 0.5524,-0.739063 2.41797,-0.939453 4.07819,-0.438085 6.46875,-2.979025 6.46875,-6.875 0,-2.773569 -1.20489,-5.124363 -3.29102,-6.421875 -1.45926,-0.907427 -1.50846,-0.910156 -23.57422,-0.910156 z m -205.52148,0.630859 c 4.8341,0.01134 6.21807,0.469774 9.68164,3.220703 2.95866,2.349921 7.57422,6.707657 7.57422,7.150391 0,0.664743 -0.58471,0.357828 -4.13282,-2.158203 -6.32336,-4.484145 -8.54075,-5.606918 -12.91015,-6.539063 -2.21242,-0.472025 -4.11872,-0.857422 -4.23633,-0.857422 -0.11766,0 -0.21289,-0.186799 -0.21289,-0.414062 0,-0.249449 1.68149,-0.407938 4.23633,-0.402344 z m 167.35156,0.419922 c 0.47757,0.02268 0.71937,0.135751 0.58594,0.351562 -0.16332,0.264189 -1.74065,1.205271 -3.50391,2.091797 -3.65779,1.839118 -5.57768,3.776224 -6.26367,6.316406 -0.48566,1.797695 -0.33974,7.769178 0.22265,9.099608 h 0.002 c 0.42465,1.00445 -0.68851,0.95239 -1.61914,-0.0762 -1.15667,-1.27812 -1.84717,-3.744794 -1.86719,-6.669922 -0.0355,-5.32902 1.77619,-8.105771 6.45898,-9.904297 1.73911,-0.667918 4.05585,-1.13561 5.4336,-1.205078 0.20666,-0.01134 0.39158,-0.01147 0.55078,-0.0039 z M 335.57031,85.125 c 2.48991,0 4.57509,0.167441 4.63477,0.373047 0.0596,0.205606 -1.43876,0.782718 -3.33008,1.283203 -1.89137,0.500485 -3.71886,1.19142 -4.06055,1.533203 -0.80696,0.806929 -1.20127,2.620791 -2.04297,9.417969 -0.69316,5.597598 -1.00334,6.881438 -1.5371,6.347658 -0.42069,-0.42066 -0.33576,-11.899326 0.11132,-14.992189 0.54856,-3.794835 0.81481,-3.962891 6.22461,-3.962891 z M 9.1015625,85.332031 c 3.1287615,0 4.0987415,0.125276 3.9687495,0.515625 -0.09465,0.284221 -0.529029,0.573942 -0.964843,0.642578 -0.435804,0.06841 -2.060466,0.494807 -3.6113284,0.949219 C 5.0118102,88.459737 4.8332676,88.805396 3.90625,96.285156 3.5399832,99.240331 3.1337816,102.35456 3.0039062,103.20703 2.6169406,105.74721 2.115961,104.97764 1.9316406,101.55664 1.7321538,97.854745 2.2193012,87.962529 2.65625,86.849609 3.1145337,85.68234 4.6050514,85.332031 9.1015625,85.332031 Z m 57.8300785,0.257813 c 0.484962,-0.01134 0.836429,0.04967 0.984375,0.191406 0.215886,0.207118 0.309343,0.388322 0.207031,0.402344 -0.102274,0.01512 -1.673592,0.805749 -3.492188,1.757812 -2.970629,1.5552 -3.418278,1.949549 -4.404297,3.894532 -0.956674,1.88708 -1.628564,4.816096 -2.660156,11.578122 -0.112705,0.73882 -0.403223,1.34375 -0.644531,1.34375 -0.297487,0 -0.38641,-2.02982 -0.275391,-6.302732 0.211427,-8.141556 0.805821,-9.733827 4.228516,-11.300781 1.94691,-0.891326 4.601791,-1.536825 6.056641,-1.564453 z m -45.31836,2.648437 c 2.622201,0.04233 5.318052,0.196189 6.158203,0.429688 2.052039,0.569764 4.651722,2.940649 5.265625,4.800781 1.100612,3.334904 -0.391084,7.09021 -3.53125,8.89063 -1.489167,0.85405 -2.257457,0.96246 -7.447265,1.04296 -3.182539,0.0491 -6.018565,-0.0151 -6.302735,-0.13867 -0.384655,-0.16932 -0.515625,-2.05628 -0.515625,-7.382811 0,-6.142563 0.09302,-7.188939 0.654297,-7.404297 0.549368,-0.210897 3.096549,-0.280611 5.71875,-0.238281 z m 58.701172,0.814453 c 10.163407,0 9.734375,-0.117309 9.734375,2.636719 0,0.731565 -0.22133,1.553403 -0.49414,1.826172 -0.536947,0.536957 -18.957484,0.74568 -19.482422,0.220703 -0.509137,-0.50914 -0.280296,-2.840384 0.36914,-3.767578 0.632228,-0.902589 0.801535,-0.916016 9.873047,-0.916016 z M 258.76953,107.28906 c -0.0411,-0.008 -0.10186,0.0156 -0.15039,0.0156 -3e-5,0.045 -2e-5,0.0902 0,0.13476 0.11312,-0.0227 0.22555,-0.0453 0.3457,-0.0449 -0.005,-0.008 -0.009,-0.0236 -0.0137,-0.0273 -0.0421,-0.042 -0.10439,-0.0672 -0.18164,-0.0781 z m -86.14062,1.76367 c -0.0223,0.034 -0.0256,0.0387 -0.0488,0.0742 -0.0208,0.0302 -0.0736,0.0875 -0.10938,0.13282 -0.0355,0.0616 -0.0706,0.12615 -0.10937,0.21875 0.30247,-0.2967 0.35065,-0.47636 0.26758,-0.42579 z"
         style="fill:#002e80;fill-opacity:1;stroke-width:0.41331688"
         transform="matrix(0.26458333,0,0,0.26458333,0,255)"
         id="path4789"
         inkscape:connector-curvature="0" />
      <g
         id="g6127">
        <g
           id="text6087"
           style="font-style:normal;font-variant:normal;font-weight:bold;font-stretch:normal;font-size:12.5915451px;line-height:125%;font-family:'Terminator Real NFI';-inkscape-font-specification:'Terminator Real NFI Bold';letter-spacing:0px;word-spacing:0px;fill:#002e80;fill-opacity:1;stroke:none;stroke-width:0.31478864px;stroke-linecap:butt;stroke-linejoin:miter;stroke-opacity:1"
           transform="scale(1.1897524,0.84051102)"
           aria-label="M">
          <path
             id="path6129"
             style="font-style:normal;font-variant:normal;font-weight:bold;font-stretch:normal;font-family:'Terminator Real NFI';-inkscape-font-specification:'Terminator Real NFI Bold';fill:#002e80;fill-opacity:1;stroke-width:0.31478864px"
             d="M 43.288645,337.52298 H 41.04735 v -6.82462 q 0,-0.45329 0.16369,-0.894 0.176282,-0.45329 0.478479,-0.80586 0.302197,-0.35256 0.705126,-0.56662 0.415521,-0.22664 0.894,-0.22664 0.49107,0 0.906591,0.23924 0.415521,0.23924 0.755493,0.60439 0.339972,0.36515 0.591802,0.80586 0.264423,0.4407 0.428113,0.84363 l 1.939098,4.72183 1.976873,-4.72183 q 0.16369,-0.40293 0.415521,-0.84363 0.25183,-0.44071 0.591802,-0.80586 0.339972,-0.36515 0.755493,-0.60439 0.415521,-0.23924 0.919183,-0.23924 0.503661,0 0.919182,0.21405 0.428113,0.20147 0.717719,0.55403 0.289605,0.33997 0.453295,0.79327 0.16369,0.45329 0.16369,0.93177 v 6.82462 h -2.253886 v -6.82462 l -2.228704,4.87293 q -0.226648,0.50366 -0.453295,0.91918 -0.214057,0.40293 -0.491071,0.69254 -0.264422,0.27701 -0.629577,0.42811 -0.352563,0.1511 -0.856225,0.1511 -0.440704,0 -0.805859,-0.20147 -0.365155,-0.18887 -0.667352,-0.49107 -0.302197,-0.31478 -0.541436,-0.70512 -0.226648,-0.40293 -0.40293,-0.80586 l -2.20352,-4.86034 z"
             inkscape:connector-curvature="0" />
        </g>
        <g
           id="g6137">
          <g
             aria-label="M"
             transform="scale(1.2558257,0.79628884)"
             style="font-style:normal;font-variant:normal;font-weight:bold;font-stretch:normal;font-size:13.29082108px;line-height:125%;font-family:'Terminator Real NFI';-inkscape-font-specification:'Terminator Real NFI Bold';letter-spacing:0px;word-spacing:0px;fill:#000080;fill-opacity:1;stroke:none;stroke-width:0.33227056px;stroke-linecap:butt;stroke-linejoin:miter;stroke-opacity:1"
             id="text6087-4">
            <path
               d="m 40.280829,356.26941 h -2.365766 v -7.20363 q 0,-0.47847 0.17278,-0.94364 0.186072,-0.47847 0.505052,-0.85062 0.318979,-0.37214 0.744286,-0.59808 0.438597,-0.23924 0.943648,-0.23924 0.518342,0 0.956939,0.25253 0.438597,0.25252 0.797449,0.63796 0.358852,0.38543 0.624669,0.85061 0.279107,0.46518 0.451888,0.89048 l 2.046786,4.98406 2.086659,-4.98406 q 0.172781,-0.4253 0.438597,-0.89048 0.265817,-0.46518 0.624669,-0.85061 0.358852,-0.38544 0.797449,-0.63796 0.438597,-0.25253 0.97023,-0.25253 0.531633,0 0.97023,0.22595 0.451888,0.21265 0.757577,0.58479 0.305689,0.35885 0.478469,0.83732 0.172781,0.47847 0.172781,0.98352 v 7.20363 h -2.379057 v -7.20363 l -2.352475,5.14355 q -0.239235,0.53163 -0.47847,0.97023 -0.225944,0.42531 -0.518342,0.731 -0.279107,0.2924 -0.664541,0.45188 -0.372143,0.15949 -0.903776,0.15949 -0.465178,0 -0.850612,-0.21265 -0.385434,-0.19936 -0.704414,-0.51834 -0.31898,-0.33227 -0.571505,-0.74429 -0.239235,-0.4253 -0.425306,-0.85061 l -2.325894,-5.13026 z"
               style="font-style:normal;font-variant:normal;font-weight:bold;font-stretch:normal;font-family:'Terminator Real NFI';-inkscape-font-specification:'Terminator Real NFI Bold';fill:#002e80;fill-opacity:1;stroke-width:0.33227056px"
               id="path6132"
               inkscape:connector-curvature="0" />
          </g>
        </g>
      </g>
    </g>
  </g>
</svg>
