<?xml version="1.0" encoding="UTF-8" standalone="no"?>
<!-- Created with Inkscape (http://www.inkscape.org/) -->

<svg
   xmlns:dc="http://purl.org/dc/elements/1.1/"
   xmlns:cc="http://creativecommons.org/ns#"
   xmlns:rdf="http://www.w3.org/1999/02/22-rdf-syntax-ns#"
   xmlns:svg="http://www.w3.org/2000/svg"
   xmlns="http://www.w3.org/2000/svg"
   xmlns:xlink="http://www.w3.org/1999/xlink"
   xmlns:sodipodi="http://sodipodi.sourceforge.net/DTD/sodipodi-0.dtd"
   xmlns:inkscape="http://www.inkscape.org/namespaces/inkscape"
   width="377.95276"
   height="158.74016"
   viewBox="0 0 100 42"
   version="1.1"
   id="svg5385"
   inkscape:version="0.92.1 r15371"
   sodipodi:docname="daxmer.svg">
  <defs
     id="defs5379">
    <linearGradient
       id="id6-7"
       gradientUnits="userSpaceOnUse"
       x1="11098.8"
       y1="12313"
       x2="11098.8"
       y2="11632.6">
      <stop
         offset="0"
         style="stop-opacity:1; stop-color:#373736"
         id="stop42-2" />
      <stop
         offset="0.65098"
         style="stop-opacity:1; stop-color:#747574"
         id="stop44-7" />
      <stop
         offset="1"
         style="stop-opacity:1; stop-color:#B2B3B3"
         id="stop46-9" />
    </linearGradient>
    <linearGradient
       inkscape:collect="always"
       xlink:href="#id3"
       id="linearGradient4597"
       gradientUnits="userSpaceOnUse"
       x1="11750.7"
       y1="12219.5"
       x2="11382.5"
       y2="11726" />
    <linearGradient
       id="id3"
       gradientUnits="userSpaceOnUse"
       x1="11750.7"
       y1="12219.5"
       x2="11382.5"
       y2="11726">
      <stop
         offset="0"
         style="stop-opacity:1; stop-color:#2B2A29"
         id="stop23" />
      <stop
         offset="0.65098"
         style="stop-opacity:1; stop-color:#8B8B8A"
         id="stop25" />
      <stop
         offset="1"
         style="stop-opacity:1; stop-color:#EBECEC"
         id="stop27" />
    </linearGradient>
    <linearGradient
       id="id7-2"
       gradientUnits="userSpaceOnUse"
       xlink:href="#id3"
       x1="10760"
       y1="12415.5"
       x2="10492.4"
       y2="11518.5" />
    <linearGradient
       id="id1-2"
       gradientUnits="userSpaceOnUse"
       x1="11098.5"
       y1="11877.1"
       x2="11098.5"
       y2="12316.9">
      <stop
         offset="0"
         style="stop-opacity:1; stop-color:#2B2A29"
         id="stop11-4" />
      <stop
         offset="1"
         style="stop-opacity:1; stop-color:#434242"
         id="stop13-1" />
    </linearGradient>
    <linearGradient
       id="id0"
       gradientUnits="userSpaceOnUse"
       x1="10554.1"
       y1="9981.3096"
       x2="11643.5"
       y2="14011.9">
      <stop
         offset="0"
         style="stop-opacity:1; stop-color:#727271"
         id="stop4" />
      <stop
         offset="0.560784"
         style="stop-opacity:1; stop-color:#A5A6A5"
         id="stop6" />
      <stop
         offset="1"
         style="stop-opacity:1; stop-color:#D9DADA"
         id="stop8" />
    </linearGradient>
    <linearGradient
       id="id5"
       gradientUnits="userSpaceOnUse"
       x1="10157.1"
       y1="12878.4"
       x2="11842.9"
       y2="12878.4">
      <stop
         offset="0"
         style="stop-opacity:1; stop-color:#FEFEFE"
         id="stop37" />
      <stop
         offset="1"
         style="stop-opacity:1; stop-color:#D9DADA"
         id="stop39" />
    </linearGradient>
    <linearGradient
       id="id2"
       gradientUnits="userSpaceOnUse"
       x1="10666.2"
       y1="13597.4"
       x2="11531.5"
       y2="10395.9">
      <stop
         offset="0"
         style="stop-opacity:1; stop-color:#727271"
         id="stop16" />
      <stop
         offset="0.560784"
         style="stop-opacity:1; stop-color:#929292"
         id="stop18" />
      <stop
         offset="1"
         style="stop-opacity:1; stop-color:#B2B3B3"
         id="stop20" />
    </linearGradient>
    <linearGradient
       id="id10"
       gradientUnits="userSpaceOnUse"
       xlink:href="#id8"
       x1="11098.8"
       y1="12748.5"
       x2="11098.8"
       y2="11244.8" />
    <linearGradient
       id="id8"
       gradientUnits="userSpaceOnUse"
       x1="11075.5"
       y1="11505.6"
       x2="11122.2"
       y2="12487.7">
      <stop
         offset="0"
         style="stop-opacity:1; stop-color:#373736"
         id="stop50" />
      <stop
         offset="0.560784"
         style="stop-opacity:1; stop-color:#888888"
         id="stop52" />
      <stop
         offset="1"
         style="stop-opacity:1; stop-color:#D9DADA"
         id="stop54" />
    </linearGradient>
    <linearGradient
       id="id4"
       gradientUnits="userSpaceOnUse"
       x1="9945.4297"
       y1="10920.4"
       x2="12252.2"
       y2="13072.9">
      <stop
         offset="0"
         style="stop-opacity:1; stop-color:#727271"
         id="stop30" />
      <stop
         offset="0.560784"
         style="stop-opacity:1; stop-color:#9B9C9B"
         id="stop32" />
      <stop
         offset="1"
         style="stop-opacity:1; stop-color:#C5C6C6"
         id="stop34" />
    </linearGradient>
    <linearGradient
       id="id9"
       gradientUnits="userSpaceOnUse"
       x1="11098.8"
       y1="12708.9"
       x2="11098.8"
       y2="11284.4">
      <stop
         offset="0"
         style="stop-opacity:1; stop-color:#373736"
         id="stop57" />
      <stop
         offset="0.560784"
         style="stop-opacity:1; stop-color:#7E7E7E"
         id="stop59" />
      <stop
         offset="1"
         style="stop-opacity:1; stop-color:#C5C6C6"
         id="stop61" />
    </linearGradient>
    <linearGradient
       inkscape:collect="always"
       xlink:href="#id8"
       id="linearGradient4599"
       gradientUnits="userSpaceOnUse"
       x1="11075.5"
       y1="11505.6"
       x2="11122.2"
       y2="12487.7" />
  </defs>
  <sodipodi:namedview
     id="base"
     pagecolor="#ffffff"
     bordercolor="#666666"
     borderopacity="1.0"
     inkscape:pageopacity="0.0"
     inkscape:pageshadow="2"
     inkscape:zoom="1.4"
     inkscape:cx="91.689851"
     inkscape:cy="-80.978803"
     inkscape:document-units="mm"
     inkscape:current-layer="layer1"
     showgrid="false"
     units="px"
     inkscape:window-width="1920"
     inkscape:window-height="1017"
     inkscape:window-x="1912"
     inkscape:window-y="-8"
     inkscape:window-maximized="1" />
  <metadata
     id="metadata5382">
    <rdf:RDF>
      <cc:Work
         rdf:about="">
        <dc:format>image/svg+xml</dc:format>
        <dc:type
           rdf:resource="http://purl.org/dc/dcmitype/StillImage" />
        <dc:title />
      </cc:Work>
    </rdf:RDF>
  </metadata>
  <g
     inkscape:label="Layer 1"
     inkscape:groupmode="layer"
     id="layer1"
     transform="translate(0,-255)">
    <g
       id="g4655"
       transform="matrix(0.72312933,0,0,0.72312933,12.554383,42.269581)">
      <g
         style="clip-rule:evenodd;opacity:0.497;fill-rule:evenodd;image-rendering:optimizeQuality;shape-rendering:geometricPrecision;text-rendering:geometricPrecision"
         id="g4663"
         transform="matrix(0.01,0,0,0.01,-48.947277,210.2969)">
        <path
           class="fil0"
           d="m 11099,13976 c 1093,0 1979,-886 1979,-1979 0,-1094 -886,-1980 -1979,-1980 -1093,0 -1980,886 -1980,1980 0,1093 887,1979 1980,1979 z"
           id="path68"
           style="fill:url(#id0)"
           inkscape:connector-curvature="0" />
        <path
           class="fil1"
           d="m 11204,13887 c 61,-4 121,-10 180,-20 l -228,-1851 z m 266,-35 c 130,-27 254,-67 373,-118 l -620,-1504 z m -1313,-207 c 249,142 534,228 837,243 l 135,-2019 z"
           id="path70"
           style="fill:url(#id5)"
           inkscape:connector-curvature="0" />
        <path
           class="fil2"
           d="m 11099,10387 c 889,0 1610,721 1610,1610 0,889 -721,1609 -1610,1609 -889,0 -1610,-720 -1610,-1609 0,-889 721,-1610 1610,-1610 z"
           id="path72"
           style="fill:url(#id2)"
           inkscape:connector-curvature="0" />
        <path
           class="fil3"
           d="m 11099,10362 v 0 0 c 451,0 860,183 1155,479 296,296 479,704 479,1155 v 0 1 0 0 c 0,451 -183,860 -479,1155 -295,296 -704,479 -1155,479 v 0 0 0 0 c -452,0 -860,-183 -1156,-479 -295,-295 -478,-704 -478,-1155 h -1 v 0 0 h 1 c 0,-452 183,-860 478,-1156 296,-296 704,-479 1156,-479 z m 0,96 v 0 0 0 0 c -425,0 -809,172 -1088,451 -278,278 -451,663 -451,1088 v 0 0 0 0 c 0,424 173,809 451,1087 279,279 663,451 1088,451 v 0 0 0 0 c 424,0 809,-172 1088,-451 278,-278 451,-663 451,-1087 h -1 v 0 -1 h 1 c 0,-424 -173,-808 -451,-1087 -279,-279 -664,-451 -1088,-451 z"
           id="path74"
           style="fill:url(#id10);fill-rule:nonzero"
           inkscape:connector-curvature="0" />
        <polygon
           class="fil4"
           points="12502,11186 12502,12807 11099,13617 9695,12807 9695,11186 11099,10376 "
           id="polygon76"
           style="fill:url(#id4)" />
        <path
           class="fil5"
           d="m 11125,10316 1416,818 26,15 v 30 1635 31 l -26,15 -1416,817 -26,16 -27,-16 -1416,-817 -26,-15 v -31 -1635 -30 l 26,-15 1416,-818 27,-15 z m 1337,894 -1363,-787 -1363,787 v 1574 l 1363,787 1363,-787 z"
           id="path78"
           style="fill:url(#id9);fill-rule:nonzero"
           inkscape:connector-curvature="0" />
        <path
           class="fil10"
           d="m 11099,10760 v 0 1 c 341,0 651,138 874,362 224,223 362,532 362,873 v 0 1 0 0 c 0,341 -139,650 -362,874 -224,223 -533,362 -874,362 v 0 0 0 0 c -342,0 -651,-139 -874,-362 -224,-224 -362,-533 -362,-874 v 0 0 0 0 c 0,-342 138,-651 362,-875 223,-223 532,-361 874,-361 z m 0,143 v 1 0 0 -1 c -302,0 -575,123 -773,321 -198,198 -321,471 -321,773 h 1 v 0 0 h -1 c 1,301 123,575 321,773 198,198 471,320 773,320 v 0 0 0 0 c 302,0 575,-122 773,-320 198,-198 320,-472 320,-773 v 0 0 -1 0 c 0,-301 -122,-574 -320,-772 -198,-198 -471,-321 -773,-321 z"
           id="path88"
           style="fill:url(#linearGradient4599);fill-rule:nonzero"
           inkscape:connector-curvature="0" />
        <path
           class="fil11"
           d="m 9239,11680 c 226,-548 610,-978 1003,-1216 -24,-42 -47,-85 -71,-128 -427,262 -830,748 -932,1344 z"
           id="path90"
           inkscape:connector-curvature="0"
           style="fill:#fefefe" />
        <polygon
           class="fil12"
           points="9737,11193 11129,10390 11146,10405 9831,11250 9729,11872 "
           id="polygon92"
           style="fill:#ebecec" />
      </g>
      <path
         style="clip-rule:evenodd;fill:#25446c;fill-rule:evenodd;stroke-width:0.01;image-rendering:optimizeQuality;shape-rendering:geometricPrecision;text-rendering:geometricPrecision"
         inkscape:connector-curvature="0"
         id="path94"
         d="m 87.022738,325.79691 h 12.16 v 1.88 h -7.69 c -1.08,0 -2.01,0.68 -2.38,1.63 h 7.75 v 1.86 h -7.75 c 0.37,0.95 1.3,1.63 2.38,1.63 h 7.69 v 1.88 h -12.16 c -2.44,0 -4.439999,-2 -4.439999,-4.44 v 0 c 0,-2.44 1.999999,-4.44 4.439999,-4.44 z"
         class="fil13" />
      <path
         style="clip-rule:evenodd;fill:#c5c6c6;fill-rule:evenodd;stroke-width:0.01;image-rendering:optimizeQuality;shape-rendering:geometricPrecision;text-rendering:geometricPrecision"
         inkscape:connector-curvature="0"
         id="path96"
         d="m 84.932738,333.20691 c -1.829997,-0.42 -2.089998,-5.06 0.04,-6.02 0.61,-0.28 2.04,-1.02 3.49,-0.9 -0.14,0.32 -2.17,1.14 -2.72,1.56 -2.049998,1.6 -1.08,4.83 -0.81,5.36 z"
         class="fil14" />
      <path
         style="clip-rule:evenodd;fill:#25446c;fill-rule:nonzero;stroke-width:0.01;image-rendering:optimizeQuality;shape-rendering:geometricPrecision;text-rendering:geometricPrecision"
         inkscape:connector-curvature="0"
         id="path98"
         d="m 119.77275,334.64691 -4.29001,-3.42 h 0.91 c 0.38,0 0.75001,-0.06 1.09001,-0.2 0.34999,-0.13 0.64,-0.31 0.89999,-0.55 0.25001,-0.23 0.45001,-0.52 0.59001,-0.85 0.14999,-0.33 0.22,-0.69 0.22,-1.08 0,-0.38 -0.07,-0.74 -0.22,-1.08 -0.15,-0.34 -0.36001,-0.63 -0.61001,-0.87 -0.24999,-0.24 -0.55,-0.43 -0.89,-0.57 -0.32999,-0.14 -0.7,-0.21 -1.08,-0.21 h -14.95 v 8.85 h 5.5 v -6.8 h 5.07 c 0.35,0 0.61,0.08 0.78,0.25 0.17,0.17 0.25,0.36 0.25,0.56 0,0.21 -0.09,0.39 -0.25999,0.56 -0.18001,0.17 -0.43,0.25 -0.77001,0.25 h -4.01999 l 6.14999,5.16 z"
         class="fil15" />
      <path
         style="clip-rule:evenodd;fill:#c5c6c6;fill-rule:evenodd;stroke-width:0.01;image-rendering:optimizeQuality;shape-rendering:geometricPrecision;text-rendering:geometricPrecision"
         inkscape:connector-curvature="0"
         id="path100"
         d="m 102.29274,333.91691 c -0.37,-0.64 -0.31,-6.81 0.24,-7.25 0.53,-0.42 3.1,-0.35 4.00001,-0.17 -0.15001,0.32 -2.80001,0.55 -3.22001,1.11 -0.42,0.55 -0.79,5.61 -1.02,6.31 z"
         class="fil14" />
      <path
         style="clip-rule:evenodd;fill:#25446c;fill-rule:evenodd;stroke-width:0.01;image-rendering:optimizeQuality;shape-rendering:geometricPrecision;text-rendering:geometricPrecision"
         inkscape:connector-curvature="0"
         id="path102"
         d="m -16.207272,325.56691 v 8.85 c 4.590001,0 9.1800012,0 13.7800021,0 2.44000005,0 4.44,-1.99 4.44,-4.44 v 0 c 0,-2.44 -1.99999995,-4.44 -4.44,-4.44 -4.6000009,0 -9.2200011,0.03 -13.7800021,0.03 z m 5.560001,6.97 v -5.12 h 3.7400001 c 1.08,0 2.02,0.68 2.39,1.63 h -0.01 c 0.12,0.29 0.18,0.61 0.18,0.94 v 0 c 0,0.32 -0.06,0.63 -0.18,0.92 h 0.01 c -0.37,0.95 -1.31,1.63 -2.39,1.63 z"
         class="fil16" />
      <path
         style="clip-rule:evenodd;fill:#c5c6c6;fill-rule:evenodd;stroke-width:0.01;image-rendering:optimizeQuality;shape-rendering:geometricPrecision;text-rendering:geometricPrecision"
         inkscape:connector-curvature="0"
         id="path104"
         d="m -15.287272,333.73691 c -0.38,-0.63 -0.31,-6.81 0.24,-7.25 0.52,-0.42 3.090001,-0.35 3.990001,-0.17 -0.15,0.32 -2.800001,0.55 -3.220001,1.11 -0.41,0.55 -0.79,5.61 -1.01,6.31 z"
         class="fil14" />
      <polygon
         style="clip-rule:evenodd;fill:#25446c;fill-rule:evenodd;image-rendering:optimizeQuality;shape-rendering:geometricPrecision;text-rendering:geometricPrecision"
         id="polygon106"
         points="7906,12130 7905,12129 7435,12408 7089,12408 7754,12013 7752,12007 7141,11523 7855,11523 8165,11769 8169,11768 8168,11768 8578,11524 8924,11524 8313,11887 8972,12409 8258,12409 "
         class="fil13"
         transform="matrix(0.01,0,0,0.01,-48.947277,210.2969)" />
      <path
         style="clip-rule:evenodd;fill:#c5c6c6;fill-rule:evenodd;stroke-width:0.01;image-rendering:optimizeQuality;shape-rendering:geometricPrecision;text-rendering:geometricPrecision"
         inkscape:connector-curvature="0"
         id="path108"
         d="m 33.992735,330.21691 c -0.13,-0.44 -3.820001,-3.82 -4.710001,-4.12 -0.850001,-0.3 -3.370001,-0.25 -4.120002,-0.12 0.390001,0.22 3.09,0.6 3.950002,0.99 0.839999,0.38 4.11,2.77 4.880001,3.25 z"
         class="fil14" />
      <path
         style="clip-rule:evenodd;fill:#25446c;fill-rule:nonzero;stroke-width:0.01;image-rendering:optimizeQuality;shape-rendering:geometricPrecision;text-rendering:geometricPrecision"
         inkscape:connector-curvature="0"
         id="path110"
         d="m 8.8927311,329.30691 h 6.9899999 v -1.63 H 9.7327311 c -0.56,0 -0.84,0.33 -0.84,0.98 z m 0,1.73 v 3.44 h -5.530001 v -4.62 c 0,-3.22 2.790001,-4.22 4.420001,-4.22 H 21.432731 v 8.84 h -5.55 v -3.44 z"
         class="fil15" />
      <path
         style="clip-rule:evenodd;fill:#c5c6c6;fill-rule:evenodd;stroke-width:0.01;image-rendering:optimizeQuality;shape-rendering:geometricPrecision;text-rendering:geometricPrecision"
         inkscape:connector-curvature="0"
         id="path112"
         d="m 4.1927301,333.71691 c -0.38,-0.64 -0.52,-5.69 0.730001,-6.53 0.559999,-0.37 2.04,-1.01 3.5,-0.89 -0.15,0.32 -2.25,1.01 -2.720001,1.52 -1.22,1.32 -1.29,5.2 -1.51,5.9 z"
         class="fil14" />
      <g
         transform="matrix(0.01,0,0,0.01,-48.920255,210.5406)"
         id="g4652"
         style="clip-rule:evenodd;fill-rule:evenodd;image-rendering:optimizeQuality;shape-rendering:geometricPrecision;text-rendering:geometricPrecision">
        <path
           class="fil6"
           d="m 10697,12420 h -539 v -619 c 0,-152 122,-276 270,-276 h 161 c 38,0 71,20 90,51 l 418,428 436,-447 v 0 c 20,-20 46,-32 76,-32 h 161 c 148,0 269,124 269,276 v 619 h -538 v -533 c -135,138 -269,276 -404,414 -133,-137 -267,-274 -400,-411 z"
           id="path80"
           style="fill:url(#id6-7)"
           inkscape:connector-curvature="0" />
        <path
           class="fil7"
           d="m 11094,12001 3,3 436,-447 v 0 c 20,-20 46,-32 76,-32 h 161 c 148,0 269,124 269,276 v 619 h -6 l -2,-9 -82,-75 c 0,-178 0,-380 0,-558 -35,-104 -136,-214 -344,-160 l -511,498 z"
           id="path82"
           style="fill:url(#linearGradient4597)"
           inkscape:connector-curvature="0" />
        <path
           class="fil8"
           d="m 10158,12409 v -608 c 0,-152 121,-276 270,-276 h 161 c 38,0 71,20 90,51 l 415,425 v 115 l -511,-498 c -208,-54 -309,56 -344,160 0,178 0,381 0,559 z"
           id="path84"
           style="fill:url(#id7-2)"
           inkscape:connector-curvature="0" />
        <path
           class="fil9"
           d="m 10697,12420 h -539 v -6 l 87,-79 h 410 l -6,-561 447,459 452,-456 v 556 h 403 l 87,87 h -537 v -533 c -135,138 -269,276 -404,414 -133,-137 -267,-274 -400,-411 z"
           id="path86"
           style="fill:url(#id1-2)"
           inkscape:connector-curvature="0" />
      </g>
    </g>
  </g>
</svg>
