<?xml version="1.0" encoding="UTF-8" standalone="no"?>
<!-- Created with Inkscape (http://www.inkscape.org/) -->

<svg
   xmlns:dc="http://purl.org/dc/elements/1.1/"
   xmlns:cc="http://creativecommons.org/ns#"
   xmlns:rdf="http://www.w3.org/1999/02/22-rdf-syntax-ns#"
   xmlns:svg="http://www.w3.org/2000/svg"
   xmlns="http://www.w3.org/2000/svg"
   xmlns:sodipodi="http://sodipodi.sourceforge.net/DTD/sodipodi-0.dtd"
   xmlns:inkscape="http://www.inkscape.org/namespaces/inkscape"
   width="377.95276"
   height="158.74016"
   viewBox="0 0 100 42"
   version="1.1"
   id="svg5385"
   inkscape:version="0.92.1 r15371"
   sodipodi:docname="fgl.svg">
  <defs
     id="defs5379" />
  <sodipodi:namedview
     id="base"
     pagecolor="#ffffff"
     bordercolor="#666666"
     borderopacity="1.0"
     inkscape:pageopacity="0.0"
     inkscape:pageshadow="2"
     inkscape:zoom="1.979899"
     inkscape:cx="142.31671"
     inkscape:cy="15.880033"
     inkscape:document-units="mm"
     inkscape:current-layer="layer1"
     showgrid="false"
     units="px"
     inkscape:window-width="1920"
     inkscape:window-height="1017"
     inkscape:window-x="1912"
     inkscape:window-y="-8"
     inkscape:window-maximized="1" />
  <metadata
     id="metadata5382">
    <rdf:RDF>
      <cc:Work
         rdf:about="">
        <dc:format>image/svg+xml</dc:format>
        <dc:type
           rdf:resource="http://purl.org/dc/dcmitype/StillImage" />
        <dc:title />
      </cc:Work>
    </rdf:RDF>
  </metadata>
  <g
     inkscape:label="Layer 1"
     inkscape:groupmode="layer"
     id="layer1"
     transform="translate(0,-255)">
    <g
       transform="matrix(0.01081563,0,0,0.01081563,-66.91479,94.826321)"
       style="clip-rule:evenodd;fill-rule:evenodd;stroke:none;image-rendering:optimizeQuality;shape-rendering:geometricPrecision;text-rendering:geometricPrecision"
       id="g23">
      <path
         style="fill:none;fill-rule:nonzero;stroke:none;stroke-width:50;stroke-linecap:round;stroke-linejoin:round"
         inkscape:connector-curvature="0"
         id="path20"
         d="m 7315,16060 -15,128 c -3,28 -6,65 -10,112 l -7,89 -11,12 h -65 l -11,-11 c -1,-101 -7,-158 -18,-172 -17,-24 -121,-35 -312,-35 -31,0 -79,2 -145,6 -8,77 -12,213 -12,411 v 151 l 127,3 c 38,1 108,-1 211,-5 21,0 34,-6 40,-16 12,-18 18,-67 21,-148 l 11,-11 h 69 l 11,11 c -3,83 -4,160 -4,229 0,76 1,158 4,248 l -11,10 h -75 l -11,-11 c 0,-78 -3,-124 -10,-138 -13,-26 -51,-42 -115,-47 -44,-4 -88,-5 -130,-5 -52,0 -97,1 -138,3 v 266 c 0,177 5,293 15,347 3,22 16,36 38,42 5,1 58,5 160,11 l 11,11 v 75 l -12,12 -450,-7 c -65,-1 -153,1 -267,7 l -11,-11 v -76 l 11,-11 c 76,-4 120,-8 131,-11 22,-6 34,-20 38,-42 10,-54 15,-170 15,-347 v -592 c 0,-177 -5,-293 -15,-347 -4,-22 -16,-36 -38,-42 -11,-2 -55,-6 -131,-11 l -11,-11 v -76 l 11,-10 c 72,4 187,7 345,7 102,0 354,-3 755,-7 z m 915,78 -11,10 c -77,5 -120,9 -131,11 -22,6 -35,20 -39,42 -9,54 -14,170 -14,347 v 833 c 0,150 -16,267 -48,351 -37,95 -102,184 -197,267 -104,91 -203,137 -298,137 -32,0 -62,-6 -92,-17 4,-56 6,-125 6,-207 l 25,-16 c 61,55 114,82 161,82 64,0 100,-34 107,-102 10,-88 14,-220 14,-397 v -931 c 0,-177 -4,-293 -14,-347 -4,-22 -17,-36 -38,-42 -5,-1 -58,-5 -157,-11 l -11,-11 v -76 l 11,-10 c 103,4 226,7 370,7 162,0 277,-3 345,-7 l 11,10 z m 1940,1119 c -16,109 -24,232 -24,369 l -12,12 -814,-7 c -136,0 -232,2 -287,7 l -12,-12 v -31 l 6,-14 c 55,-35 85,-57 89,-66 7,-13 11,-63 13,-148 l 3,-251 v -568 c 0,-178 -5,-294 -14,-347 -4,-22 -17,-36 -38,-42 -12,-2 -55,-6 -131,-11 l -11,-11 v -76 l 11,-10 c 76,4 189,7 338,7 153,0 270,-3 350,-7 l 11,10 v 77 l -11,10 c -76,5 -120,9 -131,11 -22,6 -34,20 -38,42 -10,53 -15,169 -15,347 v 670 c 0,97 2,192 6,284 h 152 c 218,0 352,-9 401,-26 8,-3 14,-7 18,-12 7,-11 15,-33 22,-67 l 26,-139 11,-13 h 69 z m 887,369 -10,12 c -75,-5 -190,-7 -346,-7 -155,0 -270,2 -345,7 l -10,-12 v -75 l 11,-11 c 76,-4 120,-8 131,-11 22,-6 34,-20 38,-42 10,-54 15,-169 15,-347 v -592 c 0,-178 -5,-294 -15,-347 -4,-22 -16,-36 -38,-42 -11,-2 -55,-6 -131,-11 l -11,-11 v -76 l 11,-10 c 72,4 187,7 345,7 157,0 272,-3 344,-7 l 11,10 v 76 l -11,11 c -76,5 -120,9 -131,11 -22,6 -34,20 -38,42 -10,53 -15,169 -15,347 v 592 c 0,178 5,293 15,347 4,22 16,36 38,42 11,3 55,7 131,11 l 11,11 z m 1927,-1489 -13,11 c -76,5 -119,9 -130,11 -22,6 -35,20 -39,42 -9,53 -14,169 -14,347 v 454 c 0,336 5,554 14,655 l -14,11 c -85,-14 -148,-25 -192,-30 -199,-225 -541,-635 -1024,-1230 v 732 c 0,178 5,293 14,347 4,22 17,36 39,42 11,3 55,7 131,11 l 11,11 v 76 l -11,11 c -86,-5 -166,-7 -240,-7 -86,0 -172,2 -259,7 l -11,-11 v -76 l 11,-11 c 76,-4 120,-8 131,-11 22,-6 35,-20 39,-42 9,-54 14,-169 14,-347 v -592 c 0,-178 -5,-294 -14,-347 -4,-22 -17,-36 -39,-42 -11,-2 -55,-6 -131,-11 l -11,-11 v -76 l 11,-10 c 71,4 139,7 203,7 101,0 184,-3 251,-7 269,358 584,742 947,1152 v -655 c 0,-178 -5,-294 -15,-347 -3,-22 -16,-36 -38,-42 -11,-2 -54,-6 -130,-11 l -12,-11 v -76 l 12,-10 c 83,4 162,7 238,7 96,0 183,-3 260,-7 l 11,10 z m 1378,1120 c -16,109 -24,232 -24,369 l -12,12 -814,-7 c -135,0 -231,2 -287,7 l -12,-12 v -31 l 6,-14 c 55,-35 85,-57 89,-66 7,-14 12,-64 13,-148 l 3,-251 v -568 c 0,-178 -4,-294 -14,-347 -4,-22 -17,-36 -38,-42 -12,-2 -55,-6 -131,-11 l -11,-11 v -76 l 11,-10 c 75,4 192,7 349,7 140,0 407,-3 801,-7 l 12,9 -15,124 c -4,40 -8,73 -10,101 l -8,104 -11,12 h -65 l -11,-11 c -1,-102 -7,-159 -18,-173 -8,-11 -48,-19 -120,-25 -72,-6 -135,-9 -190,-9 -65,0 -131,3 -197,8 -8,78 -12,187 -12,326 v 231 c 58,4 106,6 143,6 l 147,-1 c 68,-1 107,-6 116,-17 12,-13 20,-64 24,-151 l 11,-11 h 69 l 11,11 c -2,83 -4,160 -4,229 0,76 2,158 4,248 l -11,10 h -75 l -11,-11 c 0,-86 -6,-137 -18,-153 -12,-16 -48,-27 -109,-32 -45,-4 -94,-5 -145,-5 -55,0 -105,1 -152,5 v 342 c 0,97 1,192 5,284 h 152 c 218,0 352,-9 401,-26 8,-3 14,-7 18,-12 8,-11 15,-33 22,-67 l 26,-139 12,-13 h 68 z"
         class="fil4 str0" />
      <path
         style="fill:#0372b4;fill-rule:nonzero;stroke:none"
         inkscape:connector-curvature="0"
         d="m 7315,16060 -15,128 c -3,28 -6,65 -10,112 l -7,89 -11,12 h -65 l -11,-11 c -1,-101 -7,-158 -18,-172 -17,-24 -121,-35 -312,-35 -31,0 -79,2 -145,6 -8,77 -12,213 -12,411 v 151 l 127,3 c 38,1 108,-1 211,-5 21,0 34,-6 40,-16 12,-18 18,-67 21,-148 l 11,-11 h 69 l 11,11 c -3,83 -4,160 -4,229 0,76 1,158 4,248 l -11,10 h -75 l -11,-11 c 0,-78 -3,-124 -10,-138 -13,-26 -51,-42 -115,-47 -44,-4 -88,-5 -130,-5 -52,0 -97,1 -138,3 v 266 c 0,177 5,293 15,347 3,22 16,36 38,42 5,1 58,5 160,11 l 11,11 v 75 l -12,12 -450,-7 c -65,-1 -153,1 -267,7 l -11,-11 v -76 l 11,-11 c 76,-4 120,-8 131,-11 22,-6 34,-20 38,-42 10,-54 15,-170 15,-347 v -592 c 0,-177 -5,-293 -15,-347 -4,-22 -16,-36 -38,-42 -11,-2 -55,-6 -131,-11 l -11,-11 v -76 l 11,-10 c 72,4 187,7 345,7 102,0 354,-3 755,-7 z m 915,78 -11,10 c -77,5 -120,9 -131,11 -22,6 -35,20 -39,42 -9,54 -14,170 -14,347 v 833 c 0,150 -16,267 -48,351 -37,95 -102,184 -197,267 -104,91 -203,137 -298,137 -32,0 -62,-6 -92,-17 4,-56 6,-125 6,-207 l 25,-16 c 61,55 114,82 161,82 64,0 100,-34 107,-102 10,-88 14,-220 14,-397 v -931 c 0,-177 -4,-293 -14,-347 -4,-22 -17,-36 -38,-42 -5,-1 -58,-5 -157,-11 l -11,-11 v -76 l 11,-10 c 103,4 226,7 370,7 162,0 277,-3 345,-7 l 11,10 z m 1940,1119 c -16,109 -24,232 -24,369 l -12,12 -814,-7 c -136,0 -232,2 -287,7 l -12,-12 v -31 l 6,-14 c 55,-35 85,-57 89,-66 7,-13 11,-63 13,-148 l 3,-251 v -568 c 0,-178 -5,-294 -14,-347 -4,-22 -17,-36 -38,-42 -12,-2 -55,-6 -131,-11 l -11,-11 v -76 l 11,-10 c 76,4 189,7 338,7 153,0 270,-3 350,-7 l 11,10 v 77 l -11,10 c -76,5 -120,9 -131,11 -22,6 -34,20 -38,42 -10,53 -15,169 -15,347 v 670 c 0,97 2,192 6,284 h 152 c 218,0 352,-9 401,-26 8,-3 14,-7 18,-12 7,-11 15,-33 22,-67 l 26,-139 11,-13 h 69 z m 887,369 -10,12 c -75,-5 -190,-7 -346,-7 -155,0 -270,2 -345,7 l -10,-12 v -75 l 11,-11 c 76,-4 120,-8 131,-11 22,-6 34,-20 38,-42 10,-54 15,-169 15,-347 v -592 c 0,-178 -5,-294 -15,-347 -4,-22 -16,-36 -38,-42 -11,-2 -55,-6 -131,-11 l -11,-11 v -76 l 11,-10 c 72,4 187,7 345,7 157,0 272,-3 344,-7 l 11,10 v 76 l -11,11 c -76,5 -120,9 -131,11 -22,6 -34,20 -38,42 -10,53 -15,169 -15,347 v 592 c 0,178 5,293 15,347 4,22 16,36 38,42 11,3 55,7 131,11 l 11,11 z m 1927,-1489 -13,11 c -76,5 -119,9 -130,11 -22,6 -35,20 -39,42 -9,53 -14,169 -14,347 v 454 c 0,336 5,554 14,655 l -14,11 c -85,-14 -148,-25 -192,-30 -199,-225 -541,-635 -1024,-1230 v 732 c 0,178 5,293 14,347 4,22 17,36 39,42 11,3 55,7 131,11 l 11,11 v 76 l -11,11 c -86,-5 -166,-7 -240,-7 -86,0 -172,2 -259,7 l -11,-11 v -76 l 11,-11 c 76,-4 120,-8 131,-11 22,-6 35,-20 39,-42 9,-54 14,-169 14,-347 v -592 c 0,-178 -5,-294 -14,-347 -4,-22 -17,-36 -39,-42 -11,-2 -55,-6 -131,-11 l -11,-11 v -76 l 11,-10 c 71,4 139,7 203,7 101,0 184,-3 251,-7 269,358 584,742 947,1152 v -655 c 0,-178 -5,-294 -15,-347 -3,-22 -16,-36 -38,-42 -11,-2 -54,-6 -130,-11 l -12,-11 v -76 l 12,-10 c 83,4 162,7 238,7 96,0 183,-3 260,-7 l 11,10 z m 1378,1120 c -16,109 -24,232 -24,369 l -12,12 -814,-7 c -135,0 -231,2 -287,7 l -12,-12 v -31 l 6,-14 c 55,-35 85,-57 89,-66 7,-14 12,-64 13,-148 l 3,-251 v -568 c 0,-178 -4,-294 -14,-347 -4,-22 -17,-36 -38,-42 -12,-2 -55,-6 -131,-11 l -11,-11 v -76 l 11,-10 c 75,4 192,7 349,7 140,0 407,-3 801,-7 l 12,9 -15,124 c -4,40 -8,73 -10,101 l -8,104 -11,12 h -65 l -11,-11 c -1,-102 -7,-159 -18,-173 -8,-11 -48,-19 -120,-25 -72,-6 -135,-9 -190,-9 -65,0 -131,3 -197,8 -8,78 -12,187 -12,326 v 231 c 58,4 106,6 143,6 l 147,-1 c 68,-1 107,-6 116,-17 12,-13 20,-64 24,-151 l 11,-11 h 69 l 11,11 c -2,83 -4,160 -4,229 0,76 2,158 4,248 l -11,10 h -75 l -11,-11 c 0,-86 -6,-137 -18,-153 -12,-16 -48,-27 -109,-32 -45,-4 -94,-5 -145,-5 -55,0 -105,1 -152,5 v 342 c 0,97 1,192 5,284 h 152 c 218,0 352,-9 401,-26 8,-3 14,-7 18,-12 8,-11 15,-33 22,-67 l 26,-139 12,-13 h 68 z"
         class="fil5"
         id="1" />
    </g>
    <path
       style="clip-rule:evenodd;fill:#0372b4;fill-rule:nonzero;stroke:none;stroke-width:0.01081563;image-rendering:optimizeQuality;shape-rendering:geometricPrecision;text-rendering:geometricPrecision"
       inkscape:connector-curvature="0"
       id="path25"
       d="m 89.132943,264.1448 v -1.20053 h 4.2938 v 1.20053 h -0.346099 c -0.01082,-0.3461 -0.09734,-0.56241 -0.24876,-0.65975 -0.15142,-0.10815 -0.356916,-0.15142 -0.605675,-0.15142 h -0.508334 v 3.50426 c 0,0.17305 0.01082,0.2812 0.05408,0.33528 0.04327,0.0432 0.08652,0.0757 0.151419,0.10817 0.06489,0.0324 0.227129,0.0541 0.486701,0.0756 v 0.30283 h -2.303724 v -0.30283 c 0.313652,-0.0216 0.519149,-0.0756 0.605673,-0.16224 0.09734,-0.0865 0.15142,-0.21631 0.15142,-0.40016 v -3.46101 h -0.519151 c -0.367731,0 -0.605672,0.0649 -0.703014,0.21631 -0.108157,0.1406 -0.151418,0.33529 -0.151418,0.59486 z m 6.478557,-1.20053 1.384396,3.25549 1.384401,-3.25549 h 1.568263 v 0.29203 h -0.216309 c -0.118974,0 -0.205498,0.0109 -0.248761,0.0325 -0.04327,0.0216 -0.0649,0.0541 -0.08652,0.0973 -0.01082,0.0432 -0.01082,0.12979 -0.01082,0.2812 v 3.14736 c 0,0.25957 0.02163,0.41098 0.08652,0.45425 0.06489,0.054 0.227128,0.0865 0.475886,0.10815 v 0.30283 h -2.033334 v -0.30283 c 0.227127,0 0.378544,-0.0216 0.465072,-0.0756 0.08652,-0.0541 0.118972,-0.21632 0.118972,-0.4867 v -3.24469 L 96.812028,267.66 H 96.693056 L 94.9193,263.55007 v 3.32039 c 0,0.16223 0.02163,0.2812 0.06489,0.33528 0.03245,0.0648 0.0757,0.0974 0.129787,0.11898 0.0649,0.0108 0.183866,0.0216 0.389362,0.0324 v 0.30283 h -1.525001 v -0.30283 c 0.205498,-0.0107 0.356915,-0.0324 0.443438,-0.0648 0.08652,-0.0432 0.140604,-0.18387 0.140604,-0.42181 v -3.32039 c 0,-0.10816 -0.01082,-0.17305 -0.02163,-0.2055 0,-0.0325 -0.03245,-0.0541 -0.0757,-0.0756 -0.04327,-0.0216 -0.118973,-0.0325 -0.227131,-0.0325 h -0.162237 v -0.29203 z"
       class="fil5" />
  </g>
</svg>
