<?xml version="1.0" encoding="UTF-8" standalone="no"?>
<!-- Created with Inkscape (http://www.inkscape.org/) -->

<svg
   xmlns:dc="http://purl.org/dc/elements/1.1/"
   xmlns:cc="http://creativecommons.org/ns#"
   xmlns:rdf="http://www.w3.org/1999/02/22-rdf-syntax-ns#"
   xmlns:svg="http://www.w3.org/2000/svg"
   xmlns="http://www.w3.org/2000/svg"
   xmlns:sodipodi="http://sodipodi.sourceforge.net/DTD/sodipodi-0.dtd"
   xmlns:inkscape="http://www.inkscape.org/namespaces/inkscape"
   width="377.95276"
   height="158.74016"
   viewBox="0 0 100 42"
   version="1.1"
   id="svg5385"
   inkscape:version="0.92.1 r15371"
   sodipodi:docname="fgl.svg">
  <defs
     id="defs5379" />
  <sodipodi:namedview
     id="base"
     pagecolor="#ffffff"
     bordercolor="#666666"
     borderopacity="1.0"
     inkscape:pageopacity="0.0"
     inkscape:pageshadow="2"
     inkscape:zoom="0.35"
     inkscape:cx="355.93896"
     inkscape:cy="-473.09229"
     inkscape:document-units="mm"
     inkscape:current-layer="layer1"
     showgrid="false"
     units="px"
     inkscape:window-width="1920"
     inkscape:window-height="1017"
     inkscape:window-x="1912"
     inkscape:window-y="-8"
     inkscape:window-maximized="1" />
  <metadata
     id="metadata5382">
    <rdf:RDF>
      <cc:Work
         rdf:about="">
        <dc:format>image/svg+xml</dc:format>
        <dc:type
           rdf:resource="http://purl.org/dc/dcmitype/StillImage" />
        <dc:title />
      </cc:Work>
    </rdf:RDF>
  </metadata>
  <g
     inkscape:label="Layer 1"
     inkscape:groupmode="layer"
     id="layer1"
     transform="translate(0,-255)">
    <g
       id="g5301"
       transform="matrix(0.16395348,0,0,0.16395348,-214.11724,269.95526)">
      <path
         style="fill:#a4cff3;stroke-width:0.26458335"
         d="m 1396.4667,153.57336 c -0.9793,-0.25544 -1.8633,-0.54716 -1.9644,-0.64827 -0.2052,-0.20523 -0.1804,-3.33185 0.075,-9.383 0.1644,-3.90327 0.1933,-4.06202 0.8315,-4.56406 0.3637,-0.28608 0.8305,-0.52014 1.0373,-0.52014 0.2069,0 1.1118,0.59528 2.011,1.32284 1.9997,1.61803 4.6093,3.00031 6.492,3.43868 2.4307,0.56599 5.1641,-0.11121 6.5813,-1.63053 2.3157,-2.48259 2.4548,-5.8012 2.4551,-58.561199 3e-4,-48.898004 -0.1001,-52.061114 -1.7001,-53.564204 -0.7097,-0.666718 -2.2625,-0.914368 -7.5554,-1.204944 -4.5175,-0.248008 -4.4979,-0.23254 -4.4979,-3.558678 0,-3.672898 -0.1565,-3.567507 4.944,-3.33039 5.0962,0.236924 34.632,0.243396 38.4076,0.0084 3.7686,-0.234537 3.8458,-0.17593 3.9684,3.009318 0.085,2.217587 0.047,2.433457 -0.5291,3.009387 -0.5626,0.561959 -1.0025,0.650435 -4.6671,0.938747 -4.5273,0.356179 -5.452,0.668237 -6.0219,2.032132 -0.8819,2.110854 -0.9857,6.080241 -1.1789,45.11959 -0.1979,39.968311 -0.2016,40.096431 -1.339,46.169801 -1.6941,9.04543 -6.5308,16.9629 -14.5282,23.78175 -8.3083,7.08393 -16.1428,9.87664 -22.8208,8.13476 z m 9.1889,-0.69246 c 2.3443,-0.63193 7.0776,-3.02345 9.7735,-4.93809 2.7174,-1.92985 8.0422,-6.94977 10.0895,-9.51178 5.5568,-6.95355 7.9734,-13.70178 8.8397,-24.68396 0.1622,-2.05567 0.2694,-16.148399 0.2698,-35.454167 5e-4,-30.416966 0.2089,-42.304095 0.8095,-46.197515 0.5057,-3.27827 1.3869,-3.812985 6.9951,-4.244494 3.053,-0.234902 4.0451,-0.402621 4.2995,-0.726839 0.4013,-0.511474 0.455,-4.710227 0.063,-4.952328 -0.1471,-0.09092 -10.5169,-0.175898 -23.0439,-0.188844 -19.2896,-0.01992 -22.8126,0.03336 -23.0118,0.348131 -0.4076,0.643715 -0.2941,4.384302 0.1464,4.824743 0.2693,0.269293 1.2715,0.443246 3.2411,0.562576 7.332,0.444201 8.3879,0.714216 9.1587,2.342028 0.9932,2.0975 1.0477,4.39225 1.1615,48.866278 0.1432,55.977841 -0.037,60.293691 -2.6311,62.946801 -1.1013,1.12647 -2.0517,1.59492 -3.8193,1.88261 -2.7966,0.45515 -5.8084,-0.59885 -9.3515,-3.27253 -1.0907,-0.82305 -2.1098,-1.49646 -2.2646,-1.49646 -0.1548,0 -0.5125,0.16873 -0.795,0.37495 -0.4755,0.34712 -0.5251,0.84321 -0.6686,6.68073 -0.085,3.46818 -0.064,6.41016 0.047,6.53773 0.8422,0.9685 7.5174,1.15608 10.6915,0.30043 z m 328.2156,-28.85391 c -1.0914,-0.18892 -3.5917,-0.59484 -5.5562,-0.90206 -1.9645,-0.30723 -3.7657,-0.61781 -4.0026,-0.6902 -1.1577,-0.3537 -28.5286,-32.898924 -55.9342,-66.508281 l -8.7226,-10.697067 -0.081,26.307484 c -0.1023,33.090674 0.1948,40.995294 1.5977,42.505534 0.7906,0.85117 1.7584,1.08179 5.7757,1.37638 1.9734,0.14471 3.7982,0.34378 4.0552,0.4424 0.6892,0.26447 0.9558,1.22522 0.9558,3.44367 0,1.77198 -0.071,2.05026 -0.679,2.65817 -0.5474,0.5474 -0.8399,0.64681 -1.5095,0.51289 -1.5717,-0.31433 -19.3825,-0.46769 -24.799,-0.21353 -6.9318,0.32528 -6.6145,0.47427 -6.6145,-3.10627 0,-1.95287 0.099,-2.71995 0.3888,-3.0097 0.3909,-0.39085 1.4305,-0.54408 5.8289,-0.85918 1.3097,-0.0938 2.8415,-0.3546 3.404,-0.57949 2.4035,-0.96086 2.4168,-1.19674 2.4168,-42.924851 0,-41.137759 -0.023,-41.579169 -2.2349,-42.722926 -0.476,-0.246186 -2.2697,-0.514334 -4.6918,-0.701418 -2.3827,-0.184031 -4.1548,-0.447061 -4.5165,-0.670361 -0.5559,-0.34316 -0.5953,-0.550448 -0.5953,-3.130212 0,-2.440091 0.058,-2.794026 0.5009,-3.030826 0.3311,-0.177181 2.6866,-0.195122 6.9453,-0.05289 3.5444,0.118366 9.9522,0.129188 14.2395,0.02405 4.2874,-0.10514 7.9333,-0.138162 8.1021,-0.07339 0.1688,0.06478 0.708,0.676431 1.1983,1.359231 2.9809,4.152143 15.7769,20.47381 22.9607,29.287288 12.0442,14.776259 34.7007,41.335489 35.3065,41.388099 0.1215,0.01056 0.1658,-12.631198 0.098,-28.092787 -0.1465,-33.624994 -0.2471,-35.250509 -2.246,-36.284152 -0.4808,-0.248637 -2.3317,-0.529479 -4.8495,-0.735814 -5.1894,-0.425294 -5.2625,-0.477766 -5.2625,-3.779991 0,-1.951405 0.077,-2.337845 0.5614,-2.822326 0.5363,-0.536374 0.7153,-0.552821 4.0248,-0.369787 4.3293,0.239434 19.6814,0.242472 24.4893,0.0048 4.7512,-0.234823 4.6821,-0.283263 4.5919,3.220447 -0.087,3.371051 -0.1118,3.393329 -4.0864,3.649649 -4.2155,0.27186 -5.7513,0.562356 -6.4517,1.220359 -1.6442,1.544633 -1.8142,5.722636 -1.7756,43.635831 0.029,28.880747 0.2871,45.188127 0.7741,48.983967 0.1314,1.024 0.065,1.31908 -0.4019,1.78594 -0.6264,0.62642 -0.4957,0.62025 -3.2051,0.15127 z m 2.8845,-0.48673 c 0.2283,-0.27509 0.2213,-1.60092 -0.028,-5.35781 -0.4886,-7.35466 -0.4832,-80.283525 0.01,-84.365376 0.6029,-5.027277 1.1242,-5.484326 6.7794,-5.943545 1.8698,-0.151831 3.612,-0.276058 3.8715,-0.276058 0.9967,0 1.3034,-0.716833 1.3034,-3.045992 0,-1.383956 -0.1142,-2.284997 -0.3044,-2.402567 -0.3978,-0.245843 -31.8017,-0.245843 -32.1995,0 -0.4332,0.267742 -0.4101,4.76772 0.026,5.126421 0.1819,0.1495 2.1084,0.409583 4.2811,0.577958 6.5717,0.509284 6.7477,0.696632 7.3405,7.813972 0.441,5.294641 0.4968,58.37957 0.062,58.525025 -0.4447,0.148577 -14.6803,-16.198305 -27.1385,-31.163398 -10.2033,-12.256324 -20.055,-24.617927 -30.5314,-38.309752 l -2.1012,-2.746042 -14.5127,-0.0043 c -12.1303,-0.0036 -14.5512,0.05629 -14.7465,0.364792 -0.4069,0.642525 -0.2915,4.382704 0.1488,4.822957 0.2606,0.260583 1.2514,0.450858 2.9765,0.571593 7.5055,0.525272 7.9865,0.889587 8.5609,6.483927 0.4397,4.282728 0.651,61.153147 0.259,69.717705 -0.3548,7.75416 -0.6227,9.51073 -1.5991,10.48712 -0.9309,0.9309 -2.0323,1.19213 -6.3376,1.50312 -4.2605,0.30774 -4.2503,0.29995 -4.2503,3.25497 0,2.7737 0.2254,2.99053 2.893,2.78235 4.462,-0.34822 16.1545,-0.45804 22.3659,-0.21007 4.1996,0.16766 6.7776,0.17174 7.0776,0.0112 0.3981,-0.21306 0.4718,-0.61808 0.4718,-2.59206 0,-1.73835 -0.1002,-2.42271 -0.39,-2.66317 -0.2156,-0.17893 -1.7831,-0.42737 -3.5057,-0.55564 -7.302,-0.5437 -7.466,-0.69685 -8.0521,-7.5199 -0.48,-5.58815 -0.5099,-63.764584 -0.033,-63.764584 0.1774,0 4.9399,5.658313 10.5833,12.57403 23.3039,28.557514 48.5734,58.739724 53.746,64.194984 0.368,0.38811 1.1119,0.66179 2.3397,0.86084 0.9901,0.1605 3.5265,0.57741 5.6366,0.92646 4.6855,0.77508 4.6272,0.77134 5.0011,0.32084 z M 1318.74,122.4021 c -0.8513,-0.31031 -1.0583,-0.9755 -1.0583,-3.40065 0,-3.24443 -0.049,-3.20727 4.6429,-3.56295 4.1366,-0.31362 5.4018,-0.57799 6.0061,-1.25501 1.2958,-1.45181 1.5265,-6.12295 1.6957,-34.33081 0.1473,-24.561525 -0.1331,-43.080379 -0.7151,-47.228125 -0.2967,-2.114574 -0.8136,-3.10474 -1.8988,-3.637516 -0.37,-0.181623 -2.497,-0.473911 -4.7268,-0.649528 -5.0951,-0.401286 -5.004,-0.333217 -5.004,-3.741741 0,-2.02525 0.084,-2.545262 0.463,-2.87457 0.4045,-0.351227 1.7503,-0.380373 10.6495,-0.230638 5.6025,0.09427 21.1972,0.07207 34.6548,-0.04932 13.4577,-0.121394 24.7309,-0.154845 25.0517,-0.07433 0.3207,0.08051 0.657,0.378928 0.7472,0.663154 0.09,0.284226 -0.075,2.635435 -0.3678,5.224907 -0.2925,2.589472 -0.7286,7.148912 -0.9691,10.13209 -0.2851,3.536585 -0.5674,5.631108 -0.8113,6.019271 -0.342,0.544377 -0.5744,0.595312 -2.7167,0.595312 -1.8322,0 -2.4199,-0.09297 -2.6968,-0.426588 -0.2399,-0.289078 -0.4198,-1.760299 -0.5579,-4.564062 -0.2516,-5.108512 -0.5966,-6.645384 -1.5995,-7.125185 -2.4132,-1.154498 -10.6206,-1.781034 -20.4143,-1.558382 -3.7695,0.0857 -6.967,0.26919 -7.1055,0.407762 -0.5106,0.510577 -0.7694,7.133982 -0.8129,20.80708 l -0.045,14.022917 8.9958,0.0808 c 10.262,0.09217 13.1039,-0.05203 13.9114,-0.70588 0.7276,-0.589145 1.2374,-2.867673 1.4567,-6.509575 0.232,-3.853522 0.4381,-4.110136 3.3018,-4.110136 1.5523,0 2.1767,0.110919 2.6067,0.463021 l 0.5654,0.463021 v 15.345834 c 0,14.165003 -0.037,15.371281 -0.4544,15.676562 -0.2836,0.207582 -1.3538,0.33073 -2.8739,0.33073 -3.2404,0 -3.182,0.081 -3.3998,-4.716177 -0.1006,-2.217375 -0.3223,-4.14986 -0.5342,-4.657022 -0.7432,-1.778566 -3.0014,-2.662443 -7.8304,-3.064867 -3.412,-0.284332 -14.3432,-0.34603 -15.3131,-0.08643 l -0.6288,0.168277 0.1486,16.033838 c 0.1475,15.905426 0.4048,21.268666 1.1003,22.933236 0.6983,1.67139 0.591,1.64612 10.1538,2.39164 2.7029,0.21072 2.9517,0.49905 2.9517,3.42099 0,2.07078 -0.057,2.31775 -0.6747,2.93569 -0.6677,0.66769 -0.7055,0.67284 -3.6381,0.49475 -3.9468,-0.23969 -40.0508,-0.31569 -41.0633,-0.0864 -0.4365,0.0988 -0.9723,0.11463 -1.1906,0.0351 z m 18.124,-0.70672 c 7.1305,0.0161 16.1298,0.11446 19.9985,0.21855 8.4179,0.2265 7.915,0.41008 7.915,-2.88942 0,-1.58355 -0.1058,-2.28546 -0.3786,-2.51187 -0.389,-0.32281 -0.6164,-0.34992 -6.8628,-0.81772 -2.2114,-0.16561 -3.9707,-0.43053 -4.4273,-0.66665 -1.6218,-0.83866 -1.9587,-2.59958 -2.3512,-12.28913 -0.337,-8.319451 -0.3428,-28.31105 -0.01,-28.839585 0.2146,-0.33905 1.4186,-0.394763 8.2642,-0.382375 8.9844,0.01624 11.4012,0.267594 13.8339,1.438597 2.3167,1.115187 2.5066,1.558407 2.8715,6.703624 l 0.3035,4.278696 2.4898,0.07664 c 1.3694,0.04215 2.6034,-0.03689 2.7421,-0.175646 0.1544,-0.154382 0.2479,-6.128804 0.241,-15.395253 -0.01,-12.250518 -0.078,-15.185295 -0.3609,-15.364571 -0.5665,-0.359204 -4.3479,-0.277054 -4.65,0.10102 -0.1454,0.181901 -0.3471,1.580886 -0.4484,3.108854 -0.2496,3.76867 -0.8017,6.128153 -1.6119,6.889346 -0.8815,0.828114 -3.5422,1.019079 -14.4246,1.035306 -6.8509,0.01021 -8.715,-0.06064 -9.1054,-0.346098 -0.471,-0.34443 -0.4838,-0.903518 -0.3157,-13.82448 0.1759,-13.529987 0.5173,-21.18845 0.9644,-21.635522 0.4309,-0.430884 7.9371,-0.735367 14.0285,-0.569055 9.2261,0.251891 13.5241,0.854776 14.7449,2.068282 0.7757,0.771007 1.1078,2.610432 1.3119,7.267927 0.1,2.273462 0.2836,3.870325 0.4631,4.01923 0.5073,0.421082 4.0985,0.411732 4.5157,-0.01175 0.2509,-0.254664 0.497,-1.950488 0.7834,-5.398387 0.2296,-2.764896 0.6666,-7.316962 0.971,-10.115706 0.3044,-2.798741 0.4901,-5.254048 0.4125,-5.456235 -0.1197,-0.311952 -5.4626,-0.351507 -35.2858,-0.261247 l -35.1448,0.106357 -0.075,2.46565 c -0.054,1.76362 0.021,2.545194 0.2646,2.745023 0.1869,0.153654 2.1257,0.415901 4.3085,0.582768 4.5001,0.344017 5.5589,0.706165 6.2709,2.144848 1.0252,2.071634 1.0862,4.039724 1.1974,38.612491 0.1313,40.878831 0,44.199131 -1.8742,45.941511 -0.9846,0.91732 -1.3836,1.00281 -6.5896,1.4119 -1.7118,0.1345 -3.2298,0.31719 -3.3735,0.40598 -0.3929,0.24286 -0.3318,4.97992 0.07,5.3865 0.2511,0.25443 0.9356,0.28419 2.8442,0.12368 1.3825,-0.11626 8.3476,-0.19819 15.4782,-0.18208 z m 161.2635,0.70382 c -0.6902,-0.24655 -1.0583,-0.9425 -1.0583,-2.00094 0,-1.49191 0.3042,-1.88055 2.7421,-3.50277 2.762,-1.83783 3.3508,-2.46663 3.6428,-3.88974 0.6313,-3.0775 0.9843,-52.425849 0.4973,-69.533279 -0.3393,-11.923387 -0.6205,-13.590669 -2.4431,-14.485432 -0.3699,-0.181623 -2.497,-0.473911 -4.7268,-0.649528 -5.095,-0.401286 -5.004,-0.333217 -5.004,-3.741741 0,-2.020824 0.085,-2.548106 0.463,-2.886191 0.4125,-0.368498 1.6762,-0.390557 11.5755,-0.202054 6.1119,0.116382 12.958,0.166139 15.2136,0.110574 2.2556,-0.05557 7.1169,-0.152117 10.803,-0.214558 8.1555,-0.13815 7.7178,-0.323768 7.7178,3.273205 0,3.30168 0.054,3.263747 -5.2189,3.677182 -6.0326,0.473017 -6.1262,0.559123 -6.7127,6.175767 -0.3723,3.56476 -0.6361,65.722065 -0.3125,73.633405 l 0.2056,5.02708 6.0854,0.0807 c 10.6649,0.14141 23.2647,-0.45544 27.3554,-1.29584 2.4767,-0.50881 2.8011,-1.23504 4.4206,-9.89649 0.9338,-4.993679 1.061,-5.160234 3.9427,-5.160234 1.785,0 2.0814,0.07297 2.6643,0.655873 0.4409,0.44088 0.6146,0.85285 0.53,1.256771 -0.5618,2.68097 -1.1654,10.09624 -1.352,16.60819 -0.086,2.98318 -0.2047,5.67144 -0.2649,5.97391 -0.06,0.30247 -0.3802,0.67142 -0.7111,0.81988 -0.4079,0.18297 -8.8691,0.19094 -26.2663,0.0247 -22.6853,-0.21672 -42.0508,-0.13756 -43.0497,0.17597 -0.1881,0.059 -0.5205,0.0435 -0.7388,-0.0344 z m 9.525,-0.74521 c 3.2742,-0.0818 18.1427,-0.0236 33.0412,0.12937 18.4739,0.18965 27.1917,0.19197 27.4143,0.007 0.2269,-0.18837 0.3824,-1.901 0.5108,-5.62625 0.1903,-5.52187 0.7315,-12.69165 1.2156,-16.10537 0.2456,-1.731445 0.2258,-1.98199 -0.1796,-2.278458 -0.6461,-0.472438 -4.1761,-0.442294 -4.6582,0.03978 -0.2051,0.205081 -0.8628,2.838938 -1.4616,5.853008 -1.179,5.93517 -1.8316,7.70496 -3.055,8.28552 -1.1511,0.54627 -4.3858,1.03116 -8.9067,1.33514 -6.0951,0.40984 -25.7094,0.64813 -26.1937,0.31822 -0.6496,-0.44255 -0.8296,-12.06422 -0.7009,-45.26893 0.1327,-34.247051 0.2937,-37.660023 1.8451,-39.113175 0.9206,-0.862253 1.7544,-1.056704 5.9131,-1.378977 2.1576,-0.1672 4.0717,-0.42632 4.2536,-0.57582 0.4188,-0.344157 0.4611,-4.857766 0.048,-5.113089 -0.1555,-0.09613 -10.1865,-0.176607 -22.2911,-0.178829 l -22.0083,-0.004 -0.075,2.504517 c -0.054,1.795177 0.021,2.583641 0.2646,2.783891 0.1869,0.153654 2.1258,0.416155 4.3086,0.583334 4.533,0.347173 5.5779,0.701704 6.2708,2.127605 1.0273,2.113941 1.0866,4.042323 1.1947,38.888983 0.1064,34.27079 -0.055,43.51684 -0.7906,45.27719 -0.2762,0.66102 -1.0549,1.38275 -2.8315,2.62436 -3.1854,2.22614 -3.182,2.22228 -3.182,3.53067 0,1.57504 0.3256,1.79934 2.3779,1.63814 0.9477,-0.0744 4.4021,-0.20227 7.6763,-0.28406 z m 74.1495,0.52705 c -0.5481,-0.38843 -0.5953,-0.62738 -0.5953,-3.01173 0,-3.41876 -0.066,-3.36409 4.5062,-3.72181 6.5713,-0.51409 6.5939,-0.53134 7.1887,-5.4827 0.4928,-4.10203 0.499,-72.557539 0.01,-76.390476 -0.5838,-4.547248 -0.8684,-4.773515 -6.5577,-5.213138 -2.4064,-0.185955 -4.1866,-0.449321 -4.5489,-0.673002 -0.5526,-0.341104 -0.5953,-0.555702 -0.5953,-2.988329 0,-1.968595 0.098,-2.718911 0.3941,-3.014917 0.4002,-0.400208 3.5033,-0.412387 17.8621,-0.07011 2.2556,0.05377 9.1017,0.0068 15.2136,-0.104421 6.6833,-0.121594 11.297,-0.105119 11.5755,0.04133 0.3959,0.208193 0.463,0.644224 0.463,3.006228 0,2.579764 -0.039,2.787052 -0.5953,3.130212 -0.3617,0.2233 -2.1339,0.48633 -4.5165,0.670361 -4.4253,0.341813 -5.3145,0.650579 -5.8985,2.048312 -0.934,2.235224 -1.0282,6.041387 -1.0282,41.508323 0,41.580687 0.014,41.832057 2.4168,42.792557 0.5625,0.22489 2.0943,0.48567 3.404,0.57949 4.3984,0.3151 5.438,0.46833 5.8289,0.85918 0.2897,0.28975 0.3888,1.05683 0.3888,3.0097 0,3.58064 0.3949,3.40916 -7.1437,3.10226 -6.0033,-0.2444 -35.6626,-0.0881 -36.6448,0.19307 -0.2911,0.0833 -0.7971,-0.0384 -1.1245,-0.2704 z m 22.4234,-0.50025 c 9.3861,0.002 18.0326,0.0929 19.2143,0.20305 2.8206,0.26293 3.0107,0.0919 3.0107,-2.70886 0,-2.95502 0.01,-2.94724 -4.2503,-3.25498 -4.0715,-0.2941 -5.1925,-0.52881 -6.1598,-1.28969 -1.7875,-1.40605 -1.893,-3.78681 -1.893,-42.71513 0,-35.21033 0.1199,-39.604019 1.1368,-41.654802 0.8848,-1.784474 1.9208,-2.120855 7.7991,-2.53225 1.7252,-0.120735 2.716,-0.31101 2.9766,-0.571593 0.4722,-0.472231 0.5624,-4.713317 0.1062,-4.995259 -0.1564,-0.09667 -10.1726,-0.175758 -22.2583,-0.175758 -18.2012,0 -22.0129,0.06157 -22.2011,0.358582 -0.2585,0.407861 -0.3084,3.498678 -0.071,4.384712 0.2029,0.756711 0.3482,0.791753 4.6749,1.127501 4.5554,0.353502 5.6295,0.738113 6.3011,2.256219 1.0653,2.408266 1.1627,5.910254 1.1627,41.802648 0,39.17732 -0.069,40.83355 -1.7733,42.65311 -0.6849,0.73122 -2.3173,1.07515 -6.547,1.37938 -2.7145,0.19525 -3.3571,0.32248 -3.6573,0.72407 -0.515,0.68908 -0.3532,4.76767 0.2036,5.13152 0.2421,0.1582 1.3255,0.18435 2.7781,0.0671 1.3097,-0.10575 10.0608,-0.19104 19.4469,-0.18953 z m 159.4036,0.3195 c -0.6466,-0.50864 -0.7008,-0.68532 -0.5837,-1.90358 0.098,-1.01965 0.2802,-1.45228 0.7572,-1.79727 0.3455,-0.2499 1.5115,-1.085 2.5912,-1.85577 2.7428,-1.95799 2.8769,-2.19449 3.1965,-5.63474 0.1509,-1.62515 0.3425,-15.704621 0.4339,-31.882291 0.1932,-34.222096 -0.1147,-46.266921 -1.2463,-48.750406 -0.542,-1.189681 -1.4783,-1.477548 -5.9445,-1.827742 -5.2596,-0.412403 -5.1496,-0.332227 -5.1496,-3.752721 0,-2.024499 0.084,-2.545744 0.4631,-2.876544 0.4058,-0.354092 1.7543,-0.382596 10.914,-0.230701 5.7481,0.09532 22.1192,0.07512 36.3802,-0.0449 17.5227,-0.147463 26.1222,-0.130691 26.5245,0.05173 0.7666,0.347599 0.7643,0.683781 -0.056,8.054462 -0.3582,3.219074 -0.7836,7.57927 -0.9452,9.689322 -0.3667,4.788948 -0.3483,4.7625 -3.3203,4.7625 -1.5871,0 -2.2975,-0.108471 -2.5835,-0.394457 -0.4207,-0.420764 -0.596,-1.852422 -0.817,-6.675816 -0.1563,-3.412418 -0.5733,-4.708511 -1.6459,-5.116327 -2.4874,-0.945679 -14.3037,-1.715127 -22.7127,-1.478984 -3.347,0.09399 -6.5227,0.244713 -7.0571,0.334942 -0.9248,0.156146 -0.9793,0.223112 -1.1299,1.389533 -0.3515,2.722102 -0.6697,13.704983 -0.673,23.230989 V 65.39077 l 1.6537,0.175128 c 0.9095,0.09632 6.2375,0.135565 11.8401,0.08721 11.0852,-0.09568 11.4107,-0.138615 12.11,-1.597708 0.3236,-0.675161 0.6456,-2.890827 1.0048,-6.914322 0.2246,-2.516158 0.5743,-2.820686 3.2388,-2.820686 3.414,0 3.0836,-1.706758 3.1067,16.049742 0.017,13.089713 -0.036,15.370361 -0.3684,15.766405 -0.3182,0.37919 -0.8242,0.462288 -2.7949,0.45897 -1.3235,-0.0021 -2.5374,-0.09153 -2.6975,-0.198438 -0.6541,-0.436742 -0.8996,-1.475771 -0.9015,-3.815014 0,-2.764848 -0.3829,-5.548138 -0.864,-6.318628 -0.4647,-0.744077 -1.8123,-1.303475 -4.2574,-1.767311 -1.6529,-0.313552 -4.2413,-0.414856 -11.1485,-0.436316 -4.9477,-0.01537 -9.2042,0.05761 -9.4589,0.162184 -0.4337,0.178099 -0.4609,1.124225 -0.4307,14.948959 0.018,8.117353 0.107,16.842415 0.1984,19.389025 l 0.1662,4.63021 11.2448,-0.0394 c 14.6292,-0.0512 22.1552,-0.6158 23.9583,-1.79723 0.8178,-0.53582 1.2987,-2.13155 2.4869,-8.25176 1.211,-6.237753 1.1748,-6.1835 4.1286,-6.1835 1.6308,0 2.0507,0.09497 2.6323,0.595312 0.6758,0.581441 0.6856,0.635389 0.4192,2.315105 -0.5006,3.156043 -1.0611,10.390123 -1.2458,16.079193 -0.1243,3.82592 -0.2888,5.77306 -0.5137,6.08072 -0.3085,0.42184 -1.6215,0.4439 -19.3396,0.32497 -25.5973,-0.17182 -48.9843,-0.13701 -50.0092,0.0744 -0.6344,0.13088 -1.0115,0.0366 -1.551,-0.38775 z m 10.062,-0.34714 c 3.056,-0.0816 17.8057,-0.0233 32.7772,0.12953 18.9997,0.19391 27.3219,0.19397 27.5554,1.9e-4 0.2299,-0.1908 0.3848,-1.57773 0.4952,-4.43516 0.253,-6.54417 0.6723,-12.61621 1.1062,-16.02227 0.3056,-2.398026 0.3268,-3.220864 0.09,-3.505731 -0.4863,-0.585967 -4.2691,-0.514524 -4.8068,0.09078 -0.2414,0.271749 -0.8548,2.722911 -1.485,5.933641 -1.1285,5.75032 -1.599,7.14022 -2.6836,7.9278 -0.8484,0.61608 -4.3998,1.2034 -9.2604,1.53149 -5.733,0.38697 -25.7204,0.63065 -26.1763,0.31913 -0.4803,-0.3281 -0.7639,-10.16237 -0.7919,-27.453624 -0.018,-10.798072 0.022,-11.974727 0.4182,-12.303125 0.3519,-0.292113 2.15,-0.361185 9.1943,-0.353211 10.4675,0.01185 13.7028,0.376463 15.7837,1.778813 1.1944,0.804904 1.5598,2.142169 1.7525,6.413357 0.085,1.891771 0.2647,3.652176 0.3985,3.912013 0.2127,0.412787 0.5673,0.462891 2.8088,0.396875 l 2.5653,-0.07555 0.04,-15.213542 c 0.027,-10.063879 -0.051,-15.325492 -0.2308,-15.544271 -0.4185,-0.509982 -4.2797,-0.445669 -4.7148,0.07853 -0.1919,0.231198 -0.4349,1.641348 -0.5586,3.241146 -0.2592,3.352165 -0.6618,5.521087 -1.1744,6.327227 -0.7411,1.16544 -1.8669,1.267159 -14.025,1.267159 -9.2758,0 -11.4842,-0.06773 -11.8401,-0.363125 -0.3911,-0.324707 -0.437,-1.304467 -0.4331,-9.260417 0.01,-12.39783 0.513,-25.087535 1.036,-25.933869 0.1185,-0.191637 2.2617,-0.402621 5.9883,-0.589494 8.4804,-0.425267 21.284,0.2682 25.0517,1.356855 0.6509,0.188092 1.1238,0.541888 1.376,1.029594 0.5014,0.969637 0.9395,4.533773 0.9395,7.643305 0,3.436575 0.046,3.495275 2.7591,3.495275 1.8616,0 2.2396,-0.07323 2.39,-0.46302 0.098,-0.254662 0.3584,-2.606146 0.578,-5.225521 0.2196,-2.619375 0.6785,-7.143751 1.0199,-10.054167 0.4033,-3.438711 0.5305,-5.384316 0.363,-5.55625 -0.1693,-0.173874 -12.8152,-0.264584 -36.8858,-0.264584 -30.2581,0 -36.6518,0.06128 -36.7637,0.35237 -0.2898,0.75384 -0.1345,4.74305 0.1952,5.014034 0.1819,0.1495 2.1167,0.408604 4.2995,0.575784 4.3865,0.335952 5.5161,0.695909 6.2615,1.995312 1.0394,1.811928 1.0984,3.760656 1.2048,39.819793 0.1083,36.686548 -0.026,43.269788 -0.9128,44.788338 -0.2621,0.44881 -1.4867,1.5124 -2.7213,2.36353 -3.2233,2.22218 -3.1707,2.16478 -3.1707,3.46033 0,1.63565 0.3018,1.82527 2.6451,1.66164 1.0918,-0.0762 4.4854,-0.20535 7.5413,-0.28691 z m 72.2038,-104.747582 c -0.2325,-0.605853 -0.01,-1.53784 0.4244,-1.768406 0.2182,-0.116176 0.8428,-0.28247 1.388,-0.369544 0.5451,-0.08708 1.319,-0.440237 1.7198,-0.784805 l 0.7286,-0.626488 0.081,-10.3636346 c 0.062,-8.0455036 0.01,-10.4535351 -0.2531,-10.7655489 -0.2746,-0.3308491 -0.7332,-0.3687644 -2.594,-0.2144337 -1.2433,0.1031139 -2.5974,0.3611827 -3.009,0.573486 -0.7754,0.3999066 -1.4975,1.7388435 -1.5046,2.7897577 -0.01,0.9819188 -0.4185,1.3711023 -1.4511,1.3711023 -0.5522,0 -1.0651,-0.1633889 -1.2044,-0.3836458 -0.1335,-0.2110052 -0.2446,-1.7741258 -0.2468,-3.4736012 0,-2.4601678 0.081,-3.1746978 0.4117,-3.5057288 0.3658,-0.365791 1.8629,-0.415774 12.4529,-0.415774 7.7914,0 12.2175,0.0966 12.5487,0.273892 0.4657,0.249209 0.5118,0.583619 0.5118,3.7107156 v 3.436823 l -0.7201,0.2737831 c -1.0926,0.4154162 -1.859,-0.051548 -2.0791,-1.2668925 -0.46,-2.5395936 -1.4961,-3.2359688 -4.9515,-3.3278673 l -2.1711,-0.057746 -0.069,10.6612462 c -0.045,6.9262988 0.026,10.8392389 0.2027,11.1693189 0.2501,0.467181 1.0536,0.785571 2.9908,1.185071 0.6736,0.13892 0.7354,0.245113 0.6614,1.13651 l -0.082,0.983271 -6.8196,0.07062 c -5.7466,0.05952 -6.8427,0.0105 -6.9662,-0.311486 z m 13.3373,-0.719116 c 0.074,-0.639731 -0.016,-0.709917 -1.1295,-0.87685 -0.6729,-0.100918 -1.5308,-0.457298 -1.9327,-0.802916 l -0.7226,-0.621458 V 2.8158283 -8.2535713 l 2.5135,-0.0706 c 1.9854,-0.055765 2.7042,0.027632 3.4208,0.396875 1.1517,0.5934531 1.9046,1.618038 2.1082,2.8689391 0.174,1.0693773 0.7626,1.6155639 1.4547,1.3499735 0.3843,-0.1474742 0.4315,-0.5866789 0.3667,-3.4155452 l -0.074,-3.2463091 h -12.3032 -12.3031 l -0.074,3.2207837 c -0.068,2.9613895 -0.034,3.2335608 0.4258,3.3794367 0.7685,0.2439316 1.3681,-0.1076997 1.3681,-0.80234 0,-0.3452881 0.1972,-1.1205988 0.4382,-1.7229124 0.6355,-1.5882972 1.8514,-2.077275 5.1842,-2.0847821 l 2.5797,-0.00581 V 2.3173128 c 0,7.7347192 -0.088,10.8955832 -0.3161,11.3969262 -0.3627,0.795983 -1.2499,1.320529 -2.6907,1.590833 -1.0351,0.194175 -1.3976,0.617064 -1.129,1.316995 0.1329,0.346403 1.0197,0.391914 6.4444,0.33073 l 6.2904,-0.07095 z m 9.4945,0.921912 c -0.2973,-0.297265 -0.2079,-1.550453 0.1351,-1.893393 0.1746,-0.174625 0.6376,-0.3175 1.029,-0.3175 0.3913,0 0.9926,-0.227578 1.3361,-0.505728 l 0.6247,-0.505727 V 2.9045042 c 0,-6.0398314 -0.092,-11.0730593 -0.2034,-11.1849505 -0.1118,-0.1118915 -0.7072,-0.2706809 -1.3229,-0.3528653 -1.0021,-0.1337524 -1.1289,-0.2313178 -1.2084,-0.9301288 -0.1477,-1.2976126 0.3893,-1.4682556 4.6201,-1.4682556 2.0727,0 4.0443,0.106508 4.3812,0.236686 0.495,0.191282 1.3412,1.9423718 4.4108,9.1281251 2.089,4.8902914 3.8901,8.8914389 4.0023,8.8914389 0.1122,0 0.4449,-0.5655469 0.7394,-1.2567708 0.2944,-0.691224 1.9891,-4.6826854 3.766,-8.8699141 1.9823,-4.6711024 3.4172,-7.7129271 3.7132,-7.8713541 0.5134,-0.274772 7.6669,-0.355888 8.6287,-0.09784 0.6698,0.179673 0.9669,1.0431281 0.5969,1.7344931 -0.1772,0.3311347 -0.5584,0.4863906 -1.1944,0.4863906 -0.5138,0 -1.1644,0.1232517 -1.4459,0.2738925 -0.4933,0.2640174 -0.5118,0.6687603 -0.5118,11.2258929 0,12.2320039 -0.094,11.6353569 1.8805,11.9510679 1.1864,0.189716 1.6583,0.800422 1.4033,1.816228 l -0.1685,0.671693 -6.1217,-0.07095 -6.1217,-0.07095 -0.085,-0.743603 c -0.1134,-0.989566 0.3628,-1.505355 1.39,-1.505355 0.4637,0 1.0742,-0.168897 1.3567,-0.375328 0.49,-0.358071 0.5165,-0.817288 0.5772,-9.9880208 0.038,-5.770125 -0.031,-9.4540471 -0.174,-9.2158184 -0.1307,0.2182813 -2.1671,5.09984385 -4.5253,10.8479169 -2.3582,5.7480733 -4.4078,10.5998703 -4.5547,10.7817713 -0.4714,0.58366 -1.1511,0.354864 -1.5721,-0.529167 -0.2253,-0.472943 -2.3436,-5.384271 -4.7073,-10.9140627 -2.3639,-5.52979174 -4.4087,-10.1716535 -4.5441,-10.3152484 -0.1521,-0.1612686 -0.2172,3.4125718 -0.1703,9.3481101 0.072,9.159622 0.1,9.626752 0.5895,9.984519 0.2824,0.206431 0.8929,0.375328 1.3566,0.375328 1.0272,0 1.5035,0.515789 1.39,1.505355 l -0.085,0.743603 -4.514,0.07218 c -2.4826,0.0397 -4.596,-0.0099 -4.6963,-0.110244 z m 8.6811,-0.879608 c 0,-0.553995 -0.1657,-0.68585 -1.0917,-0.868984 -2.1486,-0.424897 -2.0732,-0.03294 -2.1616,-11.2460841 -0.073,-9.2868958 0.024,-10.9218467 0.617,-10.3292026 0.1405,0.1404329 2.7635,6.16098342 7.844,18.0041317 1.1705,2.728515 2.2725,4.960937 2.4489,4.960937 0.1763,0 2.4475,-5.18164 5.0471,-11.5147558 2.5996,-6.333116 4.8528,-11.4725527 5.0072,-11.4209706 0.1914,0.063928 0.2808,3.2998903 0.2808,10.1643241 0,11.3761963 0.077,10.9543733 -2.0812,11.3812073 -1.1392,0.22528 -1.6252,0.974585 -0.9214,1.420585 0.1962,0.124349 2.6936,0.227915 5.5499,0.230143 4.2771,0.0033 5.2507,-0.06536 5.5197,-0.389456 0.5177,-0.623896 0.1413,-1.09628 -1.1284,-1.415995 -0.6469,-0.162896 -1.3416,-0.49539 -1.5439,-0.738879 -0.2978,-0.358632 -0.3823,-2.51222 -0.4447,-11.3397981 -0.088,-12.3942302 -0.1748,-11.8765301 2.0614,-12.2523874 0.941,-0.158168 1.1907,-0.3095198 1.1907,-0.7219653 0,-0.4983192 -0.1968,-0.5218442 -4.3657,-0.5218442 h -4.3656 l -0.6035,1.190625 c -0.3319,0.6548438 -2.1178,4.7619622 -3.9687,9.12692984 -2.0972,4.94585896 -3.5148,7.96174446 -3.7622,8.00381956 -0.2886,0.049099 -1.3992,-2.2960754 -4.0718,-8.59776312 -2.0212,-4.76590288 -3.8416,-8.93616798 -4.0454,-9.26725578 -0.3632,-0.5903635 -0.4506,-0.6005735 -4.5271,-0.5291665 -4.0011,0.07008 -4.1597,0.09373 -4.2364,0.6313016 -0.065,0.4585944 0.092,0.5864496 0.8835,0.7148009 1.805,0.2929199 1.7097,-0.3752534 1.7097,11.9882724 0,10.8331431 -0.018,11.2301681 -0.5254,11.7378401 -0.289,0.288995 -1.0034,0.601868 -1.5875,0.695274 -0.8673,0.138692 -1.0621,0.276825 -1.0621,0.753374 0,0.32095 0.082,0.665898 0.183,0.766554 0.1007,0.100652 1.9759,0.150262 4.1672,0.110241 l 3.9842,-0.07276 z"
         id="path5305"
         inkscape:connector-curvature="0" />
      <path
         style="fill:#1383f0;stroke-width:0.26458335"
         d="m 1396.5742,153.17046 c -0.7746,-0.19692 -1.4992,-0.46242 -1.6101,-0.58999 -0.111,-0.12757 -0.132,-3.06955 -0.047,-6.53773 0.1435,-5.83752 0.1931,-6.33361 0.6686,-6.68073 0.2825,-0.20622 0.6402,-0.37495 0.795,-0.37495 0.1548,0 1.1739,0.67341 2.2646,1.49646 3.5431,2.67368 6.5549,3.72768 9.3515,3.27253 1.7676,-0.28769 2.718,-0.75614 3.8193,-1.88261 2.5939,-2.65311 2.7743,-6.96896 2.6311,-62.946801 -0.1138,-44.474028 -0.1683,-46.768778 -1.1615,-48.866278 -0.7708,-1.627812 -1.8267,-1.897827 -9.1587,-2.342028 -1.9696,-0.11933 -2.9718,-0.293283 -3.2411,-0.562576 -0.4405,-0.440441 -0.554,-4.181028 -0.1464,-4.824743 0.1992,-0.314767 3.7222,-0.368065 23.0118,-0.348131 12.527,0.01294 22.8968,0.09793 23.0439,0.188844 0.3918,0.242101 0.3381,4.440854 -0.063,4.952328 -0.2544,0.324218 -1.2465,0.491937 -4.2995,0.726839 -5.6082,0.431509 -6.4894,0.966224 -6.9951,4.244494 -0.6006,3.89342 -0.8089,15.780549 -0.8095,46.197515 -3e-4,19.305768 -0.1076,33.398497 -0.2698,35.454167 -0.8663,10.98218 -3.2829,17.73041 -8.8397,24.68396 -2.0473,2.56201 -7.3721,7.58193 -10.0895,9.51178 -2.6959,1.91464 -7.4292,4.30616 -9.7735,4.93809 -2.1743,0.58612 -7.2749,0.74876 -9.0814,0.28956 z m 335.1804,-29.95105 c -2.1101,-0.34905 -4.6465,-0.76595 -5.6366,-0.92646 -1.2279,-0.19905 -1.9717,-0.47272 -2.3397,-0.86084 -5.1726,-5.45526 -30.4421,-35.63747 -53.746,-64.194984 -5.6434,-6.915716 -10.4059,-12.57403 -10.5833,-12.57403 -0.4771,0 -0.4472,58.176444 0.033,63.764584 0.5861,6.82306 0.7501,6.9762 8.0521,7.51991 1.7226,0.12826 3.2901,0.3767 3.5057,0.55563 0.2898,0.24047 0.39,0.92482 0.39,2.66317 0,1.97398 -0.074,2.379 -0.4719,2.59206 -0.2999,0.16054 -2.8779,0.15646 -7.0776,-0.0112 -6.2113,-0.24797 -17.9038,-0.13815 -22.3658,0.21007 -2.6676,0.20818 -2.8931,-0.009 -2.8931,-2.78234 0,-2.95502 -0.01,-2.94724 4.2503,-3.25498 4.3054,-0.31099 5.4068,-0.57222 6.3377,-1.50312 0.9764,-0.97638 1.2442,-2.73296 1.5991,-10.48712 0.392,-8.564558 0.1807,-65.434976 -0.2591,-69.717705 -0.5743,-5.594339 -1.0554,-5.958655 -8.5608,-6.483927 -1.7251,-0.120734 -2.716,-0.31101 -2.9765,-0.571592 -0.4403,-0.440254 -0.5557,-4.180433 -0.1488,-4.822958 0.1953,-0.308507 2.6162,-0.368395 14.7464,-0.364791 l 14.5128,0.0043 2.1011,2.746042 c 10.4765,13.691825 20.3282,26.053429 30.5315,38.309752 12.4582,14.965093 26.6938,31.311975 27.1385,31.163398 0.4353,-0.145455 0.3795,-53.230384 -0.062,-58.525025 -0.5929,-7.117339 -0.7689,-7.304688 -7.3405,-7.813971 -2.1727,-0.168376 -4.0992,-0.428459 -4.2811,-0.577959 -0.4364,-0.358701 -0.4595,-4.858679 -0.026,-5.126421 0.3979,-0.245843 31.8018,-0.245843 32.1996,0 0.1902,0.11757 0.3044,1.018611 0.3044,2.402567 0,2.329159 -0.3067,3.045992 -1.3034,3.045992 -0.2595,0 -2.0017,0.124228 -3.8715,0.276059 -5.6552,0.459218 -6.1765,0.916268 -6.7794,5.943544 -0.4895,4.081852 -0.4949,77.010715 -0.01,84.365375 0.3452,5.19467 0.2756,5.75645 -0.7056,5.69748 -0.2369,-0.0142 -2.1571,-0.31147 -4.2671,-0.66052 z m -413.213,-1.46563 c -0.4014,-0.40658 -0.4625,-5.14364 -0.07,-5.3865 0.1437,-0.0888 1.6617,-0.27148 3.3735,-0.40598 5.206,-0.40909 5.605,-0.49458 6.5896,-1.4119 1.8701,-1.74238 2.0055,-5.06268 1.8742,-45.941511 -0.1112,-34.572767 -0.1722,-36.540857 -1.1974,-38.612491 -0.712,-1.438683 -1.7708,-1.800831 -6.2709,-2.144848 -2.1828,-0.166867 -4.1216,-0.429114 -4.3085,-0.582768 -0.2431,-0.199829 -0.3184,-0.981403 -0.2646,-2.745023 l 0.075,-2.46565 35.1448,-0.106368 c 29.8232,-0.09026 35.1661,-0.0507 35.2858,0.261247 0.078,0.202187 -0.1081,2.657494 -0.4125,5.456235 -0.3044,2.798744 -0.7414,7.350811 -0.971,10.115707 -0.2864,3.447899 -0.5325,5.143722 -0.7834,5.398386 -0.4172,0.42349 -4.0084,0.43284 -4.5157,0.01175 -0.1795,-0.148905 -0.3634,-1.745769 -0.4631,-4.01923 -0.2041,-4.657495 -0.5362,-6.496921 -1.3119,-7.267927 -1.2208,-1.213507 -5.5188,-1.816391 -14.7449,-2.068283 -6.0914,-0.166312 -13.5976,0.138171 -14.0285,0.569056 -0.4471,0.447071 -0.7885,8.105534 -0.9644,21.635522 -0.1681,12.920961 -0.1553,13.48005 0.3157,13.824479 0.3904,0.285462 2.2545,0.356317 9.1054,0.346099 10.8824,-0.01622 13.5431,-0.207193 14.4246,-1.035307 0.8102,-0.761193 1.3623,-3.120676 1.6119,-6.889345 0.1013,-1.527969 0.303,-2.926953 0.4484,-3.108854 0.3021,-0.378074 4.0835,-0.460225 4.65,-0.101021 0.2827,0.179276 0.3517,3.114053 0.3609,15.364571 0.01,9.26645 -0.087,15.240871 -0.241,15.395253 -0.1387,0.138755 -1.3727,0.217794 -2.7421,0.175646 l -2.4898,-0.07663 -0.3035,-4.278696 c -0.365,-5.145217 -0.5548,-5.588437 -2.8715,-6.703624 -2.4327,-1.171003 -4.8496,-1.422339 -13.8339,-1.438597 -6.8456,-0.01238 -8.0497,0.04333 -8.2642,0.382375 -0.3344,0.528535 -0.3286,20.520134 0.01,28.839587 0.3925,9.68955 0.7294,11.45047 2.3512,12.28913 0.4566,0.23612 2.2159,0.50104 4.4272,0.66665 6.2465,0.4678 6.4739,0.49491 6.8629,0.81772 0.2728,0.22641 0.3786,0.92832 0.3786,2.51187 0,3.2995 0.5029,3.11592 -7.915,2.88942 -9.8898,-0.2661 -32.47,-0.28931 -35.4767,-0.0365 -1.9086,0.16051 -2.5931,0.13075 -2.8442,-0.12368 z m 179.3841,-0.008 c -0.4428,-0.44275 -0.416,-2.48022 0.038,-2.91458 0.2011,-0.1923 1.4684,-1.1203 2.8163,-2.06222 1.7766,-1.24161 2.5553,-1.96334 2.8315,-2.62436 0.7355,-1.76035 0.897,-11.0064 0.7906,-45.277191 -0.1081,-34.846655 -0.1674,-36.775036 -1.1947,-38.888978 -0.6929,-1.4259 -1.7378,-1.780431 -6.2708,-2.127604 -2.1828,-0.16718 -4.1217,-0.429681 -4.3086,-0.583335 -0.2436,-0.20025 -0.3185,-0.988714 -0.2646,-2.783891 l 0.075,-2.504516 22.0083,0.004 c 12.1046,0.0021 22.1356,0.0827 22.2911,0.178829 0.4132,0.255323 0.3709,4.768932 -0.048,5.113089 -0.1819,0.1495 -2.096,0.40862 -4.2536,0.575821 -4.1587,0.322273 -4.9925,0.516723 -5.9131,1.378976 -1.5514,1.453153 -1.7124,4.866124 -1.8451,39.113175 -0.1287,33.204705 0.051,44.826375 0.7009,45.268925 0.4843,0.32991 20.0986,0.0916 26.1937,-0.31822 4.5209,-0.30398 7.7556,-0.78887 8.9067,-1.33514 1.2234,-0.58055 1.876,-2.35035 3.055,-8.28551 0.5988,-3.01408 1.2565,-5.647932 1.4616,-5.853013 0.4821,-0.482073 4.0121,-0.512217 4.6582,-0.03978 0.4054,0.296468 0.4252,0.547013 0.1796,2.278463 -0.4841,3.41371 -1.0253,10.58349 -1.2156,16.10536 -0.1284,3.72526 -0.2839,5.43789 -0.5108,5.62625 -0.2226,0.18468 -8.9404,0.18237 -27.4143,-0.007 -24.7256,-0.25383 -36.0651,-0.21075 -40.7175,0.15468 -1.1772,0.0925 -1.8269,0.0316 -2.0505,-0.19199 z m 84.0747,0.0572 c -0.5568,-0.36385 -0.7186,-4.44244 -0.2036,-5.13152 0.3002,-0.40159 0.9428,-0.52882 3.6573,-0.72407 4.2297,-0.30423 5.8621,-0.64816 6.547,-1.37938 1.7044,-1.81956 1.7733,-3.47579 1.7733,-42.65311 0,-35.892394 -0.097,-39.394382 -1.1627,-41.802648 -0.6716,-1.518106 -1.7457,-1.902717 -6.3011,-2.256219 -4.3267,-0.335748 -4.472,-0.37079 -4.6749,-1.127501 -0.2375,-0.886034 -0.1876,-3.976851 0.071,-4.384712 0.1882,-0.297016 3.9999,-0.358582 22.2011,-0.358582 12.0857,0 22.1019,0.07909 22.2583,0.175758 0.4562,0.281942 0.366,4.523028 -0.1062,4.995259 -0.2606,0.260583 -1.2514,0.450858 -2.9766,0.571593 -5.8783,0.411395 -6.9143,0.747776 -7.7991,2.53225 -1.0169,2.050783 -1.1368,6.444472 -1.1368,41.654802 0,38.92832 0.1055,41.30908 1.893,42.71513 0.9673,0.76088 2.0883,0.99559 6.1598,1.28969 4.2605,0.30774 4.2503,0.29996 4.2503,3.25498 0,2.80073 -0.1901,2.97179 -3.0107,2.70886 -2.7519,-0.25654 -35.5096,-0.26799 -38.6612,-0.0135 -1.4526,0.11729 -2.536,0.0911 -2.7781,-0.0671 z m 181.8342,-0.0546 c -0.5073,-0.50722 -0.4171,-2.53791 0.133,-2.99684 0.2547,-0.21244 1.4731,-1.08264 2.7077,-1.93377 1.2346,-0.85113 2.4592,-1.91472 2.7213,-2.36353 0.8869,-1.51855 1.0211,-8.10179 0.9128,-44.788338 -0.1064,-36.059137 -0.1654,-38.007865 -1.2048,-39.819793 -0.7454,-1.299403 -1.875,-1.65936 -6.2615,-1.995312 -2.1828,-0.16718 -4.1176,-0.426284 -4.2995,-0.575784 -0.3297,-0.270984 -0.485,-4.260194 -0.1952,-5.014034 0.1119,-0.291087 6.5056,-0.35237 36.7637,-0.35237 24.0706,0 36.7165,0.09071 36.8858,0.264584 0.1675,0.171934 0.04,2.117539 -0.363,5.55625 -0.3414,2.910416 -0.8003,7.434792 -1.0199,10.054167 -0.2196,2.619375 -0.4797,4.970859 -0.578,5.225521 -0.1504,0.389786 -0.5284,0.46302 -2.39,0.46302 -2.7128,0 -2.7591,-0.0587 -2.7591,-3.495275 0,-3.109532 -0.4381,-6.673668 -0.9395,-7.643305 -0.2522,-0.487706 -0.7251,-0.841502 -1.376,-1.029594 -3.7677,-1.088655 -16.5713,-1.782122 -25.0517,-1.356855 -3.7266,0.186873 -5.8698,0.397857 -5.9883,0.589494 -0.523,0.846334 -1.03,13.536039 -1.036,25.933869 0,7.95595 0.042,8.93571 0.4331,9.260417 0.3559,0.295394 2.5643,0.363125 11.8401,0.363125 12.1581,0 13.2839,-0.101719 14.025,-1.267159 0.5126,-0.80614 0.9152,-2.975062 1.1744,-6.327227 0.1237,-1.599798 0.3667,-3.009948 0.5586,-3.241146 0.4351,-0.5242 4.2963,-0.588513 4.7148,-0.07853 0.1795,0.218779 0.2576,5.480392 0.2308,15.544271 l -0.04,15.213542 -2.5653,0.07555 c -2.2415,0.06602 -2.5961,0.0159 -2.8088,-0.396875 -0.1338,-0.259837 -0.3132,-2.020242 -0.3985,-3.912013 -0.2853,-6.324976 -0.8163,-6.950221 -6.6711,-7.856054 -3.1379,-0.485486 -19.4707,-0.471567 -20.0594,0.01709 -0.3957,0.328399 -0.4357,1.505054 -0.4182,12.303126 0.028,17.291248 0.3116,27.125518 0.7919,27.453618 0.4559,0.31152 20.4433,0.0678 26.1763,-0.31913 4.8606,-0.32809 8.412,-0.91541 9.2604,-1.53149 1.0846,-0.78758 1.5551,-2.17748 2.6836,-7.9278 0.6302,-3.21073 1.2436,-5.661887 1.485,-5.933635 0.5377,-0.605309 4.3205,-0.676752 4.8068,-0.09078 0.2364,0.284866 0.2152,1.107704 -0.09,3.505735 -0.4339,3.40605 -0.8532,9.4781 -1.1062,16.02227 -0.1104,2.85742 -0.2653,4.24435 -0.4952,4.43516 -0.2335,0.19378 -8.5557,0.19372 -27.5554,-1.9e-4 -24.9386,-0.25453 -34.9812,-0.21533 -40.3185,0.15738 -1.3945,0.0974 -2.0834,0.0404 -2.3151,-0.19136 z m 82.5821,-105.126633 c -0.2686,-0.699931 0.094,-1.12282 1.129,-1.316995 1.4408,-0.270304 2.328,-0.79485 2.6907,-1.590833 0.2284,-0.501343 0.3161,-3.662207 0.3161,-11.3969262 V -8.3858629 l -2.5797,0.00581 c -3.3328,0.00751 -4.5487,0.4964848 -5.1842,2.084782 -0.241,0.6023137 -0.4382,1.3776244 -0.4382,1.7229125 0,0.6946403 -0.5996,1.0462715 -1.3681,0.80234 -0.4597,-0.1458759 -0.494,-0.4180472 -0.4258,-3.3794367 l 0.074,-3.2207829 h 12.3031 12.3032 l 0.074,3.2463088 c 0.065,2.8288663 0.018,3.268071 -0.3667,3.4155452 -0.6921,0.2655904 -1.2807,-0.2805962 -1.4547,-1.3499735 -0.2036,-1.2509011 -0.9565,-2.275486 -2.1082,-2.8689391 -0.7166,-0.3692432 -1.4354,-0.4526396 -3.4208,-0.396875 l -2.5135,0.0706 V 2.8158283 13.885228 l 0.7226,0.621458 c 0.4019,0.345618 1.2598,0.701998 1.9327,0.802916 1.1132,0.166933 1.2036,0.237119 1.1295,0.87685 l -0.081,0.695394 -6.2904,0.07095 c -5.4247,0.06118 -6.3115,0.01566 -6.4444,-0.33073 z m 22.8396,0.222301 c -0.1006,-0.100656 -0.183,-0.445604 -0.183,-0.766554 0,-0.476549 0.1948,-0.614682 1.0621,-0.753374 0.5841,-0.09341 1.2985,-0.406279 1.5875,-0.695274 0.5076,-0.507672 0.5254,-0.904697 0.5254,-11.7378401 0,-12.3635258 0.095,-11.6953525 -1.7097,-11.9882724 -0.791,-0.1283513 -0.949,-0.2562065 -0.8835,-0.7148009 0.077,-0.5375756 0.2353,-0.5612176 4.2364,-0.6313016 4.0765,-0.07141 4.1639,-0.0612 4.5271,0.5291665 0.2038,0.3310878 2.0242,4.5013529 4.0454,9.26725578 2.6726,6.30168772 3.7832,8.64686212 4.0718,8.59776312 0.2474,-0.042075 1.665,-3.0579606 3.7622,-8.00381956 1.8509,-4.36496764 3.6368,-8.47208604 3.9687,-9.12692984 l 0.6035,-1.190625 h 4.3656 c 4.1689,0 4.3657,0.02353 4.3657,0.5218442 0,0.4124455 -0.2497,0.5637973 -1.1907,0.7219653 -2.2362,0.3758573 -2.1491,-0.1418428 -2.0614,12.2523874 0.062,8.8275781 0.1469,10.9811661 0.4447,11.3397981 0.2023,0.243489 0.897,0.575983 1.5439,0.738879 1.2697,0.319715 1.6461,0.792099 1.1284,1.415995 -0.269,0.324096 -1.2426,0.392792 -5.5197,0.389456 -2.8563,-0.0021 -5.3537,-0.105794 -5.5499,-0.230143 -0.7038,-0.446 -0.2178,-1.195305 0.9214,-1.420585 2.1583,-0.426834 2.0812,-0.005 2.0812,-11.3812073 0,-6.8644338 -0.089,-10.1003962 -0.2808,-10.1643241 -0.1544,-0.051582 -2.4076,5.0878546 -5.0072,11.4209706 -2.5996,6.3331158 -4.8708,11.5147558 -5.0471,11.5147558 -0.1764,0 -1.2784,-2.232422 -2.4489,-4.960937 -5.0805,-11.84314828 -7.7035,-17.8636988 -7.844,-18.0041317 -0.5926,-0.5926441 -0.6903,1.0423068 -0.617,10.3292026 0.088,11.2131411 0.013,10.8211871 2.1616,11.2460841 0.926,0.183134 1.0917,0.314989 1.0917,0.868984 v 0.65309 l -3.9842,0.07276 c -2.1913,0.04002 -4.0665,-0.0096 -4.1672,-0.110241 z"
         id="path5303"
         inkscape:connector-curvature="0" />
    </g>
  </g>
</svg>
