<?xml version="1.0" encoding="UTF-8" standalone="no"?>
<!-- Created with Inkscape (http://www.inkscape.org/) -->

<svg
   xmlns:dc="http://purl.org/dc/elements/1.1/"
   xmlns:cc="http://creativecommons.org/ns#"
   xmlns:rdf="http://www.w3.org/1999/02/22-rdf-syntax-ns#"
   xmlns:svg="http://www.w3.org/2000/svg"
   xmlns="http://www.w3.org/2000/svg"
   xmlns:sodipodi="http://sodipodi.sourceforge.net/DTD/sodipodi-0.dtd"
   xmlns:inkscape="http://www.inkscape.org/namespaces/inkscape"
   version="1.1"
   id="svg5629"
   width="44"
   height="44"
   viewBox="0 0 44 44"
   sodipodi:docname="крепеж.svg"
   inkscape:version="0.92.1 r15371">
  <metadata
     id="metadata5635">
    <rdf:RDF>
      <cc:Work
         rdf:about="">
        <dc:format>image/svg+xml</dc:format>
        <dc:type
           rdf:resource="http://purl.org/dc/dcmitype/StillImage" />
        <dc:title></dc:title>
      </cc:Work>
    </rdf:RDF>
  </metadata>
  <defs
     id="defs5633" />
  <sodipodi:namedview
     pagecolor="#ffffff"
     bordercolor="#666666"
     borderopacity="1"
     objecttolerance="10"
     gridtolerance="10"
     guidetolerance="10"
     inkscape:pageopacity="0"
     inkscape:pageshadow="2"
     inkscape:window-width="1920"
     inkscape:window-height="1017"
     id="namedview5631"
     showgrid="false"
     inkscape:zoom="7.375"
     inkscape:cx="38.875485"
     inkscape:cy="-0.15591741"
     inkscape:window-x="-8"
     inkscape:window-y="-8"
     inkscape:window-maximized="1"
     inkscape:current-layer="svg5629" />
  <path
     style="fill:#c7cb14;fill-opacity:1;stroke-width:0.06136423"
     d="M 21.662494,37.609406 C 21.3044,37.41655 17.794751,35.024482 17.673818,34.890847 c -0.117569,-0.129916 -0.123419,-0.233986 -0.139105,-2.476422 -0.01496,-2.135758 -0.0069,-2.35962 0.09205,-2.555579 0.102964,-0.203956 0.218219,-0.261928 2.286853,-1.150333 1.198138,-0.514558 2.241933,-0.935667 2.31955,-0.935802 0.360657,-4.68e-4 0.687293,0.345524 0.687293,0.728366 0,0.379675 -0.186272,0.495483 -2.147761,1.335243 l -1.840914,0.788143 v 1.758093 1.7581 l 1.483425,0.998895 c 0.81588,0.549396 1.516253,0.998901 1.556391,0.998901 0.04013,0 0.752172,-0.494749 1.582313,-1.099445 l 1.509345,-1.099439 0.01785,-3.600701 c 0.01753,-3.544277 0.01984,-3.603414 0.14629,-3.773903 0.256943,-0.346385 0.746649,-0.369123 1.066332,-0.04951 l 0.155209,0.155166 0.01875,3.787881 c 0.01278,2.585092 -0.0027,3.85995 -0.04752,4.014841 -0.05977,0.20466 -0.251935,0.362347 -1.955541,1.604706 -1.039083,0.757762 -1.98418,1.435622 -2.100207,1.506351 -0.250549,0.152744 -0.451392,0.159898 -0.701869,0.02501 z m -3.911008,-9.340872 -0.200399,-0.178937 -0.01978,-1.247783 c -0.02176,-1.376285 0.01863,-1.6363 0.282062,-1.815766 0.09197,-0.06265 1.902594,-0.853618 4.023614,-1.757706 4.197461,-1.78917 4.077613,-1.750953 4.419404,-1.409162 0.216267,0.216262 0.233782,0.361479 0.211675,1.754819 l -0.0192,1.210905 -0.184097,0.179195 c -0.261215,0.254263 -7.7419,3.443368 -8.07711,3.443368 -0.173771,0 -0.288528,-0.04708 -0.436211,-0.178933 z m 4.360299,-2.889278 2.954378,-1.257965 0.0012,-0.359413 c 6.42e-4,-0.316555 -0.01182,-0.354728 -0.106364,-0.320167 -0.05908,0.02157 -1.439761,0.609246 -3.068217,1.305924 l -2.960823,1.266682 v 0.3555 c 0,0.320143 0.01117,0.351116 0.112812,0.311453 0.06202,-0.02423 1.442283,-0.610132 3.067188,-1.302014 z m -4.203497,-1.385181 c -0.34583,-0.174922 -0.387881,-0.360702 -0.387881,-1.713712 0,-1.405133 0.03583,-1.543905 0.450595,-1.74349 0.140299,-0.06751 1.908643,-0.828121 3.929646,-1.69023 2.677376,-1.142101 3.738712,-1.567466 3.911001,-1.567466 0.174485,0 0.288966,0.04689 0.436855,0.178941 l 0.200401,0.178938 0.01875,1.287652 c 0.02163,1.489996 -0.01188,1.645541 -0.397621,1.841603 -0.500345,0.25433 -7.608605,3.262558 -7.782557,3.293593 -0.109066,0.01947 -0.263595,-0.0074 -0.379169,-0.06583 z m 4.199099,-3.015138 2.960823,-1.2645 v -0.362153 c 0,-0.199184 -0.02074,-0.351328 -0.04603,-0.338103 -0.0253,0.01321 -1.405619,0.601653 -3.067348,1.307616 l -3.021328,1.283557 -6.43e-4,0.359411 c -0.0012,0.316947 0.01181,0.354641 0.106531,0.319043 0.05908,-0.02221 1.439754,-0.609395 3.068208,-1.304871 z M 17.8344,19.326858 C 17.525569,19.110549 17.520407,19.050247 17.520407,15.660749 V 12.50427 L 14.406171,10.020767 C 12.693345,8.65484 11.242437,7.4820848 11.181924,7.4146453 11.019834,7.2339771 10.984222,6.9022254 11.102397,6.6737016 c 0.203957,-0.3944011 -0.0046,-0.3787199 5.036239,-0.3787199 4.947162,0 4.864021,-0.00541 5.081766,0.3269727 0.08996,0.1373049 0.104596,0.3358178 0.104596,1.4197482 V 9.301825 h 0.675004 0.675003 V 8.0417026 c 0,-1.0839304 0.01458,-1.2824433 0.104595,-1.4197482 0.21775,-0.3323251 0.134603,-0.3269727 5.081765,-0.3269727 5.040819,0 4.832283,-0.015679 5.03624,0.3787199 0.118172,0.2285238 0.08256,0.5602755 -0.07953,0.7409437 -0.06049,0.067438 -1.51016,1.2391912 -3.221448,2.6038877 l -3.111433,2.481274 -0.01818,1.652233 -0.01818,1.652235 -0.184098,0.17632 c -0.224433,0.214955 -4.747242,2.165498 -5.044026,2.175327 -0.399011,0.0132 -0.693851,-0.286613 -0.693221,-0.704945 4.68e-4,-0.400459 0.129249,-0.478325 2.392903,-1.448353 l 2.117062,-0.907211 0.03069,-1.573125 c 0.02839,-1.454423 0.03994,-1.584837 0.153412,-1.728274 0.06749,-0.08533 1.241094,-1.046864 2.607982,-2.1367396 l 2.48525,-1.9815971 -3.068214,-0.015959 c -1.687517,-0.00882 -3.102723,-0.0028 -3.144915,0.013433 -0.05785,0.022176 -0.0767,0.3324154 -0.0767,1.2616413 0,1.8397624 0.06982,1.7784384 -2.025017,1.7784384 -2.094846,0 -2.025025,0.06132 -2.025025,-1.7784384 0,-0.9292259 -0.01888,-1.239485 -0.07669,-1.2616413 -0.04218,-0.01615 -1.457406,-0.022215 -3.144922,-0.013433 l -3.068208,0.015959 2.560864,2.0468551 c 2.263803,1.8094216 2.568068,2.0727966 2.622974,2.2704776 0.06807,0.245075 0.08871,6.440579 0.0228,6.839565 -0.05734,0.34721 -0.330445,0.594352 -0.656722,0.594352 -0.14177,0 -0.322053,-0.04504 -0.400627,-0.100075 z"
     id="path5627"
     inkscape:connector-curvature="0" />
</svg>
