<?xml version="1.0" encoding="UTF-8" standalone="no"?>
<!-- Created with Inkscape (http://www.inkscape.org/) -->

<svg
   xmlns:dc="http://purl.org/dc/elements/1.1/"
   xmlns:cc="http://creativecommons.org/ns#"
   xmlns:rdf="http://www.w3.org/1999/02/22-rdf-syntax-ns#"
   xmlns:svg="http://www.w3.org/2000/svg"
   xmlns="http://www.w3.org/2000/svg"
   xmlns:xlink="http://www.w3.org/1999/xlink"
   xmlns:sodipodi="http://sodipodi.sourceforge.net/DTD/sodipodi-0.dtd"
   xmlns:inkscape="http://www.inkscape.org/namespaces/inkscape"
   width="377.95276"
   height="158.74016"
   viewBox="0 0 100 42"
   version="1.1"
   id="svg5385"
   inkscape:version="0.92.1 r15371"
   sodipodi:docname="folder.svg">
  <defs
     id="defs5379">
    <clipPath
       clipPathUnits="userSpaceOnUse"
       id="clipPath4503">
      <use
         x="0"
         y="0"
         xlink:href="#g4499"
         id="use4505"
         width="100%"
         height="100%" />
    </clipPath>
  </defs>
  <sodipodi:namedview
     id="base"
     pagecolor="#ffffff"
     bordercolor="#666666"
     borderopacity="1.0"
     inkscape:pageopacity="0.0"
     inkscape:pageshadow="2"
     inkscape:zoom="1.4"
     inkscape:cx="-2.9579854"
     inkscape:cy="-105.65623"
     inkscape:document-units="mm"
     inkscape:current-layer="layer1"
     showgrid="false"
     units="px"
     inkscape:window-width="1920"
     inkscape:window-height="1017"
     inkscape:window-x="1912"
     inkscape:window-y="-8"
     inkscape:window-maximized="1" />
  <metadata
     id="metadata5382">
    <rdf:RDF>
      <cc:Work
         rdf:about="">
        <dc:format>image/svg+xml</dc:format>
        <dc:type
           rdf:resource="http://purl.org/dc/dcmitype/StillImage" />
        <dc:title />
      </cc:Work>
    </rdf:RDF>
  </metadata>
  <g
     inkscape:label="Layer 1"
     inkscape:groupmode="layer"
     id="layer1"
     transform="translate(0,-255)">
    <path
       class="fil1"
       d="m 54.522457,270.59288 c -1.301296,0.86553 -0.580936,4.75582 2.335366,5.22959 H 97.662806 L 65.873958,255.29588 2.8771989,275.82247 h 9.1904161 l 53.457781,-19.58819 c 18.973388,12.29045 9.039372,18.95954 1.928708,18.23068 -3.2881,-0.33709 -5.542133,-1.6946 -5.414328,-3.87208 z m -3.508856,0 c -2.265653,0 -1.951948,4.96538 3.450763,5.22959 h 1.626622 c -3.311337,-0.30977 -5.391091,-3.41654 -3.706376,-5.22959 z"
       id="path9"
       inkscape:connector-curvature="0"
       style="clip-rule:evenodd;fill:#25446c;fill-rule:evenodd;stroke-width:0.01028863;image-rendering:optimizeQuality;shape-rendering:geometricPrecision;text-rendering:geometricPrecision" />
    <g
       id="g4501"
       clip-path="url(#clipPath4503)"
       transform="matrix(1.4609923,0,0,1.1456309,-23.077412,-40.643129)">
      <g
         inkscape:label="Clip"
         id="g4499">
        <path
           style="clip-rule:evenodd;fill:#25446c;fill-rule:nonzero;stroke-width:0.03005718;image-rendering:optimizeQuality;shape-rendering:geometricPrecision;text-rendering:geometricPrecision"
           d="M 189.35547,82.970703 77.302734,83.390625 c -0.0299,0 -0.03031,0.03125 -0.06055,0.03125 H 63.777344 C 53.076987,106.4457 61.942885,130.25 76.400391,130.25 H 318.87305 v -1.5625 H 205.3457 c -21.91169,0 -22.18201,-30.147146 -15.99023,-45.716797 z m -60.625,2.585938 c 6.55246,0 11.57239,1.773113 15.11914,5.259765 3.54675,3.516699 5.32031,8.445813 5.32031,14.757814 0,4.59874 -0.78273,8.35517 -2.3457,11.30078 -1.53292,2.94561 -3.75633,5.22968 -6.67188,6.88281 -2.9456,1.62308 -6.58311,2.43555 -10.9414,2.43555 -4.41841,0 -8.08446,-0.6908 -11,-2.10352 -2.91555,-1.41267 -5.26102,-3.66733 -7.06446,-6.70312 -1.80343,-3.0658 -2.70507,-6.88368 -2.70507,-11.48242 0,-6.43223 1.77475,-11.421256 5.35156,-14.99805 3.5768,-3.576831 8.56537,-5.349609 14.9375,-5.349609 z m -55.335939,0.660156 h 30.027349 v 8.447265 H 85.599609 v 6.882818 h 15.207031 v 7.93359 H 85.599609 v 16.05078 H 73.394531 Z m 82.296879,0 h 12.14453 v 29.636723 h 18.96484 v 9.67773 h -31.10937 z m -26.99024,8.537109 c -2.43463,0 -4.41977,0.871928 -5.89258,2.615235 -1.4728,1.713259 -2.22265,4.598099 -2.22265,8.595699 0,3.96753 0.72055,6.8219 2.19336,8.53516 1.4728,1.74334 3.48615,2.61523 6.04101,2.61523 2.58492,0 4.63029,-0.87147 6.04297,-2.55468 1.44275,-1.68322 2.16406,-4.74839 2.16406,-9.13672 0,-3.69706 -0.75299,-6.401976 -2.25586,-8.115236 -1.47279,-1.71326 -3.51545,-2.554688 -6.07031,-2.554688 z"
           transform="matrix(0.26458333,0,0,0.26458333,0,255)"
           id="path7"
           inkscape:connector-curvature="0" />
      </g>
    </g>
    <path
       class="fil0"
       d="m 53.407059,277.6264 h 6.971239 c 1.37101,0 2.486408,0.14577 3.334576,0.43731 0.836548,0.29156 1.545291,0.71065 2.091372,1.2573 0.557698,0.55576 0.952737,1.1844 1.208348,1.91326 0.243993,0.72887 0.371799,1.49417 0.371799,2.30502 0,1.27551 -0.185899,2.25948 -0.5577,2.96101 -0.371798,0.71064 -0.883022,1.29372 -1.545289,1.76749 -0.65065,0.47376 -1.347774,0.79264 -2.102991,0.94751 -1.034068,0.21868 -1.963566,0.328 -2.800115,0.328 h -6.971239 z m 4.693967,2.69679 v 6.50509 h 1.138636 c 0.987593,0 1.684716,-0.0821 2.102991,-0.2551 0.406655,-0.16399 0.731979,-0.46464 0.975974,-0.89285 0.232374,-0.4191 0.348561,-1.11152 0.348561,-2.06814 0,-1.2573 -0.267231,-2.12283 -0.790074,-2.58747 -0.522842,-0.46465 -1.394248,-0.70153 -2.614214,-0.70153 z m 11.734919,-2.69679 h 12.583086 v 2.5419 h -7.877499 v 1.89505 h 7.308181 v 2.43257 h -7.308181 v 2.34149 h 8.109873 v 2.70589 h -12.81546 z m 15.406437,11.9169 v -11.9169 h 7.819405 c 1.452343,0 2.556123,0.10029 3.322957,0.29154 0.766838,0.20044 1.38263,0.55576 1.858998,1.08418 0.46475,0.52844 0.708742,1.17529 0.708742,1.93149 0,0.66508 -0.1859,1.22996 -0.546079,1.71283 -0.360182,0.47375 -0.848168,0.86553 -1.475579,1.16618 -0.406655,0.19133 -0.952736,0.34621 -1.649861,0.46465 0.557701,0.14577 0.964356,0.30065 1.219967,0.44643 0.174281,0.0911 0.418275,0.30065 0.755217,0.61953 0.325326,0.32799 0.546082,0.56487 0.65065,0.74708 l 2.277271,3.45299 h -5.30976 l -2.509646,-3.64431 c -0.313706,-0.47376 -0.592555,-0.77442 -0.848167,-0.92019 -0.336943,-0.18222 -0.720362,-0.27332 -1.150254,-0.27332 h -0.418275 v 4.83782 z m 4.705586,-7.08819 h 1.986804 c 0.209136,0 0.627411,-0.0547 1.243203,-0.164 0.302088,-0.0456 0.5577,-0.1731 0.755217,-0.37353 0.197519,-0.20044 0.302088,-0.42822 0.302088,-0.69242 0,-0.38265 -0.162663,-0.6742 -0.464751,-0.88375 -0.313704,-0.20954 -0.90626,-0.30976 -1.754428,-0.30976 h -2.068133 z"
       id="path13"
       inkscape:connector-curvature="0"
       style="clip-rule:evenodd;fill:#25446c;fill-rule:nonzero;stroke-width:0.01028863;image-rendering:optimizeQuality;shape-rendering:geometricPrecision;text-rendering:geometricPrecision" />
    <path
       class="fil0"
       d="m 0.89039537,296.87747 v -2.99744 H 3.6556537 v 0.34621 H 1.4016204 v 0.92019 H 3.50461 v 0.35532 H 1.4016204 v 1.0204 h 2.3353645 v 0.35532 z M 7.1761293,293.88003 H 7.687353 v 1.73105 c 0,0.30066 -0.04648,0.53753 -0.1278076,0.71975 -0.092948,0.17311 -0.2439923,0.31887 -0.4763674,0.42821 -0.2207562,0.10928 -0.5228424,0.16399 -0.8946437,0.16399 -0.3485597,0 -0.6506487,-0.0456 -0.8714035,-0.14577 -0.2323736,-0.0911 -0.3950362,-0.23688 -0.4879861,-0.4191 -0.092948,-0.18222 -0.1394223,-0.42821 -0.1394223,-0.74708 v -1.73105 h 0.4996049 v 1.73105 c 0,0.25509 0.034861,0.44643 0.092947,0.57397 0.058087,0.11845 0.1626626,0.21867 0.313705,0.28244 0.1510451,0.0638 0.3369451,0.10028 0.5577,0.10028 0.3717999,0 0.6274124,-0.0638 0.7900736,-0.20044 0.1626624,-0.12755 0.2323749,-0.38265 0.2323749,-0.7562 z m 1.591766,2.99744 v -2.99744 H 10.46423 c 0.336944,0 0.604174,0.0182 0.778455,0.0729 0.174281,0.0547 0.313706,0.15489 0.418274,0.29153 0.104572,0.13667 0.162662,0.28245 0.162662,0.44643 0,0.21867 -0.09295,0.39178 -0.26723,0.53755 -0.174281,0.14576 -0.441511,0.24598 -0.813312,0.28243 0.139422,0.0456 0.243995,0.10029 0.313706,0.14577 0.139422,0.10929 0.27885,0.24599 0.418275,0.40088 l 0.662268,0.81996 h -0.639032 l -0.499605,-0.62864 c -0.151044,-0.17311 -0.26723,-0.31888 -0.371798,-0.40998 -0.09295,-0.10029 -0.174282,-0.164 -0.255613,-0.20044 -0.06972,-0.0365 -0.151044,-0.0638 -0.232373,-0.0821 -0.05809,-0.009 -0.1510442,-0.009 -0.2788505,-0.009 H 9.279119 v 1.33016 z m 0.5112237,-1.67638 h 1.080542 c 0.232374,0 0.418274,-0.0182 0.54608,-0.0547 0.127808,-0.0365 0.232375,-0.10029 0.290469,-0.18222 0.06972,-0.0821 0.104567,-0.1731 0.104567,-0.27332 0,-0.13667 -0.05809,-0.2551 -0.197519,-0.34622 -0.127807,-0.0911 -0.336942,-0.13666 -0.615792,-0.13666 H 9.2791176 Z m 3.415907,0.20955 c 0,-0.49199 0.174281,-0.88374 0.511225,-1.16619 0.336943,-0.28242 0.778454,-0.41909 1.324534,-0.41909 0.348563,0 0.66227,0.0638 0.952735,0.19133 0.278852,0.13666 0.487988,0.31888 0.639032,0.55576 0.151043,0.23688 0.220756,0.51021 0.220756,0.81086 0,0.30065 -0.06972,0.57398 -0.232373,0.81086 -0.151046,0.24599 -0.371802,0.4191 -0.66227,0.54665 -0.290468,0.12754 -0.592555,0.18221 -0.929498,0.18221 -0.36018,0 -0.673886,-0.0638 -0.964355,-0.20044 -0.278848,-0.13666 -0.487987,-0.32799 -0.63903,-0.55576 -0.151044,-0.23688 -0.220756,-0.49198 -0.220756,-0.75619 z m 0.522843,0.01 c 0,0.36443 0.127809,0.64686 0.371799,0.8564 0.243994,0.20956 0.557698,0.30978 0.929499,0.30978 0.383419,0 0.697123,-0.10029 0.941118,-0.30978 0.243992,-0.21865 0.371798,-0.5102 0.371798,-0.90196 0,-0.23688 -0.05809,-0.45553 -0.162662,-0.63775 -0.104571,-0.18222 -0.255611,-0.31888 -0.464749,-0.41909 -0.197518,-0.10028 -0.429893,-0.15489 -0.673887,-0.15489 -0.360181,0 -0.673885,0.10028 -0.929498,0.29155 -0.255612,0.19132 -0.383418,0.51932 -0.383418,0.96574 z m 4.020081,1.45771 v -2.99744 h 1.440722 c 0.255613,0 0.441512,0.009 0.580936,0.0274 0.185901,0.0182 0.336945,0.0638 0.464749,0.13667 0.127808,0.0729 0.232377,0.16398 0.313706,0.29154 0.06972,0.11845 0.116188,0.2551 0.116188,0.40999 0,0.2551 -0.104572,0.46464 -0.313706,0.64687 -0.209138,0.1731 -0.580938,0.2642 -1.115399,0.2642 h -0.987591 v 1.22085 z m 0.499607,-1.57616 h 0.98759 c 0.325326,0 0.5577,-0.0456 0.697124,-0.14577 0.139422,-0.0911 0.209137,-0.22777 0.209137,-0.40087 0,-0.12755 -0.04649,-0.23688 -0.127807,-0.31888 -0.08132,-0.0911 -0.1859,-0.15488 -0.313706,-0.18221 -0.08132,-0.0182 -0.243993,-0.0274 -0.476368,-0.0274 h -0.975972 z m 3.299718,1.57616 v -2.99744 h 2.76526 v 0.34621 h -2.254037 v 0.9202 h 2.102991 v 0.35531 h -2.102991 v 1.02041 h 2.335366 v 0.35531 z m 3.369431,0 1.463962,-2.99744 h 0.546079 l 1.55691,2.99744 H 27.40434 l -0.453132,-0.91107 h -1.591766 l -0.418275,0.91107 z m 1.092163,-1.22994 h 1.301296 l -0.395036,-0.83873 c -0.127808,-0.24599 -0.220755,-0.45554 -0.278849,-0.61953 -0.04649,0.19131 -0.116188,0.38265 -0.197519,0.57397 z m 3.113819,1.22994 v -2.99744 h 0.511224 l 2.010039,2.35059 v -2.35059 h 0.487988 v 2.99744 h -0.522844 l -1.99842,-2.35968 v 2.35968 z m 5.425947,0 v -2.99744 h 0.499606 v 2.99744 z m 1.626622,0 v -2.99744 h 0.511225 l 2.010041,2.35059 v -2.35059 h 0.476366 v 2.99744 h -0.511222 l -2.010041,-2.35968 v 2.35968 z m 3.915511,-0.96573 0.476369,-0.0364 c 0.02323,0.15487 0.08135,0.27331 0.162663,0.37353 0.08132,0.10028 0.209136,0.1731 0.383419,0.23687 0.17428,0.0547 0.36018,0.0821 0.580936,0.0821 0.197519,0 0.360182,-0.0182 0.511224,-0.0638 0.151043,-0.0456 0.255612,-0.10929 0.325323,-0.18222 0.08135,-0.0821 0.116188,-0.16399 0.116188,-0.26421 0,-0.0911 -0.03486,-0.1731 -0.104572,-0.24599 -0.06972,-0.0638 -0.185901,-0.12755 -0.348562,-0.1731 -0.104572,-0.0365 -0.325325,-0.0821 -0.673885,-0.14577 -0.348563,-0.0638 -0.604175,-0.12756 -0.743601,-0.19134 -0.174279,-0.0729 -0.313706,-0.16399 -0.406655,-0.27332 -0.08132,-0.11843 -0.127808,-0.23688 -0.127808,-0.37355 0,-0.15488 0.04648,-0.30064 0.162663,-0.4282 0.104572,-0.12756 0.267232,-0.22777 0.476369,-0.30066 0.209135,-0.0638 0.441512,-0.10028 0.697122,-0.10028 0.290469,0 0.534463,0.0364 0.755219,0.1093 0.209137,0.0729 0.383416,0.1731 0.499605,0.30975 0.116188,0.14577 0.17428,0.30065 0.185901,0.47376 l -0.487989,0.0274 c -0.02324,-0.18221 -0.116186,-0.32799 -0.267231,-0.42819 -0.151042,-0.0911 -0.371798,-0.14579 -0.662267,-0.14579 -0.302086,0 -0.522842,0.0456 -0.662267,0.13666 -0.139423,0.0821 -0.209138,0.19133 -0.209138,0.31889 0,0.1093 0.04648,0.19132 0.139424,0.26421 0.104572,0.0729 0.360181,0.13665 0.766837,0.20954 0.406655,0.0729 0.685504,0.13667 0.848166,0.19134 0.220757,0.0821 0.383419,0.1822 0.487986,0.30976 0.104572,0.12754 0.162663,0.26421 0.162663,0.4282 0,0.15488 -0.05809,0.30977 -0.17428,0.44643 -0.116188,0.14577 -0.290469,0.2551 -0.511225,0.32798 -0.209135,0.0821 -0.453131,0.11845 -0.73198,0.11845 -0.348563,0 -0.627412,-0.0365 -0.871404,-0.11845 -0.232376,-0.0729 -0.406657,-0.19131 -0.546082,-0.35532 -0.127807,-0.15487 -0.197517,-0.33709 -0.209136,-0.53752 z m 6.471635,-2.03171 h 0.499605 v 1.73105 c 0,0.30066 -0.03486,0.53753 -0.127808,0.71976 -0.08132,0.1731 -0.243993,0.31887 -0.464749,0.4282 -0.232374,0.10929 -0.522842,0.164 -0.894642,0.164 -0.36018,0 -0.650648,-0.0456 -0.871405,-0.14578 -0.232373,-0.0911 -0.395036,-0.23687 -0.487986,-0.4191 -0.104571,-0.18222 -0.151044,-0.4282 -0.151044,-0.74708 v -1.73105 h 0.511224 v 1.73105 c 0,0.2551 0.02324,0.44643 0.09295,0.57398 0.05809,0.11844 0.162661,0.21866 0.313705,0.28244 0.151044,0.0638 0.336945,0.10029 0.54608,0.10029 0.371799,0 0.639032,-0.0638 0.801693,-0.20044 0.151043,-0.12756 0.232375,-0.38266 0.232375,-0.7562 z m 1.556909,2.99744 v -2.99744 h 0.511224 v 2.64213 h 1.882235 v 0.35531 z m 2.811734,0 1.46396,-2.99744 h 0.54608 l 1.556909,2.99744 h -0.569317 l -0.45313,-0.91107 h -1.591765 l -0.418276,0.91107 z m 1.10378,-1.22994 h 1.289678 l -0.395037,-0.83873 c -0.127808,-0.24599 -0.220757,-0.45554 -0.278849,-0.61953 -0.04649,0.19131 -0.116188,0.38265 -0.19752,0.57397 z m 3.683136,1.22994 v -2.65123 h -1.254823 v -0.34621 h 3.020871 v 0.34621 h -1.266441 v 2.65123 z m 2.602597,0 v -2.99744 h 0.511223 v 2.99744 z m 1.487197,-1.46683 c 0,-0.49197 0.162662,-0.88374 0.511225,-1.16618 0.336942,-0.28243 0.778454,-0.4191 1.312915,-0.4191 0.348564,0 0.673888,0.0638 0.952736,0.19134 0.278851,0.13666 0.499607,0.31887 0.650649,0.55576 0.151045,0.23688 0.220756,0.5102 0.220756,0.81085 0,0.30066 -0.08135,0.57398 -0.232374,0.81087 -0.162662,0.24599 -0.383418,0.41909 -0.662266,0.54665 -0.290469,0.12754 -0.604175,0.18221 -0.929501,0.18221 -0.36018,0 -0.685504,-0.0638 -0.964355,-0.20044 -0.278848,-0.13666 -0.499604,-0.32798 -0.639029,-0.55576 -0.151044,-0.23688 -0.220756,-0.49198 -0.220756,-0.7562 z m 0.522844,0.01 c 0,0.36443 0.116186,0.64687 0.360179,0.85642 0.255613,0.20954 0.557699,0.30976 0.941117,0.30976 0.371799,0 0.685505,-0.10029 0.929501,-0.30976 0.243992,-0.21867 0.371798,-0.51021 0.371798,-0.90197 0,-0.23689 -0.04646,-0.45554 -0.162662,-0.63775 -0.104571,-0.18222 -0.255612,-0.31889 -0.453132,-0.4191 -0.209136,-0.10028 -0.429892,-0.15489 -0.685505,-0.15489 -0.36018,0 -0.662267,0.10029 -0.91788,0.29156 -0.25561,0.19132 -0.383416,0.51931 -0.383416,0.96573 z m 4.008461,1.45773 v -2.99744 h 0.511225 l 2.01004,2.35058 v -2.35058 h 0.487986 v 2.99744 h -0.522843 l -1.998421,-2.3597 v 2.3597 z m 5.321378,0 v -2.99744 h 0.755217 l 0.906263,2.1228 c 0.08135,0.19133 0.151044,0.34621 0.1859,0.43732 0.03486,-0.10929 0.104572,-0.26421 0.197517,-0.47376 l 0.91788,-2.08636 h 0.673888 v 2.99744 h -0.487988 v -2.51458 l -1.10378,2.51458 h -0.453129 l -1.103781,-2.56013 v 2.56013 z m 4.275693,0 1.463962,-2.99744 h 0.546079 l 1.556911,2.99744 h -0.569318 l -0.453132,-0.91108 H 74.37887 l -0.418276,0.91108 z m 1.10378,-1.22996 h 1.28968 l -0.395036,-0.83819 c -0.127808,-0.24599 -0.220756,-0.45553 -0.278851,-0.61953 -0.04646,0.19131 -0.116187,0.38265 -0.197518,0.57397 z m 3.683139,1.22996 v -2.65123 h -1.254823 v -0.34621 h 3.020869 v 0.34621 h -1.266442 v 2.65123 z m 2.532883,0 v -2.99744 h 2.753639 v 0.34621 h -2.254035 v 0.92019 h 2.11461 v 0.35532 h -2.11461 v 1.0204 h 2.346985 v 0.35532 z m 3.787706,0 v -2.99744 h 1.696335 c 0.336943,0 0.592555,0.0182 0.778455,0.0729 0.17428,0.0547 0.313705,0.15489 0.418273,0.29155 0.104572,0.13666 0.162663,0.28245 0.162663,0.44643 0,0.21866 -0.09295,0.39176 -0.267231,0.53753 -0.174281,0.14578 -0.441511,0.246 -0.813309,0.28244 0.139421,0.0456 0.243991,0.10028 0.313704,0.14577 0.139422,0.1093 0.27885,0.24599 0.418274,0.40088 l 0.662267,0.81996 h -0.639028 l -0.499607,-0.62864 c -0.151043,-0.1731 -0.27885,-0.31888 -0.371799,-0.40998 -0.09295,-0.10028 -0.17428,-0.16399 -0.255612,-0.20044 -0.06972,-0.0364 -0.151045,-0.0638 -0.232374,-0.0821 -0.05809,-0.01 -0.151045,-0.01 -0.278851,-0.01 h -0.580936 v 1.33017 z m 0.511224,-1.67638 h 1.080543 c 0.232373,0 0.418274,-0.0182 0.54608,-0.0547 0.127809,-0.0365 0.220754,-0.10029 0.290467,-0.18223 0.06972,-0.0821 0.104572,-0.17311 0.104572,-0.27333 0,-0.13665 -0.06972,-0.2551 -0.19752,-0.3462 -0.127807,-0.0911 -0.336941,-0.13667 -0.615792,-0.13667 h -1.208349 z m 3.659901,1.67638 v -2.99744 h 0.499604 v 2.99744 z m 1.208347,0 1.463961,-2.99744 h 0.54608 l 1.568528,2.99744 h -0.580936 l -0.441512,-0.91108 h -1.603385 l -0.418275,0.91108 z m 1.10378,-1.22996 h 1.289678 l -0.395036,-0.83819 c -0.116188,-0.24599 -0.209138,-0.45553 -0.267231,-0.61953 -0.04646,0.19131 -0.116188,0.38265 -0.209137,0.57397 z m 3.090583,1.22996 v -2.99744 h 0.499605 v 2.64212 h 1.882235 v 0.35532 z m 3.055724,-0.96574 0.476369,-0.0365 c 0.02324,0.15488 0.06972,0.27331 0.151042,0.37353 0.08135,0.10029 0.209139,0.17311 0.383419,0.23688 0.174282,0.0547 0.3718,0.0821 0.592555,0.0821 0.1859,0 0.360181,-0.0182 0.511226,-0.0638 0.139421,-0.0456 0.255611,-0.1093 0.325324,-0.18222 0.06971,-0.0821 0.104572,-0.164 0.104572,-0.26422 0,-0.0911 -0.03486,-0.1731 -0.104572,-0.24599 -0.06972,-0.0638 -0.1859,-0.12755 -0.336944,-0.1731 -0.104572,-0.0365 -0.336944,-0.0821 -0.685504,-0.14577 -0.348562,-0.0638 -0.592556,-0.12755 -0.73198,-0.19133 -0.1859,-0.0729 -0.325326,-0.164 -0.406655,-0.27332 -0.09295,-0.11844 -0.139422,-0.23689 -0.139422,-0.37354 0,-0.15488 0.05809,-0.30065 0.162662,-0.42821 0.116187,-0.12755 0.26723,-0.22777 0.487986,-0.30066 0.209138,-0.0638 0.441512,-0.10028 0.697124,-0.10028 0.278848,0 0.534461,0.0365 0.743599,0.10929 0.220756,0.0729 0.383419,0.1731 0.499604,0.30976 0.116186,0.14578 0.185906,0.30066 0.185906,0.47376 l -0.476373,0.0274 c -0.03486,-0.18221 -0.116187,-0.32799 -0.267232,-0.4282 -0.151043,-0.0911 -0.371798,-0.14578 -0.662267,-0.14578 -0.313706,0 -0.534462,0.0456 -0.673886,0.13665 -0.139422,0.0821 -0.209137,0.19134 -0.209137,0.3189 0,0.10929 0.04649,0.19132 0.151043,0.2642 0.09295,0.0729 0.348563,0.13666 0.755218,0.20955 0.418273,0.0729 0.697124,0.13666 0.848167,0.19133 0.220756,0.0821 0.383418,0.18221 0.487987,0.30977 0.11619,0.12753 0.16266,0.2642 0.16266,0.42819 0,0.15488 -0.0581,0.30977 -0.17428,0.44644 -0.116187,0.14577 -0.278849,0.25509 -0.499604,0.32798 -0.220756,0.0821 -0.46475,0.11845 -0.73198,0.11845 -0.348561,0 -0.63903,-0.0365 -0.871406,-0.11845 -0.232374,-0.0729 -0.418273,-0.19132 -0.546078,-0.35531 -0.139423,-0.15488 -0.20914,-0.33711 -0.20914,-0.53754 z"
       id="path15"
       inkscape:connector-curvature="0"
       style="clip-rule:evenodd;fill:#25446c;fill-rule:nonzero;stroke-width:0.01028863;image-rendering:optimizeQuality;shape-rendering:geometricPrecision;text-rendering:geometricPrecision" />
  </g>
</svg>
