<?xml version="1.0" encoding="UTF-8" standalone="no"?>
<!-- Created with Inkscape (http://www.inkscape.org/) -->

<svg
   xmlns:dc="http://purl.org/dc/elements/1.1/"
   xmlns:cc="http://creativecommons.org/ns#"
   xmlns:rdf="http://www.w3.org/1999/02/22-rdf-syntax-ns#"
   xmlns:svg="http://www.w3.org/2000/svg"
   xmlns="http://www.w3.org/2000/svg"
   xmlns:sodipodi="http://sodipodi.sourceforge.net/DTD/sodipodi-0.dtd"
   xmlns:inkscape="http://www.inkscape.org/namespaces/inkscape"
   width="377.95276"
   height="158.74016"
   viewBox="0 0 100 42"
   version="1.1"
   id="svg5385"
   inkscape:version="0.92.1 r15371"
   sodipodi:docname="folder.svg">
  <defs
     id="defs5379" />
  <sodipodi:namedview
     id="base"
     pagecolor="#ffffff"
     bordercolor="#666666"
     borderopacity="1.0"
     inkscape:pageopacity="0.0"
     inkscape:pageshadow="2"
     inkscape:zoom="0.35"
     inkscape:cx="355.93896"
     inkscape:cy="-473.09229"
     inkscape:document-units="mm"
     inkscape:current-layer="layer1"
     showgrid="false"
     units="px"
     inkscape:window-width="1920"
     inkscape:window-height="1017"
     inkscape:window-x="1912"
     inkscape:window-y="-8"
     inkscape:window-maximized="1" />
  <metadata
     id="metadata5382">
    <rdf:RDF>
      <cc:Work
         rdf:about="">
        <dc:format>image/svg+xml</dc:format>
        <dc:type
           rdf:resource="http://purl.org/dc/dcmitype/StillImage" />
        <dc:title />
      </cc:Work>
    </rdf:RDF>
  </metadata>
  <g
     inkscape:label="Layer 1"
     inkscape:groupmode="layer"
     id="layer1"
     transform="translate(0,-255)">
    <g
       id="g5371"
       transform="matrix(0.46595304,0,0,0.45296971,-57.319641,233.21789)">
      <path
         style="fill:#a0a0a0;stroke-width:0.26458332"
         d="m 157.09577,136.64178 c -3.6202,-0.81558 -6.75419,-4.47211 -8.37117,-9.7669 -0.66725,-2.1849 -0.72851,-2.75214 -0.74294,-6.87917 -0.016,-4.57561 0.12223,-5.60185 1.22947,-9.12812 0.93761,-2.98604 1.55545,-4.23089 2.16234,-4.3568 0.30867,-0.064 18.16461,-0.16021 39.67988,-0.21372 33.05249,-0.0822 39.14035,-0.0408 39.25855,0.26728 0.0769,0.20051 -0.11314,1.221 -0.42241,2.26776 -1.37965,4.66959 -1.7388,11.13661 -0.856,15.41394 0.90207,4.37073 3.07082,7.97193 5.74459,9.53887 2.56919,1.50564 0.57602,1.43515 40.35143,1.4271 20.17972,-0.004 36.88146,0.0659 37.11497,0.15551 0.64023,0.24568 0.52324,1.13162 -0.17074,1.293 -1.26375,0.29387 -153.67212,0.27544 -154.97797,-0.0188 z m 155.04412,-0.37824 c 0.35278,-0.23159 0.35278,-0.29109 0,-0.53552 -0.27223,-0.18862 -11.55836,-0.23124 -35.93467,-0.13573 -23.12393,0.0906 -36.19192,0.0465 -37.41041,-0.12632 -2.57792,-0.36562 -4.04537,-1.0797 -5.85319,-2.84823 -2.98087,-2.91609 -4.38767,-6.78898 -4.60294,-12.6718 -0.15236,-4.16376 0.12799,-6.78619 1.13744,-10.63949 0.35836,-1.36795 0.58446,-2.55428 0.50245,-2.63629 -0.20118,-0.20119 -76.10477,-0.008 -77.773,0.19843 l -1.31662,0.16254 -0.71973,1.85208 c -1.50687,3.87764 -1.91432,6.22572 -1.90537,10.98021 0.007,3.60065 0.10565,4.71963 0.5642,6.38589 1.22177,4.43962 3.736,7.97695 6.7349,9.47552 l 1.61563,0.80734 77.28222,-0.004 c 50.26823,-0.003 77.42094,-0.0951 77.67909,-0.26458 z m -123.29157,-2.53456 c -4.7837,-0.98265 -8.25261,-4.38229 -9.23436,-9.04994 -0.42096,-2.00142 -0.36421,-6.02584 0.11068,-7.84908 0.85281,-3.27414 3.02303,-6.06795 5.74128,-7.39097 2.11658,-1.03017 5.21368,-1.58051 7.78519,-1.38338 7.7706,0.59568 11.73253,4.98509 11.73253,12.99844 0,5.11345 -1.55185,8.5573 -4.89296,10.85842 -2.74132,1.88801 -7.30476,2.62536 -11.24236,1.81651 z m 7.66866,-0.54514 c 5.32257,-1.47246 8.2086,-5.73884 8.19817,-12.11924 -0.008,-4.91084 -1.54553,-8.54125 -4.42504,-10.44856 -3.63343,-2.40669 -9.33518,-2.94445 -13.74108,-1.29599 -4.37637,1.63741 -6.96538,5.92384 -6.96538,11.53205 0,5.58243 2.1617,9.61456 6.20965,11.58259 2.64469,1.28578 7.54615,1.6282 10.72368,0.74915 z m -6.48721,-5.22247 c -1.22236,-0.53261 -2.44568,-2.11143 -2.93187,-3.78387 -0.61425,-2.11294 -0.40572,-5.82057 0.4262,-7.57776 0.91164,-1.92556 2.22626,-2.68944 4.62847,-2.68944 1.60736,0 2.05006,0.10611 2.96272,0.71014 0.66346,0.4391 1.29684,1.17254 1.65947,1.92164 1.15412,2.38409 0.95672,7.76588 -0.35742,9.74489 -1.15733,1.74286 -4.32487,2.57318 -6.38757,1.6744 z m 4.23825,-0.39347 c 0.58208,-0.2673 1.26215,-0.71553 1.51126,-0.99607 1.79512,-2.02158 2.01807,-8.01083 0.38946,-10.4624 -1.21791,-1.83335 -4.00576,-2.54655 -6.13405,-1.56923 -1.96231,0.9011 -2.72612,2.36916 -2.96048,5.69015 -0.1696,2.40323 0.32276,4.69397 1.30558,6.0742 1.14559,1.60884 3.86518,2.19233 5.88823,1.26335 z m -37.0499,5.73063 c -0.0713,-0.18603 -0.0986,-5.81511 -0.0607,-12.50907 l 0.069,-12.17083 h 9.39271 9.39271 v 2.64583 2.64584 l -5.55625,0.13229 -5.55625,0.13229 -0.0773,1.74429 c -0.0545,1.2288 0.0294,1.83285 0.28372,2.04392 0.22908,0.19011 1.99785,0.3262 4.83979,0.37237 l 4.47877,0.0727 v 2.38125 2.38125 l -4.53675,0.0723 c -3.32778,0.053 -4.61286,0.16398 -4.82235,0.4164 -0.1745,0.21026 -0.31378,2.18917 -0.35804,5.0871 l -0.0724,4.74297 -3.64345,0.0736 c -2.76844,0.056 -3.67459,-0.008 -3.77312,-0.26458 z m 7.22443,-4.81662 c 0.0443,-2.89793 0.18354,-4.87685 0.35803,-5.0871 0.20949,-0.25242 1.49458,-0.36339 4.82235,-0.4164 l 4.53676,-0.0723 v -2.11667 -2.11666 l -4.47877,-0.0728 c -2.75493,-0.0448 -4.61344,-0.18452 -4.82865,-0.36313 -0.41121,-0.34127 -0.4808,-3.57813 -0.0902,-4.19432 0.21012,-0.33147 1.1361,-0.39688 5.61834,-0.39688 h 5.36676 v -2.38125 -2.38125 h -9.12813 -9.12812 l -0.069,11.90625 c -0.0379,6.54844 -0.0105,12.05866 0.0609,12.24493 0.0983,0.25622 0.95241,0.32063 3.50857,0.26458 l 3.37869,-0.0741 z m 44.89687,4.81242 c -0.0704,-0.18372 -0.097,-5.81091 -0.0591,-12.50487 l 0.069,-12.17083 h 3.70417 3.70416 l 0.0696,9.19427 c 0.0383,5.05685 0.0978,9.21817 0.13229,9.24738 0.0345,0.0292 2.68209,0.1185 5.88355,0.19843 l 5.82083,0.14534 v 3.0427 3.04271 l -9.59818,0.0695 c -7.53649,0.0545 -9.62569,-0.002 -9.72625,-0.26459 z m 19.05985,-2.84758 v -2.77812 l -5.5943,-0.0713 c -4.23338,-0.054 -5.66463,-0.15607 -5.88341,-0.41968 -0.19339,-0.23302 -0.31219,-3.31917 -0.35882,-9.32138 l -0.0697,-8.97303 -3.50573,-0.0738 -3.50573,-0.0738 v 12.31415 12.31414 l 9.45885,-0.0695 9.45886,-0.0695 z m 7.54146,3.18112 c -0.34148,-0.21587 -0.40037,-1.91915 -0.42749,-12.36522 -0.0175,-6.73974 0.0743,-12.32029 0.20691,-12.57787 0.21739,-0.42229 0.82075,-0.46302 6.85755,-0.46302 7.76703,0 9.43349,0.25806 11.66259,1.80606 3.57042,2.47947 5.31176,7.89233 4.46287,13.87254 -0.81064,5.71071 -4.07425,9.00195 -9.64437,9.72602 -2.46851,0.32089 -12.611,0.32204 -13.11806,0.002 z m 15.08194,-0.69183 c 2.24412,-0.66534 3.24261,-1.2752 4.70176,-2.87174 1.62632,-1.77946 2.34208,-3.55721 2.69831,-6.70185 0.81515,-7.19578 -1.83152,-12.73377 -6.82386,-14.27852 -1.27489,-0.39448 -2.57101,-0.4653 -8.51524,-0.4653 h -7.01146 l -0.0688,12.28586 c -0.054,9.64912 0.003,12.3334 0.26459,12.50739 0.18337,0.12184 3.25112,0.1616 6.81722,0.0883 4.90663,-0.10079 6.83743,-0.23803 7.9375,-0.56418 z m -7.34371,-5.42811 c -0.24528,-0.25364 -0.33073,-1.92998 -0.33073,-6.4879 0,-7.29514 -0.0988,-7.03551 2.58786,-6.80049 2.35553,0.20605 3.59435,0.903 4.35742,2.45144 0.52285,1.06096 0.59444,1.61081 0.58792,4.51536 -0.006,2.90251 -0.0797,3.44425 -0.5979,4.42632 -0.33591,0.63657 -0.96011,1.31174 -1.4478,1.56603 -1.11459,0.58116 -4.69228,0.80958 -5.15677,0.32924 z m 4.85621,-0.54538 c 1.17168,-0.57436 1.71225,-1.57127 2.01259,-3.71154 0.34885,-2.48608 0.0799,-5.13103 -0.67033,-6.59213 -0.777,-1.51324 -1.9259,-2.08712 -4.17837,-2.08712 h -1.75846 l -0.18211,2.71197 c -0.19406,2.88982 -0.16331,8.99546 0.0495,9.82557 0.11522,0.44947 0.32048,0.48443 2.06827,0.35225 1.06719,-0.0807 2.26371,-0.30526 2.65893,-0.499 z m 14.1574,6.56277 c -0.21592,-0.26016 -0.28041,-3.82664 -0.23084,-12.76615 l 0.0688,-12.40512 10.30118,-0.0693 c 8.06528,-0.0543 10.34719,0.003 10.51314,0.26458 0.37013,0.58306 0.26153,4.86488 -0.13166,5.19119 -0.22796,0.18919 -2.48566,0.31697 -6.41615,0.36313 l -6.06443,0.0712 v 1.5875 1.5875 l 5.74813,0.0713 c 5.35908,0.0665 5.76655,0.1057 6.02022,0.57969 0.29753,0.55593 0.13173,4.4881 -0.20336,4.8232 -0.11193,0.11192 -2.75984,0.23571 -5.88425,0.27508 l -5.68074,0.0716 v 2.11667 2.11667 l 6.48229,0.13229 6.48229,0.13229 0.0757,2.7395 c 0.0495,1.79287 -0.0302,2.86712 -0.23083,3.10885 -0.44911,0.54114 -20.40068,0.54912 -20.84949,0.008 z m 20.67673,-0.39589 c 0.11911,-0.11911 0.18208,-1.33699 0.13994,-2.7064 l -0.0766,-2.48982 -6.48229,-0.13229 -6.48229,-0.13229 v -2.38125 -2.38125 l 5.82083,-0.13229 5.82083,-0.13229 v -2.38125 -2.38125 l -5.82083,-0.13229 -5.82083,-0.1323 v -1.85208 -1.85208 l 6.06443,-0.0712 c 4.03154,-0.0474 6.18558,-0.17178 6.42585,-0.37119 0.26609,-0.22082 0.34142,-0.90002 0.28557,-2.5746 l -0.0759,-2.27465 H 272.98156 262.7951 l -0.0688,12.14048 c -0.0438,7.72168 0.0264,12.25528 0.19292,12.45588 0.30535,0.36792 20.07937,0.28519 20.45012,-0.0856 z m 4.66792,0.3292 c -0.47113,-0.56768 -0.54441,-24.50799 -0.0764,-24.97603 0.41503,-0.41511 16.80255,-0.21393 18.12483,0.22251 1.52476,0.50327 2.66971,1.41263 3.52941,2.80316 0.65038,1.05196 0.81658,1.64265 0.89409,3.17761 0.0524,1.037 -0.0371,2.37695 -0.19889,2.97767 -0.38789,1.44053 -2.3471,3.60142 -3.78802,4.17796 -1.18791,0.47531 -1.17697,0.5458 0.21935,1.41347 1.04522,0.64948 5.66293,8.78135 5.66293,9.97252 0,0.35303 -0.58799,0.39742 -4.43038,0.33451 l -4.43038,-0.0725 -2.39254,-4.46317 c -1.3159,-2.45474 -2.66917,-4.68716 -3.00727,-4.96093 -0.69709,-0.56448 -2.02311,-0.66454 -2.21363,-0.16704 -0.0697,0.1819 -0.12374,2.39605 -0.12017,4.92033 0.005,3.65554 -0.0691,4.63744 -0.36468,4.8246 -0.20413,0.12924 -1.87462,0.23681 -3.7122,0.23904 -2.75745,0.003 -3.40304,-0.0707 -3.696,-0.42366 z m 5.34835,-0.10146 h 2.07389 l 0.072,-4.96094 0.072,-4.96093 0.84601,-0.0819 c 1.65374,-0.16004 2.16328,0.39581 4.84254,5.28271 l 2.5158,4.58875 3.94706,0.0735 c 2.17087,0.0404 4.04588,-0.0254 4.16667,-0.14614 0.12079,-0.12079 -0.7022,-1.99729 -1.82886,-4.16999 -1.93853,-3.73832 -3.31109,-5.60105 -4.68807,-6.36222 -0.46365,-0.2563 -0.34388,-0.37871 1.14917,-1.1745 2.60438,-1.38813 3.73832,-3.25488 3.72825,-6.13765 -0.0103,-2.96187 -1.57254,-5.34631 -4.07524,-6.22027 -1.17563,-0.41054 -2.3811,-0.46896 -9.67729,-0.46896 h -8.33437 l -0.0688,12.34937 c -0.0775,13.91403 -0.26897,12.73084 2.02391,12.50405 0.63877,-0.0632 2.09466,-0.11488 3.23531,-0.11488 z m 2.25898,-15.20178 c -0.25081,-0.65361 -0.2055,-3.91708 0.0602,-4.33633 0.1722,-0.2717 0.89622,-0.33425 3.0625,-0.26458 2.62676,0.0845 2.87536,0.13868 3.35497,0.73149 0.77883,0.96267 0.59296,2.83765 -0.3509,3.53978 -1.01821,0.75744 -5.86258,1.01808 -6.12677,0.32964 z m 5.87261,-0.60183 c 0.95664,-0.71137 1.11138,-2.38316 0.28948,-3.12779 -0.46457,-0.4209 -1.0454,-0.53203 -3.1659,-0.60573 l -2.59694,-0.0903 -0.0879,2.01458 c -0.0483,1.10802 -0.043,2.14655 0.0119,2.30785 0.0678,0.19922 0.86125,0.24986 2.47414,0.15789 1.7979,-0.10251 2.54451,-0.2619 3.07522,-0.65654 z M 153.77252,104.75912 c -0.26502,-0.42881 0.0722,-0.64948 2.3955,-1.56782 1.16417,-0.46015 4.02167,-1.64975 6.35,-2.64354 2.32833,-0.993789 8.57912,-3.616323 13.89063,-5.82785 5.31151,-2.211528 10.43119,-4.351126 11.37708,-4.754661 1.78745,-0.762566 7.29482,-3.062401 16.80104,-7.015983 3.05594,-1.270946 7.63984,-3.178157 10.18646,-4.238246 2.54661,-1.060088 8.20208,-3.413031 12.56771,-5.22876 4.36562,-1.81573 11.98562,-4.993991 16.93333,-7.062802 10.9068,-4.56052 11.67734,-4.85344 12.10126,-4.600261 0.33771,0.201692 8.02825,6.45675 15.41276,12.535893 2.20961,1.81901 5.78095,4.736041 7.93633,6.482291 3.91485,3.171753 10.41574,8.494887 16.40798,13.435377 3.74927,3.091204 5.89575,4.858123 8.59896,7.078422 3.12334,2.56538 3.50821,2.9393 3.26805,3.17511 -0.12394,0.12169 -15.16769,0.28971 -33.43055,0.37337 -37.43446,0.17149 -34.22194,0.34136 -36.07619,-1.90755 -1.46951,-1.78228 -2.08652,-3.750715 -1.98051,-6.318284 0.14027,-3.397065 -0.13802,-3.268737 7.08854,-3.268737 6.49462,0 6.62212,0.02772 6.6323,1.441979 0.0202,2.801745 3.35013,5.727002 7.39185,6.493492 4.89596,0.9285 9.53466,-0.48138 12.6933,-3.857967 1.88487,-2.014934 2.67924,-3.891319 2.86311,-6.762961 0.32885,-5.135766 -2.15054,-10.53357 -7.96017,-17.329878 -2.97401,-3.479097 -9.04847,-9.073524 -9.86196,-9.082612 -0.30613,-0.0034 -4.2208,1.720187 -8.69927,3.830239 -4.47847,2.110053 -8.17773,3.836459 -8.22057,3.836459 -0.0428,0 -1.7241,0.787261 -3.73614,1.749469 -2.01203,0.962208 -4.25356,2.019093 -4.98116,2.348634 -0.72761,0.32954 -2.45402,1.137343 -3.83646,1.795118 -1.38245,0.657775 -8.04995,3.78463 -14.81667,6.948567 -14.99615,7.011798 -15.35024,7.177999 -24.07708,11.301112 -3.8563,1.821963 -8.02349,3.784545 -9.26042,4.36129 -1.23692,0.57675 -3.92209,1.84066 -5.96704,2.80868 l -3.71808,1.76005 h -7.04807 c -4.78991,0 -7.10503,-0.0922 -7.22585,-0.28764 z m 15.15185,-0.48247 c 0.69661,-0.27804 3.6289,-1.64726 6.5162,-3.04271 2.8873,-1.395452 5.28706,-2.537184 5.3328,-2.537184 0.0457,0 2.44589,-1.11715 5.33369,-2.482557 2.8878,-1.365403 9.23914,-4.355396 14.11408,-6.644425 4.87495,-2.289029 10.82808,-5.089325 13.22917,-6.222881 2.40109,-1.133555 6.0325,-2.833387 8.06979,-3.777403 2.03729,-0.944016 5.78776,-2.695352 8.33438,-3.891857 2.54661,-1.196505 6.23755,-2.922168 8.20208,-3.834806 1.96453,-0.912638 6.01266,-2.814333 8.99583,-4.225988 2.98318,-1.411655 6.10737,-2.869337 6.94266,-3.239295 l 1.51869,-0.67265 0.99485,0.751885 c 1.64141,1.240549 9.67827,9.381481 10.96439,11.106385 4.47082,5.996107 6.21671,10.425561 5.98873,15.193891 -0.0974,2.036839 -0.23728,2.590215 -1.0921,4.31982 -2.5394,5.138115 -8.53173,7.741395 -15.0285,6.528905 -3.91419,-0.73051 -7.3783,-3.825729 -7.3783,-6.592585 0,-1.297075 -0.22113,-1.343816 -6.33677,-1.339472 -3.13598,0.0021 -5.84315,0.09395 -6.01595,0.203822 -0.98449,0.625994 -1.16925,3.999344 -0.34716,6.338345 0.61778,1.7577 1.67476,3.16134 2.93835,3.90206 0.88567,0.51918 1.3536,0.52523 34.10319,0.44039 18.26287,-0.0473 33.26009,-0.14063 33.32716,-0.20739 0.13093,-0.13029 0.007,-0.23965 -3.73969,-3.3116 -1.35722,-1.112668 -5.02752,-4.127648 -8.15622,-6.699954 -7.03097,-5.780629 -25.85196,-21.185315 -28.29535,-23.159306 -0.99068,-0.800365 -3.67249,-3.003021 -5.95958,-4.894792 -5.98048,-4.94676 -4.94694,-4.61009 -9.01383,-2.936228 -5.0624,2.083602 -13.49465,5.590813 -20.09894,8.359724 -5.96182,2.499546 -12.48932,5.215526 -19.05,7.926373 -2.03729,0.8418 -7.03792,2.927487 -11.1125,4.634859 -4.07458,1.707373 -12.76615,5.341901 -19.31458,8.07673 -6.54844,2.734828 -15.24,6.365195 -19.31459,8.067484 -4.07458,1.70228 -7.80385,3.2599 -8.28727,3.46137 -1.768,0.73683 -0.66117,0.90656 5.91184,0.90656 5.73789,0 6.59792,-0.0563 7.72345,-0.50552 z m 66.61865,0.40785 c -2.49024,-0.79792 -4.14122,-2.15967 -5.18233,-4.27449 -1.29566,-2.63184 -1.0355,-5.89067 0.53746,-6.732495 0.64709,-0.346311 2.84232,-0.355793 3.05406,-0.0132 0.0881,0.142579 -0.0304,0.820782 -0.26345,1.507122 -0.99857,2.941212 0.89933,6.774363 4.18695,8.456333 0.7009,0.35858 1.22738,0.79478 1.16995,0.96933 -0.1456,0.44251 -2.23188,0.49456 -3.50264,0.0874 z m 2.61685,-0.12002 c 0.074,-0.11974 -0.48452,-0.63358 -1.24115,-1.14189 -2.76422,-1.85698 -4.29728,-5.203942 -3.65605,-7.981881 0.41168,-1.783522 0.41695,-1.771037 -0.74761,-1.771037 -0.71584,0 -1.27206,0.196536 -1.77112,0.625811 -0.62589,0.538367 -0.74298,0.86804 -0.83794,2.359338 -0.18628,2.925476 1.35782,5.626209 3.98229,6.965309 1.79491,0.91582 3.98937,1.40097 4.27158,0.94435 z"
         id="path5377"
         inkscape:connector-curvature="0" />
      <path
         style="fill:#5e5e5e;stroke-width:0.26458332"
         d="m 155.56295,135.72483 c -2.9989,-1.49857 -5.51313,-5.0359 -6.7349,-9.47552 -0.45855,-1.66626 -0.55742,-2.78524 -0.5642,-6.38589 -0.009,-4.75449 0.3985,-7.10257 1.90537,-10.98021 l 0.71973,-1.85208 1.31662,-0.16254 c 1.66823,-0.20596 77.57182,-0.39962 77.773,-0.19843 0.082,0.082 -0.14409,1.26834 -0.50245,2.63629 -1.00945,3.8533 -1.2898,6.47573 -1.13744,10.63949 0.21527,5.88282 1.62207,9.75571 4.60294,12.6718 1.80782,1.76853 3.27527,2.48261 5.85319,2.84823 1.21849,0.17281 14.28648,0.21694 37.41041,0.12632 24.37631,-0.0955 35.66244,-0.0529 35.93467,0.13573 0.35278,0.24443 0.35278,0.30393 0,0.53552 -0.25815,0.16946 -27.41086,0.26195 -77.67909,0.26458 l -77.28222,0.004 z m 113.58215,0.28288 c -33.92263,-0.14885 -31.48368,-0.039 -34.44717,-1.55091 -1.37957,-0.7038 -3.661,-3.21609 -4.53047,-4.98889 -0.37829,-0.77132 -0.79968,-1.40241 -0.93643,-1.40241 -0.14846,0 -0.18533,0.97713 -0.0915,2.42541 0.0912,1.4076 0.0482,2.62893 -0.10243,2.91042 -0.24447,0.45679 -0.82553,0.48501 -9.98693,0.48501 -7.21295,0 -9.80943,-0.0821 -10.04486,-0.3175 -0.46959,-0.46959 -0.45499,-24.26416 0.0153,-24.90729 0.29282,-0.40047 0.79309,-0.44625 4.16718,-0.3813 l 3.83443,0.0738 0.13229,9.26041 0.13229,9.26042 5.89939,0.13229 5.8994,0.13229 -0.16957,-0.66146 c -1.42729,-5.56756 -1.28836,-11.99874 0.38431,-17.78976 0.28317,-0.98036 0.4344,-1.82609 0.33608,-1.87939 -0.0983,-0.0533 -1.78612,-0.0724 -3.75065,-0.0423 -1.96453,0.03 -14.04938,0.10074 -26.85521,0.15716 -12.80583,0.0564 -28.81914,0.16319 -35.58513,0.2373 l -12.3018,0.13472 -0.62668,1.57973 c -1.49333,3.76431 -1.96047,6.33564 -1.97219,10.85569 -0.009,3.5519 0.082,4.57405 0.56656,6.35 1.05376,3.86201 2.88652,6.85811 5.26535,8.60753 2.26093,1.6627 -3.56141,1.54564 74.55181,1.49885 49.4867,-0.0297 61.84419,-0.0849 40.21666,-0.1798 z m -80.56562,-2.0016 c -4.67838,-1.06489 -7.93536,-4.18207 -9.11942,-8.72798 -0.50753,-1.94852 -0.52844,-6.64951 -0.0378,-8.49224 0.87219,-3.2756 3.16008,-6.20802 5.9443,-7.61889 3.88194,-1.96713 9.7658,-1.92146 13.78412,0.10697 2.90109,1.46447 4.65697,3.70091 5.72624,7.29346 0.54629,1.83543 0.61585,6.36626 0.12934,8.42485 -1.01632,4.30043 -3.95432,7.45407 -8.19841,8.80015 -1.80153,0.57139 -6.15968,0.68456 -8.22839,0.21368 z m 8.46712,-0.62867 c 1.95572,-0.60869 4.08497,-1.99844 5.21363,-3.4029 1.9149,-2.38284 2.72341,-5.03111 2.72341,-8.92049 0,-8.01335 -3.96193,-12.40276 -11.73253,-12.99844 -2.57151,-0.19713 -5.66861,0.35321 -7.78519,1.38338 -2.71825,1.32302 -4.88847,4.11683 -5.74128,7.39097 -0.47489,1.82324 -0.53164,5.84766 -0.11068,7.84908 0.68921,3.27678 2.92317,6.33475 5.7147,7.82263 3.08876,1.64628 8.05074,2.01713 11.71794,0.87577 z m -7.03809,-5.81608 c -2.11034,-0.9584 -3.19312,-3.6636 -2.9343,-7.33101 0.23436,-3.32099 0.99817,-4.78905 2.96048,-5.69015 2.12829,-0.97732 4.91614,-0.26412 6.13405,1.56923 1.62861,2.45157 1.40566,8.44082 -0.38946,10.4624 -0.67938,0.7651 -2.43443,1.48205 -3.62793,1.48205 -0.58208,0 -1.54636,-0.22163 -2.14284,-0.49252 z m 4.7387,-0.48796 c 1.18051,-0.68946 1.72918,-1.80441 2.06842,-4.20331 0.22839,-1.61495 0.22039,-2.55812 -0.0345,-4.07531 -0.29598,-1.76148 -0.44982,-2.09245 -1.42851,-3.07333 -1.28511,-1.28801 -2.87616,-1.68654 -4.57045,-1.14484 -2.35248,0.75213 -3.39328,2.73892 -3.39328,6.47744 0,3.58817 1.10058,5.81738 3.2026,6.48687 1.07247,0.34157 3.1755,0.10498 4.15576,-0.46752 z m -37.74134,6.63655 c -0.097,-0.097 -0.17639,-5.80975 -0.17639,-12.69496 v -12.51857 l 0.59531,-0.14502 c 0.32742,-0.0798 4.70297,-0.11179 9.72344,-0.0712 l 9.12812,0.0738 v 2.91041 2.91042 l -5.50207,0.0716 -5.50207,0.0716 0.0781,1.78053 0.0781,1.78054 4.34668,0.0729 c 2.72864,0.0458 4.48035,0.18386 4.70575,0.37093 0.26532,0.22019 0.33934,0.92652 0.28353,2.7052 l -0.0755,2.4072 -4.47877,0.0727 c -2.52477,0.041 -4.61989,0.18988 -4.80224,0.34122 -0.23889,0.19825 -0.29687,1.41394 -0.22171,4.6487 0.0621,2.6743 -0.003,4.57655 -0.168,4.8843 -0.24598,0.45962 -0.60335,0.50407 -4.05282,0.50407 -2.08068,0 -3.86243,-0.0794 -3.95944,-0.17639 z m 7.70126,-4.96346 c 0.0443,-2.89793 0.18354,-4.87684 0.35804,-5.0871 0.20949,-0.25242 1.49457,-0.36338 4.82235,-0.4164 l 4.53675,-0.0723 v -2.38125 -2.38125 l -4.47877,-0.0727 c -2.84194,-0.0462 -4.61071,-0.18226 -4.83979,-0.37237 -0.25432,-0.21107 -0.33817,-0.81512 -0.28372,-2.04392 l 0.0773,-1.74429 5.55625,-0.13229 5.55625,-0.13229 v -2.64584 -2.64583 h -9.39271 -9.39271 l -0.069,12.17083 c -0.0379,6.69396 -0.0106,12.32304 0.0607,12.50907 0.0985,0.257 1.00468,0.32054 3.77312,0.26458 l 3.64345,-0.0736 z m 136.51319,7.36124 c -0.0879,-0.0879 -0.31613,-0.0973 -0.50712,-0.0209 -0.21107,0.0845 -0.14838,0.14716 0.15985,0.15985 0.27891,0.0115 0.43519,-0.0511 0.34727,-0.13896 z m 4.10655,-0.0339 c -0.61846,-0.0557 -1.6305,-0.0557 -2.24896,0 -0.61846,0.0557 -0.11245,0.10128 1.12448,0.10128 1.23693,0 1.74294,-0.0456 1.12448,-0.10128 z m 4.50382,0.003 c -0.4697,-0.0584 -1.30314,-0.0594 -1.85209,-0.002 -0.54894,0.0573 -0.16465,0.1051 0.854,0.10627 1.01864,0.001 1.46779,-0.0457 0.99809,-0.10414 z m -81.16684,-5.62989 v -3.0427 l -5.82083,-0.14534 c -3.20146,-0.0799 -5.84906,-0.16923 -5.88355,-0.19843 -0.0345,-0.0292 -0.094,-4.19053 -0.13229,-9.24738 l -0.0696,-9.19427 h -3.70416 -3.70417 l -0.069,12.17083 c -0.0379,6.69396 -0.0113,12.32115 0.0591,12.50487 0.10056,0.26229 2.18976,0.31912 9.72625,0.26459 l 9.59818,-0.0695 z m 7.6041,2.96513 c -0.26185,-0.17399 -0.31864,-2.85827 -0.26459,-12.50739 l 0.0688,-12.28586 h 7.01146 c 5.94423,0 7.24035,0.0708 8.51524,0.4653 4.99234,1.54475 7.63901,7.08274 6.82386,14.27852 -0.35623,3.14464 -1.07199,4.92239 -2.69831,6.70185 -2.59281,2.83695 -4.15504,3.26163 -12.63926,3.43592 -3.5661,0.0733 -6.63385,0.0335 -6.81722,-0.0883 z m 14.35632,-0.68278 c 2.22366,-0.60041 3.23396,-1.13676 4.4705,-2.37329 2.23839,-2.23839 3.10601,-4.79463 3.10976,-9.16215 0.004,-5.14213 -1.38736,-8.69632 -4.14956,-10.59676 -2.18962,-1.5065 -2.99615,-1.63975 -10.77289,-1.77981 l -7.0776,-0.12746 v 12.20148 12.20148 l 6.54843,-0.003 c 4.65917,-0.002 6.93011,-0.1062 7.87136,-0.36034 z m -7.22313,-4.9811 c -0.22947,-0.22947 -0.3175,-2.09482 -0.3175,-6.72797 0,-7.66093 -0.10132,-7.39381 2.71492,-7.15771 4.09233,0.34309 5.48259,2.17031 5.48569,7.20985 0.002,3.99897 -0.99528,6.10404 -3.19169,6.73396 -1.27075,0.36445 -4.30646,0.32683 -4.69142,-0.0581 z m 5.43459,-0.56931 c 0.48769,-0.25429 1.11189,-0.92946 1.4478,-1.56603 0.51822,-0.98207 0.5914,-1.52381 0.5979,-4.42632 0.007,-2.90455 -0.0651,-3.4544 -0.58792,-4.51536 -0.76307,-1.54844 -2.00189,-2.24539 -4.35742,-2.45144 -2.68666,-0.23502 -2.58786,-0.49465 -2.58786,6.80049 0,4.55792 0.0855,6.23426 0.33073,6.4879 0.46449,0.48034 4.04218,0.25192 5.15677,-0.32924 z m 14.08345,6.0363 c -0.16648,-0.2006 -0.2367,-4.7342 -0.19292,-12.45588 l 0.0688,-12.14048 h 10.18646 10.18646 l 0.0759,2.27465 c 0.0558,1.67458 -0.0195,2.35378 -0.28557,2.5746 -0.24027,0.19941 -2.39431,0.32384 -6.42585,0.37119 l -6.06443,0.0712 v 1.85208 1.85208 l 5.82083,0.1323 5.82083,0.13229 v 2.38125 2.38125 l -5.82083,0.13229 -5.82083,0.13229 v 2.38125 2.38125 l 6.48229,0.13229 6.48229,0.13229 0.0766,2.48982 c 0.0421,1.36941 -0.0208,2.58729 -0.13994,2.7064 -0.37075,0.37075 -20.14477,0.45348 -20.45012,0.0856 z m 10.8877,-0.1224 h 9.51328 l -0.0761,-2.4474 -0.0761,-2.44739 -6.33743,-0.0711 c -4.66508,-0.0523 -6.39203,-0.15703 -6.54438,-0.39687 -0.36432,-0.57353 -0.253,-4.59516 0.13613,-4.91812 0.22451,-0.18632 2.34821,-0.31732 5.88698,-0.36312 l 5.53578,-0.0717 v -2.11666 -2.11667 l -5.82083,-0.13229 -5.82084,-0.13229 -0.0788,-1.80976 c -0.0482,-1.10645 0.0415,-1.95473 0.23083,-2.18281 0.24945,-0.30057 1.45372,-0.37306 6.19794,-0.37306 4.73931,0 5.94864,-0.0727 6.1974,-0.3724 0.19162,-0.23089 0.27934,-1.1106 0.23083,-2.3151 l -0.0782,-1.94271 h -9.92187 -9.92188 l -0.0689,11.87583 c -0.0705,12.15212 -0.0193,12.8409 0.92667,12.47788 0.20687,-0.0794 4.65711,-0.14433 9.88942,-0.14433 z m 14.71635,0.35956 c -0.43715,-0.12654 -0.46143,-0.89009 -0.39688,-12.48415 l 0.0688,-12.34937 h 8.33437 c 7.29619,0 8.50166,0.0584 9.67729,0.46896 2.5027,0.87396 4.06488,3.2584 4.07524,6.22027 0.0101,2.88277 -1.12387,4.74952 -3.72825,6.13765 -1.49305,0.79579 -1.61282,0.9182 -1.14917,1.1745 1.37698,0.76117 2.74954,2.6239 4.68807,6.36222 1.12666,2.1727 1.94965,4.0492 1.82886,4.16999 -0.12079,0.12079 -1.9958,0.18655 -4.16667,0.14614 l -3.94706,-0.0735 -2.5158,-4.58875 c -2.67926,-4.8869 -3.1888,-5.44275 -4.84254,-5.28271 l -0.84601,0.0819 -0.072,4.96093 -0.072,4.96094 h -2.07389 c -1.14065,0 -2.59654,0.0517 -3.23531,0.11488 -0.63878,0.0632 -1.37094,0.0542 -1.62703,-0.0199 z m 6.68333,-5.10316 c 0,-3.95959 0.0687,-4.81232 0.41577,-5.15938 0.51087,-0.51087 0.93599,-0.52137 2.06184,-0.051 1.18586,0.49548 1.57422,1.04644 4.1033,5.82117 l 2.18904,4.13277 h 3.81711 c 2.53807,0 3.8171,-0.095 3.8171,-0.28349 0,-0.15592 -0.76878,-1.79538 -1.7084,-3.64324 -1.79664,-3.53328 -3.12714,-5.34881 -4.40357,-6.00888 -1.12997,-0.58433 -0.94707,-1.10401 0.63479,-1.80359 1.69731,-0.75063 3.17158,-2.38369 3.62998,-4.02096 0.7994,-2.85514 -0.35937,-6.24171 -2.54968,-7.45163 -1.60801,-0.88826 -4.02953,-1.11888 -11.80885,-1.12464 l -7.0776,-0.005 v 12.17084 12.17083 h 3.43958 3.43959 z m 0.17155,-9.93386 c -0.23446,-0.61099 -0.20989,-4.43187 0.0309,-4.81026 0.20889,-0.32823 1.92516,-0.48915 4.34127,-0.40704 2.46389,0.0837 3.80304,1.70833 3.09125,3.75018 -0.43643,1.25195 -1.53425,1.68118 -4.61919,1.80602 -2.32692,0.0942 -2.6949,0.0503 -2.84427,-0.3389 z m 6.39321,-0.58938 c 0.94386,-0.70213 1.12973,-2.57711 0.3509,-3.53978 -0.47961,-0.59281 -0.72821,-0.64702 -3.35497,-0.73149 -2.16628,-0.0697 -2.8903,-0.007 -3.0625,0.26458 -0.2657,0.41925 -0.31101,3.68272 -0.0602,4.33633 0.26419,0.68844 5.10856,0.4278 6.12677,-0.32964 z m -147.19423,-13.3139 c -0.0918,-0.14857 0.22858,-0.43496 0.71199,-0.63643 0.48342,-0.20147 4.21269,-1.75909 8.28727,-3.46137 4.07459,-1.702289 12.76615,-5.332656 19.31459,-8.067484 6.54843,-2.734829 15.24,-6.369357 19.31458,-8.07673 4.07458,-1.707372 9.07521,-3.793059 11.1125,-4.634859 6.56068,-2.710847 13.08818,-5.426827 19.05,-7.926373 6.60429,-2.768911 15.03654,-6.276122 20.09894,-8.359724 4.06689,-1.673862 3.03335,-2.010532 9.01383,2.936228 2.28709,1.891771 4.9689,4.094427 5.95958,4.894792 2.44339,1.973991 21.26438,17.378677 28.29535,23.159306 3.1287,2.572306 6.799,5.587286 8.15622,6.699954 3.74713,3.07195 3.87062,3.18131 3.73969,3.3116 -0.0671,0.0668 -15.06429,0.16008 -33.32716,0.20739 -32.74959,0.0848 -33.21752,0.0788 -34.10319,-0.44039 -1.26359,-0.74072 -2.32057,-2.14436 -2.93835,-3.90206 -0.82209,-2.339001 -0.63733,-5.712351 0.34716,-6.338345 0.1728,-0.109873 2.87997,-0.201594 6.01595,-0.203822 6.11564,-0.0043 6.33677,0.0424 6.33677,1.339472 0,2.766856 3.46411,5.862075 7.3783,6.592585 6.49677,1.21249 12.4891,-1.39079 15.0285,-6.528905 0.85482,-1.729605 0.99472,-2.282981 1.0921,-4.31982 0.22798,-4.76833 -1.51791,-9.197784 -5.98873,-15.193891 C 266.18686,73.83826 258.15,65.697328 256.50859,64.456779 l -0.99485,-0.751885 -1.51869,0.67265 c -0.83529,0.369958 -3.95948,1.82764 -6.94266,3.239295 -2.98317,1.411655 -7.0313,3.31335 -8.99583,4.225988 -1.96453,0.912638 -5.65547,2.638301 -8.20208,3.834806 -2.54662,1.196505 -6.29709,2.947841 -8.33438,3.891857 -2.03729,0.944016 -5.6687,2.643848 -8.06979,3.777403 -2.40109,1.133556 -8.35422,3.933852 -13.22917,6.222881 -4.87494,2.289029 -11.22628,5.279022 -14.11408,6.644425 -2.8878,1.365407 -5.28796,2.482557 -5.33369,2.482557 -0.0457,0 -2.4455,1.141732 -5.3328,2.537184 -7.97028,3.8521 -6.75082,3.54823 -14.23965,3.54823 -4.10754,0 -6.51762,-0.0983 -6.62383,-0.27013 z m 18.07924,-2.29614 c 2.28206,-1.09071 4.9231,-2.342569 5.86898,-2.781907 0.94589,-0.439338 3.86292,-1.811041 6.48229,-3.048227 8.11444,-3.832622 17.83963,-8.398748 28.17813,-13.230066 10.16707,-4.751206 12.29935,-5.749966 16.66875,-7.807635 1.38244,-0.651032 6.08541,-2.853032 10.45104,-4.893333 4.36562,-2.040301 9.48115,-4.444651 11.36783,-5.343001 2.24012,-1.066638 3.62839,-1.583656 4.00114,-1.490101 0.75728,0.190065 6.9845,5.928356 9.36444,8.629196 3.98318,4.520236 6.25515,8.022991 7.74323,11.937913 0.78151,2.056029 0.83886,2.437115 0.84948,5.644475 0.0111,3.353972 -0.01,3.483309 -0.84812,5.196361 -2.52016,5.151115 -8.61231,8.037555 -14.71718,6.972955 -2.78211,-0.48516 -4.94378,-1.5163 -6.46668,-3.084667 -1.01827,-1.048666 -1.3971,-1.789875 -2.07382,-4.057566 l -0.23687,-0.79375 -5.55867,-0.07124 c -6.89518,-0.08837 -6.60287,-0.222596 -6.59188,3.026979 0.01,2.862858 0.67775,4.581194 2.39741,6.166314 l 1.15474,1.06441 h 33.07883 c 18.19335,0 33.07778,-0.0893 33.0765,-0.19844 -10e-4,-0.10914 -1.09337,-1.09141 -2.42686,-2.18281 -1.33349,-1.09141 -2.91002,-2.407256 -3.5034,-2.924106 -0.59338,-0.516851 -1.61249,-1.350288 -2.26468,-1.852084 -0.65219,-0.501795 -3.34384,-2.698294 -5.98143,-4.881107 -2.6376,-2.182812 -8.52126,-7.004843 -13.0748,-10.715625 -4.55354,-3.710781 -10.01767,-8.177635 -12.14252,-9.926342 -2.12485,-1.748706 -4.23505,-3.475113 -4.68935,-3.836458 -0.45429,-0.361345 -2.09122,-1.698788 -3.6376,-2.972095 -1.54639,-1.273307 -3.00051,-2.315104 -3.23138,-2.315104 -0.23087,0 -2.46348,0.845406 -4.96136,1.878681 -2.49787,1.033274 -6.20846,2.564552 -8.24575,3.402839 -2.03729,0.838286 -9.18104,3.818769 -15.875,6.623295 -6.69396,2.804525 -13.83771,5.785467 -15.875,6.624316 -5.29953,2.182065 -12.81318,5.303807 -15.74271,6.540719 -3.66912,1.549185 -32.64186,13.663321 -36.47104,15.249341 l -3.26584,1.35268 4.19188,0.1323 c 2.30553,0.0728 5.24177,0.0904 6.52498,0.0391 2.28018,-0.091 2.42722,-0.13813 6.48229,-2.07625 z m 63.48092,2.27902 c -1.42203,-0.33515 -3.38791,-1.39226 -4.21729,-2.26776 -0.39196,-0.41376 -1.03028,-1.44675 -1.4185,-2.295546 -0.59526,-1.301502 -0.68855,-1.814836 -0.59546,-3.276793 0.095,-1.491298 0.21205,-1.820971 0.83794,-2.359338 0.49906,-0.429275 1.05528,-0.625811 1.77112,-0.625811 1.16456,0 1.15929,-0.01249 0.74761,1.771037 -0.64123,2.777939 0.89183,6.124901 3.65605,7.981881 1.86296,1.25153 1.58679,1.63049 -0.78147,1.07233 z m -0.32508,-1.6067 c -1.99709,-1.82522 -2.85452,-3.540544 -2.88871,-5.778964 -0.0145,-0.945886 0.0759,-2.047214 0.20085,-2.447396 0.20681,-0.662559 0.16696,-0.727604 -0.4458,-0.727604 -1.91584,0 -2.74661,1.285145 -2.48285,3.840773 0.17724,1.717284 0.89231,3.136201 2.23511,4.435141 1.04789,1.01366 3.13284,2.00788 4.25805,2.03046 0.52762,0.0106 0.40107,-0.18464 -0.87665,-1.35241 z"
         id="path5375"
         inkscape:connector-curvature="0" />
      <path
         style="fill:#050505;stroke-width:0.26458332"
         d="m 156.47553,135.85788 c -3.27671,-1.20179 -6.0173,-4.84019 -7.36425,-9.77675 -0.48457,-1.77595 -0.57577,-2.7981 -0.56656,-6.35 0.0117,-4.52005 0.47886,-7.09138 1.97219,-10.85569 l 0.62668,-1.57973 12.3018,-0.13472 c 6.76599,-0.0741 22.7793,-0.18089 35.58513,-0.2373 12.80583,-0.0564 24.89068,-0.12714 26.85521,-0.15716 1.96453,-0.03 3.65232,-0.011 3.75065,0.0423 0.0983,0.0533 -0.0529,0.89903 -0.33608,1.87939 -1.67267,5.79102 -1.8116,12.2222 -0.38431,17.78976 l 0.16957,0.66146 -5.8994,-0.13229 -5.89939,-0.13229 -0.13229,-9.26042 -0.13229,-9.26041 -3.83441,-0.0738 c -3.3741,-0.0649 -3.87436,-0.0192 -4.16719,0.3813 -0.47027,0.64313 -0.48487,24.4377 -0.0153,24.90729 0.23543,0.23543 2.83191,0.3175 10.04486,0.3175 9.1614,0 9.74246,-0.0282 9.98693,-0.48501 0.15064,-0.28149 0.19363,-1.50282 0.10243,-2.91042 -0.0938,-1.44828 -0.057,-2.42541 0.0915,-2.42541 0.13675,0 0.55814,0.63109 0.93643,1.40241 0.86947,1.7728 3.1509,4.28509 4.53047,4.98889 2.96349,1.51187 0.52454,1.40206 34.44717,1.55091 21.62753,0.0949 9.27004,0.15015 -40.21666,0.1798 -60.83448,0.0364 -71.58821,-0.0125 -72.45291,-0.32963 z m 40.33234,-2.06545 c 4.24409,-1.34608 7.18209,-4.49972 8.19841,-8.80015 0.48651,-2.05859 0.41695,-6.58942 -0.12934,-8.42485 -1.06927,-3.59255 -2.82515,-5.82899 -5.72624,-7.29346 -4.01832,-2.02843 -9.90218,-2.0741 -13.78412,-0.10697 -2.78422,1.41087 -5.07211,4.34329 -5.9443,7.61889 -0.49066,1.84273 -0.46975,6.54372 0.0378,8.49224 1.18406,4.54591 4.44104,7.66309 9.11942,8.72798 2.06871,0.47088 6.42686,0.35771 8.22839,-0.21368 z m -6.21642,-6.25151 c -2.10202,-0.66949 -3.2026,-2.8987 -3.2026,-6.48687 0,-3.73852 1.0408,-5.72531 3.39328,-6.47744 1.69429,-0.5417 3.28534,-0.14317 4.57045,1.14484 0.97869,0.98088 1.13253,1.31185 1.42851,3.07333 0.25493,1.51719 0.26293,2.46036 0.0345,4.07531 -0.33924,2.3989 -0.88791,3.51385 -2.06842,4.20331 -0.98026,0.5725 -3.08329,0.80909 -4.15576,0.46752 z m -25.57332,5.84135 c 0.1647,-0.30775 0.23013,-2.21 0.168,-4.8843 -0.0752,-3.23476 -0.0172,-4.45045 0.22171,-4.6487 0.18235,-0.15134 2.27747,-0.3002 4.80224,-0.34122 l 4.47877,-0.0727 0.0755,-2.4072 c 0.0558,-1.77868 -0.0182,-2.48501 -0.28353,-2.7052 -0.2254,-0.18707 -1.97711,-0.32515 -4.70575,-0.37093 l -4.34668,-0.0729 -0.0781,-1.78054 -0.0781,-1.78053 5.50207,-0.0716 5.50207,-0.0716 v -2.91042 -2.91041 l -9.12812,-0.0738 c -5.02047,-0.0406 -9.39602,-0.009 -9.72344,0.0712 l -0.59531,0.14502 v 12.51857 c 0,6.88521 0.0794,12.59795 0.17639,12.69496 0.097,0.097 1.87876,0.17639 3.95944,0.17639 3.44947,0 3.80684,-0.0444 4.05282,-0.50407 z m 135.69507,2.70458 c 0.19099,-0.0764 0.4192,-0.067 0.50712,0.0209 0.0879,0.0879 -0.0684,0.15046 -0.34727,0.13897 -0.30823,-0.0127 -0.37092,-0.0754 -0.15985,-0.15985 z m 2.36471,-0.013 c 0.61846,-0.0557 1.6305,-0.0557 2.24896,0 0.61846,0.0557 0.11245,0.10128 -1.12448,0.10128 -1.23693,0 -1.74294,-0.0456 -1.12448,-0.10128 z m 4.90069,5.3e-4 c 0.54895,-0.0573 1.38239,-0.0563 1.85209,0.002 0.4697,0.0584 0.0206,0.10532 -0.99809,0.10414 -1.01865,-0.001 -1.40294,-0.049 -0.854,-0.10627 z m -44.74698,-3.06633 c -0.22874,-0.27562 -0.29171,-3.47826 -0.24083,-12.24902 l 0.0689,-11.87583 h 9.92188 9.92187 l 0.0782,1.94271 c 0.0485,1.2045 -0.0392,2.08421 -0.23083,2.3151 -0.24876,0.29973 -1.45809,0.3724 -6.1974,0.3724 -4.74422,0 -5.94849,0.0725 -6.19794,0.37306 -0.18929,0.22808 -0.279,1.07636 -0.23083,2.18281 l 0.0788,1.80976 5.82084,0.13229 5.82083,0.13229 v 2.11667 2.11666 l -5.53578,0.0717 c -3.53877,0.0458 -5.66247,0.1768 -5.88698,0.36312 -0.38913,0.32296 -0.50045,4.34459 -0.13613,4.91812 0.15235,0.23984 1.8793,0.34457 6.54438,0.39687 l 6.33743,0.0711 0.0761,2.44739 0.0761,2.4474 h -9.51328 c -5.23231,0 -9.68255,0.065 -9.88942,0.14433 -0.20686,0.0794 -0.5155,-0.0236 -0.68584,-0.22886 z M 236.20448,120.8911 v -12.20148 l 7.0776,0.12746 c 7.77674,0.14006 8.58327,0.27331 10.77289,1.77981 2.7622,1.90044 4.15397,5.45463 4.14956,10.59676 -0.004,4.36752 -0.87137,6.92376 -3.10976,9.16215 -2.34342,2.34341 -4.08735,2.72968 -12.34186,2.73364 l -6.54843,0.003 z m 11.88808,6.91502 c 2.19641,-0.62992 3.19415,-2.73499 3.19169,-6.73396 -0.003,-5.03954 -1.39336,-6.86676 -5.48569,-7.20985 -2.81624,-0.2361 -2.71492,-0.50322 -2.71492,7.15771 0,4.63315 0.088,6.4985 0.3175,6.72797 0.38496,0.38496 3.42067,0.42258 4.69142,0.0581 z m 40.23483,-6.88437 v -12.17084 l 7.0776,0.005 c 7.77932,0.006 10.20084,0.23638 11.80885,1.12464 2.19031,1.20992 3.34908,4.59649 2.54968,7.45163 -0.4584,1.63727 -1.93267,3.27033 -3.62998,4.02096 -1.58186,0.69957 -1.76476,1.21926 -0.63479,1.80359 1.27643,0.66006 2.60693,2.4756 4.40357,6.00888 0.93962,1.84786 1.7084,3.48732 1.7084,3.64324 0,0.1885 -1.27903,0.28349 -3.8171,0.28349 h -3.81711 l -2.18904,-4.13277 c -2.52908,-4.77473 -2.91744,-5.32569 -4.1033,-5.82117 -1.12585,-0.47041 -1.55097,-0.45991 -2.06184,0.051 -0.34706,0.34706 -0.41577,1.19979 -0.41577,5.15938 v 4.7436 h -3.43959 -3.43958 z m 13.39892,-2.71741 c 1.58009,-0.8393 1.73989,-3.09186 0.305,-4.29923 -0.60503,-0.50911 -1.11655,-0.66772 -2.28099,-0.70729 -2.41611,-0.0821 -4.13238,0.0788 -4.34127,0.40704 -0.24083,0.37839 -0.2654,4.19927 -0.0309,4.81026 0.14937,0.38923 0.51735,0.43308 2.84427,0.3389 1.81062,-0.0733 2.94083,-0.25058 3.50393,-0.54968 z M 159.64906,104.253 l -4.19188,-0.1323 3.26584,-1.35268 c 3.82918,-1.58602 32.80192,-13.700155 36.47104,-15.24934 2.92953,-1.236912 10.44318,-4.358654 15.74271,-6.540719 2.03729,-0.838849 9.18104,-3.819791 15.875,-6.624316 6.69396,-2.804526 13.83771,-5.785009 15.875,-6.623295 2.03729,-0.838287 5.74788,-2.369565 8.24575,-3.402839 2.49788,-1.033275 4.73049,-1.878681 4.96136,-1.878681 0.23087,0 1.68499,1.041797 3.23138,2.315104 1.54638,1.273307 3.18331,2.61075 3.6376,2.972095 0.4543,0.361345 2.5645,2.087752 4.68935,3.836458 2.12485,1.748707 7.58898,6.215561 12.14252,9.926342 4.55354,3.710782 10.4372,8.532813 13.0748,10.715625 2.63759,2.182813 5.32924,4.379312 5.98143,4.881107 0.65219,0.501796 1.6713,1.335233 2.26468,1.852084 0.59338,0.51685 2.16991,1.832695 3.5034,2.924105 1.33349,1.0914 2.42557,2.07367 2.42686,2.18281 0.001,0.10914 -14.88315,0.19844 -33.0765,0.19844 h -33.07883 l -1.15474,-1.06441 c -1.71966,-1.58512 -2.38773,-3.303455 -2.39741,-6.166313 -0.011,-3.249575 -0.3033,-3.115349 6.59188,-3.026979 l 5.55867,0.07124 0.23687,0.79375 c 0.67672,2.267691 1.05555,3.0089 2.07382,4.057566 1.5229,1.568366 3.68457,2.599506 6.46668,3.084666 6.10487,1.0646 12.19702,-1.82184 14.71718,-6.972954 0.83811,-1.713052 0.85921,-1.842389 0.84812,-5.196361 -0.0106,-3.20736 -0.068,-3.588446 -0.84948,-5.644475 -1.48808,-3.914922 -3.76005,-7.417677 -7.74323,-11.937913 -2.37994,-2.70084 -8.60716,-8.439131 -9.36444,-8.629196 -0.37275,-0.09356 -1.76102,0.423463 -4.00114,1.490101 -1.88668,0.89835 -7.00221,3.3027 -11.36783,5.343001 -4.36563,2.040301 -9.0686,4.242301 -10.45104,4.893333 -4.3694,2.057669 -6.50168,3.056429 -16.66875,7.807635 -10.3385,4.831318 -20.06369,9.397444 -28.17813,13.230066 -2.61937,1.237186 -5.5364,2.608889 -6.48229,3.048227 -0.94588,0.439338 -3.58692,1.691196 -5.86898,2.781906 -4.05507,1.93812 -4.20211,1.98522 -6.48229,2.07625 -1.28321,0.0512 -4.21945,0.0336 -6.52498,-0.0391 z m 75.11923,-0.53386 c -2.46875,-0.96393 -4.30498,-3.35091 -4.57263,-5.944121 -0.26376,-2.555628 0.56701,-3.840773 2.48285,-3.840773 0.61276,0 0.65261,0.06504 0.4458,0.727604 -0.12492,0.400182 -0.2153,1.50151 -0.20085,2.447396 0.0342,2.23842 0.89162,3.953744 2.88871,5.778964 1.27772,1.16777 1.40427,1.363 0.87665,1.35241 -0.33915,-0.007 -1.20339,-0.24147 -1.92053,-0.52148 z"
         id="path5373"
         inkscape:connector-curvature="0" />
    </g>
  </g>
</svg>
