<?xml version="1.0" encoding="UTF-8" standalone="no"?>
<!-- Created with Inkscape (http://www.inkscape.org/) -->

<svg
   xmlns:dc="http://purl.org/dc/elements/1.1/"
   xmlns:cc="http://creativecommons.org/ns#"
   xmlns:rdf="http://www.w3.org/1999/02/22-rdf-syntax-ns#"
   xmlns:svg="http://www.w3.org/2000/svg"
   xmlns="http://www.w3.org/2000/svg"
   xmlns:sodipodi="http://sodipodi.sourceforge.net/DTD/sodipodi-0.dtd"
   xmlns:inkscape="http://www.inkscape.org/namespaces/inkscape"
   width="72"
   height="72"
   viewBox="0 0 19.05 19.050001"
   version="1.1"
   id="svg4491"
   inkscape:version="0.92.1 r15371"
   sodipodi:docname="рукопожатие.svg">
  <defs
     id="defs4485" />
  <sodipodi:namedview
     id="base"
     pagecolor="#ffffff"
     bordercolor="#666666"
     borderopacity="1.0"
     inkscape:pageopacity="0.0"
     inkscape:pageshadow="2"
     inkscape:zoom="2.8"
     inkscape:cx="69.717951"
     inkscape:cy="40.664671"
     inkscape:document-units="mm"
     inkscape:current-layer="layer1"
     showgrid="false"
     units="px"
     inkscape:window-width="1920"
     inkscape:window-height="1017"
     inkscape:window-x="-8"
     inkscape:window-y="-8"
     inkscape:window-maximized="1" />
  <metadata
     id="metadata4488">
    <rdf:RDF>
      <cc:Work
         rdf:about="">
        <dc:format>image/svg+xml</dc:format>
        <dc:type
           rdf:resource="http://purl.org/dc/dcmitype/StillImage" />
        <dc:title></dc:title>
      </cc:Work>
    </rdf:RDF>
  </metadata>
  <g
     inkscape:label="Layer 1"
     inkscape:groupmode="layer"
     id="layer1"
     transform="translate(0,-277.94998)">
    <g
       id="g5124"
       transform="matrix(0.03506277,0,0,0.03506277,0.54886075,278.49882)">
      <g
         id="g5058">
        <g
           id="g5056">
          <g
             id="g5054">
            <path
               id="path5036"
               d="m 136.425,235.442 c 0,4.565 1.783,8.849 5.009,12.066 l 6.033,6.033 c 8.064,8.055 18.765,12.493 30.165,12.493 11.401,0 22.11,-4.437 30.174,-12.493 l 42.505,-42.505 c 16.836,14.063 37.854,21.717 60.041,21.717 h 0.043 c 25.079,-0.017 48.683,-9.805 66.441,-27.571 3.337,-3.336 3.337,-8.738 0,-12.066 -3.337,-3.337 -8.73,-3.337 -12.066,0 -14.541,14.541 -33.86,22.562 -54.383,22.571 h -0.026 c -20.506,0 -39.782,-7.987 -54.281,-22.485 -3.337,-3.328 -8.738,-3.328 -12.066,0 l -48.282,48.273 c -9.66,9.668 -26.53,9.668 -36.198,0 l -6.033,-6.033 102.579,-102.579 c 9.566,-9.566 18.654,-9.566 30.165,-9.566 12.322,0 27.674,0 42.24,-14.566 L 352.617,84.59 c 3.336,-3.336 3.336,-8.738 0,-12.066 -3.328,-3.337 -8.73,-3.337 -12.066,0 l -24.132,24.141 c -9.574,9.566 -18.662,9.566 -30.174,9.566 -12.322,0 -27.665,0 -42.231,14.566 l -102.572,102.57 c -3.234,3.226 -5.017,7.51 -5.017,12.075 z"
               inkscape:connector-curvature="0" />
            <path
               id="path5038"
               d="m 76.802,93.891 c 9.412,0 17.067,-7.654 17.067,-17.067 0,-9.412 -7.654,-17.067 -17.067,-17.067 -9.412,0 -17.067,7.654 -17.067,17.067 0,9.413 7.655,17.067 17.067,17.067 z"
               inkscape:connector-curvature="0" />
            <path
               id="path5040"
               d="m 159.533,120.797 24.132,24.132 c 1.672,1.673 3.857,2.5 6.033,2.5 2.185,0 4.369,-0.828 6.033,-2.5 3.337,-3.328 3.337,-8.73 0,-12.066 l -24.132,-24.132 c -3.328,-3.336 -8.73,-3.336 -12.066,0 -3.328,3.328 -3.328,8.729 0,12.066 z"
               inkscape:connector-curvature="0" />
            <path
               id="path5042"
               d="m 435.202,59.758 c 9.404,0 17.067,-7.654 17.067,-17.067 0,-9.412 -7.663,-17.067 -17.067,-17.067 -9.404,0 -17.067,7.654 -17.067,17.067 0,9.412 7.663,17.067 17.067,17.067 z"
               inkscape:connector-curvature="0" />
            <path
               id="path5044"
               d="m 454.769,181.725 c -13.867,13.867 -18.628,36.454 -23.228,58.3 -4.079,19.388 -8.303,39.45 -18.577,49.724 l -12.075,12.066 c -3.328,3.337 -3.328,8.738 0,12.066 1.672,1.673 3.857,2.5 6.042,2.5 2.176,0 4.361,-0.828 6.033,-2.5 l 12.066,-12.066 c 13.858,-13.858 18.611,-36.437 23.211,-58.274 4.087,-19.405 8.32,-39.467 18.594,-49.749 3.337,-3.328 3.337,-8.73 0,-12.066 -3.336,-3.338 -8.729,-3.338 -12.066,-0.001 z"
               inkscape:connector-curvature="0" />
            <path
               id="path5046"
               d="M 509.502,181.725 370.468,42.691 l 28.1,-28.1 c 3.337,-3.337 3.337,-8.73 0,-12.066 -3.337,-3.336 -8.73,-3.336 -12.066,0 l -34.133,34.133 c -3.337,3.337 -3.337,8.73 0,12.066 l 145.067,145.067 c 1.664,1.664 3.849,2.5 6.033,2.5 2.184,0 4.369,-0.836 6.033,-2.5 3.336,-3.337 3.336,-8.73 0,-12.066 z"
               inkscape:connector-curvature="0" />
            <path
               id="path5048"
               d="m 316.418,253.541 c -3.337,-3.328 -8.73,-3.328 -12.066,0 -3.336,3.337 -3.336,8.738 0,12.075 l 90.505,90.505 c 6.656,6.656 6.656,17.485 0,24.141 -6.639,6.639 -17.476,6.647 -24.141,0 l -90.505,-90.513 c -3.337,-3.337 -8.738,-3.337 -12.066,0 -3.337,3.337 -3.337,8.738 0,12.066 L 382.79,416.46 c 6.656,6.656 6.656,17.485 0,24.132 -6.656,6.647 -17.476,6.665 -24.141,0.008 L 250.046,331.988 c -3.337,-3.337 -8.738,-3.337 -12.066,0 -3.337,3.328 -3.337,8.73 0,12.066 l 96.538,96.538 c 6.656,6.656 6.656,17.485 0,24.141 -6.451,6.451 -17.681,6.451 -24.132,-0.008 l -12.075,-12.066 h -0.009 l -78.43,-78.43 c -3.337,-3.336 -8.738,-3.336 -12.066,0 -3.336,3.328 -3.336,8.73 0,12.066 l 78.438,78.438 c 3.226,3.226 5.001,7.509 5.001,12.075 0,4.557 -1.775,8.841 -5.001,12.066 -6.639,6.639 -17.476,6.656 -24.132,-0.009 L 116.969,343.858 C 94.842,321.731 90.038,293.836 85.797,269.217 82.23,248.507 78.859,228.948 65.769,215.858 c -3.337,-3.337 -8.73,-3.337 -12.066,0 -3.336,3.337 -3.337,8.73 0,12.066 9.259,9.259 12.049,25.446 15.275,44.194 4.437,25.771 9.967,57.847 35.925,83.806 L 250.046,500.94 c 6.647,6.647 15.386,9.984 24.132,9.984 8.738,-0.009 17.485,-3.337 24.132,-9.984 4.847,-4.855 8.064,-10.906 9.361,-17.493 12.51,6.033 28.8,3.482 38.912,-6.647 4.855,-4.855 8.064,-10.914 9.361,-17.502 12.689,6.093 28.407,3.866 38.912,-6.639 13.312,-13.303 13.312,-34.953 0,-48.265 l -3.234,-3.243 c 5.606,-1.493 10.914,-4.437 15.309,-8.823 13.303,-13.312 13.303,-34.97 0,-48.273 z"
               inkscape:connector-curvature="0" />
            <path
               id="path5050"
               d="m 159.635,70.791 -51.2,-51.2 c -3.336,-3.337 -8.73,-3.337 -12.066,0 -3.337,3.336 -3.337,8.73 0,12.066 L 141.536,76.824 2.502,215.858 c -3.336,3.337 -3.336,8.73 0,12.066 1.664,1.664 3.849,2.5 6.033,2.5 2.184,0 4.369,-0.836 6.033,-2.5 L 159.635,82.858 c 3.337,-3.337 3.337,-8.73 0,-12.067 z"
               inkscape:connector-curvature="0" />
            <path
               id="path5052"
               d="m 209.879,493.379 c -4.753,2.492 -12.868,2.79 -20.181,-4.506 -7.313,-7.322 -7.253,-15.829 -4.881,-19.533 2.355,-3.669 1.57,-8.516 -1.835,-11.255 -3.388,-2.739 -8.294,-2.483 -11.383,0.614 -6.665,6.656 -17.502,6.647 -24.141,0 -6.647,-6.656 -6.647,-17.485 0,-24.141 1.673,-1.664 2.5,-3.849 2.5,-6.033 0,-2.184 -0.828,-4.361 -2.5,-6.033 -3.328,-3.328 -8.73,-3.328 -12.066,0 l -6.033,6.033 c -6.647,6.656 -17.485,6.656 -24.132,0 -6.647,-6.656 -6.647,-17.485 0,-24.132 l 6.033,-6.033 c 3.038,-3.029 3.345,-7.842 0.734,-11.238 -2.611,-3.396 -7.347,-4.326 -11.042,-2.185 -4.642,2.679 -12.809,2.364 -19.857,-4.676 -7.492,-7.492 -7.458,-15.795 -5.043,-19.294 2.679,-3.874 1.698,-9.19 -2.176,-11.87 -3.883,-2.688 -9.19,-1.707 -11.87,2.176 -6.903,10.001 -6.716,27.315 7.023,41.054 5.41,5.402 11.298,8.627 17.101,10.172 -1.946,4.335 -2.97,9.071 -2.97,13.961 0,9.114 3.55,17.69 10.001,24.132 8.755,8.764 21.137,11.759 32.375,8.986 0.666,7.731 3.951,15.283 9.856,21.188 8.491,8.482 20.352,11.554 31.292,9.233 1.058,7.066 4.48,14.464 10.948,20.941 7.893,7.885 17.109,11.042 25.523,11.042 5.402,0 10.47,-1.306 14.643,-3.49 4.173,-2.185 5.786,-7.339 3.593,-11.52 -2.185,-4.165 -7.356,-5.786 -11.512,-3.593 z"
               inkscape:connector-curvature="0" />
          </g>
        </g>
      </g>
      <g
         id="g5060" />
      <g
         id="g5062" />
      <g
         id="g5064" />
      <g
         id="g5066" />
      <g
         id="g5068" />
      <g
         id="g5070" />
      <g
         id="g5072" />
      <g
         id="g5074" />
      <g
         id="g5076" />
      <g
         id="g5078" />
      <g
         id="g5080" />
      <g
         id="g5082" />
      <g
         id="g5084" />
      <g
         id="g5086" />
      <g
         id="g5088" />
    </g>
  </g>
</svg>
