<?xml version="1.0" encoding="UTF-8" standalone="no"?>
<!-- Created with Inkscape (http://www.inkscape.org/) -->

<svg
   xmlns:osb="http://www.openswatchbook.org/uri/2009/osb"
   xmlns:dc="http://purl.org/dc/elements/1.1/"
   xmlns:cc="http://creativecommons.org/ns#"
   xmlns:rdf="http://www.w3.org/1999/02/22-rdf-syntax-ns#"
   xmlns:svg="http://www.w3.org/2000/svg"
   xmlns="http://www.w3.org/2000/svg"
   xmlns:sodipodi="http://sodipodi.sourceforge.net/DTD/sodipodi-0.dtd"
   xmlns:inkscape="http://www.inkscape.org/namespaces/inkscape"
   version="1.1"
   id="svg4512"
   width="150"
   height="46"
   viewBox="0 0 150 46"
   sodipodi:docname="лого Руф1.svg"
   inkscape:version="0.92.1 r15371">
  <metadata
     id="metadata4518">
    <rdf:RDF>
      <cc:Work
         rdf:about="">
        <dc:format>image/svg+xml</dc:format>
        <dc:type
           rdf:resource="http://purl.org/dc/dcmitype/StillImage" />
        <dc:title></dc:title>
      </cc:Work>
    </rdf:RDF>
  </metadata>
  <defs
     id="defs4516">
    <linearGradient
       id="linearGradient7830"
       osb:paint="solid">
      <stop
         style="stop-color:#003350;stop-opacity:1;"
         offset="0"
         id="stop7828" />
    </linearGradient>
    <inkscape:perspective
       sodipodi:type="inkscape:persp3d"
       inkscape:vp_x="4 : 299 : 1"
       inkscape:vp_y="0 : 1000 : 0"
       inkscape:vp_z="2001 : 299 : 1"
       inkscape:persp3d-origin="1002.5 : 198 : 1"
       id="perspective7056" />
    <linearGradient
       id="linearGradient5544"
       osb:paint="gradient">
      <stop
         style="stop-color:#f10000;stop-opacity:1;"
         offset="0"
         id="stop5540" />
      <stop
         style="stop-color:#f10000;stop-opacity:0;"
         offset="1"
         id="stop5542" />
    </linearGradient>
  </defs>
  <sodipodi:namedview
     pagecolor="#ffffff"
     bordercolor="#666666"
     borderopacity="1"
     objecttolerance="10"
     gridtolerance="10"
     guidetolerance="10"
     inkscape:pageopacity="0"
     inkscape:pageshadow="2"
     inkscape:window-width="1920"
     inkscape:window-height="1017"
     id="namedview4514"
     showgrid="false"
     inkscape:snap-text-baseline="false"
     inkscape:measure-start="0,0"
     inkscape:measure-end="0,0"
     inkscape:snap-page="false"
     inkscape:snap-grids="true"
     inkscape:snap-to-guides="false"
     inkscape:zoom="3.6203866"
     inkscape:cx="-11.577773"
     inkscape:cy="87.573716"
     inkscape:window-x="1912"
     inkscape:window-y="-8"
     inkscape:window-maximized="1"
     inkscape:current-layer="svg4512" />
  <rect
     y="-11.285246"
     x="7.4018888"
     height="54.318016"
     width="49.920845"
     id="rect5482"
     style="font-style:normal;font-variant:normal;font-weight:900;font-stretch:normal;font-size:medium;line-height:125%;font-family:'PF DinDisplay Pro';-inkscape-font-specification:'PF DinDisplay Pro Heavy';letter-spacing:0px;word-spacing:0px;opacity:0;fill:#013250;fill-opacity:0.9926108;stroke:#f10000;stroke-width:6.52846003;stroke-linecap:butt;stroke-linejoin:miter;stroke-miterlimit:4;stroke-dasharray:none;stroke-opacity:0.77272728" />
  <rect
     y="190.65338"
     x="-1198.5564"
     height="812.81409"
     width="861.03186"
     id="rect5486"
     style="font-style:normal;font-variant:normal;font-weight:900;font-stretch:normal;font-size:medium;line-height:125%;font-family:'PF DinDisplay Pro';-inkscape-font-specification:'PF DinDisplay Pro Heavy';letter-spacing:0px;word-spacing:0px;opacity:0;fill:#000080;fill-opacity:0.9926108;stroke:#f10000;stroke-width:86.92913055;stroke-linecap:butt;stroke-linejoin:miter;stroke-miterlimit:4;stroke-dasharray:none;stroke-opacity:0.77272728" />
  <path
     d="m -420.18357,-270.85973 -781.81693,-92.99144 92.9914,-781.81693 781.81697,92.9914 z"
     inkscape:randomized="0"
     inkscape:rounded="0"
     inkscape:flatsided="true"
     sodipodi:arg2="1.6891829"
     sodipodi:arg1="0.9037847"
     sodipodi:r2="393.66391"
     sodipodi:r1="556.72485"
     sodipodi:cy="-708.26392"
     sodipodi:cx="-764.59631"
     sodipodi:sides="4"
     id="path5496"
     style="font-style:normal;font-variant:normal;font-weight:900;font-stretch:normal;font-size:medium;line-height:125%;font-family:'PF DinDisplay Pro';-inkscape-font-specification:'PF DinDisplay Pro Heavy';letter-spacing:0px;word-spacing:0px;opacity:0;fill:#737480;fill-opacity:0.9926108;stroke:#f10000;stroke-width:86.92913055;stroke-linecap:butt;stroke-linejoin:miter;stroke-miterlimit:4;stroke-dasharray:none;stroke-opacity:0.77272728"
     sodipodi:type="star" />
  <path
     d="m -368.52164,-60.767956 -1122.78556,-137.765094 137.7651,-1122.78555 1122.78556,137.7651 z"
     inkscape:randomized="0"
     inkscape:rounded="0"
     inkscape:flatsided="true"
     sodipodi:arg2="1.6928855"
     sodipodi:arg1="0.9074873"
     sodipodi:r2="565.60291"
     sodipodi:r1="799.8833"
     sodipodi:cy="-691.04327"
     sodipodi:cx="-861.03186"
     sodipodi:sides="4"
     id="path5498"
     style="font-style:normal;font-variant:normal;font-weight:900;font-stretch:normal;font-size:medium;line-height:125%;font-family:'PF DinDisplay Pro';-inkscape-font-specification:'PF DinDisplay Pro Heavy';letter-spacing:0px;word-spacing:0px;opacity:0;fill:#737480;fill-opacity:0.9926108;stroke:#f10000;stroke-width:86.92913055;stroke-linecap:butt;stroke-linejoin:miter;stroke-miterlimit:4;stroke-dasharray:none;stroke-opacity:0.77272728"
     sodipodi:type="star" />
  <rect
     y="-1510.7456"
     x="-1401.7599"
     height="640.60773"
     width="902.36139"
     id="rect5502"
     style="font-style:normal;font-variant:normal;font-weight:900;font-stretch:normal;font-size:medium;line-height:125%;font-family:'PF DinDisplay Pro';-inkscape-font-specification:'PF DinDisplay Pro Heavy';letter-spacing:0px;word-spacing:0px;opacity:0;fill:#737480;fill-opacity:0.9926108;stroke:#f10000;stroke-width:86.92913055;stroke-linecap:butt;stroke-linejoin:miter;stroke-miterlimit:4;stroke-dasharray:none;stroke-opacity:0.77272728" />
  <flowRoot
     xml:space="preserve"
     id="flowRoot5139"
     style="font-style:normal;font-variant:normal;font-weight:normal;font-stretch:normal;font-size:40px;line-height:125%;font-family:'Open Sans';-inkscape-font-specification:'Open Sans';letter-spacing:0px;word-spacing:0px;fill:#000000;fill-opacity:1;stroke:none;stroke-width:1px;stroke-linecap:butt;stroke-linejoin:miter;stroke-opacity:1"
     transform="translate(0,-560)"><flowRegion
       id="flowRegion5141"><rect
         id="rect5143"
         width="54.938969"
         height="183.56093"
         x="-999.8609"
         y="-678.34631" /></flowRegion><flowPara
       id="flowPara5145" /></flowRoot>  <rect
     style="opacity:0;fill:#ff6600;fill-opacity:1;stroke:#f10000;stroke-width:86.92913055;stroke-miterlimit:4;stroke-dasharray:none;stroke-opacity:0.77272728"
     id="rect5165"
     width="2912.6975"
     height="633.19513"
     x="-2669.1609"
     y="-2150.7" />
  <rect
     style="opacity:0;fill:#ff6600;fill-opacity:1;stroke:#f10000;stroke-width:86.92913055;stroke-miterlimit:4;stroke-dasharray:none;stroke-opacity:0.77272728"
     id="rect5167"
     width="1427.1244"
     height="589.35852"
     x="1076.4318"
     y="-1536.9878" />
  <rect
     style="opacity:0;fill:#ff6600;fill-opacity:1;stroke:#f10000;stroke-width:86.92913055;stroke-miterlimit:4;stroke-dasharray:none;stroke-opacity:0.77272728"
     id="rect5169"
     width="834.73657"
     height="705.38538"
     x="982.04633"
     y="-1517.5049" />
  <path
     id="path5065-7"
     style="fill:#b9c000;fill-opacity:0.99507392"
     d="m -5500.1021,-932.3607 v 300.5 300.5 h 301 301 v -300.5 -300.5 h -301 z m 1986.7812,17 c 1.6413,0.177 3.2791,0.3739 4.9063,0.6485 1.8692,0.3153 3.0572,0.5302 4.2793,0.75 v -1.3985 z m -1945.7636,23.5 h 259.7402 259.7422 l 0.252,185.1367 0.2519,185.1387 -178.7519,0.4219 c -98.314,0.2324 -178.8611,0.3616 -178.9942,0.2871 -0.133,-0.074 -0.358,-26.3064 -0.5,-58.293 l -0.2578,-58.1562 -22.2168,14.2324 c -12.2189,7.8279 -32.9189,21.096 -46,29.4863 -13.081,8.3904 -25.3646,16.1085 -27.2968,17.1504 l -3.5137,1.8946 -0.3379,71.0996 -0.3359,71.1015 h 229.0996 229.1015 v 29.5 29.5 h -260 -260 l -0.1562,-96.25 c -0.086,-52.9375 -0.066,-97.375 0.043,-98.75 0.1091,-1.375 1.1298,-3.175 2.2676,-4 1.9259,-1.3965 80.4216,-51.5151 105.5722,-67.4062 37.3819,-23.6193 68.8305,-43.5768 75.7735,-48.0879 8.7474,-5.6836 32.4364,-20.764 50.457,-32.1211 l 11.457,-7.2227 2.9238,1.67 c 4.3025,2.4556 5.2776,3.0583 16.459,10.1679 5.6225,3.575 11.0062,6.9496 11.9629,7.5 2.8753,1.6543 28.2648,17.5118 35.2403,22.0098 3.5749,2.3053 9.3025,5.9452 12.7285,8.0898 l 6.2285,3.9004 0.022,58.75 0.021,58.75 h 48 48 v -58.1347 -58.1329 l 42.5,0.5411 c 23.375,0.297 42.4962,0.2439 42.4922,-0.1172 0,-0.3612 -13.0517,-9.2063 -28.9942,-19.6563 -60.139,-39.4199 -75.2305,-49.2954 -91.1386,-59.6347 -8.9985,-5.8485 -18.5111,-12.1485 -21.1407,-14 -2.6295,-1.8516 -9.8295,-6.5927 -16,-10.5372 -6.1704,-3.9444 -18.4187,-11.9053 -27.2187,-17.6914 -8.8,-5.786 -22.525,-14.7923 -30.5,-20.0136 -7.975,-5.2214 -22.7725,-14.9405 -32.8828,-21.5977 -10.1104,-6.6572 -18.7298,-11.9735 -19.1543,-11.8144 -0.4245,0.159 -4.7521,2.8579 -9.6172,5.998 -4.8652,3.1401 -10.5551,6.7401 -12.6426,8 -2.0875,1.2599 -9.5125,5.991 -16.5,10.5137 -6.9875,4.5227 -15.1781,9.7846 -18.2031,11.6933 -3.025,1.9088 -10,6.3514 -15.5,9.8711 l -10,6.3985 -0.2676,-26.3438 -0.2656,-26.3418 h -49.9766 -49.9746 l -0.2578,58.6348 -0.2579,58.6367 -30.4824,19.3633 c -16.7651,10.6502 -30.7151,19.3651 -31,19.3652 -0.2849,10e-5 -0.402,-45.1124 -0.2597,-100.25 z m 718.6894,23.8242 c 0,0.7409 3e-4,1.4818 0,2.2227 0.1461,-0.6342 0.2711,-1.2291 0.3965,-1.8242 -0.1319,-0.1331 -0.2644,-0.2656 -0.3965,-0.3985 z m 632.8027,57.7051 c -0.1759,0.01 -0.5643,0.6732 -0.7714,1.2988 0.2313,-0.3376 0.5178,-0.6445 0.875,-0.9121 -0.01,-0.083 -0.01,-0.1654 -0.018,-0.248 -0.01,-0.098 -0.04,-0.1412 -0.086,-0.1387 z"
     inkscape:connector-curvature="0" />
  <text
     xml:space="preserve"
     style="font-style:normal;font-variant:normal;font-weight:900;font-stretch:normal;font-size:538.30456543px;line-height:125%;font-family:'PF DinDisplay Pro';-inkscape-font-specification:'PF DinDisplay Pro Heavy';letter-spacing:0px;word-spacing:0px;fill:#ffffff;fill-opacity:1;stroke:none;stroke-width:13.4576149px;stroke-linecap:butt;stroke-linejoin:miter;stroke-opacity:1"
     x="-4823.2881"
     y="-558.58582"
     id="text5105-6"><tspan
       sodipodi:role="line"
       id="tspan5103-4"
       x="-4823.2881"
       y="-558.58582"
       style="font-style:normal;font-variant:normal;font-weight:900;font-stretch:normal;line-height:1000%;font-family:'PF DinDisplay Pro';-inkscape-font-specification:'PF DinDisplay Pro Heavy';fill:#ffffff;stroke-width:13.4576149px">ROOF</tspan></text>
  <text
     xml:space="preserve"
     style="font-style:normal;font-variant:normal;font-weight:900;font-stretch:normal;font-size:225.48962402px;line-height:125%;font-family:'PF DinDisplay Pro';-inkscape-font-specification:'PF DinDisplay Pro Heavy';letter-spacing:0px;word-spacing:0px;fill:#b9c000;fill-opacity:1;stroke:none;stroke-width:2.34885073px;stroke-linecap:butt;stroke-linejoin:miter;stroke-opacity:1"
     x="-4816.3262"
     y="-330.84482"
     id="text5109-7"
     transform="scale(0.99791636,1.002088)"><tspan
       sodipodi:role="line"
       id="tspan5107-8"
       x="-4816.3262"
       y="-330.84482"
       style="font-style:normal;font-variant:normal;font-weight:900;font-stretch:normal;font-family:'PF DinDisplay Pro';-inkscape-font-specification:'PF DinDisplay Pro Heavy';fill:#b9c000;fill-opacity:1;stroke-width:2.34885073px"><tspan
   style="font-size:5.88589716px;fill:#b9c000;fill-opacity:1;stroke-width:2.34885073px"
   id="tspan5119-8">Cc c</tspan>C<tspan
   style="font-size:102.78857422px;fill:#b9c000;fill-opacity:1;stroke-width:2.34885073px"
   id="tspan5307-6" />O<tspan
   style="font-size:102.78857422px;fill:#b9c000;fill-opacity:1;stroke-width:2.34885073px"
   id="tspan5305-1" />M<tspan
   style="font-size:102.78857422px;fill:#b9c000;fill-opacity:1;stroke-width:2.34885073px"
   id="tspan5303-1" />P<tspan
   style="font-size:102.78857422px;fill:#b9c000;fill-opacity:1;stroke-width:2.34885073px"
   id="tspan5301-0" />L<tspan
   style="font-size:102.78857422px;fill:#b9c000;fill-opacity:1;stroke-width:2.34885073px"
   id="tspan5297-4" />E<tspan
   style="font-size:102.78857422px;fill:#b9c000;fill-opacity:1;stroke-width:2.34885073px"
   id="tspan5295-6" />C<tspan
   style="font-size:102.78857422px;fill:#b9c000;fill-opacity:1;stroke-width:2.34885073px"
   id="tspan5293-9" /><tspan
   style="font-size:5.88589716px;fill:#b9c000;fill-opacity:1;stroke-width:2.34885073px"
   id="tspan5193-6" />T</tspan></text>
  <rect
     style="opacity:0;fill:#800000;fill-opacity:1;stroke:#f10000;stroke-width:96.54592133;stroke-linejoin:bevel;stroke-miterlimit:4;stroke-dasharray:none;stroke-opacity:0.77272728"
     id="rect5538"
     width="730.15503"
     height="569.27551"
     x="-1016.0176"
     y="-16.98877"
     ry="186.9263" />
  <g
     id="g7029"
     transform="translate(446.13883,1747.8559)">
    <g
       id="g4577">
      <g
         transform="matrix(0.07510095,0,0,0.07510095,-414.2107,-1636.0274)"
         id="g7994">
        <g
           aria-label="Cc cC O M P L E C   T"
           transform="matrix(0.99791636,0,0,1.002088,-427.92118,-1482.1655)"
           style="font-style:normal;font-variant:normal;font-weight:900;font-stretch:normal;font-size:225.48962402px;line-height:125%;font-family:'PF DinDisplay Pro';-inkscape-font-specification:'PF DinDisplay Pro Heavy';letter-spacing:0px;word-spacing:0px;fill:#b9c000;fill-opacity:1;stroke:none;stroke-width:2.34885073px;stroke-linecap:butt;stroke-linejoin:miter;stroke-opacity:1"
           id="text5109-5" />
        <g
           id="g4623">
          <g
             transform="translate(-2369.5951,-5779.9827)"
             id="g7870">
            <rect
               style="opacity:0.90899999;fill:#003350;fill-opacity:1;fill-rule:nonzero;stroke:none;stroke-width:159.28970337;stroke-linejoin:bevel;stroke-miterlimit:4;stroke-dasharray:none;stroke-opacity:0.77272728"
               id="rect7836"
               width="591.60718"
               height="591.60718"
               x="1954.1965"
               y="4303.9468"
               rx="3.6076334" />
            <rect
               style="opacity:0.90899999;fill:#003350;fill-opacity:1;fill-rule:nonzero;stroke:none;stroke-width:159.28970337;stroke-linejoin:bevel;stroke-miterlimit:4;stroke-dasharray:none;stroke-opacity:0.77272728"
               id="rect7836-9"
               width="591.60718"
               height="591.60718"
               x="1954.1964"
               y="4303.9468"
               rx="3.6076334" />
          </g>
          <path
             inkscape:connector-curvature="0"
             d="m -423.79138,-1480.0358 v 300.4999 300.50014 h 301 300.99999 v -300.50014 -300.4999 h -300.99999 z m 1986.78118,17 c 1.6413,0.1769 3.2791,0.3739 4.9063,0.6484 1.8692,0.3154 3.0572,0.5302 4.2793,0.75 v -1.3984 z m -1945.76361,23.5 h 259.74024 259.74218 l 0.252,185.1367 0.2519,185.1386 -178.751941,0.4219 c -98.313949,0.2324 -178.861109,0.3616 -178.994139,0.2871 -0.13303,-0.074 -0.35803,-26.3064 -0.5,-58.293 l -0.25781,-58.1562 -22.2168,14.2324 c -12.21893,7.828 -32.91893,21.096 -46,29.4863 -13.08107,8.3904 -25.3646,16.1085 -27.29688,17.1504 l -3.51367,1.8946 -0.33789,71.0996 -0.33594,71.10154 H -91.892951 137.20861 v 29.5 29.5 h -259.99999 -260 l -0.15626,-96.25004 c -0.0856,-52.9375 -0.0661,-97.375 0.043,-98.75 0.10909,-1.375 1.1298,-3.175 2.26758,-4 1.92593,-1.3964 80.42165,-51.5151 105.57227,-67.4062 37.38184,-23.6193 68.83049,-43.5767 75.77344,-48.0879 8.74749,-5.6836 32.43646,-20.7639 50.45703,-32.1211 l 11.45703,-7.2226 2.92383,1.6699 c 4.30248,2.4557 5.27756,3.0584 16.45898,10.168 5.62248,3.575 11.00614,6.9495 11.96289,7.5 2.87524,1.6543 28.264819,17.5118 35.240239,22.0097 3.57498,2.3053 9.30252,5.9452 12.72851,8.0899 l 6.22852,3.9003 0.0215,58.75 0.0215,58.75 H -3.7913209 44.208679 v -58.1347 -58.1328 l 42.5,0.541 c 23.375001,0.297 42.496231,0.2439 42.492231,-0.1172 0,-0.3612 -13.05169,-9.2062 -28.99419,-19.6562 -60.138991,-39.42 -75.230541,-49.2954 -91.1386709,-59.6348 -8.99840997,-5.8484 -18.51105,-12.1484 -21.1406301,-14 -2.62956,-1.8516 -9.82956,-6.5926 -16,-10.5371 -6.17042,-3.9445 -18.41876,-11.9054 -27.21874,-17.6914 -8.8,-5.786 -22.52501,-14.7923 -30.5,-20.0137 -7.97501,-5.2214 -22.772479,-14.9404 -32.882819,-21.5977 -10.11033,-6.6572 -18.72978,-11.9735 -19.15429,-11.8144 -0.4245,0.159 -4.75203,2.8579 -9.61719,5.998 -4.86516,3.1401 -10.55505,6.7401 -12.64258,8 -2.08753,1.26 -9.51253,5.991 -16.5,10.5137 -6.98747,4.5227 -15.17814,9.7846 -18.20312,11.6934 -3.02501,1.9087 -10,6.3513 -15.5,9.8711 l -10,6.3984 -0.26758,-26.3437 -0.26563,-26.3418 h -49.97662 -49.97461 l -0.25781,58.6347 -0.25781,58.6367 -30.48243,19.3633 c -16.76516,10.6503 -30.71516,19.3652 -31,19.3653 -0.28489,0 -0.40204,-45.1125 -0.25976,-100.25 z m 718.68942,23.8242 c 0,0.7408 3e-4,1.4817 0,2.2226 0.1461,-0.6341 0.2711,-1.229 0.3965,-1.8242 -0.1319,-0.1331 -0.2644,-0.2656 -0.3965,-0.3984 z m 632.8027,57.7051 c -0.1759,0.01 -0.5643,0.6732 -0.7714,1.2988 0.2313,-0.3377 0.5178,-0.6446 0.875,-0.9121 -0.01,-0.083 -0.01,-0.1655 -0.018,-0.2481 -0.01,-0.098 -0.04,-0.1411 -0.086,-0.1386 z"
             style="font-style:normal;font-variant:normal;font-weight:900;font-stretch:normal;font-size:medium;line-height:125%;font-family:'PF DinDisplay Pro';-inkscape-font-specification:'PF DinDisplay Pro Heavy';letter-spacing:0px;word-spacing:0px;fill:#b9c000;fill-opacity:0.99507392;stroke:none;stroke-width:13.4576149px;stroke-linecap:butt;stroke-linejoin:miter;stroke-opacity:1"
             id="path5065-5" />
          <path
             id="path5408-6"
             style="font-style:normal;font-variant:normal;font-weight:900;font-stretch:normal;font-size:538.30456543px;line-height:1000%;font-family:'PF DinDisplay Pro';-inkscape-font-specification:'PF DinDisplay Pro Heavy';letter-spacing:0px;word-spacing:0px;fill:#013250;fill-opacity:0.9926108;stroke:none;stroke-width:13.4576149px;stroke-linecap:butt;stroke-linejoin:miter;stroke-opacity:1"
             d="m 452.19511,-1477.1527 q 30.6833,0 52.2155,10.2278 21.5322,10.2277 34.9898,26.9152 13.9959,16.6874 19.9173,38.2196 6.4596,20.9939 6.4596,42.5261 0,14.5342 -4.3064,29.6067 -4.3064,14.5343 -12.381,27.9919 -7.5363,12.9193 -18.8407,24.762 -11.3044,11.3044 -25.3003,19.3789 l 66.2115,151.2636 h -91.5118 l -55.9837,-136.7293 h -52.7538 v 136.7293 h -85.5904 v -370.8918 z m -81.284,159.3381 h 63.5199 q 23.6854,0 33.9132,-11.8427 10.7661,-12.381 10.7661,-29.6067 0,-17.2258 -10.7661,-29.0685 -10.7661,-12.381 -33.9132,-12.381 h -63.5199 z"
             inkscape:connector-curvature="0" />
          <path
             id="path5410-9"
             style="font-style:normal;font-variant:normal;font-weight:900;font-stretch:normal;font-size:538.30456543px;line-height:1000%;font-family:'PF DinDisplay Pro';-inkscape-font-specification:'PF DinDisplay Pro Heavy';letter-spacing:0px;word-spacing:0px;fill:#013250;fill-opacity:0.9926108;stroke:none;stroke-width:13.4576149px;stroke-linecap:butt;stroke-linejoin:miter;stroke-opacity:1"
             d="m 898.18881,-1223.6113 q 0,30.6834 -11.8427,53.2922 -11.8427,22.6087 -31.7599,37.6813 -19.9173,15.0725 -46.2942,22.6088 -26.377,7.5362 -55.4454,7.5362 -29.0684,0 -55.4454,-7.5362 -25.8386,-7.5363 -46.2942,-22.6088 -19.9172,-15.0726 -31.7599,-37.6813 -11.8427,-22.6088 -11.8427,-53.2922 v -139.4209 q 0,-30.6833 12.9193,-52.7538 12.9193,-22.0705 33.3749,-36.6047 20.9938,-14.5342 46.8325,-21.5322 25.8386,-6.998 52.2155,-6.998 26.3769,0 52.2155,7.5363 26.377,7.5363 46.8325,22.6088 20.9939,14.5342 33.3749,37.143 12.9193,22.6088 12.9193,53.2922 z m -86.1287,-120.5802 q 0,-16.1491 -5.383,-26.9152 -5.3831,-11.3044 -13.996,-17.7641 -8.0745,-6.9979 -18.8406,-10.2278 -10.7661,-3.2298 -20.9939,-3.2298 -10.7661,0 -21.5322,3.2298 -10.2278,3.2299 -18.8406,10.2278 -8.6129,6.4597 -13.996,17.7641 -5.383,10.7661 -5.383,26.9152 v 104.9694 q 0,16.1491 5.383,27.4535 5.3831,10.7661 13.996,17.7641 8.6128,6.4596 18.8406,9.6894 10.7661,3.2299 21.5322,3.2299 10.2278,0 20.9939,-3.2299 10.7661,-3.2298 18.8406,-9.6894 8.6129,-6.998 13.996,-17.7641 5.383,-11.3044 5.383,-27.4535 z"
             inkscape:connector-curvature="0" />
          <path
             id="path5412-7"
             style="font-style:normal;font-variant:normal;font-weight:900;font-stretch:normal;font-size:538.30456543px;line-height:1000%;font-family:'PF DinDisplay Pro';-inkscape-font-specification:'PF DinDisplay Pro Heavy';letter-spacing:0px;word-spacing:0px;fill:#013250;fill-opacity:0.9926108;stroke:none;stroke-width:13.4576149px;stroke-linecap:butt;stroke-linejoin:miter;stroke-opacity:1"
             d="m 1247.2457,-1223.6113 q 0,30.6834 -11.8427,53.2922 -11.8427,22.6087 -31.76,37.6813 -19.9173,15.0725 -46.2942,22.6088 -26.3769,7.5362 -55.4453,7.5362 -29.0685,0 -55.4454,-7.5362 -25.8386,-7.5363 -46.2942,-22.6088 -19.91729,-15.0726 -31.75999,-37.6813 -11.8427,-22.6088 -11.8427,-53.2922 v -139.4209 q 0,-30.6833 12.9193,-52.7538 12.9193,-22.0705 33.37489,-36.6047 20.9939,-14.5342 46.8325,-21.5322 25.8386,-6.998 52.2156,-6.998 26.3769,0 52.2155,7.5363 26.3769,7.5363 46.8325,22.6088 20.9939,14.5342 33.3749,37.143 12.9193,22.6088 12.9193,53.2922 z m -86.1287,-120.5802 q 0,-16.1491 -5.3831,-26.9152 -5.383,-11.3044 -13.9959,-17.7641 -8.0746,-6.9979 -18.8407,-10.2278 -10.7661,-3.2298 -20.9938,-3.2298 -10.7661,0 -21.5322,3.2298 -10.2278,3.2299 -18.8407,10.2278 -8.6129,6.4597 -13.9959,17.7641 -5.3831,10.7661 -5.3831,26.9152 v 104.9694 q 0,16.1491 5.3831,27.4535 5.383,10.7661 13.9959,17.7641 8.6129,6.4596 18.8407,9.6894 10.7661,3.2299 21.5322,3.2299 10.2277,0 20.9938,-3.2299 10.7661,-3.2298 18.8407,-9.6894 8.6129,-6.998 13.9959,-17.7641 5.3831,-11.3044 5.3831,-27.4535 z"
             inkscape:connector-curvature="0" />
          <path
             id="path5414-0"
             style="font-style:normal;font-variant:normal;font-weight:900;font-stretch:normal;font-size:538.30456543px;line-height:1000%;font-family:'PF DinDisplay Pro';-inkscape-font-specification:'PF DinDisplay Pro Heavy';letter-spacing:0px;word-spacing:0px;fill:#013250;fill-opacity:0.9926108;stroke:none;stroke-width:13.4576149px;stroke-linecap:butt;stroke-linejoin:miter;stroke-opacity:1"
             d="m 1393.9,-1327.504 h 148.0338 v 75.9009 H 1393.9 v 145.3422 h -85.5904 v -370.8918 h 258.9245 v 76.4392 H 1393.9 Z"
             inkscape:connector-curvature="0" />
          <path
             id="path5391-9"
             style="font-style:normal;font-variant:normal;font-weight:900;font-stretch:normal;font-size:225.48962402px;line-height:125%;font-family:'PF DinDisplay Pro';-inkscape-font-specification:'PF DinDisplay Pro Heavy';letter-spacing:0px;word-spacing:0px;fill:#b9c000;fill-opacity:1;stroke:none;stroke-width:2.34885073px;stroke-linecap:butt;stroke-linejoin:miter;stroke-opacity:1"
             d="m 815.78265,488.50251 q -7.66665,-6.5392 -15.78427,-8.5686 -7.89214,-2.2549 -15.3333,-2.2549 -4.50979,0 -9.01958,1.35294 -4.5098,1.35294 -8.11763,4.2843 -3.60783,2.70588 -6.08822,7.44116 -2.2549,4.50979 -2.2549,11.27448 v 43.97048 q 0,6.76468 2.2549,11.49997 2.48039,4.50979 6.08822,7.44115 3.83332,2.70588 8.34312,4.05882 4.50979,1.35294 9.01958,1.35294 7.21567,0 14.88232,-2.02941 7.66664,-2.2549 16.23525,-8.7941 l 16.91172,27.96072 q -9.47056,7.89213 -22.32347,11.95095 -12.62742,3.83332 -26.38229,3.83332 -10.8235,0 -21.87249,-2.93136 -10.8235,-2.93137 -19.6176,-9.01959 -8.56861,-6.08822 -13.98036,-15.33329 -5.41175,-9.47057 -5.41175,-22.32348 v -58.6273 q 0,-12.85291 5.18626,-22.09798 5.41176,-9.47057 13.98036,-15.55879 8.56861,-6.31371 19.16662,-9.24507 10.8235,-3.15686 21.87249,-3.15686 13.75487,0 27.05876,3.83333 13.30389,3.83332 22.54896,11.95095 z"
             inkscape:connector-curvature="0"
             transform="matrix(0.9979164,0,0,1.002088,-427.92118,-1482.1655)" />
          <path
             id="path5393-6"
             style="font-style:normal;font-variant:normal;font-weight:900;font-stretch:normal;font-size:225.48962402px;line-height:125%;font-family:'PF DinDisplay Pro';-inkscape-font-specification:'PF DinDisplay Pro Heavy';letter-spacing:0px;word-spacing:0px;fill:#b9c000;fill-opacity:1;stroke:none;stroke-width:2.34885073px;stroke-linecap:butt;stroke-linejoin:miter;stroke-opacity:1"
             d="m 1000.7913,552.54157 q 0,12.8529 -4.96075,22.32347 -4.96077,9.47056 -13.30388,15.78427 -8.34312,6.31371 -19.39211,9.47057 -11.04899,3.15685 -23.22543,3.15685 -12.17644,0 -23.22543,-3.15685 -10.82351,-3.15686 -19.39211,-9.47057 -8.34312,-6.31371 -13.30389,-15.78427 -4.96077,-9.47057 -4.96077,-22.32347 v -58.40182 q 0,-12.85291 5.41175,-22.09798 5.41175,-9.24508 13.98036,-15.3333 8.79409,-6.08821 19.61759,-9.01958 10.82351,-2.93137 21.8725,-2.93137 11.04899,0 21.87249,3.15686 11.04899,3.15685 19.6176,9.47056 8.79409,6.08822 13.98036,15.55879 5.41172,9.47056 5.41172,22.32347 z m -36.07831,-50.50968 q 0,-6.76469 -2.2549,-11.27448 -2.2549,-4.73528 -5.86273,-7.44116 -3.38234,-2.93136 -7.89214,-4.2843 -4.50979,-1.35294 -8.79409,-1.35294 -4.50979,0 -9.01959,1.35294 -4.2843,1.35294 -7.89213,4.2843 -3.60784,2.70588 -5.86273,7.44116 -2.2549,4.50979 -2.2549,11.27448 v 43.97048 q 0,6.76468 2.2549,11.49997 2.25489,4.50979 5.86273,7.44115 3.60783,2.70588 7.89213,4.05882 4.5098,1.35294 9.01959,1.35294 4.2843,0 8.79409,-1.35294 4.5098,-1.35294 7.89214,-4.05882 3.60783,-2.93136 5.86273,-7.44115 2.2549,-4.73529 2.2549,-11.49997 z"
             inkscape:connector-curvature="0"
             transform="matrix(0.9979164,0,0,1.002088,-427.92118,-1482.1655)" />
          <path
             id="path5395-0"
             style="font-style:normal;font-variant:normal;font-weight:900;font-stretch:normal;font-size:225.48962402px;line-height:125%;font-family:'PF DinDisplay Pro';-inkscape-font-specification:'PF DinDisplay Pro Heavy';letter-spacing:0px;word-spacing:0px;fill:#b9c000;fill-opacity:1;stroke:none;stroke-width:2.34885073px;stroke-linecap:butt;stroke-linejoin:miter;stroke-opacity:1"
             d="m 1171.4286,529.31613 -14.6569,27.96072 -13.5293,23.67641 h -25.4804 l -13.7548,-24.57837 -13.9804,-26.83327 h -0.902 V 601.6983 H 1053.272 V 446.33595 h 32.9215 l 25.7058,50.50968 18.2647,36.9803 h 1.3529 l 18.9411,-38.33324 24.5784,-49.15674 h 32.9215 V 601.6983 h -35.8529 v -72.38217 z"
             inkscape:connector-curvature="0"
             transform="matrix(0.9979164,0,0,1.002088,-427.92118,-1482.1655)" />
          <path
             id="path5397-6"
             style="font-style:normal;font-variant:normal;font-weight:900;font-stretch:normal;font-size:225.48962402px;line-height:125%;font-family:'PF DinDisplay Pro';-inkscape-font-specification:'PF DinDisplay Pro Heavy';letter-spacing:0px;word-spacing:0px;fill:#b9c000;fill-opacity:1;stroke:none;stroke-width:2.34885073px;stroke-linecap:butt;stroke-linejoin:miter;stroke-opacity:1"
             d="m 1297.9156,513.08088 h 26.3823 q 10.147,0 14.4313,-4.96077 4.2843,-5.18626 4.2843,-12.40193 0,-7.21567 -4.2843,-12.17644 -4.0588,-5.18626 -14.4313,-5.18626 h -26.3823 z m 32.0195,-66.74493 q 13.0784,0 22.3235,4.28431 9.2451,4.05881 15.1078,11.04899 5.8627,6.99018 8.5686,15.78427 2.7059,8.7941 2.7059,18.26466 0,9.47056 -3.3823,18.26466 -3.1569,8.79409 -9.6961,15.78427 -6.3137,6.99018 -15.5588,11.27448 -9.2451,4.05882 -21.196,4.05882 h -30.8921 v 56.59789 h -35.8528 V 446.33595 Z"
             inkscape:connector-curvature="0"
             transform="matrix(0.9979164,0,0,1.002088,-427.92118,-1482.1655)" />
          <path
             id="path5399-1"
             style="font-style:normal;font-variant:normal;font-weight:900;font-stretch:normal;font-size:225.48962402px;line-height:125%;font-family:'PF DinDisplay Pro';-inkscape-font-specification:'PF DinDisplay Pro Heavy';letter-spacing:0px;word-spacing:0px;fill:#b9c000;fill-opacity:1;stroke:none;stroke-width:2.34885073px;stroke-linecap:butt;stroke-linejoin:miter;stroke-opacity:1"
             d="M 1421.5277,601.6983 V 446.33595 h 35.4019 v 123.34283 h 73.7351 v 32.01952 z"
             inkscape:connector-curvature="0"
             transform="matrix(0.9979164,0,0,1.002088,-427.92118,-1482.1655)" />
          <path
             id="path5401-7"
             style="font-style:normal;font-variant:normal;font-weight:900;font-stretch:normal;font-size:225.48962402px;line-height:125%;font-family:'PF DinDisplay Pro';-inkscape-font-specification:'PF DinDisplay Pro Heavy';letter-spacing:0px;word-spacing:0px;fill:#b9c000;fill-opacity:1;stroke:none;stroke-width:2.34885073px;stroke-linecap:butt;stroke-linejoin:miter;stroke-opacity:1"
             d="m 1572.1845,446.33595 h 108.4605 v 32.01953 h -72.6077 v 29.08816 h 62.0097 v 31.79404 h -62.0097 v 30.66659 h 72.6077 v 31.79403 h -108.4605 z"
             inkscape:connector-curvature="0"
             transform="matrix(0.9979164,0,0,1.002088,-427.92118,-1482.1655)" />
          <path
             id="path5403-2"
             style="font-style:normal;font-variant:normal;font-weight:900;font-stretch:normal;font-size:225.48962402px;line-height:125%;font-family:'PF DinDisplay Pro';-inkscape-font-specification:'PF DinDisplay Pro Heavy';letter-spacing:0px;word-spacing:0px;fill:#b9c000;fill-opacity:1;stroke:none;stroke-width:2.34885073px;stroke-linecap:butt;stroke-linejoin:miter;stroke-opacity:1"
             d="m 1823.6597,488.50251 q -7.6666,-6.5392 -15.7842,-8.5686 -7.8922,-2.2549 -15.3333,-2.2549 -4.5098,0 -9.0196,1.35294 -4.5098,1.35294 -8.1176,4.2843 -3.6079,2.70588 -6.0882,7.44116 -2.2549,4.50979 -2.2549,11.27448 v 43.97048 q 0,6.76468 2.2549,11.49997 2.4803,4.50979 6.0882,7.44115 3.8333,2.70588 8.3431,4.05882 4.5098,1.35294 9.0196,1.35294 7.2156,0 14.8823,-2.02941 7.6666,-2.2549 16.2352,-8.7941 l 16.9118,27.96072 q -9.4706,7.89213 -22.3235,11.95095 -12.6274,3.83332 -26.3823,3.83332 -10.8235,0 -21.8725,-2.93136 -10.8235,-2.93137 -19.6176,-9.01959 -8.5686,-6.08822 -13.9803,-15.33329 -5.4118,-9.47057 -5.4118,-22.32348 v -58.6273 q 0,-12.85291 5.1863,-22.09798 5.4117,-9.47057 13.9803,-15.55879 8.5686,-6.31371 19.1666,-9.24507 10.8235,-3.15686 21.8725,-3.15686 13.7549,0 27.0588,3.83333 13.3039,3.83332 22.549,11.95095 z"
             inkscape:connector-curvature="0"
             transform="matrix(0.9979164,0,0,1.002088,-427.92118,-1482.1655)" />
          <path
             id="path5405-2"
             style="font-style:normal;font-variant:normal;font-weight:900;font-stretch:normal;font-size:225.48962402px;line-height:125%;font-family:'PF DinDisplay Pro';-inkscape-font-specification:'PF DinDisplay Pro Heavy';letter-spacing:0px;word-spacing:0px;fill:#b9c000;fill-opacity:1;stroke:none;stroke-width:2.34885073px;stroke-linecap:butt;stroke-linejoin:miter;stroke-opacity:1"
             d="M 1955.1514,478.58097 V 601.6983 h -35.8529 V 478.58097 h -39.4607 v -32.24502 h 114.5488 v 32.24502 z"
             inkscape:connector-curvature="0"
             transform="matrix(0.9979164,0,0,1.002088,-427.92118,-1482.1655)" />
          <rect
             y="-1480.0359"
             x="-423.79138"
             height="559"
             width="561"
             id="rect5480"
             style="font-style:normal;font-variant:normal;font-weight:900;font-stretch:normal;font-size:medium;line-height:125%;font-family:'PF DinDisplay Pro';-inkscape-font-specification:'PF DinDisplay Pro Heavy';letter-spacing:0px;word-spacing:0px;opacity:0;fill:#013250;fill-opacity:0.9926108;stroke:#f10000;stroke-width:86.92913055;stroke-linecap:butt;stroke-linejoin:miter;stroke-miterlimit:4;stroke-dasharray:none;stroke-opacity:0.77272728" />
        </g>
      </g>
    </g>
  </g>
</svg>
