<?xml version="1.0" encoding="UTF-8" standalone="no"?>
<!-- Created with Inkscape (http://www.inkscape.org/) -->

<svg
   xmlns:dc="http://purl.org/dc/elements/1.1/"
   xmlns:cc="http://creativecommons.org/ns#"
   xmlns:rdf="http://www.w3.org/1999/02/22-rdf-syntax-ns#"
   xmlns:svg="http://www.w3.org/2000/svg"
   xmlns="http://www.w3.org/2000/svg"
   xmlns:sodipodi="http://sodipodi.sourceforge.net/DTD/sodipodi-0.dtd"
   xmlns:inkscape="http://www.inkscape.org/namespaces/inkscape"
   width="72"
   height="72"
   viewBox="0 0 19.05 19.050001"
   version="1.1"
   id="svg4491"
   sodipodi:docname="медаль.svg"
   inkscape:version="0.92.1 r15371">
  <defs
     id="defs4485" />
  <sodipodi:namedview
     id="base"
     pagecolor="#ffffff"
     bordercolor="#666666"
     borderopacity="1.0"
     inkscape:pageopacity="0.0"
     inkscape:pageshadow="2"
     inkscape:zoom="2.8"
     inkscape:cx="69.717951"
     inkscape:cy="40.664671"
     inkscape:document-units="mm"
     inkscape:current-layer="layer1"
     showgrid="false"
     units="px"
     inkscape:window-width="1920"
     inkscape:window-height="1017"
     inkscape:window-x="-8"
     inkscape:window-y="-8"
     inkscape:window-maximized="1" />
  <metadata
     id="metadata4488">
    <rdf:RDF>
      <cc:Work
         rdf:about="">
        <dc:format>image/svg+xml</dc:format>
        <dc:type
           rdf:resource="http://purl.org/dc/dcmitype/StillImage" />
        <dc:title></dc:title>
      </cc:Work>
    </rdf:RDF>
  </metadata>
  <g
     inkscape:label="Layer 1"
     inkscape:groupmode="layer"
     id="layer1"
     transform="translate(0,-277.94998)">
    <g
       id="g5397"
       transform="matrix(0.03705096,0,0,0.03705096,0.03997463,277.98996)">
      <g
         id="g5304">
        <g
           id="g5302">
          <path
             id="path5300"
             d="M 321.356,63.796 C 265.038,35.338 197.197,46.219 152.546,90.871 c -51.895,51.894 -57.089,134.64 -12.081,192.474 1.591,2.044 3.969,3.114 6.373,3.114 1.732,0 3.477,-0.555 4.95,-1.702 3.517,-2.737 4.149,-7.806 1.413,-11.323 -40.019,-51.422 -35.394,-125.002 10.757,-171.153 39.71,-39.712 100.038,-49.39 150.122,-24.083 3.976,2.012 8.83,0.414 10.84,-3.563 2.009,-3.977 0.415,-8.83 -3.564,-10.839 z"
             inkscape:connector-curvature="0" />
        </g>
      </g>
      <g
         id="g5310">
        <g
           id="g5308">
          <path
             id="path5306"
             d="m 385.787,128.239 c -2.01,-3.977 -6.861,-5.573 -10.841,-3.565 -3.977,2.009 -5.574,6.861 -3.565,10.84 25.289,50.076 15.606,110.396 -24.095,150.096 -46.152,46.15 -119.731,50.774 -171.153,10.757 -3.518,-2.736 -8.586,-2.104 -11.323,1.412 -2.737,3.517 -2.104,8.586 1.413,11.323 26.344,20.502 57.855,30.586 89.266,30.586 37.547,0 74.952,-14.411 103.209,-42.668 44.641,-44.64 55.527,-112.468 27.089,-168.781 z"
             inkscape:connector-curvature="0" />
        </g>
      </g>
      <g
         id="g5316">
        <g
           id="g5314">
          <path
             id="path5312"
             d="m 364.94,97.508 c -1.999,-2.262 -4.099,-4.496 -6.242,-6.638 -2.143,-2.143 -4.376,-4.243 -6.638,-6.242 -3.339,-2.952 -8.439,-2.636 -11.388,0.703 -2.953,3.338 -2.639,8.437 0.7,11.388 2.015,1.78 4.005,3.652 5.915,5.561 1.908,1.91 3.78,3.899 5.561,5.914 1.594,1.804 3.816,2.725 6.049,2.725 1.899,0 3.805,-0.667 5.34,-2.023 3.34,-2.95 3.654,-8.049 0.703,-11.388 z"
             inkscape:connector-curvature="0" />
        </g>
      </g>
      <g
         id="g5322">
        <g
           id="g5320">
          <path
             id="path5318"
             d="m 446.066,208.41 c 5.38,-8.827 5.38,-19.791 -0.002,-28.616 l -10.615,-17.407 c -1.398,-2.294 -1.939,-5.018 -1.521,-7.67 l 3.164,-20.103 c 1.613,-10.245 -2.596,-20.398 -10.982,-26.499 L 409.659,96.149 c -2.175,-1.583 -3.721,-3.892 -4.354,-6.506 L 400.514,69.844 C 398.082,59.787 390.323,52.029 380.267,49.595 l -19.8,-4.792 c -2.614,-0.633 -4.925,-2.179 -6.506,-4.354 L 341.993,23.994 c -6.1,-8.386 -16.254,-12.597 -26.496,-10.983 l -20.11,3.164 c -2.652,0.417 -5.377,-0.123 -7.669,-1.521 L 270.308,4.036 c -8.826,-5.382 -19.79,-5.381 -28.616,0 l -17.408,10.615 c -2.292,1.399 -5.015,1.937 -7.67,1.521 L 196.51,13.008 c -10.242,-1.612 -20.397,2.597 -26.497,10.983 l -11.966,16.451 c -1.583,2.175 -3.893,3.721 -6.508,4.354 l -19.799,4.791 c -10.055,2.432 -17.815,10.191 -20.249,20.247 l -4.792,19.8 c -0.633,2.614 -2.178,4.925 -4.354,6.506 L 85.89,108.108 c -8.386,6.099 -12.594,16.251 -10.983,26.496 l 3.164,20.111 c 0.417,2.653 -0.123,5.377 -1.521,7.669 l -10.617,17.411 c -5.38,8.826 -5.38,19.79 10e-4,28.615 l 10.615,17.408 c 1.398,2.294 1.939,5.018 1.521,7.67 l -3.164,20.104 c -1.613,10.244 2.596,20.398 10.982,26.498 l 16.451,11.966 c 2.175,1.581 3.721,3.892 4.354,6.506 l 4.791,19.799 c 2.432,10.057 10.191,17.815 20.247,20.249 l 8.268,2.001 -55.954,124.814 c -1.189,2.653 -0.86,5.739 0.863,8.081 1.722,2.342 4.569,3.577 7.457,3.231 l 45.022,-5.383 25.936,37.191 c 1.518,2.175 3.995,3.453 6.616,3.453 0.251,0 0.505,-0.012 0.757,-0.035 2.894,-0.272 5.419,-2.081 6.608,-4.732 l 57.145,-127.479 7.241,4.415 c 4.413,2.691 9.36,4.036 14.308,4.036 4.948,0 9.895,-1.346 14.308,-4.036 l 7.502,-4.574 57.217,127.638 c 1.189,2.653 3.713,4.46 6.608,4.732 0.253,0.024 0.506,0.036 0.757,0.036 2.621,0 5.099,-1.278 6.616,-3.453 l 25.936,-37.191 45.022,5.383 c 2.886,0.343 5.735,-0.889 7.457,-3.231 1.722,-2.342 2.053,-5.428 0.863,-8.081 l -55.983,-124.883 7.957,-1.925 c 10.055,-2.432 17.815,-10.191 20.249,-20.247 l 4.792,-19.8 c 0.633,-2.614 2.179,-4.925 4.354,-6.506 l 16.455,-11.968 c 8.386,-6.099 12.594,-16.251 10.983,-26.496 l -3.164,-20.111 c -0.417,-2.653 0.123,-5.377 1.521,-7.669 z M 168.408,487.627 147.854,458.153 c -1.704,-2.444 -4.618,-3.752 -7.576,-3.396 l -35.679,4.266 50.979,-113.723 c 0.932,0.685 1.768,1.506 2.457,2.455 l 11.968,16.455 c 1.137,1.563 2.415,2.98 3.808,4.242 l -26.833,59.857 c -1.822,4.067 -0.004,8.84 4.062,10.663 1.072,0.481 2.193,0.708 3.295,0.708 3.082,0 6.026,-1.776 7.367,-4.77 l 26.738,-59.644 c 2.631,0.361 5.34,0.355 8.059,-0.073 l 20.11,-3.164 c 1.204,-0.189 2.421,-0.172 3.606,0.024 z m 239.324,-28.606 -35.68,-4.264 c -2.961,-0.355 -5.872,0.952 -7.576,3.396 l -20.554,29.474 -51.829,-115.619 c 1.087,-0.148 2.196,-0.148 3.293,0.024 l 20.103,3.164 c 2.829,0.445 5.648,0.431 8.379,0.024 l 26.758,59.692 c 1.343,2.995 4.285,4.77 7.367,4.77 1.103,0 2.224,-0.227 3.295,-0.708 4.066,-1.822 5.885,-6.597 4.062,-10.663 l -26.935,-60.085 c 1.299,-1.206 2.5,-2.541 3.571,-4.013 l 11.966,-16.451 c 0.754,-1.037 1.678,-1.926 2.716,-2.645 z m 24.555,-259.013 -10.617,17.411 c -3.385,5.554 -4.695,12.152 -3.684,18.578 l 3.164,20.11 c 0.665,4.229 -1.073,8.42 -4.534,10.938 l -16.456,11.969 c -5.267,3.832 -9.013,9.429 -10.545,15.76 l -4.792,19.8 c -1.005,4.151 -4.207,7.354 -8.359,8.359 l -19.8,4.791 c -6.332,1.532 -11.93,5.278 -15.762,10.546 l -11.966,16.451 c -2.518,3.463 -6.708,5.199 -10.939,4.533 l -20.104,-3.164 c -6.427,-1.011 -13.026,0.297 -18.581,3.684 l -17.407,10.615 c -3.643,2.22 -8.171,2.22 -11.812,0 l -17.411,-10.616 c -4.33,-2.641 -9.294,-4.017 -14.317,-4.017 -1.42,0 -2.847,0.11 -4.262,0.333 l -20.111,3.164 c -4.23,0.666 -8.42,-1.073 -10.938,-4.534 l -11.969,-16.455 c -3.832,-5.267 -9.429,-9.013 -15.76,-10.545 l -19.8,-4.792 c -4.151,-1.005 -7.354,-4.207 -8.359,-8.359 l -4.791,-19.799 c -1.532,-6.332 -5.277,-11.931 -10.546,-15.763 l -16.45,-11.967 c -3.462,-2.518 -5.199,-6.71 -4.533,-10.939 l 3.164,-20.104 c 1.011,-6.427 -0.297,-13.025 -3.684,-18.58 L 79.711,200.007 c -2.221,-3.643 -2.221,-8.17 0,-11.812 l 10.617,-17.411 c 3.386,-5.554 4.695,-12.152 3.684,-18.578 l -3.164,-20.11 c -0.665,-4.229 1.073,-8.42 4.534,-10.938 l 16.456,-11.969 c 5.267,-3.832 9.013,-9.429 10.545,-15.76 l 4.792,-19.8 c 1.005,-4.151 4.207,-7.354 8.359,-8.359 l 19.8,-4.791 c 6.332,-1.532 11.93,-5.278 15.761,-10.546 l 11.966,-16.451 c 2.518,-3.462 6.708,-5.201 10.939,-4.534 l 20.104,3.164 c 6.428,1.013 13.027,-0.297 18.581,-3.684 l 17.407,-10.615 c 3.643,-2.22 8.171,-2.22 11.812,0 l 17.411,10.616 c 5.554,3.388 12.154,4.697 18.579,3.685 l 20.111,-3.164 c 4.228,-0.663 8.42,1.073 10.938,4.534 l 11.969,16.455 c 3.832,5.267 9.429,9.013 15.76,10.545 l 19.8,4.792 c 4.151,1.005 7.354,4.207 8.359,8.359 l 4.791,19.799 c 1.532,6.332 5.277,11.931 10.546,15.763 l 16.451,11.966 c 3.462,2.518 5.199,6.71 4.533,10.939 l -3.164,20.104 c -1.011,6.427 0.297,13.025 3.684,18.58 l 10.615,17.409 c 2.222,3.643 2.222,8.17 0,11.813 z"
             inkscape:connector-curvature="0" />
        </g>
      </g>
      <g
         id="g5328">
        <g
           id="g5326">
          <path
             id="path5324"
             d="m 350.416,168.997 c -1.778,-5.474 -6.433,-9.296 -12.149,-9.974 l -48.551,-5.757 -20.478,-44.395 c -2.411,-5.226 -7.484,-8.473 -13.24,-8.473 -5.755,0 -10.829,3.247 -13.24,8.473 l -20.478,44.396 -48.551,5.757 c -5.716,0.678 -10.372,4.5 -12.149,9.974 -1.778,5.471 -0.258,11.3 3.966,15.207 l 35.895,33.195 -9.528,47.954 c -1.121,5.646 1.075,11.254 5.732,14.636 2.569,1.866 5.55,2.811 8.55,2.811 2.439,0 4.889,-0.624 7.14,-1.884 l 42.662,-23.879 42.662,23.879 c 5.023,2.812 11.034,2.457 15.691,-0.926 4.657,-3.383 6.853,-8.992 5.731,-14.637 l -9.528,-47.953 35.895,-33.195 c 4.226,-3.907 5.746,-9.735 3.968,-15.209 z m -54.134,39.623 c -2.06,1.905 -2.982,4.744 -2.436,7.496 l 9.75,49.071 -43.658,-24.437 c -1.224,-0.685 -2.582,-1.028 -3.941,-1.028 -1.359,0 -2.716,0.342 -3.941,1.028 l -43.658,24.437 9.75,-49.071 c 0.548,-2.753 -0.375,-5.591 -2.436,-7.496 l -36.732,-33.97 49.686,-5.891 c 2.786,-0.33 5.201,-2.085 6.377,-4.632 l 20.955,-45.431 20.955,45.431 c 1.176,2.547 3.59,4.302 6.377,4.632 l 49.684,5.891 z"
             inkscape:connector-curvature="0" />
        </g>
      </g>
      <g
         id="g5330" />
      <g
         id="g5332" />
      <g
         id="g5334" />
      <g
         id="g5336" />
      <g
         id="g5338" />
      <g
         id="g5340" />
      <g
         id="g5342" />
      <g
         id="g5344" />
      <g
         id="g5346" />
      <g
         id="g5348" />
      <g
         id="g5350" />
      <g
         id="g5352" />
      <g
         id="g5354" />
      <g
         id="g5356" />
      <g
         id="g5358" />
    </g>
  </g>
</svg>
