<?xml version="1.0" encoding="UTF-8" standalone="no"?>
<!-- Created with Inkscape (http://www.inkscape.org/) -->

<svg
   xmlns:dc="http://purl.org/dc/elements/1.1/"
   xmlns:cc="http://creativecommons.org/ns#"
   xmlns:rdf="http://www.w3.org/1999/02/22-rdf-syntax-ns#"
   xmlns:svg="http://www.w3.org/2000/svg"
   xmlns="http://www.w3.org/2000/svg"
   xmlns:sodipodi="http://sodipodi.sourceforge.net/DTD/sodipodi-0.dtd"
   xmlns:inkscape="http://www.inkscape.org/namespaces/inkscape"
   width="377.95276"
   height="158.74016"
   viewBox="0 0 100 42"
   version="1.1"
   id="svg5385"
   inkscape:version="0.92.1 r15371"
   sodipodi:docname="okl.svg">
  <defs
     id="defs5379" />
  <sodipodi:namedview
     id="base"
     pagecolor="#ffffff"
     bordercolor="#666666"
     borderopacity="1.0"
     inkscape:pageopacity="0.0"
     inkscape:pageshadow="2"
     inkscape:zoom="0.35"
     inkscape:cx="355.93896"
     inkscape:cy="-473.09229"
     inkscape:document-units="mm"
     inkscape:current-layer="layer1"
     showgrid="false"
     units="px"
     inkscape:window-width="1920"
     inkscape:window-height="1017"
     inkscape:window-x="1912"
     inkscape:window-y="-8"
     inkscape:window-maximized="1" />
  <metadata
     id="metadata5382">
    <rdf:RDF>
      <cc:Work
         rdf:about="">
        <dc:format>image/svg+xml</dc:format>
        <dc:type
           rdf:resource="http://purl.org/dc/dcmitype/StillImage" />
        <dc:title />
      </cc:Work>
    </rdf:RDF>
  </metadata>
  <g
     inkscape:label="Layer 1"
     inkscape:groupmode="layer"
     id="layer1"
     transform="translate(0,-255)">
    <g
       id="g5318"
       transform="matrix(0.1982763,0,0,0.1982763,3.6954057,264.52706)">
      <path
         style="fill:#6a8dab;stroke-width:0.26458335"
         d="m 67.356665,154.63281 c -15.378454,-0.99288 -29.075976,-7.50338 -38.405731,-18.25442 -6.019909,-6.93698 -10.921396,-18.33775 -11.830128,-27.51667 -0.239241,-2.41652 -0.201787,-3.64674 0.0552,-1.81297 1.192507,8.50945 3.22721,15.01665 6.589501,21.07397 2.247269,4.04855 4.154755,6.61605 7.475535,10.06218 8.747104,9.07728 20.561785,14.55599 34.371249,15.93864 4.444952,0.44505 13.140979,0.18409 17.222502,-0.51683 13.346581,-2.29198 24.494097,-8.08763 31.961347,-16.61684 5.22773,-5.97119 9.51238,-14.62225 11.31034,-22.83648 1.80135,-8.22975 1.78176,-19.01811 -0.05,-27.506214 C 121.87361,67.26368 107.89775,53.12206 88.01485,48.154307 82.005784,46.652938 75.093428,46.042834 68.390318,46.422188 53.333631,47.274303 41.768773,52.046405 32.209475,61.351784 c -4.313297,4.198724 -6.799416,7.583565 -9.437801,12.849522 -2.627655,5.244542 -4.787845,12.9379 -5.311836,18.917708 -0.102012,1.164167 -0.278723,2.354792 -0.39269,2.645834 -0.414007,1.057259 0.381638,-6.164919 0.991042,-8.995834 3.426596,-15.917825 12.621872,-27.860947 26.895833,-34.93318 7.305305,-3.619514 15.101353,-5.458174 24.739587,-5.834713 16.714984,-0.653007 31.9142,4.594766 42.39447,14.63737 8.47562,8.12168 13.41148,18.132923 15.23123,30.893023 0.54324,3.809215 0.61944,13.622726 0.13252,17.065626 -1.63516,11.56179 -5.80888,21.16203 -12.51797,28.79341 -10.54261,11.9919 -28.439531,18.47784 -47.577195,17.24226 z m 142.081255,-4.45639 c -17.5288,-18.10601 -45.38846,-46.60636 -45.55864,-46.60636 -0.11785,0 -0.21428,11.049 -0.21428,24.55333 0,18.74426 -0.0751,24.62845 -0.3175,24.87083 -0.23264,0.23265 -2.41065,0.3175 -8.14917,0.3175 -5.73852,0 -7.91652,-0.0849 -8.14916,-0.3175 -0.46203,-0.46202 -0.46203,-105.26547 0,-105.727497 0.45351,-0.453516 15.84481,-0.453516 16.29833,0 0.2419,0.241897 0.3175,5.602307 0.3175,22.511631 0,14.208201 0.0923,22.162399 0.2564,22.105937 0.14102,-0.04851 9.26691,-10.208506 20.27976,-22.577777 11.01284,-12.369271 20.1723,-22.578059 20.35435,-22.686195 0.47534,-0.282366 18.09998,0.211475 18.40419,0.515685 0.1607,0.160705 -7.4122,9.354939 -20.78466,25.234581 -11.57061,13.739969 -21.00997,25.127707 -20.97636,25.306086 0.0336,0.178377 12.20549,12.612219 27.04861,27.630759 14.84313,15.01854 26.9875,27.49322 26.9875,27.72151 0,0.36937 -1.23828,0.42326 -11.24479,0.48937 l -11.24479,0.0743 z m 25.3559,2.64547 c -0.0485,-0.12389 -12.16837,-12.44698 -26.93303,-27.38464 -14.76467,-14.93767 -26.93929,-27.328157 -27.05472,-27.534426 -0.13392,-0.239303 0.013,-0.646179 0.40607,-1.124215 0.33877,-0.412046 9.74519,-11.606882 20.90315,-24.877411 11.15797,-13.270527 20.28721,-24.24045 20.28721,-24.377606 0,-0.255459 -13.67012,-0.697578 -16.42483,-0.531211 l -1.47588,0.08913 -20.21414,22.695803 C 171.73367,83.87252 163.9209,92.443734 163.67081,92.395577 163.3147,92.327007 163.2603,89.72495 163.20048,69.898212 l -0.0676,-22.419826 h -7.93601 -7.93601 v 52.652084 52.65209 h 7.93615 7.93614 l 0.0675,-24.80108 c 0.0602,-22.12756 0.1116,-24.80956 0.47653,-24.87983 0.25033,-0.0482 9.84799,9.62528 24.73793,24.93336 l 24.3289,25.01213 H 223.813 c 6.08796,0 11.02933,-0.10137 10.98082,-0.22525 z m 5.99722,-4.25048 c -1.60073,-1.87029 -2.94895,-3.59308 -2.99604,-3.82842 -0.0787,-0.39355 6.88672,-0.42256 86.78334,-0.36135 l 86.86895,0.0665 v 3.70417 3.70416 l -83.87291,0.0577 -83.87292,0.0577 z m 170.39167,-0.41906 v -3.43959 l -86.4526,-0.0665 c -57.22332,-0.044 -86.45261,0.0225 -86.45261,0.19676 0,0.26552 2.87902,3.67537 4.86092,5.75718 l 1.0709,1.12489 83.48669,-0.0666 83.4867,-0.0666 z M 66.695206,142.82452 c -5.959456,-0.88359 -9.479216,-1.95244 -13.935125,-4.2317 -9.210736,-4.7114 -15.747322,-12.61847 -18.620859,-22.52497 -2.951081,-10.17382 -2.22194,-26.129799 1.641138,-35.913419 1.755007,-4.444725 3.491649,-7.201003 6.562954,-10.416265 4.146213,-4.340553 9.641609,-7.71943 15.989704,-9.831367 5.012024,-1.667442 7.198956,-1.970185 14.183022,-1.963393 5.270772,0.0051 6.443295,0.0839 8.758783,0.588425 9.594125,2.09049 17.600549,6.987882 22.805417,13.949683 3.62557,4.8494 6.47313,12.172699 7.61308,19.579167 0.5397,3.506563 0.62316,12.615289 0.14666,16.007289 -1.59889,11.38192 -5.54002,19.35373 -12.604513,25.49541 -5.175877,4.49976 -11.453977,7.51659 -18.31657,8.80171 -2.239375,0.41935 -12.30185,0.74438 -14.223691,0.45943 z m 14.234444,-0.87695 c 14.916071,-2.95592 25.55526,-12.87625 29.2566,-27.2798 2.11918,-8.24669 2.19336,-19.130398 0.18653,-27.369589 C 107.75681,76.558101 101.82432,68.331763 93.091858,63.335429 81.760084,56.851885 65.893834,56.335206 53.870336,62.058196 46.265915,65.677775 40.682169,70.884727 37.442122,77.377833 33.028429,86.222938 31.4216,101.09825 33.655405,112.4336 c 3.013366,15.29119 14.498119,26.61127 29.910442,29.48156 4.10306,0.76413 4.219146,0.77236 9.611651,0.68131 3.665644,-0.0619 5.612313,-0.22485 7.752152,-0.6489 z m 157.26543,-2.30021 c -0.10019,-0.10019 -0.18216,-20.81966 -0.18216,-46.043277 v -45.86111 h 5.02783 5.02782 l -0.0669,45.971354 -0.0669,45.971353 -4.77877,0.0719 c -2.62833,0.0396 -4.86075,-0.0101 -4.96094,-0.11024 z m 9.54203,-45.933033 -0.0669,-45.574479 H 243.04 238.40979 l -0.0669,45.574479 -0.0669,45.574483 h 4.764 4.764 z m 34.59352,36.606983 c -4.87004,-0.90027 -8.84354,-2.39011 -12.17084,-4.56337 -3.86886,-2.52699 -6.19441,-5.20628 -8.36306,-9.63519 -1.84163,-3.76106 -2.17427,-5.8583 -2.01197,-12.68499 0.14249,-5.993779 0.69359,-8.881823 2.49884,-13.095243 2.71636,-6.339915 6.27941,-10.113675 12.37411,-13.105855 4.61507,-2.265762 9.51426,-3.273724 14.21405,-2.924398 8.97266,0.666922 15.40309,5.435526 18.29208,13.564828 1.22446,3.44551 1.5803,6.086049 1.60366,11.900337 0.0119,2.934521 -0.0551,5.412211 -0.14875,5.505961 -0.0936,0.0938 -8.76649,0.24203 -19.27307,0.32948 -13.80166,0.11489 -19.13466,0.24182 -19.21738,0.45738 -0.28588,0.74501 0.46334,4.04715 1.33444,5.88144 1.77722,3.74234 5.22634,6.17777 10.86789,7.67384 2.38175,0.63161 3.10798,0.70164 7.27604,0.70164 5.95349,0 8.29897,-0.55266 13.33553,-3.14224 2.48152,-1.2759 3.79309,-1.79432 4.8033,-1.89858 l 1.38967,-0.14343 0.10771,5.12763 c 0.12372,5.88926 0.27683,5.47683 -2.56633,6.91205 -2.37609,1.19945 -4.72061,2.0297 -7.80947,2.76551 -3.8723,0.92243 -12.51074,1.11739 -16.53645,0.3732 z m 15.47518,-0.53513 c 3.45173,-0.73712 7.1182,-2.04123 9.32747,-3.31766 l 1.85258,-1.07034 -0.0435,-4.76046 c -0.0238,-2.61825 -0.14979,-4.86676 -0.27972,-4.99667 -0.41749,-0.41751 -2.70492,0.34649 -5.03307,1.68103 -4.54718,2.60655 -8.90185,3.57866 -15.08125,3.36666 -4.94659,-0.1697 -7.53,-0.74323 -11.05784,-2.45489 -3.96519,-1.92386 -6.55587,-5.0048 -7.44198,-8.85032 -0.38294,-1.66186 -0.35904,-3.68523 0.0453,-3.84041 0.18202,-0.0699 8.84382,-0.21494 19.24844,-0.32243 l 18.91749,-0.19543 -0.0243,-6.085412 c -0.0225,-5.65099 -0.0728,-6.266863 -0.70271,-8.627097 -1.22372,-4.585039 -3.81293,-8.896337 -6.7375,-11.218693 -1.787,-1.419019 -5.09202,-3.08456 -7.35209,-3.70504 -2.169,-0.595479 -8.0614,-0.817248 -10.65863,-0.401151 -10.6836,1.711603 -18.37284,8.524076 -21.36054,18.924897 -1.46605,5.103625 -1.87633,11.848286 -1.02294,16.816296 0.89446,5.20714 4.18846,10.49628 8.55113,13.73046 4.15636,3.08124 9.69273,5.11402 16.15661,5.93222 2.33952,0.29614 10.23879,-0.0806 12.69706,-0.60556 z M 270.22017,98.912027 c -0.62803,-0.628023 0.31098,-4.843801 1.72442,-7.742008 2.61917,-5.370491 7.9404,-8.618915 14.0902,-8.601569 4.67818,0.0132 8.2907,1.565124 11.53835,4.956884 1.6751,1.749438 2.22512,3.69947 2.39861,8.504097 l 0.086,2.38125 -2.91042,0.162936 c -4.82626,0.270195 -26.72018,0.545348 -26.92712,0.33841 z m 23.88441,-0.597927 5.42396,-0.168002 0.0823,-1.454732 c 0.11877,-2.100911 -0.42145,-5.774593 -1.03862,-7.062989 -0.72819,-1.520097 -3.55486,-4.094562 -5.57509,-5.077664 -6.89475,-3.355152 -15.1264,-1.399966 -19.41628,4.611762 -1.44806,2.029267 -2.30429,4.063058 -2.87617,6.831714 -0.31654,1.532453 -0.3523,2.170297 -0.13627,2.430594 0.30027,0.361797 9.71101,0.317543 23.53621,-0.110683 z m 27.84616,5.05752 0.0674,-26.921356 4.21341,-0.0731 c 3.19357,-0.05541 4.26529,0.0087 4.42772,0.264584 0.11787,0.185724 0.21614,1.736666 0.21836,3.446536 0.003,1.70987 0.0568,3.108854 0.12136,3.108854 0.0645,0 0.74912,-0.670748 1.52136,-1.490551 2.90841,-3.087621 6.73788,-5.192115 11.02651,-6.059667 3.14243,-0.635688 9.91881,-0.429102 12.71087,0.387506 6.11209,1.787625 9.63764,4.976005 11.58,10.472544 l 0.74707,2.114127 0.0781,20.835943 0.0781,20.83593 h -4.90675 -4.90673 v -17.44335 c 0,-20.949878 -0.11094,-22.252292 -2.08097,-24.432906 -1.79464,-1.986444 -4.32086,-3.154635 -7.90705,-3.65642 -6.03861,-0.844931 -13.6579,2.540355 -15.77927,7.010815 -1.2228,2.576875 -1.28977,3.599707 -1.40925,21.522381 l -0.11332,16.99948 h -4.87717 -4.87715 z m 9.47941,9.45885 c 0.16454,-18.521627 0.22757,-19.338676 1.68346,-21.82295 0.96351,-1.644097 3.33926,-3.691001 5.51911,-4.755171 8.24002,-4.022622 18.22341,-1.600131 20.12058,4.88229 0.16714,0.571117 0.32851,8.176641 0.42106,19.843751 l 0.15002,18.91771 h 4.49791 4.49792 v -20.10834 c 0,-22.39353 0.0718,-21.405015 -1.85176,-25.478029 -2.47949,-5.250014 -8.29345,-8.387506 -16.13991,-8.70988 -7.44572,-0.305908 -12.66452,1.540203 -17.15807,6.069529 -1.23327,1.243102 -2.22408,2.036844 -2.4394,1.95422 -0.2753,-0.105643 -0.38045,-0.953963 -0.43672,-3.523946 l -0.0741,-3.384806 h -3.96875 -3.96875 l -0.0682,26.326042 c -0.0375,14.47932 -0.0103,26.47776 0.0603,26.66319 0.0986,0.25872 1.16091,0.32027 4.5661,0.26459 l 4.43761,-0.0726 z m 62.27673,15.76627 c -2.81932,-0.53227 -4.79132,-1.16213 -6.79048,-2.1689 -2.71907,-1.3693 -3.61614,-2.32405 -5.114,-5.4429 l -1.31136,-2.73051 -0.13229,-17.19792 -0.13229,-17.197912 h -4.15369 c -2.42692,0 -4.25704,-0.10999 -4.40235,-0.264584 -0.13679,-0.145521 -0.30224,-1.84826 -0.36767,-3.783864 -0.10718,-3.170436 -0.0725,-3.544165 0.35007,-3.770313 0.258,-0.138067 2.32236,-0.251031 4.58751,-0.251031 h 4.11842 V 62.035513 48.282221 l 0.59532,-0.102026 c 0.32742,-0.05611 2.5896,-0.04814 5.02708,0.01772 l 4.43177,0.11975 v 13.731952 13.731955 l 8.63637,0.06976 c 7.34163,0.0593 8.67254,0.129257 8.87767,0.466635 0.13822,0.227291 0.16214,1.826747 0.056,3.743161 l -0.18528,3.346286 -4.78978,0.174234 c -2.63438,0.09583 -6.54683,0.167576 -8.69432,0.159443 l -3.90453,-0.01479 0.0681,17.061249 0.0681,17.06127 0.92604,0.91145 c 1.43135,1.40877 3.22107,1.87285 7.01146,1.81802 3.44953,-0.0499 6.76974,-0.63795 10.2743,-1.81977 1.34229,-0.45265 2.16286,-0.60818 2.32953,-0.44153 0.15044,0.15044 0.22383,1.82066 0.17671,4.02194 -0.0902,4.21532 -0.003,4.02272 -2.27796,4.98963 -2.53677,1.07783 -5.03229,1.49573 -9.31195,1.55937 -2.56281,0.0381 -4.80074,-0.0711 -5.96646,-0.2912 z m 9.14839,-0.16168 c 2.46282,-0.29706 5.38914,-1.08963 6.93518,-1.87837 l 0.99539,-0.50781 v -3.69878 c 0,-2.03434 -0.10044,-3.69879 -0.22315,-3.69879 -0.12274,0 -0.90363,0.23411 -1.73533,0.52025 -3.35708,1.15501 -6.75894,1.71398 -10.47694,1.72149 -4.29175,0.009 -5.71773,-0.38136 -7.29345,-1.99487 l -1.04093,-1.06589 -0.0719,-16.96787 c -0.05,-11.793181 0.0145,-17.054336 0.21129,-17.251424 0.18397,-0.184219 3.26811,-0.329912 8.80314,-0.415857 l 8.51995,-0.132291 0.0741,-3.373438 0.0741,-3.373437 h -8.57449 c -7.35793,0 -8.62192,-0.05719 -8.90902,-0.403112 -0.26305,-0.31696 -0.31237,-3.271453 -0.23082,-13.824479 l 0.10371,-13.421368 -4.73461,-0.07241 -4.73461,-0.07241 0.1339,13.4661 c 0.0784,7.887465 0.034,13.644562 -0.10718,13.896885 -0.20751,0.370814 -0.84809,0.430787 -4.60123,0.430787 h -4.36018 l 0.0738,3.505729 0.0738,3.505729 4.43178,0.07254 c 2.43747,0.0399 4.45859,0.09943 4.49138,0.132292 0.0328,0.03286 0.1221,7.917873 0.19843,17.522244 l 0.13883,17.4625 1.17573,2.46291 c 1.3254,2.77644 2.32452,3.83951 4.76763,5.0728 4.20836,2.12436 10.36646,3.04675 15.8917,2.38034 z m 13.0238,-41.179816 c -0.26041,-0.105071 -0.33073,-4.286776 -0.33073,-19.662261 0,-17.563647 0.0421,-19.544973 0.41851,-19.689411 0.54605,-0.209539 13.16901,-0.209539 13.71505,0 0.3764,0.144437 0.41852,2.125213 0.41852,19.683151 0,17.557938 -0.0421,19.538714 -0.41852,19.68315 -0.4989,0.191447 -13.32582,0.177853 -13.80283,-0.01463 z M 429.83584,67.586723 V 48.272139 h -7.01146 -7.01146 v 19.314584 19.314583 h 7.01146 7.01146 z m 6.15156,19.668521 c -0.2581,-0.10415 -0.33073,-2.910943 -0.33073,-12.783095 0,-11.290747 0.0449,-12.666898 0.41852,-12.810244 0.23019,-0.08833 3.42106,-0.160599 7.09083,-0.160599 4.8368,0 6.75966,0.08734 6.98982,0.3175 0.43884,0.438846 0.45857,24.725995 0.0206,25.253828 -0.23632,0.284732 -1.6823,0.353571 -7.0776,0.33695 -3.72935,-0.01148 -6.92946,-0.08094 -7.11136,-0.15434 z M 449.94417,74.461497 V 62.021686 l -6.94531,0.07054 -6.94531,0.07054 -0.069,12.038542 c -0.0379,6.621198 -0.0119,12.18737 0.0578,12.369271 0.097,0.252865 1.74834,0.330729 7.01429,0.330729 h 6.88747 z M 435.5543,56.853656 c -0.2405,-0.626748 -0.18888,-8.129858 0.0586,-8.519782 0.16494,-0.259826 1.81401,-0.319285 7.33814,-0.264584 l 7.12541,0.07056 v 4.497916 4.497917 l -7.17997,0.07034 c -6.37455,0.06245 -7.19817,0.02293 -7.34219,-0.352369 z m 14.25758,-4.215892 v -4.233333 h -6.87917 -6.87916 l -0.0735,3.957126 c -0.0405,2.17642 -0.0138,4.113201 0.0596,4.303959 0.10599,0.276209 1.52175,0.332452 6.95269,0.276208 l 6.81961,-0.07063 z"
         id="path5322"
         inkscape:connector-curvature="0" />
      <path
         style="fill:#2f608c;stroke-width:0.26458335"
         d="m 63.985286,153.96874 c -10.294827,-1.3018 -19.440875,-4.93287 -27.254878,-10.82042 -3.053634,-2.3008 -7.798324,-7.13771 -9.896431,-10.08879 -4.427698,-6.22775 -7.656794,-14.11522 -8.985769,-21.94885 -0.296251,-1.74625 -0.708042,-3.96594 -0.915091,-4.93265 -0.428091,-1.99874 -0.484466,-7.426211 -0.09579,-9.222557 0.141687,-0.654844 0.424319,-2.51836 0.62807,-4.141145 1.378631,-10.980169 4.876097,-19.837635 10.744944,-27.21198 1.61658,-2.031273 6.267075,-6.561781 8.322369,-8.107648 9.187371,-6.910176 19.083073,-10.349552 31.857612,-11.072512 24.371062,-1.379251 44.830898,9.657838 53.947468,29.102035 1.42009,3.028836 2.97692,7.685399 3.71874,11.122953 1.83171,8.488104 1.8513,19.276464 0.05,27.506214 -1.79796,8.21423 -6.08261,16.86529 -11.31034,22.83648 -7.46545,8.52716 -18.567778,14.30101 -31.961346,16.62175 -4.181552,0.72455 -14.411209,0.91836 -18.849504,0.35712 z m 16.933611,-11.60365 c 6.862593,-1.28512 13.140693,-4.30195 18.31657,-8.80171 7.064493,-6.14168 11.005623,-14.11349 12.604513,-25.49541 0.4765,-3.392 0.39304,-12.500726 -0.14666,-16.007289 -1.13995,-7.406468 -3.98751,-14.729767 -7.61308,-19.579167 C 98.875372,65.519713 90.868948,60.622321 81.274823,58.531831 78.959335,58.027303 77.786812,57.948532 72.51604,57.943406 c -6.984066,-0.0068 -9.170998,0.295951 -14.183022,1.963393 -9.2662,3.082756 -16.73475,8.915411 -20.675248,16.14659 -2.116609,3.884174 -3.748379,9.084101 -4.566535,14.552084 -0.96935,6.478455 -0.973901,15.287837 -0.01076,20.832177 2.114664,12.17313 9.021269,21.7033 19.679608,27.15517 4.455909,2.27926 7.975669,3.34811 13.935126,4.2317 1.92184,0.28495 11.984315,-0.0401 14.22369,-0.45943 z M 188.41508,128.03501 c -14.88994,-15.30808 -24.4876,-24.98157 -24.73793,-24.93336 -0.36493,0.0703 -0.4163,2.75227 -0.47653,24.87983 l -0.0675,24.80108 h -7.93614 -7.93615 V 100.13047 47.478389 h 7.93601 7.93601 l 0.0676,22.419826 c 0.0598,19.826738 0.11422,22.428796 0.47033,22.497365 0.25009,0.04816 8.06286,-8.523057 20.61684,-22.618263 l 20.21414,-22.695803 1.47588,-0.08913 c 2.75471,-0.166367 16.42483,0.275752 16.42483,0.531211 0,0.137156 -9.12924,11.107079 -20.28721,24.377606 -11.15796,13.270529 -20.56438,24.465365 -20.90315,24.877411 -0.39303,0.478036 -0.53999,0.884912 -0.40607,1.124215 0.11543,0.206269 12.29005,12.596753 27.05472,27.534423 14.76466,14.93766 26.88452,27.26075 26.93303,27.38464 0.0485,0.12388 -4.89286,0.22525 -10.98082,0.22525 h -11.06902 z m 54.72334,22.56515 c -1.9819,-2.08181 -4.86092,-5.49166 -4.86092,-5.75718 0,-0.17428 29.22929,-0.24081 86.45261,-0.19676 l 86.4526,0.0665 v 3.43959 3.43958 l -83.4867,0.0666 -83.48669,0.0666 z m -4.79552,-56.885833 0.0669,-45.574479 h 4.63021 4.63021 l 0.0669,45.574479 0.0669,45.574483 h -4.764 -4.764 z m 46.76585,36.677413 c -6.46388,-0.8182 -12.00025,-2.85098 -16.15661,-5.93222 -3.0592,-2.26788 -5.29435,-5.11715 -7.12841,-9.08696 -2.34243,-5.07017 -2.51084,-14.11071 -0.39978,-21.459796 2.9877,-10.400821 10.67695,-17.213294 21.36054,-18.924897 2.59723,-0.416097 8.48964,-0.194328 10.65864,0.401151 2.26007,0.62048 5.56508,2.286021 7.35208,3.70504 2.92457,2.322356 5.51378,6.633654 6.73751,11.218693 0.62992,2.360234 0.68008,2.976107 0.70271,8.627097 l 0.0243,6.085412 -18.9175,0.19543 c -10.40462,0.10749 -19.06642,0.25258 -19.24844,0.32243 -0.40439,0.15518 -0.42828,2.17855 -0.0453,3.84041 0.88611,3.84552 3.47678,6.92646 7.44198,8.85032 3.52783,1.71166 6.11124,2.28519 11.05784,2.45489 6.1794,0.212 10.53407,-0.76011 15.08125,-3.36666 2.32815,-1.33454 4.61558,-2.09854 5.03306,-1.68103 0.12994,0.12991 0.2558,2.37842 0.27972,4.99667 l 0.0435,4.76046 -1.85259,1.07034 c -2.20927,1.27643 -5.87573,2.58054 -9.32746,3.31766 -2.45827,0.52496 -10.35754,0.9017 -12.69707,0.60556 z m 12.03854,-31.818123 2.91042,-0.162936 -0.086,-2.38125 c -0.17349,-4.804627 -0.72351,-6.754659 -2.39861,-8.504097 -3.24765,-3.39176 -6.86017,-4.94369 -11.53835,-4.956884 -6.1498,-0.01736 -11.47103,3.231078 -14.0902,8.601569 -1.41344,2.898207 -2.35245,7.113985 -1.72442,7.742008 0.20694,0.206938 22.10086,-0.06821 26.92712,-0.33841 z m 25.12754,31.130463 c -0.0707,-0.18543 -0.0978,-12.18387 -0.0603,-26.66319 l 0.0682,-26.326042 h 3.96875 3.96875 l 0.0741,3.384806 c 0.0563,2.569983 0.16142,3.418303 0.43672,3.523946 0.21532,0.08262 1.20613,-0.711118 2.4394,-1.95422 4.49355,-4.529326 9.71235,-6.375437 17.15807,-6.069529 7.84646,0.322374 13.66042,3.459866 16.13991,8.70988 1.9236,4.073014 1.85176,3.084499 1.85176,25.478029 v 20.10834 h -4.49792 -4.49791 l -0.15002,-18.91771 c -0.0925,-11.66711 -0.25392,-19.272634 -0.42106,-19.843751 -0.45347,-1.549458 -1.05084,-2.488215 -2.33884,-3.675448 -4.99835,-4.607336 -15.53368,-4.073041 -21.16465,1.073359 -1.8329,1.675159 -2.67044,3.078808 -3.23189,5.416311 -0.37258,1.551303 -0.45826,4.303337 -0.58777,18.881609 l -0.15161,17.06563 -4.43761,0.0726 c -3.40519,0.0557 -4.46749,-0.006 -4.5661,-0.26459 z m 72.7683,-1.29689 c -2.49687,-0.31188 -6.13643,-1.3716 -8.07956,-2.35247 -2.44311,-1.23329 -3.44223,-2.29636 -4.76763,-5.0728 l -1.17573,-2.46291 -0.13883,-17.4625 c -0.0763,-9.604371 -0.16562,-17.489383 -0.19843,-17.522244 -0.0328,-0.03286 -2.05391,-0.09239 -4.49138,-0.132292 l -4.43178,-0.07254 -0.0738,-3.505729 -0.0738,-3.505729 h 4.36018 c 3.75314,0 4.39372,-0.05997 4.60123,-0.430787 0.14121,-0.252323 0.18561,-6.00942 0.10718,-13.896885 l -0.1339,-13.4661 4.73461,0.07241 4.73461,0.07241 -0.10371,13.421368 c -0.0815,10.553026 -0.0322,13.507519 0.23082,13.824479 0.2871,0.345919 1.55109,0.403112 8.90902,0.403112 h 8.57449 l -0.0741,3.373437 -0.0741,3.373438 -8.51995,0.132291 c -5.53503,0.08594 -8.61917,0.231638 -8.80314,0.415857 -0.19685,0.197088 -0.26127,5.458243 -0.21129,17.251424 l 0.0719,16.96787 1.04093,1.06589 c 1.57572,1.61351 3.0017,2.00354 7.29345,1.99487 3.718,-0.008 7.11986,-0.56648 10.47694,-1.72149 0.8317,-0.28614 1.61259,-0.52025 1.73533,-0.52025 0.12271,0 0.22315,1.66445 0.22315,3.69879 v 3.69878 l -0.99539,0.50781 c -3.45059,1.76036 -9.44608,2.51268 -14.74732,1.8505 z M 415.81292,67.586723 V 48.272139 h 7.01146 7.01146 v 19.314584 19.314583 h -7.01146 -7.01146 z m 20.22949,18.983854 c -0.0697,-0.181901 -0.0958,-5.748073 -0.0578,-12.369271 l 0.069,-12.038542 6.94531,-0.07054 6.94531,-0.07054 v 12.439811 12.439809 h -6.88747 c -5.26595,0 -6.91732,-0.07786 -7.01429,-0.330729 z m -0.003,-29.905061 c -0.0732,-0.190758 -0.10002,-2.127539 -0.0596,-4.303959 l 0.0736,-3.957126 h 6.87916 6.87917 v 4.233333 4.233334 l -6.81961,0.07063 c -5.43094,0.05624 -6.8467,1e-6 -6.95269,-0.276208 z"
         id="path5320"
         inkscape:connector-curvature="0" />
    </g>
  </g>
</svg>
