<?xml version="1.0" encoding="UTF-8" standalone="no"?>
<!-- Created with Inkscape (http://www.inkscape.org/) -->

<svg
   xmlns:dc="http://purl.org/dc/elements/1.1/"
   xmlns:cc="http://creativecommons.org/ns#"
   xmlns:rdf="http://www.w3.org/1999/02/22-rdf-syntax-ns#"
   xmlns:svg="http://www.w3.org/2000/svg"
   xmlns="http://www.w3.org/2000/svg"
   xmlns:sodipodi="http://sodipodi.sourceforge.net/DTD/sodipodi-0.dtd"
   xmlns:inkscape="http://www.inkscape.org/namespaces/inkscape"
   width="377.95276"
   height="158.74016"
   viewBox="0 0 100 42"
   version="1.1"
   id="svg5385"
   inkscape:version="0.92.1 r15371"
   sodipodi:docname="okl.svg">
  <defs
     id="defs5379" />
  <sodipodi:namedview
     id="base"
     pagecolor="#ffffff"
     bordercolor="#666666"
     borderopacity="1.0"
     inkscape:pageopacity="0.0"
     inkscape:pageshadow="2"
     inkscape:zoom="0.98994949"
     inkscape:cx="-157.4258"
     inkscape:cy="-97.272712"
     inkscape:document-units="mm"
     inkscape:current-layer="layer1"
     showgrid="false"
     units="px"
     inkscape:window-width="1920"
     inkscape:window-height="1017"
     inkscape:window-x="1912"
     inkscape:window-y="-8"
     inkscape:window-maximized="1" />
  <metadata
     id="metadata5382">
    <rdf:RDF>
      <cc:Work
         rdf:about="">
        <dc:format>image/svg+xml</dc:format>
        <dc:type
           rdf:resource="http://purl.org/dc/dcmitype/StillImage" />
        <dc:title />
      </cc:Work>
    </rdf:RDF>
  </metadata>
  <g
     inkscape:label="Layer 1"
     inkscape:groupmode="layer"
     id="layer1"
     transform="translate(0,-255)">
    <path
       style="clip-rule:evenodd;fill:#304c83;fill-rule:nonzero;stroke-width:0.0118824;image-rendering:optimizeQuality;shape-rendering:geometricPrecision;text-rendering:geometricPrecision"
       inkscape:connector-curvature="0"
       id="path18"
       d="m 0.36417969,277.22471 c 0,-4.00437 1.18824051,-7.14133 3.56472091,-9.39899 2.376483,-2.25766 5.4540251,-3.39836 9.2088644,-3.39836 2.459659,0 4.68167,0.5347 6.666032,1.59224 1.972479,1.06941 3.481544,2.55472 4.515313,4.4559 1.03377,1.90119 1.556595,4.05189 1.556595,6.46403 0,2.44777 -0.546591,4.63414 -1.639771,6.55908 -1.093181,1.93684 -2.637894,3.38649 -4.634138,4.38461 -2.008126,0.99813 -4.158844,1.4853 -6.475913,1.4853 -2.519069,0 -4.7648444,-0.54659 -6.7373234,-1.63977 -1.9843624,-1.09318 -3.4696626,-2.59036 -4.4915497,-4.49154 -1.02188668,-1.88932 -1.53283021,-3.89744 -1.53283021,-6.0125 z M 62.176456,272.75692 c -0.499062,0 -0.962475,0.095 -1.390242,0.27329 -0.427767,0.17824 -0.808003,0.42777 -1.128827,0.73672 -0.320828,0.32082 -0.582239,0.68917 -0.78424,1.10507 -0.19012,0.41587 -0.320824,0.8674 -0.368353,1.34271 h 6.808616 c 0,-0.4872 -0.0713,-0.93873 -0.202001,-1.36648 -0.142587,-0.41589 -0.344588,-0.78424 -0.606003,-1.09319 -0.26141,-0.30894 -0.594119,-0.55847 -0.974355,-0.7367 -0.392122,-0.16636 -0.843653,-0.26142 -1.354595,-0.26142 z m 5.347081,7.56909 v 2.56659 c -4.776726,2.45967 -11.395226,0.79613 -11.395226,-5.20448 0,-1.11694 0.166354,-2.10319 0.510945,-2.92307 0.332704,-0.83177 0.79612,-1.52095 1.354593,-2.06754 0.570355,-0.55847 1.223886,-0.97436 1.960596,-1.24765 0.73671,-0.2733 1.509066,-0.41589 2.317069,-0.41589 0.748592,0 1.461538,0.10697 2.11507,0.34458 0.653532,0.22578 1.223887,0.58225 1.711066,1.08131 0.48718,0.48718 0.855533,1.12883 1.140712,1.90119 0.273295,0.78424 0.415881,1.72294 0.415881,2.81613 0,0.095 0,0.19012 0,0.26141 0,0.0713 0,0.23765 -0.01189,0.49906 h -9.244511 c 0.617883,4.47966 6.808617,4.3252 9.125686,2.38836 z m -16.504661,6.66603 h 39.984297 v 1.77047 h -38.46335 z m 45.533379,-22.07751 h 3.327074 v 2.07943 h -3.327074 z m 0.02376,3.12508 h 3.327073 v 5.83427 H 96.57601 Z M 91.941871,264.867 h 3.327075 v 9.03064 h -3.327075 z m -1.021884,16.08878 v 1.86554 c -2.079424,1.20012 -5.905557,0.54659 -6.523442,-0.81989 -0.08318,-0.19011 -0.534708,-0.95059 -0.499059,-1.40213 v -7.54532 l -2.06754,0.0357 -0.04753,-1.77047 h 2.115069 l -0.03565,-6.38086 2.293306,0.0357 -0.04753,6.3452 h 4.08755 l -0.04753,1.6873 -4.040019,0.0475 v 7.67604 c 0,0.26141 0.24953,0.36836 0.332708,0.51094 0.998121,0.68919 3.327073,0.2139 4.479665,-0.28518 z M 70.4466,283.76003 v -12.35769 h 2.008125 v 1.75859 c 0.974359,-1.3546 2.376482,-2.03191 4.206372,-2.03191 0.808004,0 1.532831,0.13072 2.198247,0.39213 0.677297,0.2733 1.176356,0.62978 1.509065,1.05753 0.332706,0.43966 0.558472,0.95059 0.701061,1.54473 0.08318,0.39211 0.118823,1.06941 0.118823,2.04377 v 7.59285 h -2.245772 v -7.52157 c 0,-0.22576 0,-0.45153 -0.01189,-0.65353 -0.03565,-0.53471 -0.118823,-0.95059 -0.249529,-1.25954 -0.166351,-0.41587 -0.475295,-0.74859 -0.926828,-1.00999 -0.439648,-0.24953 -0.962475,-0.38025 -1.556593,-0.38025 -0.962476,0 -1.782364,0.28519 -2.483426,0.85554 -0.475295,0.39212 -0.784239,1.02189 -0.926826,1.90119 -0.0713,0.39211 -0.106946,0.83176 -0.106946,1.31894 v 6.74921 z M 51.197112,264.83136 h 2.281422 v 21.09127 h -2.281422 z m -7.676035,-0.24953 4.242018,0.095 -9.767337,11.6091 12.607232,12.74982 -5.204493,0.0119 -11.347696,-11.64476 V 289.012 h -3.766723 v -24.32328 h 3.766723 v 10.51593 z m -39.5090003,12.6904 c 0,2.9112 0.8555326,5.19261 2.5784825,6.86804 1.7348319,1.66353 3.9093118,2.50719 6.5115588,2.50719 2.66166,0 4.848023,-0.84366 6.559089,-2.53096 1.711067,-1.69919 2.578482,-4.08754 2.578482,-7.18885 0,-1.96059 -0.368355,-3.67167 -1.105064,-5.14509 -0.736709,-1.46153 -1.806125,-2.59036 -3.220132,-3.39837 -1.414005,-0.808 -2.994368,-1.212 -4.752964,-1.212 -2.507187,0 -4.6579025,0.77236 -6.4521451,2.32896 -1.8061259,1.55659 -2.6973072,4.14696 -2.6973072,7.77108 z"
       class="fil3" />
  </g>
</svg>
