<?xml version="1.0" encoding="UTF-8" standalone="no"?>
<!-- Created with Inkscape (http://www.inkscape.org/) -->

<svg
   xmlns:dc="http://purl.org/dc/elements/1.1/"
   xmlns:cc="http://creativecommons.org/ns#"
   xmlns:rdf="http://www.w3.org/1999/02/22-rdf-syntax-ns#"
   xmlns:svg="http://www.w3.org/2000/svg"
   xmlns="http://www.w3.org/2000/svg"
   xmlns:sodipodi="http://sodipodi.sourceforge.net/DTD/sodipodi-0.dtd"
   xmlns:inkscape="http://www.inkscape.org/namespaces/inkscape"
   width="377.95276"
   height="158.74016"
   viewBox="0 0 100 42"
   version="1.1"
   id="svg5385"
   inkscape:version="0.92.1 r15371"
   sodipodi:docname="optima.svg">
  <defs
     id="defs5379" />
  <sodipodi:namedview
     id="base"
     pagecolor="#ffffff"
     bordercolor="#666666"
     borderopacity="1.0"
     inkscape:pageopacity="0.0"
     inkscape:pageshadow="2"
     inkscape:zoom="0.98994949"
     inkscape:cx="-128.7507"
     inkscape:cy="-97.272712"
     inkscape:document-units="mm"
     inkscape:current-layer="layer1"
     showgrid="false"
     units="px"
     inkscape:window-width="1920"
     inkscape:window-height="1017"
     inkscape:window-x="1912"
     inkscape:window-y="-8"
     inkscape:window-maximized="1" />
  <metadata
     id="metadata5382">
    <rdf:RDF>
      <cc:Work
         rdf:about="">
        <dc:format>image/svg+xml</dc:format>
        <dc:type
           rdf:resource="http://purl.org/dc/dcmitype/StillImage" />
        <dc:title />
      </cc:Work>
    </rdf:RDF>
  </metadata>
  <g
     inkscape:label="Layer 1"
     inkscape:groupmode="layer"
     id="layer1"
     transform="translate(0,-255)">
    <path
       style="clip-rule:evenodd;fill:#2b2a29;fill-rule:nonzero;stroke-width:0.00988751;image-rendering:optimizeQuality;shape-rendering:geometricPrecision;text-rendering:geometricPrecision"
       inkscape:connector-curvature="0"
       id="path29"
       d="m 11.024575,261.28553 c 3.262876,-0.12854 5.912727,0.85032 7.95944,2.90693 2.036824,2.06649 3.065125,4.64713 3.065125,7.7419 0,2.64985 -0.761337,4.98331 -2.284014,6.99047 -2.01705,2.66963 -4.864649,4.00444 -8.542801,4.00444 -3.6880379,0 -6.5455268,-1.26559 -8.5625769,-3.81658 -1.5820002,-2.01705 -2.38288778,-4.39993 -2.38288778,-7.15855 0,-3.10468 1.03818758,-5.68532 3.10467528,-7.75181 2.0763757,-2.06648 4.6174644,-3.04534 7.6430394,-2.9168 z m 0.187862,0.97887 c -1.8786241,0 -3.3024251,0.97885 -4.2911754,2.92668 -0.7909991,1.60179 -1.1864992,3.90558 -1.1864992,6.90148 0,3.55951 0.6130231,6.18959 1.8390752,7.90012 0.8602118,1.1865 2.0565993,1.77975 3.5990504,1.77975 1.038187,0 1.908288,-0.25707 2.600413,-0.76134 0.889875,-0.66245 1.582001,-1.71053 2.076376,-3.15411 0.494375,-1.44358 0.741562,-3.32221 0.741562,-5.63588 0,-2.76849 -0.257075,-4.83498 -0.761338,-6.19945 -0.504262,-1.37437 -1.146949,-2.34334 -1.928062,-2.90693 -0.781113,-0.56359 -1.680876,-0.85032 -2.689402,-0.85032 z m 18.45008,18.72692 v 5.35903 c 0,0.74155 0.05932,1.24582 0.177976,1.5029 0.118649,0.26696 0.296626,0.46471 0.533923,0.59325 0.237302,0.11864 0.711901,0.17797 1.423802,0.17797 v 0.57348 h -8.058315 v -0.57348 c 0.622913,-0.0198 1.087626,-0.19776 1.394137,-0.53392 0.197751,-0.2373 0.296626,-0.85033 0.296626,-1.82919 v -15.19709 c 0,-1.01843 -0.118649,-1.67099 -0.346063,-1.95773 -0.2373,-0.27685 -0.682237,-0.43505 -1.3447,-0.4746 v -0.57347 h 5.922614 v 1.88851 c 0.494376,-0.73167 0.998639,-1.2656 1.512789,-1.60177 0.731674,-0.4746 1.542449,-0.71191 2.40266,-0.71191 1.03819,0 1.987388,0.32628 2.837716,0.99864 0.850325,0.66246 1.493013,1.582 1.937949,2.75861 0.444939,1.17662 0.662463,2.44221 0.662463,3.7968 0,1.46335 -0.217524,2.78828 -0.682237,3.99455 -0.454827,1.20628 -1.127176,2.12582 -1.997275,2.75862 -0.870102,0.6328 -1.839078,0.9492 -2.906928,0.9492 -0.781109,0 -1.502899,-0.17798 -2.17525,-0.53393 -0.504262,-0.25708 -1.038186,-0.7119 -1.591887,-1.36447 z m 0,-1.55235 c 0.870101,1.24583 1.789639,1.87863 2.788275,1.87863 0.533926,0 0.988752,-0.29661 1.344701,-0.87998 0.524038,-0.86022 0.781113,-2.50155 0.781113,-4.92397 0,-2.49165 -0.286739,-4.18241 -0.860211,-5.10196 -0.385615,-0.60314 -0.899763,-0.90964 -1.542452,-0.90964 -1.018413,0 -1.848962,0.75145 -2.511426,2.25435 z m 17.352567,-16.64065 v 5.26015 h 3.36175 v 1.52267 h -3.36175 v 8.88887 c 0,0.83055 0.03954,1.36448 0.118649,1.60177 0.0791,0.24719 0.207637,0.43505 0.405389,0.59325 0.187863,0.14831 0.365836,0.21753 0.524037,0.21753 0.652576,0 1.275488,-0.51415 1.858851,-1.52268 l 0.454824,0.33617 c -0.820661,1.9775 -2.145587,2.95637 -3.974775,2.95637 -0.899764,0 -1.661101,-0.24719 -2.274125,-0.76134 -0.622915,-0.50426 -1.018414,-1.07774 -1.186503,-1.70066 -0.09887,-0.34606 -0.158198,-1.29526 -0.158198,-2.83771 v -7.77157 h -1.839074 v -0.53392 c 1.265598,-0.91954 2.353224,-1.87863 3.2431,-2.88716 0.889872,-0.99862 1.661101,-2.1258 2.333447,-3.36174 z m 8.107751,-1.71055 c 0.652577,0 1.206276,0.22742 1.661102,0.70202 0.454825,0.46471 0.682237,1.0283 0.682237,1.68087 0,0.66247 -0.227412,1.21617 -0.692125,1.68088 -0.454825,0.45483 -1.008526,0.69212 -1.651214,0.69212 -0.652576,0 -1.196387,-0.23729 -1.651211,-0.69212 -0.454828,-0.46471 -0.682239,-1.01841 -0.682239,-1.68088 0,-0.65257 0.227411,-1.21616 0.682239,-1.68087 0.454824,-0.4746 0.998635,-0.70202 1.651211,-0.70202 z m 2.115927,6.9707 v 11.41017 c 0,1.01841 0.118649,1.67099 0.346062,1.94784 0.2373,0.27684 0.692125,0.44493 1.364475,0.48449 v 0.5537 h -7.633151 v -0.5537 c 0.622913,-0.0198 1.087626,-0.20765 1.384248,-0.55371 0.20764,-0.2373 0.306515,-0.86021 0.306515,-1.87862 v -8.40437 c 0,-1.01843 -0.118652,-1.67099 -0.346064,-1.95773 -0.237299,-0.27685 -0.682237,-0.43505 -1.344699,-0.4746 v -0.57347 z m 8.948191,0 v 1.88851 c 0.771223,-0.86022 1.49301,-1.46335 2.155474,-1.79953 0.662461,-0.34606 1.38425,-0.51415 2.165361,-0.51415 0.909651,0 1.670989,0.20764 2.284014,0.6427 0.613024,0.43503 1.087624,1.08761 1.4238,1.9676 0.810777,-0.91954 1.582002,-1.59189 2.313676,-1.99727 0.75145,-0.41528 1.522675,-0.61303 2.323564,-0.61303 0.978862,0 1.759974,0.21753 2.343336,0.68224 0.573477,0.45483 0.978862,1.0283 1.206278,1.7402 0.227412,0.70201 0.336175,1.8193 0.336175,3.36175 v 5.89295 c 0,1.10741 0.09887,1.79952 0.296623,2.06649 0.197751,0.26696 0.613027,0.44494 1.235938,0.52404 v 0.5537 h -7.306863 v -0.5537 c 0.573476,-0.0495 0.998636,-0.27686 1.275486,-0.67235 0.177977,-0.28675 0.266965,-0.91954 0.266965,-1.91818 v -6.17968 c 0,-1.29527 -0.04944,-2.10604 -0.148313,-2.45211 -0.09888,-0.35595 -0.257076,-0.61302 -0.474602,-0.78111 -0.217523,-0.16809 -0.4746,-0.25707 -0.771224,-0.25707 -0.425163,0 -0.8701,0.16808 -1.315037,0.49437 -0.444938,0.31639 -0.889877,0.80089 -1.344701,1.45347 v 7.72213 c 0,1.0382 0.08899,1.69076 0.257075,1.95772 0.237298,0.38562 0.682237,0.59325 1.334813,0.63281 v 0.5537 h -7.316754 v -0.5537 c 0.395501,-0.0198 0.702015,-0.11865 0.929426,-0.30651 0.227414,-0.17798 0.375726,-0.39551 0.454827,-0.64269 0.0791,-0.2472 0.108762,-0.80089 0.108762,-1.64133 v -6.17968 c 0,-1.30515 -0.04944,-2.12581 -0.148312,-2.45211 -0.09887,-0.33616 -0.266963,-0.59324 -0.504263,-0.77122 -0.237299,-0.18786 -0.494373,-0.27685 -0.761336,-0.27685 -0.405389,0 -0.781114,0.10882 -1.107402,0.3164 -0.474598,0.32629 -0.978864,0.8701 -1.512785,1.64133 v 7.72213 c 0,1.01841 0.09887,1.69076 0.296622,2.01705 0.197751,0.3164 0.60314,0.51415 1.235938,0.57348 v 0.5537 h -7.28709 v -0.5537 c 0.593251,-0.0593 1.008526,-0.25708 1.265602,-0.58337 0.168087,-0.22741 0.257075,-0.89975 0.257075,-2.00716 v -8.12753 c 0,-1.08762 -0.09887,-1.75997 -0.296625,-2.02693 -0.19775,-0.26696 -0.603137,-0.44495 -1.226052,-0.52404 v -0.57347 z m 27.724554,12.27038 c -1.720426,1.55234 -3.272764,2.32357 -4.647126,2.32357 -0.800888,0 -1.47324,-0.26696 -2.007162,-0.81078 -0.533928,-0.53392 -0.800888,-1.20628 -0.800888,-2.01705 0,-1.09751 0.464713,-2.08626 1.394136,-2.96625 0.929426,-0.87999 2.946477,-2.04671 6.06104,-3.50018 v -1.45346 c 0,-1.08762 -0.05932,-1.76986 -0.177975,-2.05659 -0.108764,-0.27686 -0.336175,-0.52405 -0.652575,-0.74157 -0.326288,-0.20764 -0.682238,-0.30652 -1.087625,-0.30652 -0.652576,0 -1.196388,0.14831 -1.621552,0.44495 -0.257075,0.17797 -0.395498,0.3955 -0.395498,0.64268 0,0.21753 0.148312,0.48449 0.425161,0.80089 0.385613,0.44494 0.583364,0.8701 0.583364,1.28538 0,0.50426 -0.187863,0.92942 -0.553701,1.28538 -0.375725,0.34606 -0.850325,0.52402 -1.443575,0.52402 -0.632802,0 -1.166725,-0.19773 -1.601774,-0.58335 -0.425164,-0.38561 -0.64269,-0.85033 -0.64269,-1.36448 0,-0.74155 0.28674,-1.44357 0.860213,-2.11592 0.583362,-0.67235 1.384251,-1.1964 2.412551,-1.55234 1.018415,-0.35595 2.086265,-0.53393 3.203551,-0.53393 1.334814,0 2.392775,0.28674 3.183776,0.86022 0.771224,0.58336 1.285374,1.21616 1.512788,1.88851 0.148311,0.43505 0.207636,1.42379 0.207636,2.97613 v 5.58644 c 0,0.65259 0.02967,1.06785 0.0791,1.23595 0.04944,0.16809 0.128538,0.29662 0.227413,0.3856 0.09887,0.0792 0.217525,0.11865 0.346063,0.11865 0.266962,0 0.533924,-0.18786 0.810775,-0.57347 l 0.444937,0.37572 c -0.504262,0.76134 -1.018412,1.31504 -1.562226,1.65122 -0.533924,0.34606 -1.146949,0.51415 -1.839074,0.51415 -0.800888,0 -1.433689,-0.19775 -1.888513,-0.57348 -0.454825,-0.38562 -0.731675,-0.96898 -0.83055,-1.75009 z m 0,-1.12718 v -4.8152 c -1.216162,0.73166 -2.125811,1.51278 -2.719063,2.34333 -0.3955,0.55371 -0.593251,1.10741 -0.593251,1.671 0,0.47458 0.168088,0.88987 0.504263,1.2557 0.247188,0.27685 0.603137,0.41528 1.057965,0.41528 0.504261,0 1.087623,-0.29662 1.750086,-0.87011 z"
       class="fil7" />
    <path
       style="clip-rule:evenodd;fill:#2b2a29;fill-rule:nonzero;stroke-width:0.00988751;image-rendering:optimizeQuality;shape-rendering:geometricPrecision;text-rendering:geometricPrecision"
       inkscape:connector-curvature="0"
       id="path31"
       d="m 35.248957,287.67527 c 0.316397,0.0693 0.543812,0.16808 0.702012,0.3164 0.207636,0.20763 0.3164,0.4647 0.3164,0.76134 0,0.21752 -0.06921,0.43504 -0.207637,0.64268 -0.148313,0.20764 -0.336175,0.35595 -0.583362,0.45483 -0.24719,0.099 -0.613027,0.14832 -1.117289,0.14832 h -2.106037 v -0.12854 h 0.168088 c 0.177974,0 0.316399,-0.0593 0.3955,-0.17798 0.04944,-0.0791 0.0791,-0.2472 0.0791,-0.50427 v -2.93658 c 0,-0.28675 -0.02967,-0.46471 -0.09887,-0.53393 -0.0791,-0.099 -0.207638,-0.14831 -0.375724,-0.14831 h -0.168089 v -0.11866 h 1.928063 c 0.35595,0 0.642687,0.0198 0.86021,0.0792 0.336176,0.0791 0.583366,0.21753 0.761339,0.42516 0.168088,0.20763 0.257077,0.43505 0.257077,0.70201 0,0.22741 -0.06921,0.43505 -0.207638,0.61303 -0.128538,0.17796 -0.336176,0.3164 -0.603138,0.40539 z m -1.720425,-0.18785 c 0.0791,0.0198 0.168087,0.0297 0.276849,0.0395 0.108762,0.0106 0.217524,0.0106 0.346061,0.0106 0.316402,0 0.563588,-0.0297 0.721788,-0.099 0.158201,-0.0792 0.28674,-0.18786 0.365838,-0.32629 0.08899,-0.14832 0.128537,-0.30652 0.128537,-0.4746 0,-0.26697 -0.09887,-0.49438 -0.316399,-0.68224 -0.217526,-0.18786 -0.524037,-0.28674 -0.929426,-0.28674 -0.217523,0 -0.415275,0.0297 -0.593248,0.0792 z m 0,2.17523 c 0.257073,0.0593 0.504262,0.089 0.75145,0.089 0.395499,0 0.70201,-0.089 0.909648,-0.26695 0.207638,-0.18787 0.3164,-0.4054 0.3164,-0.68224 0,-0.16809 -0.04944,-0.34608 -0.148313,-0.50427 -0.08899,-0.16808 -0.247186,-0.29662 -0.454824,-0.3856 -0.217526,-0.099 -0.4746,-0.13843 -0.791,-0.13843 -0.138426,0 -0.257075,0 -0.35595,0 -0.08899,0.0106 -0.168087,0.0198 -0.227411,0.0297 z m 5.962161,-2.73882 v 1.85883 c 0,0.35596 0.0099,0.57349 0.01977,0.65259 0.01977,0.0792 0.04944,0.13842 0.0791,0.16808 0.03954,0.0297 0.0791,0.0495 0.128538,0.0495 0.06921,0 0.148312,-0.0198 0.237301,-0.0593 l 0.03954,0.11865 -0.899762,0.37573 h -0.148312 v -0.65259 c -0.257075,0.28674 -0.454823,0.46472 -0.593251,0.54382 -0.138423,0.0693 -0.276848,0.10882 -0.42516,0.10882 -0.177976,0 -0.3164,-0.0495 -0.444939,-0.14833 -0.128538,-0.099 -0.207636,-0.2274 -0.257075,-0.3856 -0.04944,-0.15819 -0.06921,-0.37572 -0.06921,-0.66246 v -1.37436 c 0,-0.13843 -0.01977,-0.24719 -0.04944,-0.29663 -0.02967,-0.0593 -0.0791,-0.099 -0.138426,-0.12853 -0.05932,-0.0297 -0.168088,-0.0495 -0.326287,-0.0495 v -0.11864 h 1.057962 v 2.05659 c 0,0.28674 0.04944,0.4746 0.148312,0.56359 0.09888,0.089 0.217527,0.12854 0.346064,0.12854 0.09887,0 0.207637,-0.0297 0.326286,-0.089 0.118653,-0.0593 0.257077,-0.17797 0.425164,-0.34606 v -1.74024 c 0,-0.16809 -0.02967,-0.28674 -0.08899,-0.35595 -0.06921,-0.0593 -0.197749,-0.089 -0.395501,-0.099 v -0.11864 z m 1.493014,-1.70066 c 0.09887,0 0.168087,0.0395 0.2373,0.099 0.06921,0.0692 0.09888,0.14831 0.09888,0.2373 0,0.099 -0.02967,0.17797 -0.09888,0.24719 -0.06921,0.0693 -0.138425,0.099 -0.2373,0.099 -0.08899,0 -0.168086,-0.0297 -0.237301,-0.099 -0.05932,-0.0692 -0.09887,-0.14831 -0.09887,-0.24719 0,-0.089 0.02967,-0.16809 0.09887,-0.2373 0.06921,-0.0593 0.148314,-0.099 0.237301,-0.099 z m 0.276851,1.61166 v 2.46198 c 0,0.19776 0.0099,0.3263 0.03954,0.38562 0.02967,0.0692 0.06921,0.1087 0.11865,0.14832 0.05932,0.0297 0.158198,0.0395 0.296624,0.0395 v 0.12854 h -1.463346 v -0.12854 c 0.148313,0 0.247187,-0.0106 0.296625,-0.0395 0.04944,-0.0297 0.08899,-0.0792 0.11865,-0.14832 0.02967,-0.0593 0.04944,-0.18786 0.04944,-0.38562 v -1.1766 c 0,-0.33618 -0.0099,-0.5537 -0.02967,-0.65258 -0.01977,-0.0692 -0.03954,-0.11865 -0.0791,-0.14831 -0.02967,-0.0297 -0.0791,-0.0396 -0.128538,-0.0396 -0.06921,0 -0.138426,0.0198 -0.227412,0.0495 l -0.04944,-0.11865 0.909651,-0.37572 z m 1.868736,-1.61166 v 4.07364 c 0,0.19776 0.0099,0.3263 0.03954,0.38562 0.02967,0.0593 0.06921,0.1087 0.128538,0.13842 0.05932,0.0396 0.168088,0.0495 0.316402,0.0495 v 0.12854 h -1.473236 v -0.12854 c 0.138424,0 0.227413,-0.0106 0.276847,-0.0395 0.04944,-0.0297 0.09888,-0.0792 0.118653,-0.14833 0.02967,-0.0593 0.04944,-0.18786 0.04944,-0.38562 v -2.78827 c 0,-0.34606 -0.0099,-0.56359 -0.02967,-0.64268 -0.0099,-0.0792 -0.03954,-0.12854 -0.06921,-0.15821 -0.03954,-0.0297 -0.0791,-0.0395 -0.128537,-0.0395 -0.05932,0 -0.12854,0.0106 -0.217525,0.0495 l -0.05932,-0.11865 0.899763,-0.37572 z m 2.966253,4.4296 c -0.148313,0.14831 -0.286739,0.26696 -0.43505,0.33617 -0.138426,0.0692 -0.286739,0.099 -0.444937,0.099 -0.336176,0 -0.622915,-0.13843 -0.870103,-0.42517 -0.247187,-0.27685 -0.365835,-0.6328 -0.365835,-1.07773 0,-0.43505 0.138424,-0.84044 0.405384,-1.20628 0.276851,-0.36583 0.622915,-0.5537 1.048077,-0.5537 0.266963,0 0.494375,0.089 0.662464,0.25707 v -0.56358 c 0,-0.34606 -0.0099,-0.56359 -0.01977,-0.64269 -0.01977,-0.089 -0.04944,-0.13843 -0.0791,-0.16809 -0.03954,-0.0297 -0.0791,-0.0396 -0.138423,-0.0396 -0.04944,0 -0.128539,0.0106 -0.227413,0.0495 l -0.03954,-0.11866 0.899764,-0.37572 h 0.148313 v 3.54962 c 0,0.36583 0.0099,0.58336 0.01977,0.66246 0.01977,0.0792 0.04944,0.13842 0.08899,0.16809 0.02967,0.0297 0.0791,0.0495 0.11865,0.0495 0.05932,0 0.138424,-0.0198 0.2373,-0.0593 l 0.03955,0.11865 -0.899762,0.37573 h -0.148313 z m 0,-0.2373 v -1.582 c -0.0099,-0.1582 -0.04944,-0.29663 -0.118652,-0.41528 -0.06921,-0.12853 -0.148313,-0.22742 -0.257073,-0.28673 -0.108764,-0.0593 -0.217527,-0.099 -0.326289,-0.099 -0.187863,0 -0.35595,0.089 -0.514149,0.26695 -0.197751,0.2373 -0.296626,0.57349 -0.296626,1.01842 0,0.45482 0.09887,0.80089 0.286738,1.03819 0.197751,0.24718 0.405387,0.36584 0.642688,0.36584 0.207638,0 0.3955,-0.10883 0.583363,-0.30652 z m 2.007163,-4.1923 c 0.09887,0 0.177972,0.0395 0.2373,0.099 0.06921,0.0692 0.09887,0.14831 0.09887,0.2373 0,0.099 -0.02967,0.17797 -0.09887,0.24719 -0.05932,0.0693 -0.138426,0.099 -0.2373,0.099 -0.08899,0 -0.168089,-0.0297 -0.237302,-0.099 -0.05932,-0.0692 -0.09887,-0.14831 -0.09887,-0.24719 0,-0.089 0.03955,-0.16809 0.09887,-0.2373 0.06921,-0.0593 0.148313,-0.099 0.237302,-0.099 z m 0.27685,1.61166 v 2.46198 c 0,0.19776 0.0099,0.3263 0.03955,0.38562 0.02967,0.0692 0.06921,0.1087 0.118648,0.14832 0.05932,0.0297 0.158202,0.0395 0.296626,0.0395 v 0.12854 h -1.463351 v -0.12854 c 0.148313,0 0.247187,-0.0106 0.296626,-0.0395 0.04944,-0.0297 0.08899,-0.0792 0.118648,-0.14832 0.02967,-0.0593 0.04944,-0.18786 0.04944,-0.38562 v -1.1766 c 0,-0.33618 -0.0099,-0.5537 -0.02967,-0.65258 -0.01977,-0.0692 -0.03954,-0.11865 -0.0791,-0.14831 -0.02967,-0.0297 -0.0791,-0.0396 -0.128538,-0.0396 -0.06921,0 -0.138424,0.0198 -0.227412,0.0495 l -0.04944,-0.11865 0.909651,-0.37572 z m 1.710537,0.64269 c 0.35595,-0.42516 0.692125,-0.64269 1.008525,-0.64269 0.168087,0 0.306512,0.0396 0.425164,0.11864 0.118648,0.089 0.217524,0.22743 0.286736,0.41529 0.04944,0.13843 0.06921,0.34606 0.06921,0.62291 v 1.30514 c 0,0.19776 0.01977,0.3263 0.04944,0.39551 0.01977,0.0593 0.05932,0.099 0.118652,0.13843 0.04944,0.0297 0.148312,0.0395 0.296623,0.0395 v 0.12854 h -1.493011 v -0.12854 h 0.05932 c 0.148313,0 0.247188,-0.0198 0.296626,-0.0593 0.05932,-0.0495 0.09887,-0.10871 0.118648,-0.19774 0.0099,-0.0297 0.0099,-0.13843 0.0099,-0.31641 v -1.2557 c 0,-0.27685 -0.02967,-0.48449 -0.108764,-0.60314 -0.06921,-0.12854 -0.187862,-0.19775 -0.355949,-0.19775 -0.257076,0 -0.524039,0.14831 -0.781113,0.44493 v 1.61166 c 0,0.20765 0.0099,0.33618 0.03954,0.38562 0.02967,0.0692 0.06921,0.11865 0.128538,0.14832 0.04944,0.0297 0.1582,0.0395 0.326288,0.0395 v 0.12855 h -1.492966 v -0.12855 h 0.06921 c 0.148313,0 0.257075,-0.0395 0.306513,-0.11865 0.04944,-0.0792 0.0791,-0.22741 0.0791,-0.45482 v -1.13707 c 0,-0.36583 -0.0099,-0.59325 -0.01977,-0.67234 -0.01977,-0.0791 -0.04944,-0.13843 -0.0791,-0.1681 -0.02967,-0.0297 -0.0791,-0.0396 -0.138428,-0.0396 -0.05932,0 -0.138423,0.0198 -0.217523,0.0495 l -0.04944,-0.11866 0.909652,-0.37572 h 0.138424 z m 3.302424,1.39414 c -0.187863,-0.089 -0.326286,-0.21753 -0.425159,-0.38562 -0.09888,-0.1582 -0.148313,-0.34606 -0.148313,-0.54382 0,-0.3065 0.108763,-0.56357 0.336175,-0.7811 0.227412,-0.21752 0.514149,-0.32629 0.860212,-0.32629 0.286736,0 0.543813,0.0693 0.75145,0.20763 h 0.642686 c 0.08899,0 0.148313,0.0106 0.158202,0.0106 0.01977,0.0106 0.02967,0.0198 0.03954,0.0297 0.0099,0.0198 0.01977,0.0593 0.01977,0.1087 0,0.0593 -0.0099,0.099 -0.01977,0.11867 -0.0099,0.0106 -0.01977,0.0198 -0.03954,0.0297 -0.0099,0.0106 -0.06921,0.0106 -0.158202,0.0106 h -0.395499 c 0.11865,0.15821 0.187863,0.36584 0.187863,0.61303 0,0.28673 -0.108764,0.53393 -0.326288,0.74156 -0.217526,0.19776 -0.504262,0.29662 -0.8701,0.29662 -0.148312,0 -0.296626,-0.0198 -0.454825,-0.0593 -0.09887,0.0792 -0.158202,0.15819 -0.197752,0.21753 -0.02967,0.0693 -0.04944,0.11863 -0.04944,0.16808 0,0.0297 0.01977,0.0693 0.05932,0.1087 0.02967,0.0297 0.09887,0.0593 0.207636,0.0792 0.05932,0.0106 0.217528,0.0106 0.464714,0.0198 0.444936,0.0106 0.741561,0.0297 0.879987,0.0495 0.197749,0.0297 0.365836,0.099 0.484489,0.22741 0.118649,0.12853 0.187861,0.27685 0.187861,0.46472 0,0.25707 -0.118651,0.49437 -0.355949,0.7119 -0.336175,0.32628 -0.791003,0.48448 -1.334815,0.48448 -0.425161,0 -0.78111,-0.089 -1.077736,-0.28674 -0.158201,-0.10882 -0.247187,-0.22741 -0.247187,-0.34606 0,-0.0593 0.0099,-0.10871 0.03954,-0.16809 0.03955,-0.0792 0.108763,-0.19775 0.227412,-0.34606 0.01977,-0.0198 0.128538,-0.13842 0.336174,-0.35595 -0.108762,-0.0693 -0.19775,-0.12853 -0.237299,-0.18786 -0.04944,-0.0593 -0.06921,-0.11866 -0.06921,-0.18787 0,-0.0792 0.02967,-0.16809 0.08899,-0.27685 0.05932,-0.099 0.207638,-0.24718 0.435049,-0.44493 z m 0.573476,-1.87862 c -0.168087,0 -0.306511,0.0692 -0.415274,0.19773 -0.108763,0.12855 -0.158202,0.33619 -0.158202,0.60314 0,0.35596 0.06921,0.6328 0.217527,0.82066 0.118649,0.14832 0.266962,0.22743 0.435049,0.22743 0.168088,0 0.306514,-0.0693 0.415275,-0.19776 0.108763,-0.11865 0.158201,-0.32628 0.158201,-0.59326 0,-0.35593 -0.06921,-0.63279 -0.227412,-0.84043 -0.108764,-0.14831 -0.257075,-0.21751 -0.425164,-0.21751 z m -0.613026,3.0058 c -0.09887,0.10871 -0.177973,0.21752 -0.227411,0.31639 -0.05932,0.099 -0.0791,0.18786 -0.0791,0.26697 0,0.10871 0.05932,0.20763 0.187862,0.28672 0.217526,0.13844 0.533925,0.20766 0.949202,0.20766 0.3955,0 0.692124,-0.0693 0.879987,-0.21753 0.187863,-0.13843 0.276848,-0.28675 0.276848,-0.45483 0,-0.11866 -0.04944,-0.19775 -0.168086,-0.24719 -0.108764,-0.0495 -0.336173,-0.0792 -0.672349,-0.089 -0.494375,-0.0106 -0.879988,-0.0395 -1.146953,-0.0692 z m 6.159914,-0.12854 v 0.12854 h -1.918173 v -0.12854 h 0.158198 c 0.187863,0 0.326289,-0.0593 0.40539,-0.16809 0.04944,-0.0693 0.0791,-0.2373 0.0791,-0.51416 v -2.93658 c 0,-0.22741 -0.0099,-0.38561 -0.03954,-0.45484 -0.02967,-0.0593 -0.06921,-0.1087 -0.138424,-0.1483 -0.09888,-0.0495 -0.197751,-0.0791 -0.306516,-0.0791 h -0.158199 v -0.11866 h 1.918174 v 0.11866 h -0.158198 c -0.187862,0 -0.3164,0.0593 -0.405389,0.16808 -0.04944,0.0692 -0.0791,0.23731 -0.0791,0.51415 v 2.93659 c 0,0.22741 0.0099,0.3856 0.03954,0.45482 0.02967,0.0593 0.06921,0.1087 0.138424,0.14831 0.09887,0.0495 0.19775,0.0792 0.306514,0.0792 z m 1.255714,-2.39278 c 0.355949,-0.42516 0.692126,-0.64269 1.008525,-0.64269 0.168087,0 0.306515,0.0396 0.425164,0.11864 0.118648,0.089 0.217522,0.22743 0.286737,0.41529 0.04944,0.13843 0.06921,0.34606 0.06921,0.62291 v 1.30514 c 0,0.19776 0.0099,0.3263 0.04944,0.39551 0.01977,0.0593 0.05932,0.099 0.108762,0.13843 0.05932,0.0297 0.158203,0.0395 0.306515,0.0395 v 0.12854 h -1.493013 v -0.12854 h 0.05932 c 0.138427,0 0.237301,-0.0198 0.296626,-0.0593 0.04944,-0.0495 0.08899,-0.10871 0.118648,-0.19774 0.0099,-0.0297 0.0099,-0.13843 0.0099,-0.31641 v -1.2557 c 0,-0.27685 -0.03955,-0.48449 -0.108764,-0.60314 -0.06921,-0.12854 -0.187863,-0.19775 -0.35595,-0.19775 -0.266962,0 -0.524037,0.14831 -0.781114,0.44493 v 1.61166 c 0,0.20765 0.0099,0.33618 0.02967,0.38562 0.03955,0.0692 0.0791,0.11865 0.128538,0.14832 0.05932,0.0297 0.168087,0.0395 0.326287,0.0395 v 0.12855 h -1.483126 v -0.12855 h 0.05932 c 0.158201,0 0.257075,-0.0395 0.316399,-0.11865 0.04944,-0.0792 0.0791,-0.22741 0.0791,-0.45482 v -1.13707 c 0,-0.36583 -0.0099,-0.59325 -0.02967,-0.67234 -0.0099,-0.0791 -0.03954,-0.13843 -0.06921,-0.1681 -0.03954,-0.0297 -0.0791,-0.0396 -0.138423,-0.0396 -0.05932,0 -0.138428,0.0198 -0.217526,0.0495 l -0.04944,-0.11866 0.899761,-0.37572 h 0.148313 z m 4.439488,-0.64269 v 1.03819 h -0.108763 c -0.0791,-0.32629 -0.187863,-0.54382 -0.316402,-0.66247 -0.138426,-0.11865 -0.296625,-0.17797 -0.504262,-0.17797 -0.148313,0 -0.27685,0.0395 -0.365839,0.11865 -0.09887,0.089 -0.148313,0.17797 -0.148313,0.27685 0,0.12854 0.03955,0.2373 0.108764,0.32628 0.06921,0.089 0.207636,0.18786 0.415274,0.28675 l 0.474602,0.2373 c 0.454824,0.2274 0.67235,0.51415 0.67235,0.87998 0,0.27686 -0.09888,0.50426 -0.306514,0.67236 -0.207638,0.16809 -0.444938,0.25708 -0.702012,0.25708 -0.187862,0 -0.395498,-0.0297 -0.6328,-0.099 -0.06921,-0.0198 -0.128539,-0.0396 -0.177977,-0.0396 -0.04944,0 -0.08899,0.0297 -0.118648,0.089 h -0.108764 v -1.09753 h 0.108764 c 0.05932,0.31641 0.177976,0.55371 0.355949,0.71191 0.168088,0.15819 0.36584,0.2373 0.583363,0.2373 0.148312,0 0.27685,-0.0495 0.365838,-0.13843 0.09887,-0.089 0.148314,-0.19775 0.148314,-0.32629 0,-0.14831 -0.05932,-0.28673 -0.158202,-0.38561 -0.108763,-0.10883 -0.326287,-0.2373 -0.642686,-0.40539 -0.316401,-0.15819 -0.524038,-0.29662 -0.622913,-0.43505 -0.09888,-0.12854 -0.148312,-0.28673 -0.148312,-0.47459 0,-0.25708 0.08899,-0.46472 0.257072,-0.64269 0.168087,-0.16809 0.385614,-0.24719 0.652576,-0.24719 0.118653,0 0.266964,0.0198 0.435053,0.0693 0.108763,0.0396 0.187862,0.0593 0.227412,0.0593 0.02967,0 0.05932,-0.0106 0.0791,-0.0297 0.01977,-0.0106 0.03955,-0.0495 0.06921,-0.099 z m 3.322203,0.089 v 1.85884 c 0,0.35595 0.0099,0.57348 0.01977,0.65258 0.01977,0.0791 0.04944,0.13842 0.0791,0.16809 0.03954,0.0297 0.0791,0.0495 0.128537,0.0495 0.06921,0 0.148313,-0.0198 0.227414,-0.0593 l 0.04944,0.11865 -0.899762,0.37573 h -0.148314 v -0.65258 c -0.257074,0.28674 -0.454827,0.46471 -0.593251,0.54382 -0.138423,0.0693 -0.27685,0.10881 -0.435049,0.10881 -0.168087,0 -0.3164,-0.0495 -0.43505,-0.14831 -0.128538,-0.099 -0.217526,-0.22742 -0.257075,-0.38562 -0.04944,-0.15819 -0.0791,-0.37572 -0.0791,-0.66246 v -1.37436 c 0,-0.13842 -0.0099,-0.24719 -0.03955,-0.29663 -0.02967,-0.0593 -0.0791,-0.099 -0.138427,-0.12853 -0.05932,-0.0297 -0.168088,-0.0495 -0.326286,-0.0495 v -0.11864 h 1.057956 v 2.05659 c 0,0.28674 0.04944,0.4746 0.138428,0.56359 0.09887,0.089 0.217523,0.12854 0.355949,0.12854 0.09887,0 0.207637,-0.0297 0.326285,-0.089 0.118651,-0.0593 0.257078,-0.17798 0.425164,-0.34607 v -1.7402 c 0,-0.16808 -0.02967,-0.28674 -0.09888,-0.35594 -0.05932,-0.0593 -0.187863,-0.089 -0.385611,-0.099 v -0.11865 z m 1.759975,-1.70063 v 4.07365 c 0,0.19775 0.01977,0.32629 0.03954,0.38561 0.02967,0.0593 0.06921,0.1087 0.128538,0.13843 0.05932,0.0396 0.168088,0.0495 0.326287,0.0495 v 0.12854 h -1.483126 v -0.12854 c 0.138425,0 0.237302,-0.0106 0.286738,-0.0395 0.04944,-0.0297 0.08899,-0.0792 0.11865,-0.14833 0.01977,-0.0593 0.03955,-0.18786 0.03955,-0.3856 v -2.78828 c 0,-0.34607 -0.0099,-0.56359 -0.01977,-0.64268 -0.01977,-0.0792 -0.03955,-0.12855 -0.0791,-0.15821 -0.02967,-0.0297 -0.0791,-0.0396 -0.128535,-0.0396 -0.05932,0 -0.128539,0.0106 -0.217526,0.0495 l -0.05932,-0.11866 0.899764,-0.37572 z m 2.550975,4.33073 c -0.316401,0.2373 -0.504264,0.3856 -0.583362,0.41527 -0.11865,0.0593 -0.247188,0.089 -0.375725,0.089 -0.217527,0 -0.385613,-0.0693 -0.524038,-0.21753 -0.128537,-0.14831 -0.197751,-0.33617 -0.197751,-0.57348 0,-0.1483 0.02967,-0.27684 0.09888,-0.3856 0.08899,-0.15821 0.247186,-0.29663 0.46471,-0.43506 0.227411,-0.12853 0.593251,-0.29662 1.11729,-0.48449 v -0.12854 c 0,-0.30651 -0.04944,-0.51415 -0.148314,-0.62291 -0.08899,-0.11864 -0.227412,-0.17797 -0.415274,-0.17797 -0.138425,0 -0.247188,0.0396 -0.326291,0.11864 -0.08899,0.0792 -0.128535,0.15821 -0.128535,0.25708 l 0.0099,0.19775 c 0,0.099 -0.02967,0.17798 -0.0791,0.23731 -0.04944,0.0593 -0.118648,0.089 -0.19775,0.089 -0.08899,0 -0.148313,-0.0297 -0.207638,-0.089 -0.04944,-0.0593 -0.0791,-0.13843 -0.0791,-0.23731 0,-0.19775 0.09887,-0.37572 0.296625,-0.53392 0.187863,-0.15821 0.464714,-0.2373 0.810775,-0.2373 0.266962,0 0.484487,0.0395 0.662464,0.13843 0.128535,0.0693 0.217523,0.17796 0.286737,0.32628 0.03955,0.089 0.05932,0.28674 0.05932,0.58336 v 1.04808 c 0,0.28673 0,0.46472 0.0099,0.53393 0.0099,0.0693 0.02967,0.10871 0.05932,0.12853 0.01977,0.0297 0.04944,0.0396 0.08899,0.0396 0.02967,0 0.05932,-0.0106 0.08899,-0.0198 0.04944,-0.0297 0.138427,-0.11866 0.266962,-0.2472 v 0.18786 c -0.247187,0.33618 -0.484486,0.50427 -0.702012,0.50427 -0.108763,0 -0.197751,-0.0396 -0.257076,-0.11865 -0.06921,-0.0792 -0.09887,-0.20764 -0.09887,-0.38562 z m 0,-0.21752 v -1.17662 c -0.336176,0.13842 -0.543812,0.2373 -0.642687,0.28674 -0.177976,0.099 -0.296626,0.19776 -0.375725,0.30652 -0.06921,0.1087 -0.108764,0.2274 -0.108764,0.35594 0,0.1582 0.04944,0.29662 0.138425,0.40538 0.09887,0.099 0.207637,0.15821 0.326288,0.15821 0.16809,0 0.385613,-0.11865 0.662463,-0.33617 z m 2.155475,-3.42108 v 1.00853 h 0.702013 v 0.2274 h -0.702013 v 1.99728 c 0,0.19775 0.02967,0.33618 0.08899,0.40539 0.04944,0.0692 0.128539,0.099 0.207637,0.099 0.0791,0 0.148313,-0.0198 0.217526,-0.0692 0.06921,-0.0396 0.11865,-0.10882 0.158199,-0.19775 h 0.128538 c -0.0791,0.21752 -0.187863,0.38561 -0.326288,0.49437 -0.138424,0.10871 -0.286738,0.16809 -0.435051,0.16809 -0.09887,0 -0.197747,-0.0297 -0.296624,-0.089 -0.09887,-0.0593 -0.168089,-0.13843 -0.217525,-0.24719 -0.03955,-0.099 -0.06921,-0.26697 -0.06921,-0.49437 v -2.06649 h -0.474601 v -0.10883 c 0.11865,-0.0495 0.247188,-0.12853 0.365837,-0.24717 0.128537,-0.11866 0.247188,-0.25708 0.336176,-0.41529 0.05932,-0.089 0.128538,-0.2373 0.217525,-0.46471 z m 1.769863,-0.69213 c 0.08899,0 0.168089,0.0396 0.237299,0.099 0.05932,0.0693 0.08899,0.14831 0.08899,0.2373 0,0.099 -0.02967,0.17799 -0.08899,0.2472 -0.06921,0.0693 -0.148313,0.099 -0.237299,0.099 -0.09888,0 -0.177975,-0.0297 -0.2373,-0.099 -0.06921,-0.0693 -0.09887,-0.14832 -0.09887,-0.2472 0,-0.089 0.02967,-0.16809 0.09887,-0.2373 0.05932,-0.0593 0.138424,-0.099 0.2373,-0.099 z m 0.266962,1.61167 v 2.46198 c 0,0.19775 0.01977,0.32629 0.03955,0.38561 0.02967,0.0693 0.06921,0.1087 0.128537,0.14832 0.04944,0.0297 0.148314,0.0395 0.296625,0.0395 v 0.12854 h -1.473238 v -0.12854 c 0.148313,0 0.247187,-0.0106 0.296626,-0.0395 0.04944,-0.0297 0.09887,-0.0791 0.118649,-0.14832 0.03954,-0.0593 0.04944,-0.18786 0.04944,-0.38561 v -1.17661 c 0,-0.33617 -0.0099,-0.5537 -0.02967,-0.65256 -0.01977,-0.0693 -0.03954,-0.11866 -0.06921,-0.14833 -0.03955,-0.0297 -0.0791,-0.0396 -0.138427,-0.0396 -0.05933,0 -0.138424,0.0198 -0.227412,0.0495 l -0.03955,-0.11865 0.909649,-0.37572 z m 2.313675,0 c 0.454827,0 0.820664,0.17797 1.097513,0.52404 0.237301,0.3065 0.355951,0.65256 0.355951,1.03818 0,0.27684 -0.06921,0.55369 -0.197752,0.84043 -0.128535,0.27685 -0.30651,0.49438 -0.533922,0.63281 -0.227414,0.14831 -0.484489,0.21753 -0.761339,0.21753 -0.454824,0 -0.810776,-0.18787 -1.077737,-0.55371 -0.227412,-0.3065 -0.346064,-0.66246 -0.346064,-1.04808 0,-0.27684 0.06921,-0.56359 0.207637,-0.84043 0.138427,-0.27685 0.316402,-0.48448 0.543813,-0.61302 0.217527,-0.13843 0.454827,-0.19775 0.7119,-0.19775 z m -0.108763,0.21752 c -0.108764,0 -0.227414,0.0297 -0.346063,0.099 -0.11865,0.0792 -0.217524,0.19775 -0.286736,0.37573 -0.06921,0.17797 -0.108764,0.40539 -0.108764,0.68223 0,0.44494 0.08899,0.83055 0.266963,1.15684 0.168088,0.3164 0.405389,0.4845 0.682239,0.4845 0.217523,0 0.395499,-0.089 0.533924,-0.26697 0.138425,-0.17798 0.207637,-0.48448 0.207637,-0.91954 0,-0.55369 -0.11865,-0.97886 -0.346062,-1.29526 -0.158201,-0.21753 -0.355949,-0.31639 -0.603137,-0.31639 z m 2.88715,0.42516 c 0.346062,-0.42516 0.682238,-0.64268 1.008527,-0.64268 0.158198,0 0.306511,0.0395 0.42516,0.11865 0.118652,0.089 0.207637,0.22741 0.276851,0.41527 0.04944,0.13843 0.0791,0.34606 0.0791,0.62291 v 1.30515 c 0,0.19775 0.0099,0.32629 0.03955,0.39551 0.02967,0.0593 0.06921,0.099 0.118651,0.13842 0.05933,0.0297 0.158199,0.0395 0.296625,0.0395 v 0.12854 h -1.493013 v -0.12854 h 0.06921 c 0.138424,0 0.237297,-0.0198 0.296622,-0.0593 0.04944,-0.0495 0.08899,-0.10871 0.108764,-0.19775 0.0099,-0.0297 0.01977,-0.13843 0.01977,-0.3164 v -1.25571 c 0,-0.27685 -0.03955,-0.48449 -0.108762,-0.60314 -0.06921,-0.12854 -0.187865,-0.19775 -0.36584,-0.19775 -0.257075,0 -0.514147,0.14831 -0.771225,0.44493 v 1.61167 c 0,0.20764 0.0099,0.33618 0.02967,0.38561 0.02967,0.0693 0.0791,0.11865 0.128538,0.14832 0.05932,0.0297 0.168086,0.0395 0.326288,0.0395 v 0.12854 h -1.493013 v -0.12854 h 0.06921 c 0.148312,0 0.257073,-0.0395 0.306512,-0.11866 0.05933,-0.0791 0.08899,-0.2274 0.08899,-0.45482 v -1.13707 c 0,-0.36583 -0.0099,-0.59323 -0.02967,-0.67234 -0.01977,-0.0791 -0.03955,-0.13842 -0.0791,-0.16809 -0.02967,-0.0297 -0.0791,-0.0395 -0.128537,-0.0395 -0.06921,0 -0.138425,0.0198 -0.227413,0.0495 l -0.04944,-0.11866 0.909652,-0.37572 h 0.148311 z"
       class="fil7" />
  </g>
</svg>
