<?xml version="1.0" encoding="UTF-8" standalone="no"?>
<!-- Created with Inkscape (http://www.inkscape.org/) -->

<svg
   xmlns:dc="http://purl.org/dc/elements/1.1/"
   xmlns:cc="http://creativecommons.org/ns#"
   xmlns:rdf="http://www.w3.org/1999/02/22-rdf-syntax-ns#"
   xmlns:svg="http://www.w3.org/2000/svg"
   xmlns="http://www.w3.org/2000/svg"
   xmlns:sodipodi="http://sodipodi.sourceforge.net/DTD/sodipodi-0.dtd"
   xmlns:inkscape="http://www.inkscape.org/namespaces/inkscape"
   version="1.1"
   id="svg5629"
   width="44"
   height="44"
   viewBox="0 0 44 44"
   sodipodi:docname="кровля.svg"
   inkscape:version="0.92.1 r15371">
  <metadata
     id="metadata5635">
    <rdf:RDF>
      <cc:Work
         rdf:about="">
        <dc:format>image/svg+xml</dc:format>
        <dc:type
           rdf:resource="http://purl.org/dc/dcmitype/StillImage" />
        <dc:title></dc:title>
      </cc:Work>
    </rdf:RDF>
  </metadata>
  <defs
     id="defs5633" />
  <sodipodi:namedview
     pagecolor="#ffffff"
     bordercolor="#666666"
     borderopacity="1"
     objecttolerance="10"
     gridtolerance="10"
     guidetolerance="10"
     inkscape:pageopacity="0"
     inkscape:pageshadow="2"
     inkscape:window-width="1920"
     inkscape:window-height="1017"
     id="namedview5631"
     showgrid="false"
     inkscape:zoom="7.375"
     inkscape:cx="38.875485"
     inkscape:cy="-0.15591741"
     inkscape:window-x="-8"
     inkscape:window-y="-8"
     inkscape:window-maximized="1"
     inkscape:current-layer="svg5629" />
  <path
     style="fill:#c7cb14;fill-opacity:1;stroke-width:0.08491645"
     d="m 0.81882795,36.825773 c -0.09341,-0.03827 -0.246252,-0.154355 -0.339659,-0.258047 -0.154721,-0.171757 -0.172212,-0.329413 -0.196535,-1.771164 l -0.02671,-1.58262 3.20402695,-12.81658 C 6.342675,8.8660217 6.687401,7.5545679 6.8975669,7.3193475 L 7.131164,7.0579103 h 14.874307 14.874313 l 0.233521,0.2613498 c 0.210056,0.2350953 0.554833,1.5466202 3.432145,13.0556969 l 3.198626,12.794346 v 1.480719 c 0,0.814399 -0.03724,1.578724 -0.0828,1.698503 -0.123611,0.325116 -0.574618,0.575361 -0.936199,0.519453 -0.163467,-0.0253 -1.377116,-0.424988 -2.696997,-0.888259 l -2.399792,-0.84231 -2.39799,0.8419 c -1.318889,0.463047 -2.531731,0.860867 -2.695198,0.884058 -0.229435,0.03255 -0.868399,-0.158418 -2.802244,-0.837525 l -2.505035,-0.87968 -1.953076,0.677084 c -1.074193,0.3724 -2.249227,0.776487 -2.611187,0.897967 l -0.658104,0.220877 -0.658095,-0.220877 c -0.36196,-0.12148 -1.536989,-0.525567 -2.611188,-0.897967 l -1.953075,-0.677084 -2.505035,0.87968 c -1.936806,0.68014 -2.572454,0.870055 -2.802243,0.837231 -0.163466,-0.02337 -1.382357,-0.420359 -2.7086451,-0.88223 l -2.41143,-0.839768 -2.512,0.882487 c -1.3816,0.485366 -2.589195,0.880066 -2.683552,0.877099 -0.09436,-0.0032 -0.24797295,-0.03667 -0.34138595,-0.07488 z M 14.067198,34.181236 c 1.353648,-0.471156 2.580129,-0.857103 2.725507,-0.857656 0.145385,-5.97e-4 1.378286,0.387123 2.739786,0.861509 l 2.475458,0.862516 2.466348,-0.862516 c 1.356492,-0.474386 2.588288,-0.862023 2.737326,-0.861419 0.149039,5.97e-4 1.382678,0.387829 2.741418,0.860493 l 2.470444,0.859385 2.454712,-0.859358 c 1.350091,-0.472646 2.588456,-0.859647 2.751916,-0.860006 0.163467,-3.21e-4 1.175709,0.308657 2.249439,0.686696 1.073723,0.378037 1.983364,0.687339 2.021415,0.687339 0.03807,0 0.05754,-0.176284 0.04328,-0.391741 l -0.02587,-0.39174 -2.14619,-0.747087 -2.146187,-0.747079 -2.524215,0.884027 c -1.388322,0.486213 -2.600642,0.882198 -2.694049,0.87997 -0.09341,-0.0019 -1.297098,-0.398174 -2.67487,-0.879893 l -2.505034,-0.875847 -1.953082,0.67709 c -1.074192,0.3724 -2.249221,0.776489 -2.611179,0.89797 l -0.658105,0.220876 -0.658096,-0.220876 c -0.36196,-0.12148 -1.536995,-0.52557 -2.611187,-0.89797 l -1.953076,-0.67709 -2.505035,0.875847 c -1.377771,0.481719 -2.581462,0.877491 -2.67487,0.879501 -0.0934,0.0019 -1.311379,-0.39305 -2.706603,-0.877908 l -2.53677,-0.881561 -2.1336351,0.745693 -2.1336419,0.745692 -0.02587,0.39106 c -0.01426,0.215086 0.0051,0.391066 0.04309,0.391066 0.03794,0 0.9475809,-0.30968 2.0214199,-0.68818 1.0738401,-0.378493 2.0861781,-0.68658 2.2496451,-0.684628 0.16346,0.0019 1.38626,0.386109 2.717326,0.853688 1.331065,0.467585 2.439854,0.852095 2.463978,0.85447 0.02407,0.0027 1.151386,-0.381176 2.505034,-0.852333 z m -2.777266,-5.765238 c 0.239453,-1.937344 0.407895,-3.54681 0.374327,-3.576594 -0.03358,-0.02978 -0.864727,-0.329037 -1.8470081,-0.665005 L 8.031275,23.563547 6.1233839,24.23407 l -1.907892,0.670525 -0.86809,3.432001 c -0.477448,1.887607 -0.859576,3.453424 -0.849167,3.479609 0.01041,0.02619 0.821389,-0.235619 1.802169,-0.581781 0.980785,-0.346158 1.916989,-0.628183 2.080457,-0.626719 0.163459,0.0012 1.214305,0.326028 2.3351971,0.721267 1.1209059,0.395233 2.060616,0.694048 2.088259,0.66403 0.02761,-0.02998 0.246169,-1.639666 0.485615,-3.577004 z m 25.312798,2.460389 1.030613,-0.350742 1.420741,0.484743 c 0.7814,0.266601 1.662462,0.574309 1.957905,0.68378 l 0.537171,0.199046 -0.05215,-0.232139 c -0.0287,-0.127676 -0.423265,-1.700108 -0.876834,-3.494295 l -0.824668,-3.262156 -1.90789,-0.670539 -1.907892,-0.670537 -1.785975,0.610851 c -0.982283,0.335968 -1.813246,0.635032 -1.846591,0.664583 -0.05215,0.04621 0.736254,6.834055 0.826656,7.117402 0.0228,0.07136 0.395034,-0.02454 1.215576,-0.313205 0.650515,-0.228831 1.646531,-0.573893 2.213366,-0.766792 z M 21.071405,28.422432 v -3.558461 l -0.70056,-0.250308 c -0.385306,-0.137669 -1.235534,-0.431719 -1.889392,-0.653444 l -1.188827,-0.403136 -1.868166,0.667625 -1.868164,0.667624 -0.438503,3.480595 c -0.241181,1.914326 -0.424078,3.495123 -0.406439,3.512891 0.01764,0.01779 0.896561,-0.265344 1.953154,-0.629127 1.056598,-0.363782 2.041955,-0.655586 2.189685,-0.648452 0.147727,0.0071 1.128378,0.316736 2.179216,0.687994 1.050847,0.371263 1.939285,0.677193 1.974311,0.679839 0.03505,0.0027 0.0637,-1.596487 0.0637,-3.55364 z m 3.875119,2.877197 c 1.067913,-0.374692 2.062529,-0.68646 2.210257,-0.692809 0.147735,-0.0064 1.133094,0.286089 2.189685,0.649871 1.056598,0.363783 1.935515,0.646886 1.95316,0.629127 0.01765,-0.01779 -0.165265,-1.599009 -0.406439,-3.513875 l -0.43851,-3.481575 -1.868165,-0.666807 -1.868158,-0.666807 -1.188833,0.403302 c -0.653859,0.221815 -1.504086,0.515938 -1.889393,0.653607 l -0.700559,0.250308 v 3.558461 c 0,1.957153 0.01471,3.558461 0.03262,3.558461 0.01798,0 0.906392,-0.306565 1.974311,-0.681264 z M 11.986138,22.873601 c 5.46e-4,-0.05838 0.171545,-1.461627 0.380227,-3.118328 0.208696,-1.656701 0.351635,-3.036668 0.317647,-3.066593 -0.03396,-0.02992 -0.732367,-0.288863 -1.551967,-0.575417 l -1.4901651,-0.521006 -1.6942,0.583314 -1.694194,0.583315 -0.741943,2.919368 c -0.408068,1.605653 -0.732876,2.962726 -0.721787,3.01572 0.01246,0.05966 0.599993,-0.110127 1.542684,-0.445811 0.837397,-0.29819 1.60164,-0.541892 1.698328,-0.541558 0.09669,3.52e-4 0.978255,0.283034 1.959041,0.628227 0.9807861,0.345193 1.8310131,0.631515 1.8893931,0.636269 0.05837,0.0048 0.106499,-0.03912 0.106936,-0.0975 z m 21.992571,-0.530728 c 1.003836,-0.350279 1.904385,-0.636872 2.00122,-0.636872 0.09684,0 0.861213,0.243972 1.698605,0.542163 0.942689,0.335684 1.530213,0.505467 1.54269,0.44581 0.0111,-0.053 -0.313725,-1.410066 -0.721794,-3.015719 l -0.741937,-2.919369 -1.693115,-0.58294 -1.693115,-0.582941 -1.491256,0.518556 c -0.82019,0.285207 -1.519054,0.543976 -1.55304,0.575043 -0.03396,0.03107 0.108952,1.411968 0.317642,3.068669 0.208689,1.656701 0.37979,3.059949 0.380226,3.118328 5.46e-4,0.05838 0.02961,0.106146 0.06475,0.106146 0.03519,0 0.885287,-0.286593 1.889117,-0.636874 z m -17.462468,-0.399257 0.837031,-0.279693 1.795375,0.615992 c 0.987464,0.338793 1.824047,0.615748 1.859073,0.615453 0.03505,-2.54e-4 0.0637,-1.391201 0.0637,-3.090902 0,-2.815916 -0.01266,-3.095228 -0.142676,-3.145114 -0.07846,-0.0301 -0.795647,-0.282599 -1.593742,-0.561083 l -1.45107,-0.506336 -1.654311,0.573226 -1.654312,0.573229 -0.354371,2.759785 c -0.194903,1.51788 -0.35731,2.898973 -0.3609,3.06909 l -0.0065,0.309304 0.912857,-0.326631 c 0.502067,-0.179647 1.289516,-0.452491 1.749884,-0.60632 z m 8.279466,0.356799 c 0.94644,-0.326928 1.791717,-0.594414 1.878394,-0.594414 0.08668,0 0.905896,0.261607 1.820482,0.581351 l 1.662884,0.581351 -0.0065,-0.305373 c -0.0038,-0.167954 -0.166017,-1.547277 -0.360921,-3.065157 l -0.35437,-2.759785 -1.655867,-0.57189 -1.655872,-0.57189 -1.449513,0.504997 c -0.797228,0.277749 -1.513712,0.529635 -1.592184,0.559747 -0.129999,0.04989 -0.142669,0.329197 -0.142669,3.145114 0,1.699701 0.03045,3.090365 0.06767,3.090365 0.03724,0 0.842027,-0.267488 1.788466,-0.594416 z M 13.005071,14.721622 c 5.39e-4,-0.05838 0.152922,-1.309835 0.338934,-2.781014 0.186023,-1.471178 0.338548,-2.7804818 0.338946,-2.9095662 l 6.43e-4,-0.2346972 -2.733539,0.022405 -2.733539,0.022406 -0.7166901,2.8689734 c -0.39418,1.577933 -0.702138,2.8832 -0.684353,2.900589 0.01778,0.01739 0.664031,-0.180644 1.4360941,-0.440079 l 1.403751,-0.471701 1.610786,0.558582 c 0.885926,0.30722 1.639441,0.561204 1.674468,0.564413 0.03505,0.0032 0.06403,-0.04193 0.06443,-0.100309 z m 19.786987,-0.487959 1.573131,-0.535023 1.398942,0.47242 c 0.769418,0.259832 1.413499,0.457937 1.431285,0.440232 0.01779,-0.01771 -0.290172,-1.323228 -0.684353,-2.901163 l -0.716689,-2.8689735 -2.733539,-0.022406 -2.733531,-0.022405 6.42e-4,0.2346962 c 4.29e-4,0.1290843 0.152922,1.4383883 0.338939,2.9095673 0.186018,1.471178 0.338536,2.726722 0.338941,2.790099 4.3e-4,0.06337 0.04848,0.09786 0.106871,0.0766 0.05837,-0.02124 0.814051,-0.279386 1.679277,-0.573648 z m -16.352087,-0.04391 1.440089,-0.492009 1.531985,0.522778 c 0.842592,0.287526 1.560649,0.522676 1.595675,0.522554 0.03505,-8.6e-5 0.0637,-1.337659 0.0637,-2.9723 V 8.7987004 h -2.759789 c -1.517878,0 -2.761148,0.028662 -2.762812,0.063689 -0.0012,0.035027 -0.165991,1.3736216 -0.365157,2.9746506 -0.221962,1.784229 -0.327607,2.898142 -0.272946,2.877841 0.04906,-0.01821 0.737211,-0.254522 1.529264,-0.525126 z m 8.158958,0.03077 1.531992,-0.522777 1.440087,0.492008 c 0.792047,0.270603 1.480939,0.507186 1.530863,0.52574 0.0567,0.02106 -0.04552,-1.043524 -0.272245,-2.835384 -0.199662,-1.578017 -0.364702,-2.9168864 -0.366757,-2.9752663 -0.0032,-0.082666 -0.614286,-0.1061461 -2.763518,-0.1061461 h -2.759782 v 2.9720774 c 0,1.634641 0.02863,2.972176 0.0637,2.9723 0.03505,8.4e-5 0.753081,-0.235026 1.595674,-0.522554 z"
     id="path5409"
     inkscape:connector-curvature="0" />
</svg>
