<?xml version="1.0" encoding="UTF-8" standalone="no"?>
<!-- Created with Inkscape (http://www.inkscape.org/) -->

<svg
   xmlns:dc="http://purl.org/dc/elements/1.1/"
   xmlns:cc="http://creativecommons.org/ns#"
   xmlns:rdf="http://www.w3.org/1999/02/22-rdf-syntax-ns#"
   xmlns:svg="http://www.w3.org/2000/svg"
   xmlns="http://www.w3.org/2000/svg"
   xmlns:sodipodi="http://sodipodi.sourceforge.net/DTD/sodipodi-0.dtd"
   xmlns:inkscape="http://www.inkscape.org/namespaces/inkscape"
   version="1.1"
   id="svg5629"
   width="44"
   height="44"
   viewBox="0 0 44 44"
   sodipodi:docname="пленки.svg"
   inkscape:version="0.92.1 r15371">
  <metadata
     id="metadata5635">
    <rdf:RDF>
      <cc:Work
         rdf:about="">
        <dc:format>image/svg+xml</dc:format>
        <dc:type
           rdf:resource="http://purl.org/dc/dcmitype/StillImage" />
        <dc:title></dc:title>
      </cc:Work>
    </rdf:RDF>
  </metadata>
  <defs
     id="defs5633" />
  <sodipodi:namedview
     pagecolor="#ffffff"
     bordercolor="#666666"
     borderopacity="1"
     objecttolerance="10"
     gridtolerance="10"
     guidetolerance="10"
     inkscape:pageopacity="0"
     inkscape:pageshadow="2"
     inkscape:window-width="1920"
     inkscape:window-height="1017"
     id="namedview5631"
     showgrid="false"
     inkscape:zoom="7.375"
     inkscape:cx="38.875485"
     inkscape:cy="-0.15591741"
     inkscape:window-x="-8"
     inkscape:window-y="-8"
     inkscape:window-maximized="1"
     inkscape:current-layer="svg5629" />
  <path
     style="fill:#c7cb14;fill-opacity:1;stroke-width:0.08137159"
     d="m 10.543202,35.798457 -0.02229,-2.342392 -2.5018457,-0.02085 -2.5018467,-0.02083 V 31.053462 28.692565 H 2.9943567 0.47149084 V 17.275865 5.8591769 H 16.952992 33.434497 l 0.02229,2.3423845 0.02229,2.3423896 2.501841,0.02084 2.501846,0.02084 v 2.360904 2.360902 h 2.522872 2.522873 v 11.4167 11.416686 H 27.04699 10.565493 Z M 42.098855,26.724159 V 16.645979 H 27.003678 11.908508 v 10.025683 c 0,5.514136 0.02526,10.049317 0.05603,10.078181 0.03079,0.02884 6.823667,0.05248 15.095177,0.05248 H 42.098831 Z M 10.562974,31.481632 V 30.885074 L 10.34526,31.127321 C 9.9197417,31.60079 9.1333485,31.35642 9.1333485,30.750717 c 0,-0.627151 0.7768901,-0.882719 1.2119115,-0.398668 l 0.217714,0.242246 V 28.729634 26.86498 l -0.243975,0.244532 c -0.44307,0.444078 -1.1856505,0.220557 -1.1856505,-0.356876 0,-0.369902 0.1146152,-0.546737 0.4187012,-0.645989 0.3335043,-0.108852 0.6789293,0.0052 0.8641733,0.284589 0.136112,0.205509 0.142373,0.133391 0.144516,-1.663484 l 0.0027,-1.878302 -0.24398,0.244533 c -0.4533402,0.454381 -1.185645,0.205087 -1.185645,-0.403624 0,-0.691299 0.7959515,-0.906672 1.280588,-0.346511 0.13865,0.160262 0.145387,0.08366 0.147166,-1.674156 l 0.002,-1.842108 -0.203071,0.205151 c -0.268956,0.27172 -0.5594947,0.332258 -0.8709171,0.181474 -0.2852988,-0.138126 -0.3556343,-0.264694 -0.3556343,-0.639927 0,-0.190803 0.061049,-0.308415 0.2215772,-0.426612 0.3263619,-0.240349 0.6722132,-0.211171 0.9640652,0.08135 l 0.24398,0.244532 v -1.583038 -1.583041 h 1.688371 1.688363 l -0.258766,-0.20385 c -0.504003,-0.39705 -0.21953,-1.134663 0.437589,-1.134663 0.674977,0 0.925324,0.914241 0.332774,1.215258 -0.208807,0.106086 -0.03879,0.116775 1.830149,0.115111 1.243735,-0.0011 1.988912,-0.02884 1.880127,-0.06992 -0.457562,-0.172884 -0.588378,-0.74483 -0.244083,-1.067176 0.230326,-0.215649 0.664226,-0.256867 0.904542,-0.08593 0.397415,0.282687 0.347042,0.889482 -0.09239,1.113093 -0.194856,0.09916 0.01298,0.1121 1.840692,0.114627 l 2.060342,0.0031 -0.265286,-0.151455 c -0.330161,-0.188481 -0.428612,-0.528749 -0.247733,-0.856229 0.297988,-0.539526 1.117332,-0.415549 1.280671,0.193771 0.07005,0.261306 -0.103288,0.577118 -0.391769,0.713788 -0.171544,0.08127 0.150889,0.09805 1.85265,0.09641 1.838698,-0.002 2.036426,-0.01416 1.838006,-0.115088 -0.423424,-0.215362 -0.473713,-0.838621 -0.0897,-1.111773 0.240325,-0.170939 0.674217,-0.129726 0.904552,0.08593 0.344288,0.322346 0.213476,0.894298 -0.244085,1.067175 -0.108864,0.04111 0.635554,0.06913 1.880127,0.07069 1.590184,0.002 2.021959,-0.018 1.892148,-0.08771 -0.623976,-0.335039 -0.437244,-1.243407 0.255609,-1.243407 0.685906,0 0.974612,0.723539 0.452754,1.134669 l -0.258736,0.203839 h 1.989149 1.989158 L 35.210056,15.10392 c -0.504004,-0.397058 -0.219539,-1.134671 0.43759,-1.134671 0.674974,0 0.925319,0.914242 0.33277,1.215265 -0.220584,0.112057 -0.20298,0.117073 0.421545,0.120094 l 0.651743,0.0031 v -1.692844 -1.692819 h -1.675498 -1.675438 l 0.245812,0.23015 c 0.318976,0.29864 0.318976,0.579561 0,0.878205 -0.31897,0.298646 -0.61901,0.298646 -0.937988,0 -0.318975,-0.298644 -0.318975,-0.579565 0,-0.878205 l 0.24582,-0.23015 H 31.32397 29.39155 l 0.231756,0.186639 c 0.610652,0.491786 -0.04456,1.413782 -0.7535,1.060277 -0.269572,-0.134429 -0.388581,-0.311337 -0.388581,-0.577663 0,-0.25897 0.114627,-0.435373 0.37309,-0.574154 0.129875,-0.06976 -0.291539,-0.08971 -1.850112,-0.08771 -1.314207,0.002 -1.951081,0.02786 -1.825623,0.075 0.23008,0.08645 0.427474,0.485039 0.372816,0.752758 -0.04578,0.224158 -0.391373,0.50337 -0.623052,0.50337 -0.228468,0 -0.627333,-0.207127 -0.689104,-0.357845 -0.148173,-0.361516 -0.01941,-0.712773 0.326188,-0.889748 0.125626,-0.0643 -0.342614,-0.08614 -1.850099,-0.08614 -1.507491,0 -1.975734,0.02183 -1.850112,0.08614 0.634822,0.325084 0.41718,1.247593 -0.294331,1.247593 -0.691365,0 -0.942496,-1.020579 -0.309858,-1.259226 0.113624,-0.04287 -0.586273,-0.0703 -1.83458,-0.07189 -1.558566,-0.002 -1.979985,0.018 -1.850104,0.08771 0.258458,0.138782 0.373074,0.315184 0.373074,0.574154 0,0.266326 -0.119001,0.443236 -0.388573,0.577663 -0.278198,0.138722 -0.497587,0.111047 -0.753493,-0.09504 -0.32475,-0.261529 -0.32475,-0.703705 0,-0.965235 l 0.231751,-0.186638 h -1.932487 -1.932421 l 0.24582,0.230151 c 0.148193,0.138749 0.245817,0.313136 0.245817,0.439101 0,0.276206 -0.419803,0.669262 -0.714811,0.669262 -0.295009,0 -0.714812,-0.393056 -0.714812,-0.669262 0,-0.125965 0.09764,-0.300351 0.245817,-0.439101 L 11.727844,11.92206 H 9.7954242 7.8629962 l 0.2317562,0.186638 c 0.6106588,0.491788 -0.04456,1.413782 -0.753499,1.060277 -0.1010342,-0.0504 -0.2297886,-0.147814 -0.2861287,-0.216529 -0.081457,-0.09934 -0.1029883,0.242948 -0.1051178,1.670708 l -0.00262,1.795628 0.1993375,-0.21698 c 0.4136145,-0.450202 1.1798313,-0.189692 1.1798313,0.401137 0,0.598487 -0.7279389,0.896358 -1.1727504,0.479892 L 6.9473886,16.889678 v 1.778589 1.778598 l 0.1742978,-0.207456 c 0.1857486,-0.221097 0.6118864,-0.282582 0.9129414,-0.131735 0.256101,0.128331 0.3808188,0.513412 0.2569584,0.793374 -0.1928677,0.43596 -0.7750968,0.536983 -1.1377802,0.197416 L 6.9473872,20.905196 v 1.764398 1.764398 l 0.2064175,-0.193259 c 0.1375149,-0.12875 0.2989238,-0.192425 0.48355,-0.190756 0.3366121,0.0031 0.5349742,0.133585 0.6560542,0.43175 0.2682547,0.660602 -0.711415,1.16595 -1.1797274,0.608542 L 6.9473862,24.892327 v 1.792912 1.792907 l 0.2217084,-0.207574 c 0.4374061,-0.409529 1.1574605,-0.127583 1.1574605,0.45323 0,0.602779 -0.760917,0.869455 -1.1798315,0.413484 l -0.19932,-0.216919 v 1.579111 1.579103 H 8.755457 10.563516 Z M 9.5583183,15.214879 c -0.2840007,-0.09836 -0.4192142,-0.297521 -0.4222932,-0.621992 -0.00521,-0.54842 0.6414274,-0.814128 1.1212739,-0.46074 0.575572,0.423891 -0.0051,1.323114 -0.6989807,1.082732 z m -4.0410826,3.75405 v -8.38512 l 13.2660903,-0.01994 13.266097,-0.01994 V 8.8904766 7.2370285 L 16.975273,7.2170902 1.9011217,7.1972174 V 17.275614 27.354007 h 1.8080532 1.8080608 z m 1.8080595,-6.952004 c 0.1524084,-0.08184 0.1425485,-0.09053 -0.1051298,-0.09272 -0.2433436,-0.002 -0.273014,0.02136 -0.2706304,0.214125 0.00262,0.185646 0.017285,0.198868 0.1051179,0.09272 0.056309,-0.06811 0.1781304,-0.164456 0.2706378,-0.214128 z"
     id="path6197"
     inkscape:connector-curvature="0" />
</svg>
