<?xml version="1.0" encoding="UTF-8" standalone="no"?>
<!-- Created with Inkscape (http://www.inkscape.org/) -->

<svg
   xmlns:dc="http://purl.org/dc/elements/1.1/"
   xmlns:cc="http://creativecommons.org/ns#"
   xmlns:rdf="http://www.w3.org/1999/02/22-rdf-syntax-ns#"
   xmlns:svg="http://www.w3.org/2000/svg"
   xmlns="http://www.w3.org/2000/svg"
   xmlns:sodipodi="http://sodipodi.sourceforge.net/DTD/sodipodi-0.dtd"
   xmlns:inkscape="http://www.inkscape.org/namespaces/inkscape"
   width="72"
   height="72"
   viewBox="0 0 19.05 19.050001"
   version="1.1"
   id="svg4491"
   sodipodi:docname="таймер.svg"
   inkscape:version="0.92.1 r15371">
  <defs
     id="defs4485" />
  <sodipodi:namedview
     id="base"
     pagecolor="#ffffff"
     bordercolor="#666666"
     borderopacity="1.0"
     inkscape:pageopacity="0.0"
     inkscape:pageshadow="2"
     inkscape:zoom="2.8"
     inkscape:cx="69.717951"
     inkscape:cy="40.664671"
     inkscape:document-units="mm"
     inkscape:current-layer="layer1"
     showgrid="false"
     units="px"
     inkscape:window-width="1920"
     inkscape:window-height="1017"
     inkscape:window-x="-8"
     inkscape:window-y="-8"
     inkscape:window-maximized="1" />
  <metadata
     id="metadata4488">
    <rdf:RDF>
      <cc:Work
         rdf:about="">
        <dc:format>image/svg+xml</dc:format>
        <dc:type
           rdf:resource="http://purl.org/dc/dcmitype/StillImage" />
        <dc:title></dc:title>
      </cc:Work>
    </rdf:RDF>
  </metadata>
  <g
     inkscape:label="Layer 1"
     inkscape:groupmode="layer"
     id="layer1"
     transform="translate(0,-277.94998)">
    <g
       id="g5298"
       transform="matrix(0.31106833,0,0,0.31106833,0.19279437,278.14293)">
      <g
         id="g5235">
        <path
           id="path5219"
           d="m 31.634,37.989 c 1.041,-0.081 1.99,-0.612 2.606,-1.459 l 9.363,-12.944 c 0.287,-0.397 0.244,-0.945 -0.104,-1.293 -0.348,-0.347 -0.896,-0.39 -1.293,-0.104 L 29.26,31.555 c -0.844,0.614 -1.375,1.563 -1.456,2.604 -0.081,1.041 0.296,2.06 1.033,2.797 0.671,0.672 1.576,1.044 2.517,1.044 0.093,0 0.186,-0.004 0.28,-0.011 z m -1.836,-3.674 c 0.035,-0.457 0.269,-0.874 0.637,-1.142 l 7.897,-5.713 -5.711,7.895 c -0.27,0.371 -0.687,0.604 -1.144,0.64 -0.455,0.03 -0.902,-0.128 -1.227,-0.453 -0.322,-0.323 -0.488,-0.771 -0.452,-1.227 z"
           inkscape:connector-curvature="0" />
        <path
           id="path5221"
           d="m 54.034,19.564 c -0.01,-0.021 -0.01,-0.043 -0.021,-0.064 -0.012,-0.02 -0.031,-0.031 -0.044,-0.05 -1.011,-1.734 -2.207,-3.347 -3.565,-4.809 l 2.148,-2.147 1.414,1.414 4.242,-4.243 -4.242,-4.242 -4.243,4.242 1.415,1.415 -2.148,2.147 C 47.528,11.869 45.916,10.672 44.181,9.661 44.162,9.648 44.151,9.629 44.131,9.617 44.11,9.605 44.088,9.606 44.067,9.595 40.974,7.813 37.499,6.626 33.794,6.191 V 5 h 1.5 c 1.379,0 2.5,-1.121 2.5,-2.5 0,-1.379 -1.122,-2.5 -2.501,-2.5 h -9 c -1.379,0 -2.5,1.121 -2.5,2.5 0,1.379 1.121,2.5 2.5,2.5 h 1.5 v 1.156 c -1.08,0.115 -2.158,0.291 -3.224,0.535 -0.538,0.123 -0.875,0.66 -0.751,1.198 0.123,0.538 0.66,0.876 1.198,0.751 0.92,-0.211 1.849,-0.37 2.78,-0.477 L 28.869,8.08 c 0.328,-0.025 0.63,-0.043 0.924,-0.057 V 10 c 0,0.553 0.447,1 1,1 0.553,0 1,-0.447 1,-1 V 8.03 c 3.761,0.173 7.305,1.183 10.456,2.845 l -0.986,1.707 c -0.276,0.479 -0.112,1.09 0.366,1.366 0.157,0.091 0.329,0.134 0.499,0.134 0.346,0 0.682,-0.179 0.867,-0.5 l 0.983,-1.703 c 3.129,1.985 5.787,4.643 7.772,7.772 l -1.703,0.983 C 49.57,20.91 49.406,21.521 49.683,22 c 0.186,0.321 0.521,0.5 0.867,0.5 0.17,0 0.342,-0.043 0.499,-0.134 l 1.707,-0.986 c 1.685,3.196 2.698,6.798 2.849,10.619 H 53.63 c -0.553,0 -1,0.447 -1,1 0,0.553 0.447,1 1,1 h 1.975 c -0.151,3.821 -1.164,7.423 -2.849,10.619 l -1.707,-0.986 c -0.478,-0.276 -1.09,-0.114 -1.366,0.366 -0.276,0.479 -0.112,1.09 0.366,1.366 l 1.703,0.983 c -1.985,3.129 -4.643,5.787 -7.772,7.772 l -0.983,-1.703 c -0.277,-0.48 -0.89,-0.643 -1.366,-0.366 -0.479,0.276 -0.643,0.888 -0.366,1.366 l 0.986,1.707 C 39.1,56.785 35.556,57.795 31.795,57.968 V 56 c 0,-0.553 -0.447,-1 -1,-1 -0.553,0 -1,0.447 -1,1 v 1.976 c -1.597,-0.055 -3.199,-0.255 -4.776,-0.617 -0.538,-0.129 -1.075,0.213 -1.198,0.751 -0.124,0.538 0.213,1.075 0.751,1.198 1.996,0.46 4.035,0.692 6.058,0.692 0.049,0 0.096,-0.003 0.145,-0.004 0.007,0 0.012,0.004 0.018,0.004 0.008,0 0.015,-0.005 0.023,-0.005 4.807,-0.033 9.317,-1.331 13.219,-3.573 0.031,-0.014 0.064,-0.021 0.094,-0.039 0.02,-0.012 0.031,-0.031 0.05,-0.044 4.039,-2.354 7.414,-5.725 9.773,-9.761 0.019,-0.027 0.043,-0.048 0.06,-0.078 0.012,-0.021 0.011,-0.043 0.021,-0.064 2.284,-3.96 3.597,-8.546 3.597,-13.436 0,-4.89 -1.313,-9.476 -3.596,-13.436 z M 53.965,8.251 55.379,9.665 53.965,11.08 52.55,9.665 Z M 29.793,6.021 V 3 h -3.5 c -0.275,0 -0.5,-0.225 -0.5,-0.5 0,-0.275 0.225,-0.5 0.5,-0.5 h 9 c 0.275,0 0.5,0.225 0.5,0.5 0,0.275 -0.225,0.5 -0.5,0.5 h -3.5 V 6.021 C 31.445,6.007 31.113,6 30.793,6 30.765,6 30.733,6.002 30.705,6.002 30.68,6.002 30.655,6 30.63,6 30.466,6 30.302,6.011 30.138,6.014 30.022,6.017 29.913,6.016 29.793,6.021 Z"
           inkscape:connector-curvature="0" />
        <path
           id="path5223"
           d="m 21.793,14 h -5 c -0.553,0 -1,0.447 -1,1 0,0.553 0.447,1 1,1 h 5 c 0.553,0 1,-0.447 1,-1 0,-0.553 -0.447,-1 -1,-1 z"
           inkscape:connector-curvature="0" />
        <path
           id="path5225"
           d="m 21.793,21 h -10 c -0.553,0 -1,0.447 -1,1 0,0.553 0.447,1 1,1 h 10 c 0.553,0 1,-0.447 1,-1 0,-0.553 -0.447,-1 -1,-1 z"
           inkscape:connector-curvature="0" />
        <path
           id="path5227"
           d="m 21.793,28 h -15 c -0.553,0 -1,0.447 -1,1 0,0.553 0.447,1 1,1 h 15 c 0.553,0 1,-0.447 1,-1 0,-0.553 -0.447,-1 -1,-1 z"
           inkscape:connector-curvature="0" />
        <path
           id="path5229"
           d="m 21.793,35 h -19 c -0.553,0 -1,0.447 -1,1 0,0.553 0.447,1 1,1 h 19 c 0.553,0 1,-0.447 1,-1 0,-0.553 -0.447,-1 -1,-1 z"
           inkscape:connector-curvature="0" />
        <path
           id="path5231"
           d="m 21.793,42 h -13 c -0.553,0 -1,0.447 -1,1 0,0.553 0.447,1 1,1 h 13 c 0.553,0 1,-0.447 1,-1 0,-0.553 -0.447,-1 -1,-1 z"
           inkscape:connector-curvature="0" />
        <path
           id="path5233"
           d="m 21.793,49 h -7 c -0.553,0 -1,0.447 -1,1 0,0.553 0.447,1 1,1 h 7 c 0.553,0 1,-0.447 1,-1 0,-0.553 -0.447,-1 -1,-1 z"
           inkscape:connector-curvature="0" />
      </g>
      <g
         id="g5237" />
      <g
         id="g5239" />
      <g
         id="g5241" />
      <g
         id="g5243" />
      <g
         id="g5245" />
      <g
         id="g5247" />
      <g
         id="g5249" />
      <g
         id="g5251" />
      <g
         id="g5253" />
      <g
         id="g5255" />
      <g
         id="g5257" />
      <g
         id="g5259" />
      <g
         id="g5261" />
      <g
         id="g5263" />
      <g
         id="g5265" />
    </g>
  </g>
</svg>
