<?xml version="1.0" encoding="UTF-8" standalone="no"?>
<!-- Created with Inkscape (http://www.inkscape.org/) -->

<svg
   xmlns:dc="http://purl.org/dc/elements/1.1/"
   xmlns:cc="http://creativecommons.org/ns#"
   xmlns:rdf="http://www.w3.org/1999/02/22-rdf-syntax-ns#"
   xmlns:svg="http://www.w3.org/2000/svg"
   xmlns="http://www.w3.org/2000/svg"
   xmlns:sodipodi="http://sodipodi.sourceforge.net/DTD/sodipodi-0.dtd"
   xmlns:inkscape="http://www.inkscape.org/namespaces/inkscape"
   version="1.1"
   id="svg5629"
   width="44"
   height="44"
   viewBox="0 0 44 44"
   sodipodi:docname="окно.svg"
   inkscape:version="0.92.1 r15371">
  <metadata
     id="metadata5635">
    <rdf:RDF>
      <cc:Work
         rdf:about="">
        <dc:format>image/svg+xml</dc:format>
        <dc:type
           rdf:resource="http://purl.org/dc/dcmitype/StillImage" />
        <dc:title></dc:title>
      </cc:Work>
    </rdf:RDF>
  </metadata>
  <defs
     id="defs5633" />
  <sodipodi:namedview
     pagecolor="#ffffff"
     bordercolor="#666666"
     borderopacity="1"
     objecttolerance="10"
     gridtolerance="10"
     guidetolerance="10"
     inkscape:pageopacity="0"
     inkscape:pageshadow="2"
     inkscape:window-width="1920"
     inkscape:window-height="1017"
     id="namedview5631"
     showgrid="false"
     inkscape:zoom="7.375"
     inkscape:cx="38.875485"
     inkscape:cy="-0.15591741"
     inkscape:window-x="-8"
     inkscape:window-y="-8"
     inkscape:window-maximized="1"
     inkscape:current-layer="svg5629" />
  <path
     style="fill:#c7cb14;fill-opacity:1;stroke-width:0.06608845"
     d="m 6.4357953,38.839643 c -0.0727,-0.04121 -0.154025,-0.107244 -0.18073,-0.146689 -0.0267,-0.03949 -0.04897,-0.713969 -0.04958,-1.498922 -0.0014,-1.367106 0.0047,-1.432476 0.13795,-1.553077 0.123211,-0.111624 0.269303,-0.12839 1.288727,-0.147875 l 1.149758,-0.02196 V 20.438458 5.4057882 L 8.9441413,5.2435709 9.1063603,5.0813528 H 22.02234 c 12.61844,0 12.91956,0.00274 13.07199,0.1263396 l 0.15602,0.1263355 0.0169,15.0696601 0.0169,15.069662 1.11633,0.02087 c 0.98747,0.01844 1.13238,0.03542 1.25526,0.146766 0.13306,0.120585 0.13892,0.186603 0.13892,1.564809 v 1.438904 l -0.17413,0.136974 -0.17414,0.136974 -15.43925,-0.0021 C 10.622068,38.914947 6.5331763,38.894897 6.4357053,38.839617 Z M 36.85531,37.216839 36.87411,36.539428 H 22.03496 7.1957903 v 0.694074 0.694077 L 22.01613,37.910919 36.83646,37.894269 Z M 11.110949,21.564554 11.128079,7.6470928 11.284099,7.5207585 C 11.436262,7.3975489 11.7018,7.394423 22.02736,7.394423 c 9.03924,0 10.606,0.013745 10.71553,0.093804 0.12619,0.092276 0.12856,0.3211854 0.14512,14.043791 l 0.0168,13.949996 h 0.66058 0.66057 V 20.777159 6.0723065 l -12.20983,0.016714 -12.2098447,0.016702 -0.01666,14.6881545 -0.01666,14.688159 h 0.6604197 0.660421 z m 10.426061,9.753891 v -4.163577 h -4.692283 -4.692278 v 4.163577 4.163569 h 4.692278 4.692283 z m 10.37588,0 v -4.163577 h -4.69227 -4.69228 v 4.163577 4.163569 h 4.69228 4.69227 z m -10.39191,-9.368039 0.017,-4.180097 H 16.845208 12.15243 v 4.197062 4.197058 l 4.675753,-0.01698 4.675767,-0.01698 z m 10.37589,0 0.017,-4.180097 H 27.2211 22.52833 v 4.197062 4.197058 l 4.67575,-0.01698 4.67576,-0.01698 z m -10.37589,-9.38456 0.017,-4.1800966 H 16.845208 12.15243 v 4.1970626 4.197057 l 4.675753,-0.01697 4.675767,-0.01696 z m 10.39191,0.01654 V 8.3857716 h -4.69227 -4.69228 v 4.1966194 4.196614 h 4.69228 4.69227 z"
     id="path6210"
     inkscape:connector-curvature="0" />
</svg>
