<svg id="Capa_1" xmlns="http://www.w3.org/2000/svg" viewBox="0 0 561 561">
    <style>
        .st0{fill:#21628a}
    </style>
    <path class="st0" d="M280.5 178.5c-56.1 0-102 45.9-102 102s45.9 102 102 102 102-45.9 102-102-45.9-102-102-102zm227 76.5C494.7 147.9 410.5 63.8 306 53.5V0h-51v53.5C147.9 63.8 63.8 147.9 53.5 255H0v51h53.5C66.3 413.1 150.4 497.2 255 507.5V561h51v-53.5c107.1-12.8 191.2-96.9 201.5-201.5H561v-51h-53.5zm-227 204C181.1 459 102 380 102 280.5S181.1 102 280.5 102 459 181.1 459 280.5 380 459 280.5 459z" id="gps-fixed"/>
</svg>
