<svg xmlns="http://www.w3.org/2000/svg" width="87.859" height="87.859" viewBox="0 0 87.859 87.859">
    <path d="M80.938 40.483C79.294 22.713 65.093 8.528 47.312 6.917V0h-6.757v6.918C22.773 8.528 8.572 22.714 6.93 40.483H0v6.757h6.919c1.582 17.838 15.81 32.087 33.636 33.701v6.918h6.757v-6.918c17.826-1.613 32.054-15.862 33.636-33.701h6.911v-6.757h-6.921zM47.312 74.146v-6.558h-6.757v6.558C26.457 72.58 15.242 61.345 13.708 47.24h6.566v-6.757h-6.549c1.591-14.041 12.777-25.21 26.829-26.771v6.564h6.756v-6.564c14.053 1.56 25.239 12.729 26.83 26.771h-6.556v6.757h6.573c-1.532 14.105-12.748 25.34-26.845 26.906zm-3.378-40.419c-5.595 0-10.135 4.533-10.135 10.131 0 5.599 4.54 10.139 10.135 10.139s10.134-4.54 10.134-10.139c0-5.598-4.541-10.131-10.134-10.131z"/>
</svg>
