<svg xmlns="http://www.w3.org/2000/svg" width="72" height="72" viewBox="0 0 19.05 19.050001">
    <path d="M4.47 12.684a.316.316 0 0 0-.63 0 .316.316 0 0 0 0 .632.316.316 0 0 0 .63 0 .316.316 0 0 0 0-.632z"/>
    <path d="M1.628 11.42h-.316v-.316a.316.316 0 0 0-.632 0v.316H.364a.316.316 0 0 0 0 .632H.68v.316a.316.316 0 0 0 .632 0v-.316h.316a.316.316 0 0 0 0-.632z"/>
    <path d="M15.526 6.998a.309.309 0 0 0 .078-.01c1.376-.344 2.134-1.238 2.134-2.517V2.26a.949.949 0 0 0-.948-.948h-.631a.316.316 0 0 0 0 .632h.631c.174 0 .316.142.316.316v2.21c0 .99-.557 1.63-1.656 1.906a.316.316 0 0 0 .076.622z"/>
    <path d="M11.085 17.106h-3.14a.316.316 0 0 0 0 .632h3.14a.316.316 0 0 0 0-.632z"/>
    <path d="M3.83 6.759a.316.316 0 0 0-.23-.383C2.501 6.1 1.944 5.46 1.944 4.47V2.26c0-.174.142-.316.316-.316h.631a.316.316 0 0 0 0-.632H2.26a.949.949 0 0 0-.948.948v2.21c0 1.28.758 2.174 2.134 2.518a.316.316 0 0 0 .383-.23z"/>
    <path d="M13.306 16.082a.316.316 0 0 0-.306-.24H6.01a.316.316 0 0 0-.306.24l-.631 2.527a.315.315 0 0 0 .306.392h8.252a.315.315 0 0 0 .307-.392zM5.784 18.37l.474-1.896h6.495l.474 1.896z"/>
    <path d="M16.79 14.58h-.316v-.317a.316.316 0 0 0-.631 0v.316h-.316a.316.316 0 0 0 0 .632h.316v.316a.316.316 0 0 0 .631 0v-.316h.316a.316.316 0 0 0 0-.632z"/>
    <path d="M18.686 8.261h-.632V7.63a.316.316 0 0 0-.632 0v.631h-.632a.316.316 0 0 0 0 .632h.632v.632a.316.316 0 0 0 .632 0v-.632h.632a.316.316 0 0 0 0-.632z"/>
    <path d="M15.21.364a.316.316 0 0 0-.315-.315H4.155a.316.316 0 0 0-.316.315v1.264c0 3.821.638 5.14.657 5.178.36.84.888 1.418 1.399 1.979.892.978 1.735 1.901 1.735 4.215 0 .008-.007.862-.579 1.72a.316.316 0 0 0 .526.35c.677-1.015.684-2.028.684-2.07 0-2.559-.965-3.617-1.9-4.641-.496-.545-.966-1.06-1.29-1.816-.007-.013-.6-1.282-.6-4.915V.68h10.108v.948c0 3.633-.593 4.902-.606 4.93-.318.741-.788 1.256-1.285 1.8-.934 1.025-1.9 2.083-1.9 4.642 0 .042.008 1.055.685 2.07a.316.316 0 1 0 .526-.35A3.489 3.489 0 0 1 11.42 13c0-2.314.843-3.238 1.735-4.215.51-.56 1.039-1.14 1.39-1.962.028-.054.666-1.374.666-5.195z"/>
    <path d="M8.05 6.601a.314.314 0 0 0 .358.045l1.14-.598 1.09.595a.316.316 0 0 0 .448-.382l-.382-1.084.92-.781a.317.317 0 0 0-.204-.557h-1.119l-.488-1.078a.316.316 0 0 0-.576.001L8.753 3.84H7.63a.316.316 0 0 0-.197.563l.962.769-.427 1.079a.316.316 0 0 0 .082.351zm.91-2.13a.316.316 0 0 0 .288-.187l.279-.623.283.624c.05.114.164.186.288.186h.462l-.43.364a.316.316 0 0 0-.094.346l.181.513-.514-.281a.32.32 0 0 0-.299-.003l-.536.281.2-.505a.315.315 0 0 0-.096-.363l-.44-.352h.427z"/>
</svg>
