<svg xmlns="http://www.w3.org/2000/svg" xmlns:xlink="http://www.w3.org/1999/xlink" width="377.953" height="158.74" viewBox="0 0 100 42">
    <defs>
        <linearGradient id="j" gradientUnits="userSpaceOnUse" x1="11098.8" y1="12313" x2="11098.8" y2="11632.6">
            <stop offset="0" stop-color="#373736"/>
            <stop offset=".651" stop-color="#747574"/>
            <stop offset="1" stop-color="#b2b3b3"/>
        </linearGradient>
        <linearGradient xlink:href="#a" id="k" gradientUnits="userSpaceOnUse" x1="11750.7" y1="12219.5" x2="11382.5" y2="11726"/>
        <linearGradient id="a" gradientUnits="userSpaceOnUse" x1="11750.7" y1="12219.5" x2="11382.5" y2="11726">
            <stop offset="0" stop-color="#2b2a29"/>
            <stop offset=".651" stop-color="#8b8b8a"/>
            <stop offset="1" stop-color="#ebecec"/>
        </linearGradient>
        <linearGradient id="l" gradientUnits="userSpaceOnUse" xlink:href="#a" x1="10760" y1="12415.5" x2="10492.4" y2="11518.5"/>
        <linearGradient id="m" gradientUnits="userSpaceOnUse" x1="11098.5" y1="11877.1" x2="11098.5" y2="12316.9">
            <stop offset="0" stop-color="#2b2a29"/>
            <stop offset="1" stop-color="#434242"/>
        </linearGradient>
        <linearGradient id="c" gradientUnits="userSpaceOnUse" x1="10554.1" y1="9981.31" x2="11643.5" y2="14011.9">
            <stop offset="0" stop-color="#727271"/>
            <stop offset=".561" stop-color="#a5a6a5"/>
            <stop offset="1" stop-color="#d9dada"/>
        </linearGradient>
        <linearGradient id="d" gradientUnits="userSpaceOnUse" x1="10157.1" y1="12878.4" x2="11842.9" y2="12878.4">
            <stop offset="0" stop-color="#fefefe"/>
            <stop offset="1" stop-color="#d9dada"/>
        </linearGradient>
        <linearGradient id="e" gradientUnits="userSpaceOnUse" x1="10666.2" y1="13597.4" x2="11531.5" y2="10395.9">
            <stop offset="0" stop-color="#727271"/>
            <stop offset=".561" stop-color="#929292"/>
            <stop offset="1" stop-color="#b2b3b3"/>
        </linearGradient>
        <linearGradient id="f" gradientUnits="userSpaceOnUse" xlink:href="#b" x1="11098.8" y1="12748.5" x2="11098.8" y2="11244.8"/>
        <linearGradient id="b" gradientUnits="userSpaceOnUse" x1="11075.5" y1="11505.6" x2="11122.2" y2="12487.7">
            <stop offset="0" stop-color="#373736"/>
            <stop offset=".561" stop-color="#888"/>
            <stop offset="1" stop-color="#d9dada"/>
        </linearGradient>
        <linearGradient id="g" gradientUnits="userSpaceOnUse" x1="9945.43" y1="10920.4" x2="12252.2" y2="13072.9">
            <stop offset="0" stop-color="#727271"/>
            <stop offset=".561" stop-color="#9b9c9b"/>
            <stop offset="1" stop-color="#c5c6c6"/>
        </linearGradient>
        <linearGradient id="h" gradientUnits="userSpaceOnUse" x1="11098.8" y1="12708.9" x2="11098.8" y2="11284.4">
            <stop offset="0" stop-color="#373736"/>
            <stop offset=".561" stop-color="#7e7e7e"/>
            <stop offset="1" stop-color="#c5c6c6"/>
        </linearGradient>
        <linearGradient xlink:href="#b" id="i" gradientUnits="userSpaceOnUse" x1="11075.5" y1="11505.6" x2="11122.2" y2="12487.7"/>
    </defs>
    <g clip-rule="evenodd" opacity=".497" fill-rule="evenodd" image-rendering="optimizeQuality" shape-rendering="geometricPrecision" text-rendering="geometricPrecision">
        <path class="fil0" d="M11099 13976c1093 0 1979-886 1979-1979 0-1094-886-1980-1979-1980s-1980 886-1980 1980c0 1093 887 1979 1980 1979z" fill="url(#c)" transform="translate(-22.84 -60.659) scale(.00723)"/>
        <path class="fil1" d="M11204 13887c61-4 121-10 180-20l-228-1851zm266-35c130-27 254-67 373-118l-620-1504zm-1313-207c249 142 534 228 837 243l135-2019z" fill="url(#d)" transform="translate(-22.84 -60.659) scale(.00723)"/>
        <path class="fil2" d="M11099 10387c889 0 1610 721 1610 1610s-721 1609-1610 1609-1610-720-1610-1609 721-1610 1610-1610z" fill="url(#e)" transform="translate(-22.84 -60.659) scale(.00723)"/>
        <path class="fil3" d="M11099 10362c451 0 860 183 1155 479 296 296 479 704 479 1155v1c0 451-183 860-479 1155-295 296-704 479-1155 479-452 0-860-183-1156-479-295-295-478-704-478-1155h-1 1c0-452 183-860 478-1156 296-296 704-479 1156-479zm0 96c-425 0-809 172-1088 451-278 278-451 663-451 1088 0 424 173 809 451 1087 279 279 663 451 1088 451 424 0 809-172 1088-451 278-278 451-663 451-1087h-1v-1h1c0-424-173-808-451-1087-279-279-664-451-1088-451z" fill="url(#f)" fill-rule="nonzero" transform="translate(-22.84 -60.659) scale(.00723)"/>
        <path class="fil4" fill="url(#g)" d="M12502 11186v1621l-1403 810-1404-810v-1621l1404-810z" transform="translate(-22.84 -60.659) scale(.00723)"/>
        <path class="fil5" d="M11125 10316l1416 818 26 15v1696l-26 15-1416 817-26 16-27-16-1416-817-26-15v-1696l26-15 1416-818 27-15zm1337 894l-1363-787-1363 787v1574l1363 787 1363-787z" fill="url(#h)" fill-rule="nonzero" transform="translate(-22.84 -60.659) scale(.00723)"/>
        <path class="fil10" d="M11099 10760v1c341 0 651 138 874 362 224 223 362 532 362 873v1c0 341-139 650-362 874-224 223-533 362-874 362-342 0-651-139-874-362-224-224-362-533-362-874 0-342 138-651 362-875 223-223 532-361 874-361zm0 143v1-1c-302 0-575 123-773 321s-321 471-321 773h1-1c1 301 123 575 321 773s471 320 773 320 575-122 773-320 320-472 320-773v-1c0-301-122-574-320-772s-471-321-773-321z" fill="url(#i)" fill-rule="nonzero" transform="translate(-22.84 -60.659) scale(.00723)"/>
        <path class="fil11" d="M43.97 23.803c1.633-3.963 4.41-7.072 7.252-8.793-.173-.304-.34-.615-.513-.926-3.088 1.895-6.002 5.41-6.74 9.719z" fill="#fefefe"/>
        <path class="fil12" fill="#ebecec" d="M47.57 20.281l10.066-5.806.123.108-9.509 6.11-.738 4.498z"/>
    </g>
    <path d="M75.483 22.863h8.793v1.36h-5.56c-.782 0-1.454.491-1.722 1.178H82.6v1.345h-5.605c.268.687.94 1.179 1.721 1.179h5.561v1.36h-8.793a3.222 3.222 0 0 1-3.21-3.211 3.222 3.222 0 0 1 3.21-3.211z" class="fil13" clip-rule="evenodd" fill="#25446c" fill-rule="evenodd" stroke-width=".01" image-rendering="optimizeQuality" shape-rendering="geometricPrecision" text-rendering="geometricPrecision"/>
    <path d="M73.972 28.221c-1.324-.303-1.512-3.659.029-4.353.44-.202 1.475-.738 2.523-.65-.1.23-1.569.824-1.967 1.127-1.482 1.157-.78 3.493-.585 3.876z" class="fil14" clip-rule="evenodd" fill="#c5c6c6" fill-rule="evenodd" stroke-width=".01" image-rendering="optimizeQuality" shape-rendering="geometricPrecision" text-rendering="geometricPrecision"/>
    <path d="M99.166 29.263l-3.103-2.474h.658c.275 0 .543-.043.789-.144.253-.094.462-.224.65-.398a1.77 1.77 0 0 0 .427-.615c.109-.238.16-.498.16-.78a1.91 1.91 0 0 0-.601-1.41 2.046 2.046 0 0 0-.644-.413 2.005 2.005 0 0 0-.78-.152H85.91v6.4h3.977V24.36h3.666c.253 0 .441.058.564.18.123.123.18.26.18.405a.56.56 0 0 1-.187.405c-.13.123-.311.181-.557.181h-2.907l4.447 3.732z" class="fil15" clip-rule="evenodd" fill="#25446c" stroke-width=".01" image-rendering="optimizeQuality" shape-rendering="geometricPrecision" text-rendering="geometricPrecision"/>
    <path d="M86.525 28.735c-.267-.463-.224-4.925.174-5.243.383-.304 2.242-.253 2.892-.123-.108.231-2.024.398-2.328.803-.304.397-.571 4.057-.738 4.563z" class="fil14" clip-rule="evenodd" fill="#c5c6c6" fill-rule="evenodd" stroke-width=".01" image-rendering="optimizeQuality" shape-rendering="geometricPrecision" text-rendering="geometricPrecision"/>
    <path d="M.834 22.697v6.4H10.8a3.217 3.217 0 0 0 3.21-3.211 3.222 3.222 0 0 0-3.21-3.211c-3.326 0-6.667.022-9.965.022zm4.021 5.04v-3.703H7.56c.78 0 1.46.492 1.728 1.18H9.28c.086.209.13.44.13.679 0 .231-.044.455-.13.665h.007a1.863 1.863 0 0 1-1.728 1.179z" class="fil16" clip-rule="evenodd" fill="#25446c" fill-rule="evenodd" stroke-width=".01" image-rendering="optimizeQuality" shape-rendering="geometricPrecision" text-rendering="geometricPrecision"/>
    <path d="M1.5 28.605c-.275-.456-.224-4.925.173-5.243.376-.304 2.235-.253 2.886-.123-.109.231-2.025.398-2.329.803-.296.397-.571 4.056-.73 4.563z" class="fil14" clip-rule="evenodd" fill="#c5c6c6" fill-rule="evenodd" stroke-width=".01" image-rendering="optimizeQuality" shape-rendering="geometricPrecision" text-rendering="geometricPrecision"/>
    <path class="fil13" clip-rule="evenodd" fill="#25446c" fill-rule="evenodd" image-rendering="optimizeQuality" shape-rendering="geometricPrecision" text-rendering="geometricPrecision" d="M34.33 27.057l-.007-.007-3.4 2.017h-2.501l4.809-2.856-.015-.043-4.418-3.5h5.163l2.242 1.779.029-.008h-.008l2.965-1.764h2.502L37.273 25.3l4.765 3.775h-5.163z"/>
    <path d="M37.136 26.06c-.094-.32-2.763-2.763-3.406-2.98-.615-.217-2.437-.181-2.98-.087.282.16 2.235.434 2.857.716.607.275 2.972 2.003 3.529 2.35z" class="fil14" clip-rule="evenodd" fill="#c5c6c6" fill-rule="evenodd" stroke-width=".01" image-rendering="optimizeQuality" shape-rendering="geometricPrecision" text-rendering="geometricPrecision"/>
    <path d="M18.985 25.401h5.055v-1.179h-4.448c-.405 0-.607.239-.607.709zm0 1.251v2.488h-3.999v-3.341c0-2.329 2.018-3.052 3.196-3.052h9.871v6.393H24.04v-2.488z" class="fil15" clip-rule="evenodd" fill="#25446c" stroke-width=".01" image-rendering="optimizeQuality" shape-rendering="geometricPrecision" text-rendering="geometricPrecision"/>
    <path d="M15.586 28.59c-.275-.463-.376-4.115.528-4.722.405-.268 1.475-.73 2.531-.644-.108.232-1.627.73-1.967 1.1-.882.954-.933 3.76-1.092 4.266z" class="fil14" clip-rule="evenodd" fill="#c5c6c6" fill-rule="evenodd" stroke-width=".01" image-rendering="optimizeQuality" shape-rendering="geometricPrecision" text-rendering="geometricPrecision"/>
    <g clip-rule="evenodd" fill-rule="evenodd" image-rendering="optimizeQuality" shape-rendering="geometricPrecision" text-rendering="geometricPrecision">
        <path class="fil6" d="M10697 12420h-539v-619c0-152 122-276 270-276h161c38 0 71 20 90 51l418 428 436-447c20-20 46-32 76-32h161c148 0 269 124 269 276v619h-538v-533c-135 138-269 276-404 414-133-137-267-274-400-411z" fill="url(#j)" transform="translate(-22.821 -60.482) scale(.00723)"/>
        <path class="fil7" d="M11094 12001l3 3 436-447c20-20 46-32 76-32h161c148 0 269 124 269 276v619h-6l-2-9-82-75v-558c-35-104-136-214-344-160l-511 498z" fill="url(#k)" transform="translate(-22.821 -60.482) scale(.00723)"/>
        <path class="fil8" d="M10158 12409v-608c0-152 121-276 270-276h161c38 0 71 20 90 51l415 425v115l-511-498c-208-54-309 56-344 160v559z" fill="url(#l)" transform="translate(-22.821 -60.482) scale(.00723)"/>
        <path class="fil9" d="M10697 12420h-539v-6l87-79h410l-6-561 447 459 452-456v556h403l87 87h-537v-533c-135 138-269 276-404 414-133-137-267-274-400-411z" fill="url(#m)" transform="translate(-22.821 -60.482) scale(.00723)"/>
    </g>
</svg>
