<svg xmlns="http://www.w3.org/2000/svg" width="377.953" height="158.74" viewBox="0 0 100 42">
    <g transform="translate(0 -253.47)">
        <circle r="14.021" cy="279.665" cx="56.944" fill="#b3b3b3" fill-opacity=".519" stroke-width="23.159"/>
        <circle r="12.018" cy="279.585" cx="56.824" fill="#999" fill-opacity=".305" stroke-width="19.851"/>
        <path d="M62.947 273.776c-.007-.004.076.008.232.04l-.017-.017a1.158 1.158 0 0 1-.215-.023zM39.33 277.14l-.945.567c-.52.312-1.18.728-1.468.924-.324.22-.596.332-.711.29-.103-.037-.58-.394-1.062-.794-.481-.4-.949-.772-1.04-.827-.193-.118-5.029-.19-5.029-.075 0 .043.82.719 1.823 1.5 1.003.783 1.948 1.54 2.1 1.685l.276.262-.35.292c-.191.16-.78.532-1.306.826-1.968 1.097-2.766 1.598-2.703 1.698.035.057.456.104.936.104.992 0 1.03-.015 2.994-1.2.698-.423 1.36-.769 1.47-.769.11 0 .692.389 1.293.863.6.475 1.193.917 1.318.984.277.149 4.943.171 4.943.024 0-.054-.986-.875-2.19-1.824-1.417-1.116-2.18-1.787-2.16-1.898.017-.094.903-.688 1.97-1.32 1.066-.631 1.94-1.185 1.94-1.23.002-.045-.47-.082-1.048-.082zm-39.18.055l-.03 3.06c-.015 1.684-.004 3.125.026 3.203.044.114 1.102.136 5.443.11 5.213-.03 5.403-.038 5.885-.261 1.215-.563 1.902-1.624 1.902-2.941 0-1.317-.687-2.379-1.902-2.941-.485-.224-.638-.23-5.911-.23zm22.2 0c-6.005 0-5.969-.004-6.86.8-.82.742-.9 1.016-.941 3.28-.02 1.102-.01 2.075.024 2.161.048.127.392.156 1.804.156.96 0 1.822-.03 1.917-.067.143-.054.173-.27.173-1.246 0-.974.03-1.19.173-1.245.095-.037 1.218-.067 2.495-.067 1.687 0 2.37.038 2.503.137.146.11.189.364.213 1.285l.03 1.148h3.827v-6.342zm52.6 0l-.557.294c-1.067.563-1.723 1.616-1.723 2.767 0 1.517.866 2.743 2.244 3.174.372.117 1.478.144 5.176.128l4.702-.02v-1.094l-3.007-.055c-2.86-.052-3.03-.067-3.47-.302-.515-.275-.853-.702-.756-.955.054-.14.462-.165 2.801-.165h2.737V279.764h-2.72c-3.075 0-3.203-.03-2.684-.648.588-.698.67-.713 4.037-.773l3.062-.055v-1.093H79.87zm11.701 0l-.03 3.06c-.015 1.684-.004 3.124.026 3.202.042.108.481.133 1.942.11l1.89-.03.06-2.46c.032-1.353.07-2.473.081-2.488.012-.015.958-.027 2.1-.027 1.932 0 2.094.015 2.297.218.289.29.275.5-.05.826-.259.258-.322.268-1.756.268-.943 0-1.464.039-1.422.107.037.059 1.008.896 2.159 1.86l2.092 1.751h1.903c1.103 0 1.889-.042 1.867-.1-.02-.055-.602-.552-1.294-1.105-.692-.552-1.257-1.086-1.257-1.185 0-.14.146-.196.64-.249 1.078-.115 1.71-.788 1.71-1.819 0-.733-.318-1.355-.87-1.699-.386-.24-.399-.24-6.237-.24zm-54.378.166c1.28.003 1.646.125 2.562.853.783.621 2.004 1.774 2.004 1.891 0 .176-.155.095-1.093-.57-1.673-1.187-2.26-1.484-3.416-1.73a30.139 30.139 0 0 0-1.121-.228c-.031 0-.056-.049-.056-.11 0-.065.445-.107 1.12-.106zm44.279.112c.126.006.19.035.155.093-.043.07-.46.318-.927.553-.968.487-1.476 1-1.657 1.671-.129.476-.09 2.056.059 2.408.112.266-.182.252-.428-.02-.306-.339-.49-.991-.494-1.765-.01-1.41.47-2.145 1.709-2.62.46-.177 1.073-.301 1.437-.32.055-.002.104-.002.146 0zm12.234.05c.66 0 1.21.044 1.227.098.015.055-.381.207-.881.34-.5.132-.984.315-1.075.406-.213.213-.318.693-.54 2.491-.184 1.481-.266 1.821-.407 1.68-.111-.111-.089-3.149.03-3.967.145-1.004.215-1.048 1.646-1.048zm-86.378.054c.828 0 1.085.034 1.05.137-.025.075-.14.152-.255.17-.115.018-.545.13-.956.251-.921.27-.968.361-1.213 2.34a108.96 108.96 0 0 1-.24 1.832c-.102.672-.234.468-.283-.437-.053-.98.076-3.597.192-3.891.121-.309.515-.402 1.705-.402zm15.301.069c.128-.003.221.013.26.05.058.055.082.103.055.107-.027.004-.443.213-.924.465-.786.411-.904.516-1.165 1.03-.253.5-.43 1.275-.704 3.064-.03.195-.107.355-.17.355-.08 0-.103-.537-.073-1.667.056-2.155.213-2.576 1.119-2.99.515-.236 1.217-.407 1.602-.414zm-11.99.7c.693.012 1.407.052 1.629.114.543.15 1.23.778 1.393 1.27.291.883-.103 1.876-.934 2.353-.394.226-.598.254-1.97.276-.843.013-1.593-.004-1.668-.037-.102-.045-.137-.544-.137-1.954 0-1.625.025-1.902.173-1.959.146-.055.82-.074 1.514-.063zm15.53.216c2.69 0 2.576-.031 2.576.698 0 .193-.058.41-.13.483-.142.142-5.016.197-5.155.058-.135-.135-.074-.751.098-.997.167-.239.212-.242 2.612-.242zm47.217 4.825c-.01-.002-.027.004-.04.004v.036c.03-.006.06-.012.092-.012l-.004-.007a.083.083 0 0 0-.048-.021zm-22.791.467l-.013.02-.03.034a.479.479 0 0 0-.028.058c.08-.078.093-.126.07-.112z" fill="#002e80" stroke-width=".413"/>
        <g style="line-height:125%;-inkscape-font-specification:'Terminator Real NFI Bold'">
            <path style="-inkscape-font-specification:'Terminator Real NFI Bold'" d="M51.503 283.692h-2.667v-5.736q0-.381.195-.752.21-.38.57-.677.359-.296.838-.476.494-.19 1.064-.19.584 0 1.078.2.495.201.9.508.404.307.703.678.315.37.51.709L57 281.924l2.352-3.968q.194-.34.494-.71.3-.37.704-.677.405-.307.899-.508.494-.2 1.094-.2.599 0 1.093.179.51.17.854.466.345.285.54.666.194.381.194.784v5.736h-2.681v-5.736l-2.652 4.095q-.27.424-.54.773-.254.339-.584.582-.314.233-.749.36-.419.127-1.018.127-.525 0-.959-.17-.434-.158-.794-.412-.36-.265-.644-.593-.27-.339-.48-.677l-2.621-4.085z" font-weight="700" font-size="12.592" font-family="Terminator Real NFI" letter-spacing="0" word-spacing="0" fill="#002e80" stroke-width=".315"/>
        </g>
        <g style="line-height:125%;-inkscape-font-specification:'Terminator Real NFI Bold'">
            <path d="M50.586 283.693h-2.971v-5.736q0-.38.217-.751.233-.381.634-.678.4-.296.935-.476.55-.19 1.185-.19.65 0 1.201.2.551.202 1.002.509.45.307.784.677.35.37.568.71l2.57 3.968 2.62-3.969q.218-.338.552-.709.333-.37.784-.677.45-.307 1.001-.508.551-.201 1.219-.201t1.218.18q.568.169.952.465.384.286.6.667.218.381.218.783v5.736h-2.988v-5.736l-2.954 4.096q-.3.423-.601.773-.284.338-.651.582-.35.232-.835.36-.467.126-1.135.126-.584 0-1.068-.169-.484-.159-.885-.413-.4-.264-.717-.592-.3-.339-.534-.678l-2.921-4.085z" style="-inkscape-font-specification:'Terminator Real NFI Bold'" fill="#002e80" font-weight="700" font-size="13.291" font-family="Terminator Real NFI" letter-spacing="0" word-spacing="0" stroke-width=".332"/>
        </g>
    </g>
</svg>
