<svg xmlns="http://www.w3.org/2000/svg" width="377.953" height="158.74" viewBox="0 0 100 42">
    <defs>
        <linearGradient id="a" gradientUnits="userSpaceOnUse" x1="11750.7" y1="12219.5" x2="11382.5" y2="11726">
            <stop offset="0" stop-color="#2b2a29"/>
            <stop offset=".651" stop-color="#8b8b8a"/>
            <stop offset="1" stop-color="#ebecec"/>
        </linearGradient>
        <linearGradient id="b" gradientUnits="userSpaceOnUse" x1="11075.5" y1="11505.6" x2="11122.2" y2="12487.7">
            <stop offset="0" stop-color="#373736"/>
            <stop offset=".561" stop-color="#888"/>
            <stop offset="1" stop-color="#d9dada"/>
        </linearGradient>
    </defs>
    <g fill="#272794" fill-opacity=".901" fill-rule="evenodd">
        <path d="M57.292 9.384l10.45 6.007.193.111V27.962l-.193.112-10.45 6.006-.195.112-.195-.112-10.45-6.006-.194-.112V15.502l.193-.111 10.45-6.007.196-.112zm9.865 6.567l-10.06-5.783-10.061 5.783v11.563l10.06 5.783 10.061-5.783z" stroke-width=".171"/>
        <path d="M57.097 12.924v.002a9.096 9.096 0 0 1 6.452 2.671 9.095 9.095 0 0 1 2.67 6.45h.002v.002h-.002a9.096 9.096 0 0 1-2.67 6.451 9.095 9.095 0 0 1-6.45 2.67v.002h-.003v-.002a9.095 9.095 0 0 1-6.451-2.67 9.095 9.095 0 0 1-2.67-6.45h-.003v-.002h.002a9.095 9.095 0 0 1 2.672-6.452 9.095 9.095 0 0 1 6.449-2.67v-.002zm0 1.055v.002h-.002v-.002a8.044 8.044 0 0 0-5.702 2.365 8.044 8.044 0 0 0-2.366 5.703h.002v.003h-.002c0 2.225.904 4.242 2.365 5.702a8.044 8.044 0 0 0 5.704 2.366v-.002h.003v.002a8.044 8.044 0 0 0 5.702-2.365 8.044 8.044 0 0 0 2.366-5.704h-.002v-.003h.002a8.044 8.044 0 0 0-2.365-5.702 8.044 8.044 0 0 0-5.704-2.365z" stroke-width=".171"/>
        <path d="M18.05 18.645h10.073v6.53h-4.1v-2.537H18.53l.013-1.282h5.48v-1.202h-4.54c-.41 0-.614.24-.614.721v4.3h-4.086v-3.412c0-2.378 2.062-3.118 3.267-3.118z"/>
        <path d="M15.454 24.681c-.276-.468-.38-4.2.545-4.815.414-.276 1.505-.751 2.58-.66-.108.235-1.658.745-2.008 1.123-.901.973-.95 3.838-1.117 4.352z"/>
        <path d="M100.038 25.162l-3.164-2.524h.667c.285 0 .554-.05.808-.147.254-.098.474-.234.661-.407.187-.174.334-.383.44-.628.108-.245.161-.51.161-.794a1.997 1.997 0 0 0-1.269-1.863 2.086 2.086 0 0 0-.8-.154h-11.03v6.53h4.059v-5.021h3.739c.258 0 .45.062.574.187a.574.574 0 0 1 .187.414c0 .151-.065.29-.194.414-.129.125-.318.187-.567.187h-2.965l4.54 3.806z" stroke-width=".171"/>
        <path d="M75.867 18.63h8.974v1.386h-5.672c-.799 0-1.486.501-1.762 1.205h5.72v1.37h-5.72a1.898 1.898 0 0 0 1.762 1.206h5.672v1.386h-8.974a3.287 3.287 0 0 1-3.278-3.277 3.287 3.287 0 0 1 3.278-3.277z" stroke-width=".171"/>
        <path d="M.4 18.671v6.53l10.17.001a3.287 3.287 0 0 0 3.277-3.277 3.287 3.287 0 0 0-3.277-3.277c-3.396 0-6.806.023-10.17.023zm4.107 5.145v-3.782h2.76c.799 0 1.486.502 1.762 1.206h-.006a1.864 1.864 0 0 1 .001 1.371h.005a1.898 1.898 0 0 1-1.762 1.205z" stroke-width=".171"/>
        <path d="M1.077 24.699c-.276-.469-.227-5.028.178-5.352.39-.312 2.286-.26 2.948-.124-.109.236-2.065.403-2.376.817-.305.406-.583 4.145-.75 4.659z" stroke-width=".171"/>
        <path d="M28.943 18.64h5.267l8.243 6.54h-5.266z"/>
        <path d="M28.559 25.174l10.988-6.528h2.556l-10.988 6.528z"/>
        <path d="M37.475 22.113c-.09-.326-2.813-2.82-3.471-3.046-.633-.217-2.488-.18-3.044-.085.293.164 2.282.443 2.915.731.621.283 3.032 2.042 3.6 2.4z"/>
        <path d="M53.66 24.71h-3.973V20.14c0-1.122.894-2.04 1.987-2.04h1.192c.278 0 .524.15.666.373l3.083 3.165 3.22-3.305a.783.783 0 0 1 .555-.232h1.192c1.092 0 1.986.917 1.986 2.039v4.568h-3.973v-3.938l-2.98 3.058-2.955-3.033z" stroke-width=".171"/>
        <path d="M56.918 7.83h.001v.002c3.888 0 7.407 1.576 9.952 4.122a14.034 14.034 0 0 1 4.12 9.95h.002v.002h-.003c0 3.889-1.575 7.408-4.12 9.953a14.03 14.03 0 0 1-9.949 4.12v.002h-.005v-.002a14.029 14.029 0 0 1-9.951-4.121 14.034 14.034 0 0 1-4.12-9.95h-.003v-.002h.004c0-3.889 1.575-7.408 4.12-9.954a14.03 14.03 0 0 1 9.949-4.12V7.83zm.001 1.628v.002h-.004v-.002a12.407 12.407 0 0 0-8.796 3.648 12.411 12.411 0 0 0-3.65 8.8h.004v.003h-.004a12.41 12.41 0 0 0 3.649 8.797 12.408 12.408 0 0 0 8.798 3.65v-.002h.005v.002c3.432 0 6.543-1.395 8.796-3.648a12.411 12.411 0 0 0 3.65-8.8h-.004v-.004h.003c0-3.432-1.395-6.543-3.648-8.797a12.408 12.408 0 0 0-8.799-3.65z" stroke-width=".264"/>
    </g>
</svg>
