<svg xmlns="http://www.w3.org/2000/svg" viewBox="0 0 486.392 486.392">
    <path d="M395.193 0H91.198C40.826 0 0 40.826 0 91.198v303.995c0 50.372 40.826 91.198 91.198 91.198h303.995c50.372 0 91.198-40.827 91.198-91.198V91.198C486.392 40.826 445.565 0 395.193 0zm-89.131 243.165l-39.854.03-.03 145.917h-54.689V243.196H175.01v-50.281l36.479-.03-.061-29.609c0-41.039 11.126-65.997 59.431-65.997h40.249v50.311h-25.171c-18.817 0-19.729 7.022-19.729 20.124l-.061 25.171h45.234l-5.319 50.28z" fill="#010002"/>
</svg>
