<svg xmlns="http://www.w3.org/2000/svg" width="377.953" height="158.74" viewBox="0 0 100 42">
    <g clip-rule="evenodd" fill-rule="evenodd" image-rendering="optimizeQuality" shape-rendering="geometricPrecision" text-rendering="geometricPrecision">
        <path d="M12.202 13.525l-.163 1.385c-.032.303-.065.703-.108 1.211l-.076.963-.119.13h-.703l-.119-.12c-.01-1.092-.075-1.708-.194-1.86-.184-.26-1.309-.378-3.375-.378-.335 0-.854.021-1.568.065-.086.832-.13 2.303-.13 4.445v1.633l1.374.032c.41.011 1.168-.01 2.282-.054.227 0 .368-.065.433-.173.13-.194.194-.724.227-1.6l.119-.12h.746l.119.12c-.033.897-.043 1.73-.043 2.476 0 .822.01 1.71.043 2.683l-.119.108h-.811l-.12-.12c0-.843-.032-1.34-.107-1.492-.14-.281-.552-.454-1.244-.508a15.57 15.57 0 0 0-1.406-.054c-.563 0-1.05.01-1.493.032v2.877c0 1.915.054 3.17.163 3.753.032.238.173.39.41.454.055.011.628.055 1.731.12l.119.118v.812l-.13.13-4.867-.076c-.703-.011-1.655.01-2.888.075l-.119-.119v-.822l.12-.119c.821-.043 1.297-.086 1.416-.119a.53.53 0 0 0 .411-.454c.108-.584.162-1.838.162-3.753v-6.403c0-1.914-.054-3.169-.162-3.753a.53.53 0 0 0-.41-.454c-.12-.022-.596-.065-1.418-.119l-.119-.119v-.822l.12-.108c.778.043 2.022.076 3.73.076 1.104 0 3.83-.033 8.167-.076zm9.896.844l-.12.108c-.832.054-1.297.097-1.416.12a.54.54 0 0 0-.422.453c-.097.584-.151 1.839-.151 3.753v9.01c0 1.622-.173 2.888-.52 3.796-.4 1.028-1.103 1.99-2.13 2.888-1.125.984-2.196 1.482-3.223 1.482-.346 0-.67-.065-.995-.184.043-.606.065-1.352.065-2.24l.27-.172c.66.595 1.233.887 1.741.887.693 0 1.082-.368 1.158-1.103.108-.952.151-2.38.151-4.294v-10.07c0-1.914-.043-3.169-.151-3.753a.543.543 0 0 0-.411-.454c-.054-.01-.628-.054-1.698-.119l-.12-.119v-.822l.12-.108c1.114.043 2.444.076 4.001.076 1.753 0 2.996-.033 3.732-.076l.119.108zM43.08 26.472c-.173 1.179-.26 2.509-.26 3.99l-.13.13-8.803-.075c-1.471 0-2.51.021-3.104.075l-.13-.13v-.335l.065-.151c.595-.379.92-.617.962-.714.076-.14.12-.681.141-1.6l.033-2.715v-6.144c0-1.925-.055-3.18-.152-3.753a.543.543 0 0 0-.41-.454c-.13-.022-.596-.065-1.418-.119l-.119-.119v-.822l.12-.108a72.83 72.83 0 0 0 3.655.076c1.655 0 2.92-.033 3.785-.076l.12.108v.833l-.12.108c-.822.054-1.297.097-1.416.12a.53.53 0 0 0-.411.453c-.109.574-.163 1.828-.163 3.753v7.247c0 1.049.022 2.076.065 3.071h1.644c2.358 0 3.807-.097 4.337-.28a.44.44 0 0 0 .195-.13c.076-.12.162-.357.238-.725l.281-1.504.12-.14h.745zm9.594 3.99l-.109.13c-.81-.054-2.054-.075-3.742-.075-1.676 0-2.92.021-3.731.075l-.108-.13v-.81l.119-.12c.822-.043 1.298-.086 1.417-.119a.53.53 0 0 0 .41-.454c.109-.584.163-1.828.163-3.753v-6.403c0-1.925-.054-3.18-.162-3.753a.53.53 0 0 0-.411-.454c-.12-.022-.595-.065-1.417-.119l-.12-.119v-.822l.12-.108c.778.043 2.022.076 3.731.076 1.698 0 2.942-.033 3.72-.076l.12.108v.822l-.12.12c-.821.053-1.297.096-1.416.118a.53.53 0 0 0-.411.454c-.108.574-.162 1.828-.162 3.753v6.403c0 1.925.054 3.17.162 3.753a.53.53 0 0 0 .41.454c.12.033.596.076 1.418.12l.119.118zm20.841-16.104l-.14.12c-.822.053-1.287.096-1.406.118a.54.54 0 0 0-.422.454c-.097.574-.152 1.828-.152 3.753v4.91c0 3.635.055 5.993.152 7.085l-.152.119c-.919-.152-1.6-.27-2.076-.325-2.152-2.433-5.851-6.868-11.075-13.303v7.917c0 1.925.054 3.17.151 3.753a.54.54 0 0 0 .422.454c.119.033.595.076 1.417.12l.119.118v.822l-.12.12a48.694 48.694 0 0 0-5.397 0l-.118-.12v-.822l.119-.119c.822-.043 1.298-.086 1.417-.119a.54.54 0 0 0 .421-.454c.098-.584.152-1.828.152-3.753v-6.403c0-1.925-.054-3.18-.152-3.753a.54.54 0 0 0-.421-.454c-.12-.022-.595-.065-1.417-.119l-.12-.119v-.822l.12-.108c.768.043 1.503.076 2.195.076 1.093 0 1.99-.033 2.715-.076 2.91 3.872 6.316 8.025 10.242 12.46v-7.085c0-1.925-.054-3.18-.162-3.753-.032-.238-.173-.389-.41-.454-.12-.022-.585-.065-1.407-.119l-.13-.119v-.822l.13-.108c.898.043 1.752.076 2.574.076 1.039 0 1.98-.033 2.812-.076l.12.108zM88.42 26.472c-.173 1.179-.26 2.509-.26 3.99l-.13.13-8.803-.075c-1.46 0-2.498.021-3.104.075l-.13-.13v-.335l.065-.151c.595-.379.92-.617.963-.714.075-.151.13-.692.14-1.6l.033-2.715v-6.144c0-1.925-.044-3.18-.152-3.753a.543.543 0 0 0-.41-.454c-.13-.022-.596-.065-1.418-.119l-.119-.119v-.822l.12-.108c.81.043 2.076.076 3.774.076 1.514 0 4.402-.033 8.663-.076l.13.097-.162 1.341c-.043.433-.087.79-.108 1.093l-.087 1.125-.119.13h-.703l-.119-.12c-.01-1.103-.075-1.72-.194-1.87-.087-.12-.52-.206-1.298-.271a25.032 25.032 0 0 0-2.055-.097c-.703 0-1.417.032-2.13.086-.087.844-.13 2.023-.13 3.526v2.498c.627.044 1.146.065 1.546.065l1.59-.01c.735-.011 1.157-.065 1.254-.184.13-.14.217-.692.26-1.633l.119-.12h.746l.12.12c-.022.897-.044 1.73-.044 2.476 0 .822.022 1.71.043 2.683l-.119.108h-.81l-.12-.12c0-.93-.065-1.481-.195-1.654-.13-.173-.519-.292-1.178-.346a18.042 18.042 0 0 0-1.569-.054c-.595 0-1.135.01-1.644.054v3.699c0 1.049.011 2.076.054 3.071h1.644c2.358 0 3.807-.097 4.337-.28a.44.44 0 0 0 .195-.13c.087-.12.162-.357.238-.725l.281-1.504.13-.14h.736z" class="fil4 str0" fill="none" fill-rule="nonzero" stroke-width="50" stroke-linecap="round" stroke-linejoin="round"/>
        <path d="M12.202 13.525l-.163 1.385c-.032.303-.065.703-.108 1.211l-.076.963-.119.13h-.703l-.119-.12c-.01-1.092-.075-1.708-.194-1.86-.184-.26-1.309-.378-3.375-.378-.335 0-.854.021-1.568.065-.086.832-.13 2.303-.13 4.445v1.633l1.374.032c.41.011 1.168-.01 2.282-.054.227 0 .368-.065.433-.173.13-.194.194-.724.227-1.6l.119-.12h.746l.119.12c-.033.897-.043 1.73-.043 2.476 0 .822.01 1.71.043 2.683l-.119.108h-.811l-.12-.12c0-.843-.032-1.34-.107-1.492-.14-.281-.552-.454-1.244-.508a15.57 15.57 0 0 0-1.406-.054c-.563 0-1.05.01-1.493.032v2.877c0 1.915.054 3.17.163 3.753.032.238.173.39.41.454.055.011.628.055 1.731.12l.119.118v.812l-.13.13-4.867-.076c-.703-.011-1.655.01-2.888.075l-.119-.119v-.822l.12-.119c.821-.043 1.297-.086 1.416-.119a.53.53 0 0 0 .411-.454c.108-.584.162-1.838.162-3.753v-6.403c0-1.914-.054-3.169-.162-3.753a.53.53 0 0 0-.41-.454c-.12-.022-.596-.065-1.418-.119l-.119-.119v-.822l.12-.108c.778.043 2.022.076 3.73.076 1.104 0 3.83-.033 8.167-.076zm9.896.844l-.12.108c-.832.054-1.297.097-1.416.12a.54.54 0 0 0-.422.453c-.097.584-.151 1.839-.151 3.753v9.01c0 1.622-.173 2.888-.52 3.796-.4 1.028-1.103 1.99-2.13 2.888-1.125.984-2.196 1.482-3.223 1.482-.346 0-.67-.065-.995-.184.043-.606.065-1.352.065-2.24l.27-.172c.66.595 1.233.887 1.741.887.693 0 1.082-.368 1.158-1.103.108-.952.151-2.38.151-4.294v-10.07c0-1.914-.043-3.169-.151-3.753a.543.543 0 0 0-.411-.454c-.054-.01-.628-.054-1.698-.119l-.12-.119v-.822l.12-.108c1.114.043 2.444.076 4.001.076 1.753 0 2.996-.033 3.732-.076l.119.108zM43.08 26.472c-.173 1.179-.26 2.509-.26 3.99l-.13.13-8.803-.075c-1.471 0-2.51.021-3.104.075l-.13-.13v-.335l.065-.151c.595-.379.92-.617.962-.714.076-.14.12-.681.141-1.6l.033-2.715v-6.144c0-1.925-.055-3.18-.152-3.753a.543.543 0 0 0-.41-.454c-.13-.022-.596-.065-1.418-.119l-.119-.119v-.822l.12-.108a72.83 72.83 0 0 0 3.655.076c1.655 0 2.92-.033 3.785-.076l.12.108v.833l-.12.108c-.822.054-1.297.097-1.416.12a.53.53 0 0 0-.411.453c-.109.574-.163 1.828-.163 3.753v7.247c0 1.049.022 2.076.065 3.071h1.644c2.358 0 3.807-.097 4.337-.28a.44.44 0 0 0 .195-.13c.076-.12.162-.357.238-.725l.281-1.504.12-.14h.745zm9.594 3.99l-.109.13c-.81-.054-2.054-.075-3.742-.075-1.676 0-2.92.021-3.731.075l-.108-.13v-.81l.119-.12c.822-.043 1.298-.086 1.417-.119a.53.53 0 0 0 .41-.454c.109-.584.163-1.828.163-3.753v-6.403c0-1.925-.054-3.18-.162-3.753a.53.53 0 0 0-.411-.454c-.12-.022-.595-.065-1.417-.119l-.12-.119v-.822l.12-.108c.778.043 2.022.076 3.731.076 1.698 0 2.942-.033 3.72-.076l.12.108v.822l-.12.12c-.821.053-1.297.096-1.416.118a.53.53 0 0 0-.411.454c-.108.574-.162 1.828-.162 3.753v6.403c0 1.925.054 3.17.162 3.753a.53.53 0 0 0 .41.454c.12.033.596.076 1.418.12l.119.118zm20.841-16.104l-.14.12c-.822.053-1.287.096-1.406.118a.54.54 0 0 0-.422.454c-.097.574-.152 1.828-.152 3.753v4.91c0 3.635.055 5.993.152 7.085l-.152.119c-.919-.152-1.6-.27-2.076-.325-2.152-2.433-5.851-6.868-11.075-13.303v7.917c0 1.925.054 3.17.151 3.753a.54.54 0 0 0 .422.454c.119.033.595.076 1.417.12l.119.118v.822l-.12.12a48.694 48.694 0 0 0-5.397 0l-.118-.12v-.822l.119-.119c.822-.043 1.298-.086 1.417-.119a.54.54 0 0 0 .421-.454c.098-.584.152-1.828.152-3.753v-6.403c0-1.925-.054-3.18-.152-3.753a.54.54 0 0 0-.421-.454c-.12-.022-.595-.065-1.417-.119l-.12-.119v-.822l.12-.108c.768.043 1.503.076 2.195.076 1.093 0 1.99-.033 2.715-.076 2.91 3.872 6.316 8.025 10.242 12.46v-7.085c0-1.925-.054-3.18-.162-3.753-.032-.238-.173-.389-.41-.454-.12-.022-.585-.065-1.407-.119l-.13-.119v-.822l.13-.108c.898.043 1.752.076 2.574.076 1.039 0 1.98-.033 2.812-.076l.12.108zM88.42 26.472c-.173 1.179-.26 2.509-.26 3.99l-.13.13-8.803-.075c-1.46 0-2.498.021-3.104.075l-.13-.13v-.335l.065-.151c.595-.379.92-.617.963-.714.075-.151.13-.692.14-1.6l.033-2.715v-6.144c0-1.925-.044-3.18-.152-3.753a.543.543 0 0 0-.41-.454c-.13-.022-.596-.065-1.418-.119l-.119-.119v-.822l.12-.108c.81.043 2.076.076 3.774.076 1.514 0 4.402-.033 8.663-.076l.13.097-.162 1.341c-.043.433-.087.79-.108 1.093l-.087 1.125-.119.13h-.703l-.119-.12c-.01-1.103-.075-1.72-.194-1.87-.087-.12-.52-.206-1.298-.271a25.032 25.032 0 0 0-2.055-.097c-.703 0-1.417.032-2.13.086-.087.844-.13 2.023-.13 3.526v2.498c.627.044 1.146.065 1.546.065l1.59-.01c.735-.011 1.157-.065 1.254-.184.13-.14.217-.692.26-1.633l.119-.12h.746l.12.12c-.022.897-.044 1.73-.044 2.476 0 .822.022 1.71.043 2.683l-.119.108h-.81l-.12-.12c0-.93-.065-1.481-.195-1.654-.13-.173-.519-.292-1.178-.346a18.042 18.042 0 0 0-1.569-.054c-.595 0-1.135.01-1.644.054v3.699c0 1.049.011 2.076.054 3.071h1.644c2.358 0 3.807-.097 4.337-.28a.44.44 0 0 0 .195-.13c.087-.12.162-.357.238-.725l.281-1.504.13-.14h.736z" class="fil5" fill="#0372b4" fill-rule="nonzero"/>
    </g>
    <path d="M89.133 9.145v-1.2h4.294v1.2h-.346c-.011-.346-.098-.563-.25-.66-.15-.108-.356-.151-.605-.151h-.508v3.504c0 .173.01.281.054.335a.545.545 0 0 0 .151.108c.065.033.228.054.487.076v.303h-2.304v-.303c.314-.022.52-.076.606-.162.097-.087.151-.217.151-.4V8.334h-.519c-.367 0-.605.064-.703.216-.108.14-.151.335-.151.595zm6.479-1.2l1.384 3.255 1.384-3.256h1.569v.292h-.217a.647.647 0 0 0-.249.033c-.043.021-.064.054-.086.097-.01.043-.01.13-.01.281v3.148c0 .26.02.41.086.454.065.054.227.086.476.108v.303h-2.034v-.303c.227 0 .379-.022.465-.076.087-.054.12-.216.12-.486V8.55l-1.688 4.11h-.119L94.92 8.55v3.32c0 .163.022.282.065.336a.23.23 0 0 0 .13.119c.065.01.184.021.39.032v.303h-1.526v-.303c.206-.01.357-.032.444-.065.086-.043.14-.184.14-.421V8.55a.71.71 0 0 0-.021-.206c0-.033-.033-.054-.076-.076a.557.557 0 0 0-.227-.032h-.162v-.293z" class="fil5" clip-rule="evenodd" fill="#0372b4" stroke-width=".011" image-rendering="optimizeQuality" shape-rendering="geometricPrecision" text-rendering="geometricPrecision"/>
</svg>
