<svg xmlns="http://www.w3.org/2000/svg" width="377.953" height="158.74" viewBox="0 0 100 42">
    <g stroke-width=".265">
        <path d="M14.838 40.134a1.637 1.637 0 0 1-.322-.106c-.033-.034-.03-.546.013-1.539.027-.64.031-.665.136-.748a.391.391 0 0 1 .17-.085c.034 0 .182.098.33.217.328.265.755.492 1.064.564.399.092.847-.019 1.08-.268.379-.407.402-.95.402-9.601 0-8.017-.017-8.536-.28-8.782-.115-.11-.37-.15-1.238-.198-.74-.04-.737-.038-.737-.583 0-.602-.026-.585.81-.546.836.039 5.678.04 6.297.001.618-.038.63-.029.651.494.014.363.008.399-.087.493-.092.092-.164.107-.765.154-.742.058-.894.11-.987.333-.145.346-.162.997-.194 7.398-.032 6.553-.033 6.574-.22 7.57-.277 1.482-1.07 2.78-2.381 3.898-1.362 1.162-2.647 1.62-3.742 1.334zm1.507-.113c.384-.104 1.16-.496 1.602-.81.446-.316 1.319-1.14 1.654-1.56.912-1.14 1.308-2.246 1.45-4.047.026-.337.044-2.647.044-5.812 0-4.987.034-6.936.133-7.575.083-.537.227-.625 1.147-.695.5-.039.663-.067.705-.12.065-.084.074-.772.01-.812-.024-.015-1.724-.028-3.778-.03-3.163-.004-3.74.005-3.773.057-.067.105-.048.718.024.79.044.045.208.073.531.093 1.202.073 1.375.117 1.502.384.163.344.172.72.19 8.012.024 9.177-.006 9.885-.431 10.32-.18.185-.336.261-.626.309-.459.074-.953-.099-1.533-.537-.18-.135-.346-.245-.372-.245a.314.314 0 0 0-.13.061c-.078.057-.086.138-.11 1.095-.014.57-.01 1.051.008 1.072.138.16 1.232.19 1.753.05zm53.812-4.731a73.782 73.782 0 0 0-.911-.148c-.322-.05-.617-.101-.656-.113-.19-.058-4.678-5.394-9.17-10.904l-1.43-1.754-.014 4.313c-.017 5.425.032 6.721.262 6.969.13.14.288.177.947.226.323.023.622.056.665.072.113.043.156.201.156.565 0 .29-.011.336-.111.436-.09.09-.138.106-.248.084-.257-.052-3.177-.077-4.065-.035-1.137.053-1.085.077-1.085-.51 0-.32.016-.446.064-.493.064-.064.234-.09.956-.141.214-.015.465-.058.558-.095.394-.158.396-.196.396-7.038 0-6.744-.004-6.817-.367-7.004-.078-.04-.372-.085-.769-.115-.39-.03-.681-.074-.74-.11-.091-.056-.098-.09-.098-.513 0-.4.01-.458.082-.497.055-.03.44-.032 1.139-.009.581.02 1.632.021 2.335.004.702-.017 1.3-.023 1.328-.012.028.01.116.11.196.223.49.68 2.587 3.357 3.765 4.802 1.975 2.422 5.69 6.777 5.788 6.785.02.002.028-2.07.017-4.606-.024-5.513-.041-5.78-.369-5.949-.079-.04-.382-.086-.795-.12-.85-.07-.863-.079-.863-.62 0-.32.013-.383.092-.463.088-.088.118-.09.66-.06.71.039 3.227.04 4.015 0 .78-.038.768-.046.753.529-.014.552-.018.556-.67.598-.69.044-.943.092-1.057.2-.27.253-.298.938-.292 7.154.005 4.735.047 7.409.127 8.031.022.168.011.217-.066.293-.102.103-.08.102-.525.025zm.473-.08c.037-.045.036-.262-.005-.878-.08-1.206-.079-13.163.002-13.832.099-.825.184-.9 1.111-.975.307-.025.593-.045.635-.045.164 0 .214-.118.214-.5 0-.226-.019-.374-.05-.393-.065-.04-5.214-.04-5.28 0-.07.044-.066.781.005.84.03.025.346.067.702.095 1.077.083 1.106.114 1.203 1.281.073.868.082 9.572.01 9.595-.072.025-2.406-2.655-4.449-5.109a192.505 192.505 0 0 1-5.006-6.281l-.344-.45h-2.38c-1.988-.001-2.385.008-2.417.059-.067.105-.048.718.024.79.043.043.205.075.488.094 1.23.087 1.31.146 1.404 1.063.072.703.107 10.027.042 11.43-.058 1.272-.102 1.56-.262 1.72-.153.153-.333.196-1.039.247-.699.05-.697.049-.697.533 0 .455.037.49.474.457.732-.058 2.649-.076 3.667-.035.689.028 1.112.028 1.16.002.066-.035.078-.101.078-.425 0-.285-.016-.397-.064-.437-.035-.029-.292-.07-.575-.09-1.197-.09-1.224-.115-1.32-1.234-.078-.916-.083-10.454-.005-10.454.029 0 .81.928 1.735 2.061 3.82 4.683 7.964 9.631 8.812 10.525.06.064.182.109.383.142.163.026.579.094.925.152.768.127.758.126.82.052zm-68.535-.186c-.14-.051-.174-.16-.174-.558 0-.532-.008-.526.761-.584.679-.052.886-.095.985-.206.213-.238.25-1.004.278-5.629.024-4.027-.022-7.063-.117-7.743-.049-.347-.133-.509-.311-.596-.061-.03-.41-.078-.775-.107-.836-.065-.82-.054-.82-.613 0-.332.013-.417.075-.471.066-.058.287-.063 1.746-.038.919.015 3.476.012 5.682-.008 2.206-.02 4.055-.026 4.107-.013a.188.188 0 0 1 .123.11c.015.046-.013.431-.06.856-.048.424-.12 1.172-.16 1.661-.046.58-.092.923-.132.987-.056.09-.095.097-.446.097-.3 0-.397-.015-.442-.07-.04-.047-.069-.288-.091-.748-.042-.837-.098-1.09-.263-1.168-.395-.19-1.741-.292-3.347-.255-.618.014-1.142.044-1.165.066-.083.084-.126 1.17-.133 3.412l-.007 2.299 1.475.013c1.682.015 2.148-.008 2.28-.116.12-.096.203-.47.24-1.067.037-.632.071-.674.54-.674.255 0 .357.018.428.076l.093.076v2.516c0 2.323-.006 2.52-.075 2.57-.046.034-.222.055-.471.055-.531 0-.522.013-.557-.774-.017-.363-.053-.68-.088-.763-.122-.292-.492-.437-1.284-.503-.56-.046-2.351-.056-2.51-.014l-.104.028.025 2.629c.024 2.607.066 3.487.18 3.76.115.274.097.27 1.665.392.443.034.484.081.484.56 0 .34-.01.38-.11.482-.11.11-.116.11-.597.08-.647-.038-6.567-.05-6.733-.013a.448.448 0 0 1-.195.006zm2.971-.116c1.17.002 2.645.018 3.28.035 1.38.038 1.297.068 1.297-.473 0-.26-.018-.375-.062-.412-.064-.053-.101-.057-1.125-.134-.363-.027-.651-.07-.726-.11-.266-.137-.321-.426-.386-2.014-.055-1.364-.056-4.642-.001-4.729.035-.055.232-.064 1.354-.062 1.473.002 1.87.044 2.269.236.38.182.41.255.47 1.099l.05.701.408.013c.225.007.427-.006.45-.03.025-.024.04-1.004.04-2.523-.002-2.009-.013-2.49-.06-2.52-.093-.058-.713-.045-.762.017-.024.03-.057.26-.074.51-.04.618-.131 1.005-.264 1.13-.144.135-.58.167-2.365.17-1.123 0-1.429-.01-1.493-.058-.077-.056-.08-.148-.051-2.266.028-2.218.084-3.474.158-3.547.07-.07 1.3-.12 2.3-.094 1.512.042 2.217.14 2.417.34.127.126.182.427.215 1.191.017.373.047.635.076.66.083.068.672.067.74-.003.042-.042.082-.32.129-.885.038-.453.11-1.2.16-1.658.05-.46.08-.862.067-.895-.02-.051-.896-.058-5.785-.043l-5.763.018-.012.404c-.009.289.004.417.044.45.03.025.348.068.706.095.738.057.911.116 1.028.352.168.34.178.662.196 6.33.022 6.703 0 7.247-.307 7.533-.161.15-.227.164-1.08.232-.281.022-.53.052-.553.066-.065.04-.055.817.011.883.041.042.153.047.466.02.227-.019 1.369-.032 2.538-.03zm26.44.115c-.113-.04-.174-.154-.174-.328 0-.245.05-.308.45-.574.453-.302.55-.405.597-.638.104-.505.162-8.595.082-11.4-.056-1.955-.102-2.229-.4-2.375-.061-.03-.41-.078-.776-.107-.835-.065-.82-.054-.82-.613 0-.331.014-.418.076-.473.067-.06.275-.064 1.898-.034 1.002.02 2.124.028 2.494.019.37-.01 1.167-.025 1.771-.036 1.337-.022 1.265-.053 1.265.537 0 .541.01.535-.855.603-.99.078-1.005.092-1.1 1.013-.062.584-.105 10.775-.052 12.072l.034.824.997.013c1.749.024 3.815-.074 4.485-.212.407-.083.46-.203.725-1.623.153-.818.174-.846.647-.846.292 0 .34.012.436.108.073.072.101.14.087.206-.092.44-.19 1.655-.221 2.723-.014.489-.034.93-.044.98a.22.22 0 0 1-.116.134c-.067.03-1.454.031-4.307.004-3.72-.036-6.894-.023-7.058.029a.225.225 0 0 1-.121-.006zm1.562-.122c.536-.014 2.974-.004 5.417.021 3.029.031 4.458.032 4.495.001.037-.03.062-.311.083-.922.031-.906.12-2.081.2-2.64.04-.285.037-.326-.03-.374-.106-.078-.685-.073-.764.006-.033.034-.141.466-.24.96-.193.973-.3 1.263-.5 1.358-.189.09-.72.17-1.46.22-1 .066-4.216.105-4.295.051-.106-.072-.136-1.978-.115-7.422.022-5.615.048-6.174.303-6.412.15-.142.287-.174.97-.226.353-.028.667-.07.697-.095.068-.056.075-.796.007-.838-.025-.016-1.67-.03-3.654-.03h-3.609l-.012.41c-.009.295.003.424.043.457.031.025.349.068.707.096.743.056.914.115 1.028.348.168.347.178.663.196 6.376.017 5.62-.01 7.135-.13 7.424-.045.108-.173.226-.464.43-.522.365-.522.364-.522.579 0 .258.054.295.39.268.156-.012.722-.033 1.259-.046zm12.157.086c-.09-.063-.098-.103-.098-.494 0-.56-.01-.551.739-.61 1.077-.084 1.081-.087 1.179-.899.08-.672.081-11.896.001-12.524-.096-.746-.142-.783-1.075-.855-.395-.03-.686-.073-.746-.11-.09-.056-.097-.091-.097-.49 0-.323.016-.446.064-.494.066-.066.575-.068 2.929-.012.37.009 1.492.001 2.494-.017 1.096-.02 1.852-.017 1.898.007.065.034.076.105.076.493 0 .423-.007.457-.098.513-.06.036-.35.08-.74.11-.726.056-.872.106-.967.336-.153.366-.169.99-.169 6.805 0 6.817.002 6.859.396 7.016.093.037.344.08.558.095.722.052.892.077.956.14.048.048.064.174.064.494 0 .587.065.56-1.171.509-.985-.04-5.847-.015-6.008.032-.048.013-.131-.007-.185-.045zm3.676-.082c1.539 0 2.957.015 3.15.034.463.043.494.015.494-.445 0-.484.002-.483-.697-.533-.667-.048-.851-.087-1.01-.212-.293-.23-.31-.62-.31-7.003 0-5.773.02-6.493.186-6.83.145-.292.315-.347 1.279-.415.283-.02.445-.05.488-.093.077-.078.092-.773.017-.82-.025-.015-1.667-.028-3.649-.028-2.984 0-3.61.01-3.64.059-.042.067-.05.573-.012.719.034.124.058.13.767.184.747.058.923.121 1.033.37.175.395.19.97.19 6.854 0 6.423-.01 6.695-.29 6.993-.112.12-.38.176-1.074.226-.445.032-.55.053-.6.119-.084.113-.057.782.034.841.04.026.218.03.456.011.214-.017 1.65-.031 3.188-.03zm26.135.053c-.106-.084-.115-.113-.096-.312.016-.168.046-.239.124-.295l.425-.304c.45-.321.472-.36.524-.924.025-.267.056-2.575.071-5.227.032-5.611-.018-7.586-.204-7.993-.089-.195-.242-.242-.975-.3-.862-.068-.844-.054-.844-.615 0-.332.014-.418.076-.472.067-.058.288-.063 1.79-.038.942.016 3.626.013 5.964-.007 2.873-.024 4.283-.021 4.349.008.126.057.125.113-.01 1.321a58.424 58.424 0 0 0-.154 1.589c-.06.785-.057.78-.545.78-.26 0-.376-.017-.423-.064-.07-.07-.098-.304-.134-1.095-.026-.56-.094-.772-.27-.839-.408-.155-2.345-.28-3.724-.242-.549.015-1.07.04-1.157.055-.152.025-.16.036-.185.228-.058.446-.11 2.247-.11 3.808v1.656l.27.029c.15.016 1.023.022 1.942.014 1.817-.015 1.87-.022 1.985-.262.053-.11.106-.474.165-1.133.037-.413.094-.463.531-.463.56 0 .506-.28.51 2.632.002 2.146-.006 2.52-.06 2.585-.053.062-.136.075-.46.075-.216 0-.415-.015-.441-.033-.108-.071-.148-.242-.148-.625 0-.453-.063-.91-.142-1.036-.076-.122-.297-.214-.698-.29-.27-.051-.695-.068-1.828-.071-.81-.003-1.509.01-1.55.026-.072.03-.076.185-.071 2.451.003 1.331.017 2.762.032 3.179l.028.76 1.843-.007c2.399-.009 3.633-.101 3.928-.295.134-.088.213-.35.408-1.353.199-1.023.193-1.014.677-1.014.267 0 .336.016.431.098.111.095.113.104.07.38-.083.517-.175 1.703-.205 2.636-.02.627-.047.946-.084.997-.05.069-.266.072-3.171.053-4.197-.028-8.031-.022-8.2.012-.103.022-.165.006-.254-.063zm1.65-.057c.5-.014 2.919-.004 5.374.021 3.115.032 4.479.032 4.517 0 .038-.031.063-.259.082-.727.041-1.073.11-2.069.18-2.627.051-.393.054-.528.016-.575-.08-.096-.7-.084-.788.015-.04.045-.14.446-.244.973-.185.943-.262 1.17-.44 1.3-.139.1-.721.197-1.518.25-.94.064-4.217.104-4.292.053-.079-.054-.125-1.666-.13-4.501-.003-1.77.004-1.963.069-2.017.058-.048.352-.06 1.507-.058 1.716.002 2.247.062 2.588.292.196.132.256.35.287 1.051.014.31.044.599.066.641.035.068.093.076.46.065l.42-.012.007-2.494c.005-1.65-.008-2.513-.037-2.549-.07-.083-.702-.073-.773.013-.032.038-.072.27-.092.532-.043.55-.109.905-.193 1.037-.121.191-.306.208-2.299.208-1.52 0-1.883-.011-1.941-.06-.064-.053-.072-.214-.071-1.518.001-2.033.084-4.113.17-4.252.019-.032.37-.066.981-.097 1.39-.07 3.49.044 4.108.223a.35.35 0 0 1 .225.169c.083.158.154.743.154 1.253 0 .563.008.573.453.573.305 0 .367-.012.392-.076.016-.042.058-.427.094-.857s.112-1.171.168-1.648c.066-.564.087-.883.059-.911-.028-.029-2.101-.044-6.048-.044-4.96 0-6.009.01-6.027.058-.048.124-.022.778.032.822.03.025.347.067.705.095.72.055.904.114 1.026.327.17.297.18.616.198 6.528.018 6.015-.004 7.095-.15 7.343-.043.074-.243.248-.446.388-.528.364-.52.355-.52.567 0 .268.05.3.434.273.179-.013.735-.034 1.236-.047zm11.838-17.174c-.038-.1-.002-.252.07-.29a.982.982 0 0 1 .227-.06.673.673 0 0 0 .282-.13l.12-.102.012-1.7c.01-1.318.002-1.713-.041-1.764-.045-.054-.12-.06-.425-.035-.204.017-.426.059-.494.094-.127.065-.245.285-.246.457-.002.161-.069.225-.238.225-.09 0-.175-.027-.198-.063-.022-.035-.04-.29-.04-.57 0-.403.013-.52.067-.574.06-.06.306-.068 2.042-.068 1.277 0 2.003.015 2.057.044.077.041.084.096.084.609v.563l-.118.045c-.179.068-.305-.008-.34-.207-.076-.417-.246-.531-.812-.546l-.356-.01-.012 1.748c-.007 1.136.005 1.778.034 1.832.04.076.172.128.49.194.11.023.12.04.108.186l-.013.161-1.118.012c-.942.01-1.122.002-1.142-.051zm2.186-.118c.012-.105-.002-.116-.185-.144a.733.733 0 0 1-.317-.131l-.118-.102v-3.63l.412-.012c.325-.009.443.005.56.066a.636.636 0 0 1 .346.47c.029.175.125.265.239.221.063-.024.07-.096.06-.56l-.012-.532H87.66l-.013.528c-.01.486-.005.53.07.554.126.04.225-.018.225-.131 0-.057.032-.184.071-.283.105-.26.304-.34.85-.342h.423v1.754c0 1.268-.014 1.787-.051 1.869-.06.13-.205.216-.442.26-.17.032-.229.102-.185.217.022.056.167.064 1.057.054l1.031-.012zm1.557.151c-.049-.049-.034-.254.022-.31.029-.029.105-.052.169-.052a.41.41 0 0 0 .219-.083l.102-.083v-1.8c0-.99-.015-1.816-.033-1.834a.607.607 0 0 0-.217-.058c-.164-.022-.185-.038-.198-.153-.024-.212.064-.24.757-.24.34 0 .664.017.719.038.08.032.22.319.723 1.497.342.802.638 1.458.656 1.458.019 0 .073-.093.121-.206l.618-1.455c.325-.765.56-1.264.609-1.29.084-.045 1.257-.058 1.414-.016.11.03.159.17.098.284-.029.055-.091.08-.196.08-.084 0-.19.02-.237.045-.08.043-.084.11-.084 1.84 0 2.006-.015 1.908.309 1.96.194.03.272.131.23.298l-.028.11-1.004-.012-1.003-.012-.014-.121c-.019-.163.06-.247.228-.247a.444.444 0 0 0 .222-.062c.08-.058.085-.134.095-1.637.006-.946-.005-1.55-.029-1.511-.021.035-.355.836-.742 1.778-.386.943-.722 1.738-.746 1.768-.078.096-.19.058-.258-.087-.037-.077-.384-.883-.772-1.79-.388-.906-.723-1.667-.745-1.69-.025-.027-.036.56-.028 1.532.012 1.502.016 1.579.097 1.637a.444.444 0 0 0 .222.062c.169 0 .247.084.228.247l-.014.121-.74.012c-.407.007-.753-.001-.77-.018zm1.423-.144c0-.09-.027-.112-.179-.142-.352-.07-.34-.006-.354-1.844-.012-1.523.004-1.791.101-1.694.023.023.453 1.01 1.286 2.952.192.447.373.813.402.813.029 0 .4-.85.827-1.887.426-1.039.796-1.881.821-1.873.031.01.046.541.046 1.666 0 1.866.013 1.796-.341 1.866-.187.037-.267.16-.151.233.032.02.441.038.91.038.701 0 .86-.01.905-.064.085-.102.023-.18-.185-.232-.106-.027-.22-.081-.253-.121-.05-.059-.063-.412-.073-1.86-.015-2.031-.029-1.946.338-2.008.154-.026.195-.05.195-.118 0-.082-.032-.086-.716-.086h-.716l-.099.195c-.054.108-.347.781-.65 1.497-.344.81-.577 1.305-.617 1.312-.047.008-.23-.377-.668-1.41a44.953 44.953 0 0 0-.663-1.52c-.06-.096-.074-.098-.742-.086-.656.012-.682.015-.695.104-.01.075.015.096.145.117.296.048.28-.062.28 1.965 0 1.776-.003 1.842-.086 1.925a.557.557 0 0 1-.26.114c-.142.022-.174.045-.174.123 0 .053.013.11.03.126.016.016.324.025.683.018l.653-.012z" fill="#a4cff3"/>
        <path d="M14.856 40.068c-.127-.032-.246-.076-.264-.097-.018-.02-.022-.503-.008-1.072.024-.957.032-1.038.11-1.095a.314.314 0 0 1 .13-.061c.026 0 .193.11.372.245.58.438 1.074.611 1.533.537.29-.048.445-.124.626-.31.425-.434.455-1.142.431-10.32-.018-7.291-.027-7.667-.19-8.011-.127-.267-.3-.311-1.502-.384-.323-.02-.487-.048-.531-.092-.072-.073-.091-.686-.024-.791.033-.052.61-.06 3.773-.058 2.054.003 3.754.016 3.778.031.064.04.055.728-.01.812-.042.053-.205.081-.705.12-.92.07-1.064.158-1.147.695-.099.639-.133 2.588-.133 7.575 0 3.165-.018 5.475-.044 5.812-.142 1.801-.538 2.907-1.45 4.048-.335.42-1.208 1.243-1.654 1.559-.442.314-1.218.706-1.602.81-.357.096-1.193.122-1.489.047zm54.954-4.91c-.346-.058-.762-.126-.924-.152-.202-.033-.323-.078-.384-.142-.848-.894-4.99-5.842-8.812-10.525-.925-1.133-1.706-2.061-1.735-2.061-.078 0-.073 9.538.006 10.454.096 1.119.123 1.144 1.32 1.233.282.021.54.062.575.091.047.04.063.152.063.437 0 .324-.012.39-.077.425-.049.026-.472.026-1.16-.002-1.019-.04-2.936-.023-3.667.035-.438.034-.475-.002-.475-.457 0-.484-.001-.483.697-.533.706-.051.887-.094 1.04-.247.16-.16.203-.448.262-1.72.064-1.403.03-10.727-.043-11.43-.094-.917-.173-.976-1.403-1.063-.283-.02-.446-.05-.489-.093-.072-.073-.09-.686-.024-.791.032-.05.429-.06 2.418-.06h2.38l.344.451a192.527 192.527 0 0 0 5.005 6.281c2.043 2.454 4.377 5.134 4.45 5.11.071-.024.062-8.728-.01-9.596-.097-1.167-.126-1.198-1.204-1.281-.356-.028-.672-.07-.702-.095-.071-.059-.075-.796-.004-.84.065-.04 5.214-.04 5.28 0 .03.019.05.167.05.394 0 .381-.051.499-.214.499-.043 0-.329.02-.635.045-.927.076-1.013.15-1.112.975-.08.669-.08 12.626-.001 13.832.056.851.045.943-.116.934a20.456 20.456 0 0 1-.7-.108zm-67.748-.24c-.066-.067-.076-.844-.011-.884.023-.014.272-.044.553-.066.853-.068.919-.082 1.08-.232.307-.286.33-.83.308-7.532-.019-5.669-.029-5.991-.197-6.33-.117-.237-.29-.296-1.028-.353-.358-.027-.676-.07-.706-.095-.04-.033-.053-.161-.044-.45l.013-.404 5.762-.018c4.89-.015 5.765-.008 5.785.043.013.033-.018.436-.068.895-.05.458-.121 1.205-.159 1.658-.047.565-.087.843-.128.885-.069.07-.658.071-.74.002-.03-.024-.06-.286-.077-.659-.033-.764-.088-1.065-.215-1.191-.2-.2-.905-.298-2.417-.34-.999-.027-2.23.023-2.3.094-.074.073-.13 1.329-.158 3.547-.028 2.118-.026 2.21.051 2.266.064.047.37.059 1.493.057 1.785-.002 2.22-.034 2.365-.17.133-.124.224-.511.265-1.129.016-.25.05-.48.073-.51.05-.062.67-.075.762-.016.047.03.058.51.06 2.519.001 1.519-.015 2.499-.04 2.524-.023.023-.225.036-.45.029l-.408-.013-.05-.701c-.06-.844-.09-.917-.47-1.1-.4-.191-.795-.233-2.268-.235-1.123-.002-1.32.007-1.355.062-.055.087-.054 3.365.001 4.729.065 1.588.12 1.877.386 2.015.075.038.363.082.726.109 1.024.077 1.061.081 1.125.134.045.037.062.152.062.412 0 .54.082.51-1.298.473-1.621-.043-5.323-.047-5.816-.006-.313.027-.425.022-.467-.02zm29.41-.002c-.072-.073-.067-.407.007-.478a8.37 8.37 0 0 1 .462-.338c.291-.204.419-.322.464-.43.12-.289.147-1.805.13-7.424-.018-5.713-.028-6.03-.196-6.376-.114-.233-.285-.292-1.028-.348-.358-.028-.676-.07-.707-.096-.04-.033-.052-.162-.043-.457l.012-.41h3.609c1.984 0 3.629.014 3.654.03.068.042.061.782-.008.838-.03.025-.343.067-.697.095-.682.052-.819.084-.97.226-.254.238-.28.797-.302 6.412-.021 5.444.008 7.35.115 7.422.08.054 3.295.015 4.294-.052.742-.05 1.272-.13 1.46-.219.201-.095.308-.385.502-1.358.098-.494.206-.926.24-.96.078-.079.657-.084.763-.006.066.048.07.09.03.373-.08.56-.169 1.735-.2 2.64-.02.612-.046.892-.084.923-.036.03-1.465.03-4.494 0-4.054-.043-5.913-.035-6.676.024-.193.016-.3.006-.336-.031zm13.785.01c-.091-.06-.118-.73-.033-.842.05-.066.154-.087.6-.119.693-.05.96-.106 1.073-.226.28-.298.29-.57.29-6.993 0-5.885-.015-6.459-.19-6.854-.11-.249-.286-.312-1.033-.37-.71-.055-.733-.06-.767-.185-.039-.145-.03-.652.012-.718.03-.05.656-.06 3.64-.06 1.982 0 3.624.014 3.65.03.074.046.06.741-.018.819-.043.042-.205.074-.488.093-.964.068-1.134.123-1.279.416-.166.336-.186 1.056-.186 6.829 0 6.382.017 6.773.31 7.003.159.125.343.163 1.01.212.699.05.697.049.697.533 0 .46-.031.488-.494.444-.45-.042-5.822-.043-6.338-.002-.238.02-.416.015-.456-.01zm29.813-.01c-.084-.083-.069-.416.021-.491.042-.035.242-.178.444-.317.203-.14.404-.314.446-.388.146-.249.168-1.328.15-7.343-.017-5.912-.027-6.231-.197-6.528-.123-.213-.308-.272-1.027-.328-.358-.027-.675-.07-.705-.094-.054-.044-.08-.698-.032-.822.018-.048 1.067-.058 6.028-.058 3.946 0 6.02.015 6.047.044.028.028.007.347-.06.91a60.767 60.767 0 0 0-.167 1.649c-.036.43-.078.815-.094.857-.025.064-.087.076-.392.076-.445 0-.453-.01-.453-.573 0-.51-.071-1.095-.154-1.254a.35.35 0 0 0-.225-.168c-.618-.179-2.717-.293-4.107-.223-.611.03-.963.065-.982.097-.086.139-.17 2.22-.17 4.252 0 1.304.007 1.465.07 1.518.06.049.421.06 1.942.06 1.993 0 2.178-.017 2.3-.208.084-.132.15-.488.192-1.038.02-.262.06-.493.092-.53.071-.087.704-.097.773-.014.03.036.042.899.038 2.549l-.007 2.494-.42.012c-.368.011-.426.003-.461-.065-.022-.042-.051-.33-.065-.641-.047-1.037-.134-1.14-1.094-1.288-.515-.08-3.192-.077-3.289.003-.065.054-.071.247-.069 2.017.005 2.835.052 4.447.13 4.501.075.051 3.352.011 4.292-.052.797-.054 1.38-.15 1.518-.251.178-.13.255-.357.44-1.3.104-.527.204-.928.244-.973.088-.1.708-.111.788-.015.039.047.035.182-.015.575-.071.558-.14 1.554-.181 2.627-.018.468-.044.696-.082.727-.038.032-1.402.032-4.517 0-4.09-.042-5.736-.035-6.61.026-.23.016-.342.006-.38-.032zM88.61 17.68c-.045-.114.015-.184.184-.215.237-.045.382-.13.441-.261.038-.082.052-.6.052-1.869V13.58l-.423.001c-.546.002-.745.082-.85.342-.04.099-.071.226-.071.283 0 .113-.099.171-.225.131-.075-.024-.08-.068-.07-.554l.013-.528h4.034l.012.532c.01.464.003.536-.06.56-.114.044-.21-.046-.239-.221a.636.636 0 0 0-.345-.47c-.118-.061-.236-.075-.561-.066l-.412.012v3.63l.118.102a.733.733 0 0 0 .317.131c.183.028.197.04.185.144l-.013.114-1.031.012c-.89.01-1.035.002-1.057-.054zm3.744.037c-.017-.017-.03-.073-.03-.126 0-.078.032-.1.174-.123a.557.557 0 0 0 .26-.114c.083-.084.086-.149.086-1.925 0-2.027.016-1.917-.28-1.965-.13-.021-.156-.042-.145-.117.013-.089.039-.092.695-.104.668-.012.682-.01.742.087.033.054.332.738.663 1.52.438 1.032.62 1.417.668 1.409.04-.007.273-.502.617-1.312.303-.716.596-1.39.65-1.497l.1-.195h.715c.684 0 .716.004.716.086 0 .067-.041.092-.195.118-.367.062-.353-.023-.338 2.009.01 1.447.024 1.8.073 1.859.033.04.147.094.253.121.208.052.27.13.185.232-.044.053-.204.065-.905.064-.469 0-.878-.017-.91-.038-.116-.073-.036-.196.15-.233.355-.07.342 0 .342-1.866 0-1.125-.015-1.656-.046-1.666-.025-.008-.395.834-.82 1.872-.427 1.039-.8 1.888-.828 1.888-.03 0-.21-.366-.402-.813-.833-1.942-1.263-2.929-1.286-2.952-.097-.097-.113.171-.101 1.694.014 1.838.002 1.774.354 1.843.152.03.18.052.18.143v.107l-.654.012c-.36.007-.667-.002-.683-.018z" fill="#1383f0"/>
    </g>
</svg>
