<svg xmlns="http://www.w3.org/2000/svg" width="44" height="44" viewBox="0 0 44 44">
    <path d="M21.662 37.61c-.358-.193-3.867-2.586-3.988-2.72-.118-.13-.124-.233-.14-2.476-.014-2.135-.006-2.36.093-2.555.103-.204.218-.262 2.287-1.15 1.198-.515 2.242-.936 2.32-.936.36 0 .686.345.686.728 0 .38-.186.496-2.147 1.335l-1.841.788v3.517l1.483.999c.816.549 1.516.998 1.557.998.04 0 .752-.494 1.582-1.099l1.51-1.1.017-3.6c.018-3.544.02-3.604.146-3.774.257-.346.747-.37 1.067-.05l.155.156.019 3.788c.012 2.585-.003 3.86-.048 4.014-.06.205-.252.363-1.955 1.605a97.47 97.47 0 0 1-2.1 1.506c-.251.153-.452.16-.702.025zm-3.91-9.341l-.2-.18-.02-1.247c-.022-1.376.018-1.636.281-1.816.092-.063 1.903-.854 4.024-1.758 4.197-1.789 4.078-1.75 4.42-1.409.216.216.233.362.211 1.755l-.02 1.21-.183.18c-.261.254-7.742 3.443-8.077 3.443-.174 0-.289-.047-.437-.178zm4.36-2.89l2.954-1.258.001-.36c.001-.316-.011-.354-.106-.32-.06.022-1.44.61-3.068 1.307l-2.961 1.266v.356c0 .32.011.35.113.311.062-.024 1.442-.61 3.067-1.302zm-4.204-1.385c-.346-.175-.388-.36-.388-1.714 0-1.405.036-1.544.451-1.743.14-.068 1.909-.828 3.93-1.69 2.677-1.142 3.738-1.568 3.91-1.568.175 0 .29.047.438.18l.2.178.019 1.288c.021 1.49-.012 1.645-.398 1.841-.5.255-7.609 3.263-7.783 3.294a.666.666 0 0 1-.379-.066zm4.2-3.015l2.96-1.265v-.362c0-.199-.02-.351-.046-.338-.025.013-1.405.602-3.067 1.308l-3.021 1.283-.001.36c-.001.317.012.354.106.319.06-.022 1.44-.61 3.069-1.305zm-4.274-1.652c-.308-.216-.314-.277-.314-3.666v-3.157l-3.114-2.483c-1.713-1.366-3.164-2.539-3.224-2.606-.162-.181-.198-.513-.08-.741.204-.395-.004-.379 5.037-.379 4.947 0 4.864-.005 5.081.327.09.137.105.336.105 1.42v1.26h1.35v-1.26c0-1.084.015-1.283.105-1.42.217-.332.134-.327 5.081-.327 5.041 0 4.833-.016 5.037.379.118.228.082.56-.08.74-.06.068-1.51 1.24-3.221 2.605l-3.112 2.48-.018 1.653-.018 1.652-.184.177c-.225.215-4.748 2.165-5.044 2.175-.4.013-.694-.287-.694-.705.001-.4.13-.478 2.393-1.448l2.117-.908.031-1.573c.029-1.454.04-1.585.154-1.728.067-.085 1.24-1.047 2.608-2.137l2.485-1.981-3.068-.016c-1.688-.01-3.103-.003-3.145.013-.058.022-.077.333-.077 1.262 0 1.84.07 1.778-2.025 1.778-2.095 0-2.025.062-2.025-1.778 0-.93-.019-1.24-.077-1.262-.042-.016-1.457-.022-3.145-.013l-3.068.016 2.561 2.047c2.264 1.809 2.568 2.072 2.623 2.27.068.245.089 6.44.023 6.84-.058.347-.33.594-.657.594-.142 0-.322-.045-.4-.1z" fill="#c7cb14" stroke-width=".061"/>
</svg>
