<svg xmlns="http://www.w3.org/2000/svg" width="377.953" height="158.74" viewBox="0 0 100 42">
    <path d="M15.88 40.112c-1.687-.369-3.148-2.025-3.901-4.424-.31-.99-.34-1.246-.346-3.116-.008-2.072.057-2.537.573-4.134.437-1.353.725-1.917 1.007-1.974.144-.029 8.464-.073 18.49-.097 15.4-.037 18.237-.018 18.292.121.036.091-.053.553-.197 1.028-.643 2.115-.81 5.044-.399 6.982.42 1.98 1.431 3.61 2.677 4.32 1.197.682.268.65 18.802.647 9.403-.002 17.185.03 17.294.07.298.112.243.513-.08.586-.589.133-71.604.125-72.212-.009zm72.243-.17c.164-.106.164-.133 0-.243-.127-.086-5.386-.105-16.744-.062-10.775.041-16.864.021-17.431-.057-1.202-.166-1.885-.49-2.728-1.29-1.389-1.321-2.044-3.075-2.145-5.74-.07-1.886.06-3.074.53-4.82.167-.62.273-1.157.235-1.194-.094-.09-35.462-.003-36.239.09l-.613.074-.336.839c-.702 1.756-.892 2.82-.888 4.973.004 1.631.05 2.138.263 2.893.57 2.011 1.741 3.613 3.138 4.292l.753.366 36.01-.002c23.423-.001 36.075-.043 36.195-.12zm-57.448-1.149c-2.23-.445-3.846-1.985-4.303-4.1-.196-.906-.17-2.729.052-3.555.397-1.483 1.408-2.748 2.675-3.348.986-.466 2.43-.715 3.627-.626 3.621.27 5.467 2.258 5.467 5.888 0 2.316-.723 3.876-2.28 4.918-1.277.855-3.403 1.19-5.238.823zm3.573-.247c2.48-.667 3.825-2.6 3.82-5.49-.004-2.224-.72-3.868-2.062-4.732-1.693-1.09-4.35-1.334-6.403-.587-2.039.741-3.245 2.683-3.245 5.223 0 2.529 1.007 4.355 2.893 5.247 1.233.582 3.516.737 4.997.34zm-3.023-2.365c-.57-.242-1.14-.957-1.366-1.714-.286-.958-.189-2.637.199-3.433.425-.872 1.037-1.218 2.156-1.218.75 0 .956.048 1.38.321.31.2.605.532.774.87.538 1.08.446 3.519-.166 4.415-.54.79-2.016 1.166-2.977.759zm1.975-.179c.271-.12.588-.324.704-.45.837-.917.94-3.63.182-4.74-.568-.83-1.867-1.154-2.858-.71-.915.407-1.27 1.072-1.38 2.577-.079 1.088.15 2.126.608 2.751.534.729 1.801.993 2.744.572zm-17.263 2.596c-.034-.084-.046-2.634-.029-5.666l.032-5.513h8.754V29.816l-2.59.06-2.588.06-.036.79c-.026.556.013.83.132.926.107.086.93.147 2.255.168l2.087.033v2.157l-2.114.033c-1.55.024-2.15.074-2.247.189-.081.095-.146.991-.167 2.304l-.034 2.149-1.697.033c-1.29.025-1.712-.004-1.758-.12zm3.366-2.182c.02-1.312.085-2.209.167-2.304.097-.114.696-.165 2.247-.189l2.114-.032v-1.918l-2.087-.033c-1.284-.02-2.15-.083-2.25-.164-.192-.155-.224-1.621-.042-1.9.098-.15.53-.18 2.618-.18h2.5v-2.157h-8.506l-.032 5.393c-.018 2.966-.005 5.462.028 5.546.046.116.444.146 1.635.12l1.574-.033zm20.92 2.18c-.033-.083-.045-2.632-.028-5.664l.032-5.513h3.452l.033 4.165c.018 2.29.045 4.175.061 4.188.016.014 1.25.054 2.742.09l2.712.066V38.685l-4.472.031c-3.512.025-4.485 0-4.532-.12zm8.88-1.29v-1.258l-2.606-.032c-1.973-.025-2.64-.071-2.741-.19-.09-.106-.146-1.504-.168-4.223l-.032-4.064-1.634-.034-1.633-.033v11.156l4.407-.032 4.408-.031zm3.515 1.441c-.16-.098-.187-.869-.2-5.6-.008-3.054.035-5.582.097-5.698.101-.191.382-.21 3.195-.21 3.62 0 4.396.117 5.434.818 1.664 1.123 2.475 3.575 2.08 6.284-.378 2.587-1.899 4.078-4.494 4.406-1.15.145-5.876.145-6.112 0zm7.027-.313c1.046-.301 1.511-.578 2.19-1.3.759-.807 1.092-1.612 1.258-3.037.38-3.26-.853-5.768-3.18-6.467-.593-.18-1.197-.211-3.967-.211h-3.267l-.032 5.565c-.025 4.37.001 5.587.123 5.665.086.056 1.515.074 3.177.04 2.286-.045 3.186-.107 3.698-.255zm-3.422-2.459c-.114-.115-.154-.874-.154-2.939 0-3.304-.046-3.187 1.206-3.08 1.098.093 1.675.409 2.03 1.11.244.48.277.73.274 2.046-.002 1.314-.037 1.56-.278 2.005-.157.288-.448.594-.675.709-.52.263-2.186.367-2.403.15zm2.263-.247c.546-.26.798-.712.938-1.681.162-1.126.037-2.324-.312-2.986-.363-.686-.898-.946-1.947-.946h-.82l-.085 1.229c-.09 1.309-.076 4.075.023 4.45.054.204.15.22.964.16.497-.036 1.055-.138 1.24-.226zm6.597 2.973c-.1-.118-.13-1.734-.108-5.783l.032-5.619 4.8-.031c3.758-.025 4.821.001 4.899.12.172.264.122 2.203-.062 2.35-.106.087-1.158.144-2.99.165l-2.825.033v1.438l2.678.032c2.497.03 2.687.048 2.806.263.138.252.06 2.033-.095 2.184-.052.051-1.286.107-2.742.125l-2.647.032v1.918l3.02.06 3.02.06.036 1.24c.023.813-.014 1.3-.107 1.409-.21.245-9.506.249-9.715.004zm9.634-.18c.056-.053.085-.605.065-1.225l-.035-1.128-3.02-.06-3.021-.06V33.89l2.712-.06 2.712-.06v-2.157l-2.712-.06-2.712-.06v-1.678l2.826-.032c1.878-.022 2.882-.078 2.994-.169.124-.1.159-.407.133-1.166l-.036-1.03h-9.492l-.033 5.5c-.02 3.497.013 5.55.09 5.641.143.167 9.356.13 9.53-.039zm2.175.15c-.22-.258-.253-11.102-.035-11.314.193-.188 7.829-.097 8.445.101a2.93 2.93 0 0 1 1.644 1.27c.303.476.38.744.417 1.44.024.469-.017 1.076-.093 1.348-.18.652-1.093 1.631-1.765 1.892-.553.216-.548.248.103.64.487.295 2.638 3.978 2.638 4.518 0 .16-.274.18-2.064.151l-2.065-.032-1.114-2.022c-.613-1.112-1.244-2.123-1.402-2.247-.324-.256-.942-.301-1.031-.076-.032.082-.058 1.085-.056 2.229.002 1.656-.032 2.1-.17 2.185-.095.059-.873.108-1.73.109-1.284 0-1.585-.032-1.722-.192zm2.492-.046h.967l.033-2.248.034-2.247.394-.037c.77-.072 1.008.18 2.256 2.393l1.173 2.079 1.839.033c1.011.018 1.885-.011 1.941-.066.056-.055-.327-.905-.852-1.89-.903-1.692-1.543-2.536-2.184-2.881-.216-.116-.16-.172.535-.532 1.214-.629 1.742-1.474 1.737-2.78-.005-1.342-.733-2.422-1.899-2.818-.547-.186-1.11-.212-4.509-.212h-3.883l-.032 5.594c-.036 6.302-.126 5.766.943 5.664.297-.029.976-.052 1.507-.052zm1.053-6.886c-.117-.296-.096-1.775.028-1.965.08-.123.417-.15 1.427-.12 1.224.039 1.34.063 1.563.332.363.436.276 1.285-.163 1.603-.475.343-2.732.462-2.855.15zm2.736-.273c.446-.322.518-1.08.135-1.417-.216-.19-.487-.24-1.475-.274l-1.21-.041-.041.913c-.023.501-.02.972.005 1.045.032.09.402.113 1.153.071.838-.046 1.186-.118 1.433-.297zm-68.842-5.795c-.123-.195.034-.295 1.116-.71a161.88 161.88 0 0 0 2.96-1.198c1.084-.45 3.997-1.638 6.472-2.64a1448.7 1448.7 0 0 0 5.3-2.154c.834-.345 3.4-1.387 7.83-3.178A19713.922 19713.922 0 0 0 56.5 8.304c5.082-2.066 5.44-2.199 5.638-2.084.158.091 3.741 2.925 7.182 5.678 1.03.824 2.694 2.146 3.698 2.937 1.824 1.436 4.853 3.848 7.645 6.086 1.747 1.4 2.747 2.2 4.007 3.206 1.455 1.162 1.635 1.331 1.523 1.438-.058.055-7.068.131-15.577.17-17.443.077-15.946.154-16.81-.865-.685-.807-.972-1.699-.923-2.862.065-1.539-.064-1.48 3.303-1.48 3.026 0 3.086.012 3.09.653.01 1.269 1.561 2.594 3.445 2.941 2.28.42 4.442-.218 5.914-1.747.878-.913 1.248-1.763 1.334-3.064.153-2.326-1.002-4.771-3.709-7.85-1.386-1.576-4.216-4.11-4.595-4.114-.143-.001-1.967.78-4.054 1.735-2.086.956-3.81 1.738-3.83 1.738-.02 0-.803.356-1.74.792-.938.436-1.983.915-2.322 1.064-.339.15-1.143.515-1.787.813-.645.298-3.751 1.715-6.904 3.148a2193.33 2193.33 0 0 0-11.22 5.119c-1.796.825-3.738 1.714-4.314 1.975-.576.262-1.828.834-2.78 1.273l-1.733.797h-3.284c-2.232 0-3.31-.042-3.367-.13zm7.06-.219c.325-.126 1.691-.746 3.036-1.378 1.346-.632 2.464-1.15 2.485-1.15.022 0 1.14-.506 2.486-1.124 1.345-.618 4.305-1.973 6.576-3.01 2.272-1.037 5.045-2.305 6.164-2.818 1.119-.514 2.811-1.284 3.76-1.712.95-.427 2.697-1.22 3.884-1.762 1.186-.542 2.906-1.324 3.822-1.737.915-.414 2.801-1.275 4.191-1.915 1.39-.64 2.846-1.3 3.235-1.467l.708-.305.463.34c.765.563 4.51 4.25 5.11 5.032 2.082 2.716 2.896 4.722 2.79 6.882-.046.923-.11 1.173-.51 1.957-1.182 2.327-3.975 3.506-7.002 2.957-1.824-.33-3.438-1.733-3.438-2.986 0-.588-.103-.609-2.952-.607-1.462.001-2.723.043-2.803.093-.46.283-.545 1.811-.162 2.87.288.797.78 1.433 1.369 1.768.413.235.63.238 15.89.2 8.51-.022 15.498-.064 15.53-.094.06-.06.003-.109-1.743-1.5A5079.107 5079.107 0 0 0 67.295 10.46c-.462-.363-1.711-1.361-2.777-2.218-2.786-2.24-2.305-2.088-4.2-1.33-2.359.944-6.288 2.533-9.365 3.787-2.778 1.132-5.82 2.362-8.876 3.59-.95.382-3.28 1.326-5.178 2.1-1.899.773-5.949 2.42-9 3.658a97697.291 97697.291 0 0 0-12.861 5.222c-.824.334-.308.411 2.754.411 2.674 0 3.075-.025 3.6-.229zm31.041.185c-1.16-.362-1.93-.978-2.414-1.936-.604-1.193-.483-2.669.25-3.05.302-.157 1.324-.161 1.423-.006.041.065-.014.372-.123.683-.465 1.332.42 3.068 1.951 3.83.327.163.572.36.545.44-.067.2-1.04.223-1.632.039zm1.22-.055c.034-.054-.226-.287-.579-.517-1.288-.841-2.002-2.357-1.703-3.615.192-.808.194-.803-.349-.803-.333 0-.592.09-.825.284-.291.244-.346.393-.39 1.069-.087 1.325.632 2.548 1.855 3.155.837.415 1.86.634 1.99.427z" fill="#a0a0a0"/>
    <path d="M15.165 39.697c-1.397-.679-2.568-2.281-3.138-4.292-.213-.755-.26-1.262-.263-2.893-.004-2.153.186-3.217.888-4.973l.336-.84.613-.073c.777-.093 36.145-.18 36.239-.09.038.037-.068.575-.235 1.194-.47 1.746-.6 2.934-.53 4.82.1 2.665.756 4.419 2.145 5.74.843.8 1.526 1.124 2.728 1.29.567.078 6.656.098 17.431.057 11.358-.043 16.617-.024 16.744.062.164.11.164.137 0 .242-.12.077-12.772.119-36.195.12l-36.01.002zm52.924.128c-15.806-.067-14.67-.017-16.05-.702-.643-.32-1.706-1.457-2.111-2.26-.177-.35-.373-.635-.437-.635-.069 0-.086.442-.042 1.098.042.638.022 1.191-.048 1.319-.114.207-.385.22-4.654.22-3.36 0-4.57-.038-4.68-.144-.219-.213-.212-10.991.007-11.283.137-.181.37-.202 1.942-.172l1.787.033.061 4.195.062 4.194 2.749.06 2.748.06-.079-.3c-.665-2.521-.6-5.434.18-8.058.131-.444.202-.827.156-.85-.046-.025-.832-.034-1.747-.02-.916.013-6.547.046-12.514.071a3432.7 3432.7 0 0 0-16.58.108l-5.733.06-.292.716c-.696 1.705-.913 2.87-.919 4.917-.004 1.61.038 2.072.264 2.877.491 1.75 1.345 3.106 2.454 3.899 1.053.753-1.66.7 34.737.679 23.059-.014 28.817-.039 18.74-.082zm-37.54-.906c-2.18-.483-3.697-1.895-4.249-3.954-.236-.883-.246-3.012-.017-3.847.406-1.483 1.472-2.812 2.77-3.45 1.808-.892 4.55-.871 6.422.048 1.352.663 2.17 1.676 2.668 3.303.255.832.287 2.884.06 3.817-.473 1.948-1.842 3.376-3.82 3.986-.839.259-2.87.31-3.833.097zm3.946-.285c.911-.276 1.903-.905 2.43-1.542.891-1.079 1.268-2.279 1.268-4.04 0-3.63-1.846-5.618-5.467-5.888-1.198-.09-2.641.16-3.627.626-1.267.6-2.278 1.865-2.675 3.348-.222.826-.248 2.65-.052 3.556.321 1.484 1.362 2.87 2.663 3.543 1.439.746 3.751.914 5.46.397zm-3.28-2.635c-.983-.434-1.487-1.66-1.367-3.32.11-1.505.465-2.17 1.38-2.578.991-.443 2.29-.12 2.858.71.759 1.111.655 3.824-.182 4.74-.316.347-1.134.671-1.69.671-.271 0-.72-.1-.999-.223zm2.208-.22c.55-.313.806-.818.964-1.905.107-.731.103-1.158-.016-1.846-.138-.798-.21-.947-.665-1.392-.6-.583-1.34-.764-2.13-.518-1.096.34-1.581 1.24-1.581 2.934 0 1.625.513 2.635 1.492 2.938.5.155 1.48.048 1.936-.212zm-17.585 3.005c-.045-.043-.082-2.631-.082-5.75v-5.67l.277-.066c.152-.036 2.191-.05 4.53-.032l4.254.033v2.637l-2.564.032L19.69 30l.037.807.036.807 2.026.033c1.271.02 2.087.083 2.192.168.124.1.158.42.132 1.225l-.035 1.09-2.087.033c-1.176.019-2.152.086-2.237.155-.112.09-.139.64-.104 2.106.03 1.21-.001 2.073-.078 2.212-.115.208-.281.228-1.888.228-.97 0-1.8-.036-1.845-.08zm3.588-2.248c.02-1.313.086-2.209.167-2.304.098-.114.696-.165 2.247-.189l2.114-.033v-2.157l-2.087-.033c-1.324-.02-2.148-.082-2.255-.168-.119-.096-.158-.37-.132-.926l.036-.79 2.589-.06 2.589-.06V27.419H15.94l-.032 5.513c-.017 3.032-.005 5.582.029 5.666.045.117.468.145 1.758.12l1.697-.033zm63.609 3.335c-.041-.04-.147-.045-.236-.01-.099.038-.07.067.074.073.13.005.203-.024.162-.063zm1.913-.016a7.263 7.263 0 0 0-1.048 0c-.288.025-.052.046.524.046.577 0 .813-.02.524-.046zm2.099.002a4.734 4.734 0 0 0-.863-.001c-.256.026-.077.047.398.048.474 0 .684-.02.465-.047zm-37.82-2.55v-1.379l-2.712-.066c-1.492-.036-2.726-.076-2.742-.09-.016-.013-.044-1.898-.061-4.188l-.033-4.165h-3.452l-.032 5.513c-.018 3.032-.005 5.581.028 5.664.047.12 1.02.145 4.532.12l4.472-.031zm3.543 1.343c-.122-.08-.148-1.295-.123-5.666l.032-5.565h3.267c2.77 0 3.374.032 3.968.21 2.326.7 3.559 3.209 3.18 6.468-.167 1.425-.5 2.23-1.258 3.036-1.208 1.285-1.936 1.478-5.89 1.557-1.661.033-3.09.015-3.176-.04zm6.69-.31c1.036-.272 1.506-.515 2.083-1.075 1.043-1.014 1.447-2.172 1.449-4.15.001-2.33-.647-3.94-1.934-4.8-1.02-.682-1.396-.743-5.02-.806l-3.297-.058v11.054l3.05-.001c2.172-.001 3.23-.049 3.668-.164zm-3.366-2.256c-.107-.104-.148-.949-.148-3.048 0-3.47-.047-3.349 1.265-3.242 1.907.156 2.555.983 2.556 3.266.001 1.811-.464 2.765-1.487 3.05-.592.165-2.007.148-2.186-.026zm2.532-.258c.227-.115.518-.42.675-.71.241-.444.275-.69.278-2.004.004-1.316-.03-1.565-.274-2.046-.355-.701-.932-1.017-2.03-1.11-1.252-.106-1.206-.224-1.206 3.08 0 2.065.04 2.824.154 2.94.217.217 1.884.113 2.403-.15zm6.562 2.734c-.077-.09-.11-2.144-.09-5.642l.033-5.5h9.492l.036 1.031c.026.759-.01 1.066-.133 1.166-.112.09-1.116.147-2.995.169l-2.825.032v1.678l2.712.06 2.712.06v2.157l-2.712.06-2.712.06v2.157l3.02.06 3.02.06.036 1.128c.02.62-.01 1.172-.065 1.226-.173.168-9.386.205-9.529.038zm5.074-.055h4.432l-.035-1.109-.036-1.108-2.953-.033c-2.173-.023-2.978-.07-3.049-.18-.17-.26-.118-2.08.063-2.227.105-.084 1.095-.144 2.743-.165l2.58-.032v-1.918l-2.712-.06-2.713-.06-.036-.82c-.023-.5.02-.885.107-.988.117-.136.678-.169 2.888-.169 2.209 0 2.772-.033 2.888-.169.09-.104.13-.503.107-1.048l-.036-.88h-9.246l-.032 5.38c-.033 5.504-.01 5.816.431 5.651.097-.036 2.17-.065 4.608-.065zm6.857.163c-.204-.058-.215-.403-.185-5.655l.032-5.594h3.883c3.4 0 3.962.026 4.51.212 1.165.396 1.893 1.476 1.898 2.818.005 1.306-.523 2.151-1.737 2.78-.696.36-.751.416-.535.532.641.345 1.28 1.189 2.184 2.882.525.984.908 1.834.852 1.889-.056.055-.93.084-1.941.066l-1.84-.033-1.172-2.079c-1.248-2.213-1.486-2.465-2.256-2.393l-.394.037-.034 2.248-.033 2.247h-.967c-.531 0-1.21.023-1.507.052-.298.028-.639.024-.758-.01zm3.114-2.312c0-1.793.032-2.18.193-2.337.239-.231.437-.236.961-.023.553.224.734.474 1.912 2.637l1.02 1.872h1.779c1.182 0 1.778-.043 1.778-.129 0-.07-.358-.813-.796-1.65-.837-1.6-1.457-2.423-2.052-2.722-.526-.264-.44-.5.296-.817.791-.34 1.478-1.08 1.692-1.821.372-1.293-.168-2.827-1.188-3.375-.75-.403-1.878-.507-5.503-.51l-3.298-.002v11.026h3.206zm.08-4.5c-.11-.276-.098-2.007.014-2.178.097-.15.897-.222 2.023-.185 1.148.038 1.772.774 1.44 1.699-.203.567-.715.761-2.152.818-1.084.043-1.256.023-1.325-.154zm2.979-.267c.44-.318.526-1.167.163-1.603-.223-.268-.34-.293-1.563-.331-1.01-.032-1.347-.003-1.427.12-.124.19-.145 1.668-.028 1.964.123.312 2.38.194 2.855-.15zm-68.586-6.03c-.043-.068.107-.197.332-.289a97697.291 97697.291 0 0 1 12.861-5.222c3.051-1.239 7.101-2.885 9-3.658 1.898-.774 4.228-1.718 5.178-2.1 3.057-1.228 6.098-2.458 8.876-3.59 3.077-1.254 7.006-2.843 9.365-3.787 1.895-.758 1.414-.91 4.2 1.33 1.066.857 2.315 1.855 2.777 2.217A5079.107 5079.107 0 0 1 84.28 23.986c1.746 1.391 1.803 1.44 1.742 1.5-.031.03-7.019.072-15.529.094-15.26.038-15.477.035-15.89-.2-.589-.335-1.081-.971-1.37-1.767-.382-1.06-.296-2.588.163-2.871.08-.05 1.341-.092 2.803-.093 2.85-.002 2.952.02 2.952.607 0 1.253 1.614 2.655 3.438 2.986 3.027.55 5.82-.63 7.003-2.957.398-.784.463-1.034.509-1.957.106-2.16-.708-4.166-2.79-6.882-.6-.782-4.345-4.47-5.11-5.031l-.463-.34-.708.304c-.39.168-1.845.828-3.235 1.467-1.39.64-3.276 1.501-4.191 1.915-.916.413-2.636 1.195-3.822 1.737-1.187.542-2.934 1.335-3.884 1.762-.949.428-2.641 1.198-3.76 1.712-1.119.513-3.892 1.781-6.164 2.818-2.271 1.037-5.23 2.392-6.576 3.01-1.346.618-2.464 1.125-2.486 1.125-.021 0-1.14.517-2.485 1.149-3.713 1.745-3.145 1.607-6.635 1.607-1.914 0-3.036-.044-3.086-.122zm8.424-1.04a395.649 395.649 0 0 1 2.735-1.26c.44-.2 1.8-.82 3.02-1.381 3.781-1.736 8.313-3.805 13.13-5.993a2485.14 2485.14 0 0 0 7.767-3.537c.644-.295 2.835-1.292 4.87-2.216 2.034-.924 4.417-2.014 5.296-2.42 1.044-.484 1.691-.718 1.865-.675.353.086 3.254 2.685 4.363 3.908 1.856 2.048 2.915 3.634 3.608 5.408.364.931.39 1.104.396 2.557.005 1.519-.005 1.577-.395 2.353-1.175 2.334-4.013 3.641-6.858 3.159-1.296-.22-2.303-.687-3.013-1.397-.474-.475-.651-.811-.966-1.838l-.11-.36-2.59-.032c-3.214-.04-3.077-.1-3.072 1.371.004 1.297.316 2.075 1.117 2.793l.538.482h15.413c8.477 0 15.413-.04 15.412-.09 0-.049-.51-.494-1.13-.988a94.706 94.706 0 0 1-1.633-1.325 27.056 27.056 0 0 0-1.055-.839 182.927 182.927 0 0 1-2.787-2.21c-1.23-.99-3.97-3.174-6.093-4.855-2.121-1.68-4.667-3.704-5.657-4.496A329.29 329.29 0 0 0 65.116 8.9c-.212-.163-.975-.77-1.695-1.346-.721-.577-1.399-1.049-1.506-1.049-.108 0-1.148.383-2.312.851l-3.842 1.542c-.95.38-4.278 1.73-7.397 3-3.12 1.27-6.448 2.62-7.397 3-2.47.989-5.97 2.403-7.335 2.963-1.71.702-15.21 6.19-16.994 6.908l-1.522.612 1.953.06c1.075.033 2.443.041 3.04.018 1.063-.041 1.132-.063 3.021-.94zm29.58 1.032c-.663-.152-1.58-.63-1.966-1.027-.182-.188-.48-.656-.66-1.04-.278-.59-.322-.822-.278-1.484.044-.676.099-.825.39-1.07.233-.194.492-.283.825-.283.543 0 .54-.005.349.803-.299 1.258.415 2.774 1.703 3.615.868.567.74.739-.364.486zm-.152-.728c-.93-.827-1.33-1.604-1.346-2.618-.007-.428.035-.927.093-1.108.097-.3.078-.33-.207-.33-.893 0-1.28.582-1.157 1.74.082.778.416 1.42 1.041 2.009.488.46 1.46.91 1.984.92.246.005.187-.084-.408-.613z" fill="#5e5e5e"/>
    <path d="M15.59 39.757c-1.526-.544-2.803-2.192-3.43-4.428-.227-.805-.27-1.268-.265-2.877.006-2.047.223-3.212.92-4.917l.291-.715 5.732-.061c3.153-.034 10.614-.082 16.581-.108 5.967-.025 11.598-.058 12.514-.071.915-.014 1.701-.005 1.747.02.046.023-.025.406-.156.85-.78 2.624-.845 5.537-.18 8.059l.08.3-2.75-.06-2.748-.06-.062-4.195-.061-4.195-1.787-.033c-1.572-.03-1.805-.01-1.942.172-.219.292-.226 11.07-.007 11.283.11.106 1.32.143 4.68.143 4.27 0 4.54-.012 4.654-.22.07-.127.09-.68.048-1.318-.044-.656-.027-1.098.042-1.098.064 0 .26.286.437.635.405.803 1.468 1.94 2.11 2.26 1.381.685.245.635 16.051.702 10.078.043 4.32.068-18.739.082-28.346.016-33.356-.006-33.76-.15zm18.794-.935c1.977-.61 3.346-2.038 3.82-3.986.226-.933.194-2.985-.06-3.817-.499-1.627-1.317-2.64-2.669-3.303-1.872-.92-4.614-.94-6.423-.049-1.297.64-2.363 1.968-2.77 3.451-.228.835-.218 2.964.018 3.847.552 2.06 2.07 3.471 4.25 3.954.963.213 2.994.162 3.834-.097zm-2.897-2.832c-.98-.303-1.492-1.313-1.492-2.938 0-1.694.485-2.594 1.58-2.934.79-.246 1.532-.065 2.13.518.457.445.528.594.666 1.392.119.688.123 1.115.016 1.846-.158 1.087-.414 1.592-.964 1.904-.456.26-1.436.367-1.936.212zm-11.916 2.646c.077-.14.107-1.001.078-2.212-.035-1.466-.008-2.016.104-2.106.085-.069 1.06-.136 2.237-.155l2.087-.033.035-1.09c.026-.806-.008-1.126-.132-1.225-.105-.085-.921-.148-2.192-.168l-2.026-.033-.036-.807-.037-.806 2.564-.033 2.564-.032v-2.637l-4.253-.033c-2.34-.019-4.379-.005-4.531.032l-.277.065v5.671c0 3.119.037 5.707.082 5.75.045.044.875.08 1.845.08 1.607 0 1.773-.02 1.888-.228zM82.8 39.861c.089-.034.195-.03.236.01.04.04-.032.068-.162.063-.144-.006-.173-.035-.074-.073zm1.101-.006c.289-.025.76-.025 1.048 0 .289.025.053.046-.524.046-.576 0-.812-.02-.524-.046zm2.284 0c.256-.025.644-.025.863.001.219.027.01.048-.465.048-.475 0-.654-.023-.398-.049zm-20.85-1.388c-.107-.125-.136-1.576-.112-5.549l.032-5.38H74.5l.037.88c.022.546-.019.945-.108 1.05-.116.135-.68.168-2.888.168-2.21 0-2.771.033-2.888.169-.088.103-.13.488-.107.989l.036.82 2.713.06 2.712.06V33.65l-2.58.032c-1.648.021-2.638.08-2.743.165-.18.146-.233 1.968-.063 2.228.071.108.876.156 3.05.18l2.952.032.036 1.108.035 1.109h-4.432c-2.438 0-4.512.03-4.608.065-.097.036-.24-.01-.32-.103zm-12.593-5.49v-5.526l3.297.058c3.624.063 4 .124 5.02.806 1.287.86 1.936 2.47 1.934 4.8-.002 1.978-.406 3.136-1.45 4.15-1.091 1.062-1.904 1.237-5.75 1.238l-3.051.002zm5.539 3.133c1.023-.285 1.488-1.239 1.487-3.05-.001-2.283-.65-3.11-2.556-3.266-1.312-.107-1.265-.228-1.265 3.242 0 2.099.04 2.944.148 3.048.18.174 1.594.191 2.186.026zm18.747-3.118v-5.513l3.298.002c3.625.003 4.753.107 5.503.51 1.02.548 1.56 2.082 1.188 3.375-.214.741-.9 1.481-1.692 1.821-.737.317-.822.552-.296.817.595.3 1.215 1.122 2.052 2.722.438.837.796 1.58.796 1.65 0 .086-.596.129-1.778.129h-1.779l-1.02-1.872c-1.178-2.163-1.36-2.413-1.912-2.637-.524-.213-.722-.208-.96.023-.162.157-.194.543-.194 2.337v2.149h-3.206zm6.244-1.231c.736-.38.81-1.4.142-1.948-.282-.23-.52-.302-1.063-.32-1.126-.037-1.926.036-2.023.184-.112.172-.124 1.903-.014 2.18.07.176.24.196 1.325.153.844-.033 1.37-.114 1.633-.25zm-66.202-6.32l-1.953-.06 1.522-.612a8883.44 8883.44 0 0 0 16.994-6.908c1.365-.56 4.866-1.974 7.335-2.963.95-.38 4.278-1.73 7.397-3 3.12-1.27 6.448-2.62 7.397-3 .95-.38 2.678-1.074 3.842-1.542 1.164-.468 2.204-.85 2.312-.85.107 0 .785.471 1.506 1.048.72.577 1.483 1.183 1.695 1.346.211.164 1.194.946 2.185 1.738.99.792 3.536 2.816 5.657 4.496 2.122 1.681 4.864 3.865 6.093 4.854 1.229.989 2.483 1.984 2.787 2.211.304.228.778.605 1.055.84.276.233 1.011.83 1.632 1.324.622.494 1.13.939 1.131.988 0 .05-6.935.09-15.412.09H54.831l-.538-.482c-.801-.718-1.113-1.496-1.117-2.793-.005-1.472-.142-1.411 3.071-1.371l2.59.032.11.36c.316 1.027.493 1.363.967 1.838.71.71 1.717 1.177 3.013 1.397 2.845.482 5.683-.825 6.858-3.159.39-.776.4-.834.395-2.353-.005-1.453-.032-1.626-.396-2.557-.693-1.774-1.752-3.36-3.608-5.408-1.109-1.223-4.01-3.822-4.363-3.908-.174-.043-.82.191-1.865.675-.879.406-3.262 1.496-5.297 2.42-2.034.924-4.225 1.921-4.87 2.216-2.035.932-3.029 1.385-7.766 3.537a3687.703 3687.703 0 0 0-13.13 5.993c-1.22.56-2.58 1.181-3.02 1.38-.441.2-1.672.767-2.735 1.26-1.89.879-1.958.9-3.02.941-.598.023-1.966.015-3.04-.018zm35.002-.241c-1.15-.437-2.006-1.518-2.13-2.693-.123-1.158.264-1.74 1.157-1.74.285 0 .304.03.207.33-.058.181-.1.68-.093 1.108.016 1.014.415 1.791 1.346 2.618.595.53.654.618.408.613-.158-.003-.56-.11-.895-.236z" fill="#050505"/>
</svg>
