<svg xmlns="http://www.w3.org/2000/svg" xmlns:xlink="http://www.w3.org/1999/xlink" width="377.953" height="158.74" viewBox="0 0 100 42">
    <defs>
        <clipPath id="b">
            <use xlink:href="#a" width="100%" height="100%"/>
        </clipPath>
    </defs>
    <path class="fil1" d="M54.522 15.593c-1.3.865-.58 4.756 2.336 5.23h40.805L65.874.295 2.877 20.822h9.19L65.526 1.234c18.974 12.29 9.04 18.96 1.93 18.231-3.289-.337-5.543-1.695-5.415-3.872zm-3.508 0c-2.266 0-1.952 4.965 3.45 5.23h1.627c-3.311-.31-5.391-3.417-3.706-5.23z" clip-rule="evenodd" fill="#25446c" fill-rule="evenodd" stroke-width=".01" image-rendering="optimizeQuality" shape-rendering="geometricPrecision" text-rendering="geometricPrecision"/>
    <g clip-path="url(#b)" transform="matrix(1.461 0 0 1.14563 -23.077 -295.643)">
        <path d="M189.355 82.97l-112.052.42c-.03 0-.03.032-.06.032H63.776c-10.7 23.024-1.834 46.828 12.623 46.828h242.473v-1.563H205.346c-21.912 0-22.182-30.147-15.99-45.716zm-60.625 2.587c6.553 0 11.573 1.773 15.12 5.26 3.546 3.516 5.32 8.445 5.32 14.757 0 4.599-.783 8.355-2.346 11.301-1.533 2.946-3.756 5.23-6.672 6.883-2.945 1.623-6.583 2.435-10.941 2.435-4.418 0-8.085-.69-11-2.103-2.916-1.413-5.261-3.667-7.065-6.703-1.803-3.066-2.705-6.884-2.705-11.483 0-6.432 1.775-11.421 5.352-14.998 3.577-3.577 8.565-5.35 14.937-5.35zm-55.335.66h30.027v8.447H85.6v6.883h15.207v7.933H85.6v16.051H73.395zm82.296 0h12.145v29.637H186.8v9.677h-31.11zm-26.99 8.537c-2.434 0-4.42.872-5.892 2.615-1.473 1.713-2.223 4.598-2.223 8.596 0 3.967.72 6.822 2.193 8.535 1.473 1.743 3.486 2.615 6.041 2.615 2.585 0 4.63-.871 6.043-2.554 1.443-1.684 2.164-4.749 2.164-9.137 0-3.697-.753-6.402-2.256-8.115-1.472-1.714-3.515-2.555-6.07-2.555z" transform="matrix(.26458 0 0 .26458 0 255)" clip-rule="evenodd" fill="#25446c" stroke-width=".03" image-rendering="optimizeQuality" shape-rendering="geometricPrecision" text-rendering="geometricPrecision" id="a"/>
    </g>
    <path class="fil0" d="M53.407 22.626h6.971c1.371 0 2.487.146 3.335.438.836.291 1.545.71 2.091 1.257a4.972 4.972 0 0 1 1.209 1.913c.244.73.371 1.494.371 2.305 0 1.276-.186 2.26-.557 2.961a4.975 4.975 0 0 1-1.546 1.768 5.376 5.376 0 0 1-2.103.947c-1.034.219-1.963.328-2.8.328h-6.97zm4.694 2.697v6.505h1.139c.987 0 1.684-.082 2.103-.255.406-.164.732-.464.976-.893.232-.419.348-1.111.348-2.068 0-1.257-.267-2.123-.79-2.587-.523-.465-1.394-.702-2.614-.702zm11.735-2.697h12.583v2.542h-7.877v1.895h7.308v2.433h-7.308v2.341h8.11v2.706H69.835zm15.406 11.917V22.626h7.82c1.452 0 2.556.1 3.323.292.767.2 1.382.556 1.859 1.084.464.529.708 1.175.708 1.932 0 .665-.185 1.23-.546 1.712-.36.474-.848.866-1.475 1.167-.407.19-.953.346-1.65.464.558.146.964.3 1.22.447.174.09.418.3.755.62.325.327.546.564.65.746l2.278 3.453h-5.31l-2.51-3.644c-.313-.474-.592-.774-.848-.92a2.38 2.38 0 0 0-1.15-.274h-.418v4.838zm4.706-7.088h1.987c.209 0 .627-.055 1.243-.164.302-.045.558-.173.755-.373a.96.96 0 0 0 .302-.693 1.02 1.02 0 0 0-.464-.884c-.314-.21-.907-.31-1.755-.31h-2.068z" clip-rule="evenodd" fill="#25446c" stroke-width=".01" image-rendering="optimizeQuality" shape-rendering="geometricPrecision" text-rendering="geometricPrecision"/>
    <path class="fil0" d="M.89 41.877V38.88h2.766v.346H1.402v.92h2.103v.356H1.402v1.02h2.335v.355zm6.286-2.997h.511v1.731c0 .3-.046.538-.127.72a.994.994 0 0 1-.477.428c-.22.11-.523.164-.894.164-.349 0-.651-.046-.872-.146a.89.89 0 0 1-.488-.419c-.093-.182-.14-.428-.14-.747V38.88h.5v1.731c0 .255.035.447.093.574a.595.595 0 0 0 .314.282c.151.064.337.1.558.1.371 0 .627-.063.79-.2.162-.127.232-.382.232-.756zm1.592 2.997V38.88h1.696c.337 0 .604.018.779.073a.829.829 0 0 1 .418.291.72.72 0 0 1 .163.447.672.672 0 0 1-.268.537c-.174.146-.441.246-.813.283.14.045.244.1.314.146.14.109.279.246.418.4l.662.82h-.639l-.5-.628c-.15-.173-.267-.319-.371-.41a.815.815 0 0 0-.256-.2.967.967 0 0 0-.232-.083c-.058-.009-.151-.009-.279-.009h-.58v1.33zm.511-1.676h1.08c.233 0 .419-.018.547-.055a.53.53 0 0 0 .29-.182.412.412 0 0 0 .105-.273.395.395 0 0 0-.198-.346c-.128-.091-.337-.137-.616-.137H9.28zm3.416.21c0-.492.174-.884.511-1.167.337-.282.779-.419 1.325-.419.348 0 .662.064.953.192.278.136.488.319.639.555.15.237.22.51.22.811 0 .301-.07.574-.232.811-.151.246-.372.42-.662.547-.29.127-.593.182-.93.182-.36 0-.674-.064-.964-.2a1.594 1.594 0 0 1-.64-.556 1.383 1.383 0 0 1-.22-.756zm.523.01c0 .364.128.646.372.856.244.21.557.31.93.31.383 0 .696-.1.94-.31.244-.219.372-.51.372-.902 0-.237-.058-.455-.163-.638a1.02 1.02 0 0 0-.464-.419c-.198-.1-.43-.155-.674-.155-.36 0-.674.1-.93.292-.255.191-.383.52-.383.966zm4.02 1.457v-2.997h1.44c.256 0 .442.009.582.027.186.019.337.064.464.137a.866.866 0 0 1 .314.292.8.8 0 0 1 .116.41c0 .255-.104.464-.313.646-.21.173-.581.265-1.116.265h-.987v1.22zm.5-1.576h.987c.325 0 .558-.045.697-.146a.452.452 0 0 0 .21-.4.443.443 0 0 0-.128-.32.573.573 0 0 0-.314-.182 2.676 2.676 0 0 0-.476-.027h-.976zm3.3 1.576v-2.997h2.765v.346h-2.255v.92h2.103v.356h-2.103v1.02h2.336v.355zm3.369 0l1.464-2.997h.546l1.557 2.997h-.57l-.453-.91H25.36l-.418.91zm1.092-1.23H26.8l-.395-.838a5.082 5.082 0 0 1-.279-.62 3.734 3.734 0 0 1-.197.574zm3.114 1.23v-2.997h.51l2.011 2.35v-2.35h.488v2.997h-.523l-1.998-2.36v2.36zm5.426 0v-2.997h.5v2.997zm1.626 0v-2.997h.511l2.01 2.35v-2.35h.477v2.997h-.511l-2.01-2.36v2.36zm3.916-.965l.476-.037a.75.75 0 0 0 .163.374c.081.1.209.173.383.237.174.054.36.082.581.082.198 0 .36-.018.511-.064a.731.731 0 0 0 .326-.182.354.354 0 0 0 .116-.265.347.347 0 0 0-.105-.246.868.868 0 0 0-.348-.173 5.89 5.89 0 0 0-.674-.145c-.349-.064-.604-.128-.744-.192a1.067 1.067 0 0 1-.406-.273.643.643 0 0 1-.128-.374c0-.154.046-.3.162-.428.105-.127.268-.228.477-.3.209-.064.441-.1.697-.1.29 0 .534.036.755.109.21.072.384.173.5.31.116.145.174.3.186.473l-.488.027a.588.588 0 0 0-.268-.428c-.15-.09-.371-.145-.662-.145-.302 0-.523.045-.662.136-.14.082-.21.191-.21.32 0 .108.047.19.14.263.105.073.36.137.767.21.407.073.686.136.848.191.221.082.384.182.488.31a.653.653 0 0 1 .163.428c0 .155-.058.31-.174.447-.117.145-.29.255-.512.328a2 2 0 0 1-.732.118c-.348 0-.627-.037-.871-.118a1.136 1.136 0 0 1-.546-.356.912.912 0 0 1-.21-.537zm6.471-2.032h.5v1.731c0 .3-.035.537-.128.72-.081.173-.244.319-.465.428-.232.11-.522.164-.894.164-.36 0-.65-.046-.872-.146a.89.89 0 0 1-.488-.419c-.104-.182-.15-.428-.15-.747v-1.731h.51v1.731c0 .255.024.446.094.574a.595.595 0 0 0 .313.282c.151.064.337.1.546.1.372 0 .64-.063.802-.2.151-.127.232-.382.232-.756zm1.557 2.997v-2.997h.512v2.642h1.882v.355zm2.812 0l1.464-2.997h.546l1.557 2.997h-.57l-.452-.91h-1.592l-.418.91zm1.104-1.23h1.29l-.396-.838a5.082 5.082 0 0 1-.278-.62 3.734 3.734 0 0 1-.198.574zm3.683 1.23v-2.65h-1.255v-.347h3.021v.346h-1.266v2.651zm2.603 0v-2.997h.51v2.997zm1.487-1.466c0-.492.162-.884.511-1.167.337-.282.778-.419 1.313-.419.348 0 .674.064.953.192.278.136.5.318.65.555.151.237.221.51.221.811 0 .3-.081.574-.232.811-.163.246-.384.42-.663.547-.29.127-.604.182-.93.182-.36 0-.685-.064-.963-.2a1.52 1.52 0 0 1-.64-.556 1.383 1.383 0 0 1-.22-.756zm.523.01c0 .364.116.646.36.856.255.21.557.31.94.31.373 0 .686-.1.93-.31.244-.219.372-.51.372-.902 0-.237-.046-.456-.162-.638a1.053 1.053 0 0 0-.454-.419c-.209-.1-.43-.155-.685-.155-.36 0-.662.1-.918.292-.256.191-.383.52-.383.966zm4.008 1.457v-2.997h.511l2.01 2.35v-2.35h.488v2.997h-.523l-1.998-2.36v2.36zm5.321 0v-2.997h.756l.906 2.123c.081.19.151.346.186.437.035-.11.104-.264.197-.474l.918-2.086h.674v2.997H72.3v-2.514l-1.104 2.514h-.453l-1.104-2.56v2.56zm4.276 0l1.464-2.997h.546l1.557 2.997h-.57l-.452-.91h-1.592l-.418.91zm1.104-1.23h1.29l-.395-.838a5.081 5.081 0 0 1-.28-.62 3.73 3.73 0 0 1-.197.575zm3.683 1.23v-2.651h-1.255v-.346h3.021v.346h-1.266v2.651zm2.533 0v-2.997H83.5v.346h-2.254v.92h2.114v.356h-2.114v1.02h2.347v.355zm3.788 0v-2.997h1.696c.337 0 .593.018.778.073a.829.829 0 0 1 .419.291.72.72 0 0 1 .162.447.672.672 0 0 1-.267.537c-.174.146-.441.246-.813.283.14.045.244.1.314.145.139.11.278.246.418.401l.662.82h-.639l-.5-.628a8.32 8.32 0 0 0-.371-.41.815.815 0 0 0-.256-.2.97.97 0 0 0-.232-.083c-.058-.01-.151-.01-.28-.01h-.58v1.33zm.51-1.676h1.081c.233 0 .419-.018.546-.055.128-.036.221-.1.291-.182a.412.412 0 0 0 .105-.273c0-.137-.07-.255-.198-.347-.128-.09-.337-.136-.616-.136h-1.208zm3.66 1.676v-2.997h.5v2.997zm1.21 0l1.463-2.997h.546l1.569 2.997h-.581l-.442-.91h-1.603l-.418.91zm1.103-1.23h1.29l-.395-.838a7.188 7.188 0 0 1-.268-.62 2.855 2.855 0 0 1-.209.575zm3.09 1.23v-2.997h.5v2.642h1.882v.355zm3.056-.965l.477-.037a.74.74 0 0 0 .15.374c.082.1.21.173.384.236.174.055.372.083.593.083.185 0 .36-.019.51-.064a.804.804 0 0 0 .326-.183.39.39 0 0 0 .105-.264.347.347 0 0 0-.105-.246.892.892 0 0 0-.337-.173c-.104-.036-.337-.082-.685-.146-.349-.063-.593-.127-.732-.19-.186-.074-.326-.165-.407-.274a.584.584 0 0 1-.14-.374c0-.155.059-.3.163-.428.116-.128.268-.228.488-.3.21-.064.442-.1.697-.1a2.3 2.3 0 0 1 .744.108c.22.073.383.173.5.31.116.146.186.3.186.474l-.477.027a.625.625 0 0 0-.267-.428c-.151-.091-.372-.146-.662-.146-.314 0-.535.046-.674.137-.14.082-.21.191-.21.319 0 .11.047.191.152.264.093.073.348.137.755.21.418.073.697.136.848.19.22.083.383.183.488.31a.598.598 0 0 1 .163.429c0 .155-.058.31-.175.446a1.025 1.025 0 0 1-.5.328c-.22.082-.464.119-.731.119-.349 0-.64-.037-.872-.119a1.084 1.084 0 0 1-.546-.355.785.785 0 0 1-.209-.538z" clip-rule="evenodd" fill="#25446c" stroke-width=".01" image-rendering="optimizeQuality" shape-rendering="geometricPrecision" text-rendering="geometricPrecision"/>
</svg>
