<svg xmlns="http://www.w3.org/2000/svg" width="72" height="72" viewBox="0 0 19.05 19.050001">
    <path d="M5.332 8.804c0 .16.063.31.176.423l.211.212c.283.282.658.438 1.058.438s.775-.156 1.058-.438l1.49-1.49c.59.492 1.328.76 2.106.76h.001c.88 0 1.707-.343 2.33-.966a.299.299 0 1 0-.423-.423c-.51.51-1.188.791-1.907.791h-.001c-.719 0-1.395-.28-1.903-.788a.3.3 0 0 0-.423 0L7.412 9.016a.92.92 0 0 1-1.27 0l-.211-.212 3.597-3.597c.335-.335.654-.335 1.057-.335.432 0 .97 0 1.481-.51l.847-.847a.299.299 0 1 0-.423-.423l-.847.846c-.335.336-.654.336-1.058.336-.432 0-.97 0-1.48.51L5.508 8.381a.594.594 0 0 0-.176.423z"/>
    <path d="M3.242 3.84a.599.599 0 1 0-.001-1.197.599.599 0 0 0 0 1.198z"/>
    <path d="M6.143 4.784l.846.846a.298.298 0 0 0 .423 0 .299.299 0 0 0 0-.423l-.846-.846a.299.299 0 1 0-.423.423z"/>
    <path d="M15.808 2.644a.6.6 0 1 0-.001-1.198.6.6 0 0 0 .001 1.198z"/>
    <path d="M16.494 6.92c-.486.487-.653 1.279-.814 2.045-.143.68-.291 1.383-.651 1.743l-.424.423a.3.3 0 0 0 .424.423l.423-.423c.485-.486.652-1.277.813-2.043.144-.68.292-1.384.652-1.744a.299.299 0 1 0-.423-.423z"/>
    <path d="M18.413 6.92l-4.875-4.874.986-.986A.299.299 0 1 0 14.1.637l-1.197 1.197a.299.299 0 0 0 0 .423l5.086 5.087a.298.298 0 0 0 .423 0 .299.299 0 0 0 0-.423z"/>
    <path d="M11.643 9.439a.3.3 0 0 0-.423.423l3.174 3.173a.6.6 0 0 1-.847.847l-3.173-3.174a.299.299 0 1 0-.423.423l4.02 4.02a.599.599 0 0 1-.847.846L9.316 12.19a.299.299 0 1 0-.423.423l3.385 3.385a.6.6 0 0 1 0 .847.612.612 0 0 1-.846 0l-.424-.424-2.75-2.75a.299.299 0 1 0-.423.423l2.75 2.75a.594.594 0 0 1 0 .847.6.6 0 0 1-.846 0L4.65 12.605c-.776-.775-.944-1.753-1.093-2.617-.125-.726-.243-1.412-.702-1.87a.299.299 0 1 0-.423.422c.324.325.422.893.535 1.55.156.904.35 2.028 1.26 2.939l5.09 5.084a1.195 1.195 0 0 0 2.02-.613c.438.211 1.01.122 1.364-.233.17-.17.283-.383.328-.614a1.198 1.198 0 0 0 1.364-1.925l-.113-.114a1.199 1.199 0 0 0 .537-2.002z"/>
    <path d="M6.146 3.031L4.351 1.236a.299.299 0 1 0-.423.423l1.584 1.584L.637 8.117a.299.299 0 1 0 .423.423l5.086-5.086a.299.299 0 0 0 0-.423z"/>
    <path d="M7.908 17.848c-.167.087-.451.098-.708-.158-.256-.257-.254-.555-.17-.685a.299.299 0 0 0-.464-.373.6.6 0 0 1-.847-.846.297.297 0 0 0 0-.423.3.3 0 0 0-.423 0l-.211.211a.599.599 0 0 1-.847-.846l.212-.212a.3.3 0 0 0-.361-.47c-.163.094-.45.083-.697-.164-.262-.263-.261-.554-.177-.677a.3.3 0 0 0-.492-.34c-.242.351-.236.958.246 1.44.19.19.396.302.6.357a1.193 1.193 0 0 0-.104.49 1.197 1.197 0 0 0 1.486 1.161 1.198 1.198 0 0 0 1.443 1.067c.036.247.156.506.383.733.277.277.6.387.895.387.19 0 .367-.045.513-.122a.299.299 0 1 0-.277-.53z"/>
</svg>
