<svg xmlns="http://www.w3.org/2000/svg" width="150" height="46" viewBox="0 0 150 46">
    <path d="M-5500.102-932.36v601h602v-601h-301zm1986.781 17c1.641.176 3.28.373 4.906.648 1.87.315 3.058.53 4.28.75v-1.399zm-1945.764 23.5h519.483l.252 185.136.252 185.139-178.752.422c-98.314.232-178.861.361-178.994.287-.133-.074-.358-26.307-.5-58.293l-.258-58.156-22.217 14.232c-12.219 7.828-32.919 21.096-46 29.486-13.08 8.39-25.364 16.109-27.297 17.15l-3.513 1.895-.338 71.1-.336 71.101h458.2v59h-520l-.155-96.25c-.086-52.937-.066-97.375.043-98.75s1.13-3.175 2.267-4c1.926-1.396 80.422-51.515 105.572-67.406 37.382-23.62 68.831-43.577 75.774-48.088 8.747-5.683 32.436-20.764 50.457-32.12l11.457-7.224 2.924 1.67c4.302 2.456 5.277 3.059 16.459 10.168 5.622 3.575 11.006 6.95 11.963 7.5 2.875 1.655 28.264 17.512 35.24 22.01a1359.71 1359.71 0 0 0 12.728 8.09l6.229 3.9.022 58.75.021 58.75h96v-116.267l42.5.54c23.375.298 42.496.245 42.492-.116 0-.362-13.052-9.207-28.994-19.657-60.139-39.42-75.23-49.295-91.139-59.634-8.998-5.849-18.51-12.149-21.14-14-2.63-1.852-9.83-6.593-16-10.538-6.17-3.944-18.419-11.905-27.219-17.691a22714.46 22714.46 0 0 0-30.5-20.014c-7.975-5.221-22.773-14.94-32.883-21.597-10.11-6.657-18.73-11.974-19.154-11.815-.425.16-4.752 2.858-9.617 5.998-4.866 3.14-10.555 6.74-12.643 8-2.087 1.26-9.512 5.991-16.5 10.514-6.987 4.523-15.178 9.785-18.203 11.693-3.025 1.91-10 6.352-15.5 9.871l-10 6.399-.268-26.344-.265-26.342h-99.951l-.258 58.635-.258 58.637-30.483 19.363c-16.765 10.65-30.715 19.365-31 19.365-.284 0-.402-45.112-.26-100.25zm718.69 23.824v2.222c.146-.634.271-1.229.396-1.824l-.396-.398zm632.803 57.705c-.176.01-.565.673-.772 1.298.232-.337.518-.644.875-.912-.01-.083-.01-.165-.018-.248-.01-.098-.04-.14-.086-.138z" fill="#b9c000" fill-opacity=".995"/>
    <text style="line-height:125%;-inkscape-font-specification:'PF DinDisplay Pro Heavy'" x="-4823.288" y="-558.586" font-weight="900" font-size="538.305" font-family="PF DinDisplay Pro" letter-spacing="0" word-spacing="0" fill="#fff" stroke-width="13.458">
        <tspan x="-4823.288" y="-558.586" style="line-height:1000%;-inkscape-font-specification:'PF DinDisplay Pro Heavy'">ROOF</tspan>
    </text>
    <text style="line-height:125%;-inkscape-font-specification:'PF DinDisplay Pro Heavy'" x="-4816.326" y="-330.845" transform="scale(.99792 1.00209)" font-weight="900" font-size="225.49" font-family="PF DinDisplay Pro" letter-spacing="0" word-spacing="0" fill="#b9c000" stroke-width="2.349">
        <tspan x="-4816.326" y="-330.845" style="-inkscape-font-specification:'PF DinDisplay Pro Heavy'"><tspan font-size="5.886">Cc c</tspan>COMPLECT</tspan>
    </text>
    <g font-weight="900" font-family="PF DinDisplay Pro" letter-spacing="0" word-spacing="0">
        <path style="line-height:125%;-inkscape-font-specification:'PF DinDisplay Pro Heavy'" d="M.101.676v45.136h45.211V.676H22.706zm149.21 1.277c.122.013.245.028.368.049l.321.056v-.105zM3.18 3.718h39.014l.019 13.904.019 13.904-13.425.032c-7.383.017-13.432.027-13.442.021-.01-.005-.027-1.975-.038-4.378l-.02-4.367-1.668 1.069-3.454 2.214c-.983.63-1.905 1.21-2.05 1.288l-.264.142-.025 5.34-.026 5.34h34.412v4.431H3.18l-.012-7.229c-.006-3.975-.005-7.313.004-7.416a.47.47 0 0 1 .17-.3c.145-.105 6.04-3.87 7.929-5.063 2.807-1.773 5.169-3.272 5.69-3.611.657-.427 2.436-1.56 3.79-2.412l.86-.543.22.126c.323.184.396.23 1.236.763.422.269.826.522.898.564.216.124 2.123 1.315 2.647 1.653.268.173.698.446.956.607l.467.293.002 4.412.002 4.412h7.209v-8.731l3.192.04c1.756.022 3.192.019 3.191-.009 0-.027-.98-.691-2.177-1.476-4.517-2.96-5.65-3.702-6.845-4.478-.676-.44-1.39-.913-1.588-1.052-.197-.139-.738-.495-1.201-.791-.464-.296-1.383-.894-2.044-1.329l-2.29-1.503c-.6-.392-1.711-1.122-2.47-1.622-.76-.5-1.407-.9-1.439-.887-.032.012-.357.214-.722.45-.366.236-.793.506-.95.601-.156.095-.714.45-1.239.79-.525.34-1.14.735-1.367.878-.227.143-.75.477-1.164.741l-.751.48-.02-1.978-.02-1.978H7.838l-.02 4.404-.02 4.403-2.288 1.454c-1.26.8-2.307 1.455-2.329 1.455-.02 0-.03-3.388-.02-7.53zm53.975 1.79v.166l.03-.137-.03-.03zM104.68 9.84c-.013 0-.043.05-.058.097a.289.289 0 0 1 .066-.068l-.002-.019c0-.007-.003-.01-.006-.01z" fill="#b9c000" fill-opacity=".995"/>
        <path d="M65.888.893q2.305 0 3.922.768t2.628 2.021q1.05 1.254 1.495 2.87.486 1.577.486 3.194 0 1.092-.324 2.224-.323 1.092-.93 2.102-.566.97-1.415 1.86-.849.849-1.9 1.455l4.973 11.36H67.95L63.746 18.48h-3.962v10.268h-6.428V.893zm-6.104 11.966h4.77q1.78 0 2.547-.889.809-.93.809-2.224 0-1.293-.809-2.183-.808-.93-2.547-.93h-4.77z" style="line-height:1000%;-inkscape-font-specification:'PF DinDisplay Pro Heavy'" font-size="538.305" fill="#fff" fill-opacity=".993"/>
        <path d="M99.383 19.934q0 2.304-.89 4.002-.889 1.698-2.385 2.83-1.495 1.132-3.476 1.698-1.981.566-4.164.566t-4.164-.566q-1.94-.566-3.477-1.698-1.496-1.132-2.385-2.83-.89-1.698-.89-4.002V9.464q0-2.305.97-3.962.97-1.658 2.507-2.75 1.577-1.091 3.517-1.617Q86.486.61 88.468.61q1.98 0 3.921.566 1.981.566 3.517 1.698 1.577 1.091 2.507 2.79.97 1.697.97 4.002zm-6.468-9.056q0-1.212-.405-2.02-.404-.85-1.05-1.335-.607-.526-1.416-.768-.808-.243-1.576-.243-.809 0-1.617.243-.769.242-1.415.768-.647.485-1.052 1.334-.404.809-.404 2.021v7.884q0 1.213.404 2.062.405.808 1.052 1.334.646.485 1.415.727.808.243 1.617.243.768 0 1.576-.243.809-.242 1.415-.727.647-.526 1.051-1.334.405-.85.405-2.062z" style="line-height:1000%;-inkscape-font-specification:'PF DinDisplay Pro Heavy'" font-size="538.305" fill="#fff" fill-opacity=".993"/>
        <path d="M125.597 19.934q0 2.304-.889 4.002-.89 1.698-2.385 2.83-1.496 1.132-3.477 1.698-1.98.566-4.164.566-2.183 0-4.164-.566-1.94-.566-3.477-1.698-1.495-1.132-2.385-2.83-.89-1.698-.89-4.002V9.464q0-2.305.971-3.962.97-1.658 2.507-2.75 1.576-1.091 3.517-1.617Q112.7.61 114.682.61q1.981 0 3.922.566 1.98.566 3.517 1.698 1.576 1.091 2.506 2.79.97 1.697.97 4.002zm-6.468-9.056q0-1.212-.404-2.02-.404-.85-1.051-1.335-.607-.526-1.415-.768-.809-.243-1.577-.243-.808 0-1.617.243-.768.242-1.415.768-.647.485-1.051 1.334-.404.809-.404 2.021v7.884q0 1.213.404 2.062.404.808 1.051 1.334.647.485 1.415.727.809.243 1.617.243.768 0 1.577-.243.808-.242 1.415-.727.647-.526 1.05-1.334.405-.85.405-2.062z" style="line-height:1000%;-inkscape-font-specification:'PF DinDisplay Pro Heavy'" font-size="538.305" fill="#fff" fill-opacity=".993"/>
        <path d="M136.611 12.132h11.118v5.7H136.61v10.915h-6.428V.893h19.446v5.74H136.61z" style="line-height:1000%;-inkscape-font-specification:'PF DinDisplay Pro Heavy'" font-size="538.305" fill="#fff" fill-opacity=".993"/>
        <path d="M60.93 37.28q-.575-.492-1.184-.645-.591-.17-1.149-.17-.338 0-.676.102t-.608.323q-.27.203-.456.56-.17.34-.17.848v3.31q0 .508.17.865.185.34.456.56.287.203.625.305.338.102.676.102.54 0 1.115-.153.575-.17 1.217-.661l1.268 2.104q-.71.594-1.673.9-.947.288-1.978.288-.81 0-1.639-.22-.811-.221-1.47-.68-.642-.458-1.048-1.154-.405-.712-.405-1.68v-4.412q0-.967.388-1.663.406-.713 1.048-1.17.642-.476 1.436-.697.812-.237 1.64-.237 1.03 0 2.028.288.997.289 1.69.9z" style="line-height:125%;-inkscape-font-specification:'PF DinDisplay Pro Heavy'" font-size="225.49" fill="#b9c000"/>
        <path d="M74.795 42.1q0 .967-.372 1.68-.372.712-.997 1.187-.625.476-1.454.713-.828.238-1.74.238-.913 0-1.74-.238-.812-.237-1.454-.713-.625-.475-.997-1.187-.372-.713-.372-1.68v-4.396q0-.967.406-1.663.405-.695 1.047-1.154.66-.458 1.47-.678.812-.221 1.64-.221.828 0 1.64.237.827.238 1.47.713.658.458 1.047 1.171.406.713.406 1.68zm-2.704-3.802q0-.509-.17-.848-.168-.357-.439-.56-.253-.22-.591-.323-.338-.101-.66-.101-.337 0-.675.101-.321.102-.592.323-.27.203-.439.56-.169.34-.169.848v3.31q0 .508.169.865.169.34.44.56.27.203.59.305.339.102.677.102.32 0 .659-.102.338-.102.591-.305.27-.22.44-.56.169-.357.169-.866z" style="line-height:125%;-inkscape-font-specification:'PF DinDisplay Pro Heavy'" font-size="225.49" fill="#b9c000"/>
        <path d="M87.583 40.352l-1.099 2.104-1.013 1.782h-1.91l-1.03-1.85-1.049-2.02h-.067v5.43h-2.687V34.108h2.467l1.927 3.801 1.368 2.783h.102l1.42-2.885 1.841-3.7h2.468V45.8h-2.687v-5.447z" style="line-height:125%;-inkscape-font-specification:'PF DinDisplay Pro Heavy'" font-size="225.49" fill="#b9c000"/>
        <path d="M97.062 39.13h1.978q.76 0 1.081-.374.321-.39.321-.933t-.32-.916q-.305-.39-1.082-.39h-1.978zm2.4-5.023q.98 0 1.673.322.693.306 1.132.832.44.526.643 1.188.202.661.202 1.374 0 .713-.253 1.375-.237.661-.727 1.188-.473.526-1.166.848-.693.305-1.588.305h-2.316v4.26h-2.687V34.107z" style="line-height:125%;-inkscape-font-specification:'PF DinDisplay Pro Heavy'" font-size="225.49" fill="#b9c000"/>
        <path d="M106.326 45.799V34.107h2.654v9.282h5.526v2.41z" style="line-height:125%;-inkscape-font-specification:'PF DinDisplay Pro Heavy'" font-size="225.49" fill="#b9c000"/>
        <path d="M117.617 34.107h8.129v2.41h-5.442v2.189h4.648v2.392h-4.648v2.308h5.442V45.8h-8.129z" style="line-height:125%;-inkscape-font-specification:'PF DinDisplay Pro Heavy'" font-size="225.49" fill="#b9c000"/>
        <path d="M136.464 37.28q-.575-.492-1.183-.645-.591-.17-1.149-.17-.338 0-.676.102t-.608.323q-.27.203-.457.56-.169.34-.169.848v3.31q0 .508.17.865.185.34.456.56.287.203.625.305.338.102.676.102.54 0 1.115-.153.575-.17 1.217-.661l1.267 2.104q-.71.594-1.673.9-.946.288-1.977.288-.811 0-1.64-.22-.81-.221-1.47-.68-.641-.458-1.047-1.154-.406-.712-.406-1.68v-4.412q0-.967.39-1.663.405-.713 1.047-1.17.642-.476 1.436-.697.811-.237 1.64-.237 1.03 0 2.027.288.997.289 1.69.9z" style="line-height:125%;-inkscape-font-specification:'PF DinDisplay Pro Heavy'" font-size="225.49" fill="#b9c000"/>
        <path d="M146.319 36.533V45.8h-2.687v-9.266h-2.958v-2.426h8.585v2.426z" style="line-height:125%;-inkscape-font-specification:'PF DinDisplay Pro Heavy'" font-size="225.49" fill="#b9c000"/>
    </g>
</svg>
