<svg xmlns="http://www.w3.org/2000/svg" width="72" height="72" viewBox="0 0 19.05 19.050001">
    <path d="M11.947 2.404a5.39 5.39 0 0 0-6.255 1.003 5.406 5.406 0 0 0-.448 7.131.298.298 0 1 0 .472-.367 4.807 4.807 0 0 1 .399-6.341 4.794 4.794 0 0 1 5.562-.893.299.299 0 1 0 .27-.533z"/>
    <path d="M14.334 4.791a.299.299 0 0 0-.534.27 4.794 4.794 0 0 1-.893 5.561 4.807 4.807 0 0 1-6.341.399.299.299 0 0 0-.367.472 5.372 5.372 0 0 0 3.307 1.133 5.398 5.398 0 0 0 3.824-1.581 5.39 5.39 0 0 0 1.004-6.254z"/>
    <path d="M13.561 3.653a5.481 5.481 0 0 0-.477-.477.299.299 0 1 0-.396.448 4.908 4.908 0 0 1 .425.425.298.298 0 0 0 .422.026.299.299 0 0 0 .026-.422z"/>
    <path d="M16.567 7.762c.2-.327.2-.734 0-1.06l-.393-.645a.42.42 0 0 1-.057-.285l.118-.744c.06-.38-.097-.756-.407-.982l-.61-.444a.42.42 0 0 1-.161-.24l-.178-.734a1.014 1.014 0 0 0-.75-.75l-.733-.178a.42.42 0 0 1-.241-.161l-.444-.61a1.014 1.014 0 0 0-.982-.407l-.745.117A.42.42 0 0 1 10.7.583L10.055.19c-.327-.2-.733-.2-1.06 0L8.35.583a.42.42 0 0 1-.284.056L7.32.522c-.38-.06-.756.096-.982.407l-.443.61a.421.421 0 0 1-.241.16l-.734.178c-.372.09-.66.378-.75.75l-.178.734a.42.42 0 0 1-.161.241l-.61.443c-.31.226-.466.603-.407.982l.118.745a.42.42 0 0 1-.057.284l-.393.646c-.2.327-.2.733 0 1.06l.393.645a.42.42 0 0 1 .057.284l-.118.745c-.06.38.096.756.407.982l.61.443a.42.42 0 0 1 .161.241l.178.734c.09.372.377.66.75.75l.306.074-2.073 4.624a.299.299 0 0 0 .308.42l1.668-.2.961 1.378a.299.299 0 0 0 .518-.049l2.118-4.723.268.164a1.017 1.017 0 0 0 1.06 0l.278-.17 2.12 4.73a.299.299 0 0 0 .518.048l.96-1.378 1.669.2a.3.3 0 0 0 .308-.42l-2.074-4.627.295-.07c.372-.091.66-.378.75-.751l.178-.734a.42.42 0 0 1 .161-.24l.61-.444c.31-.226.466-.602.407-.982l-.118-.745a.42.42 0 0 1 .057-.284zM6.28 18.107l-.762-1.092a.299.299 0 0 0-.28-.126l-1.323.158 1.89-4.213a.418.418 0 0 1 .09.09l.444.61c.042.058.09.11.14.157l-.993 2.218a.299.299 0 0 0 .545.245l.99-2.21c.098.013.199.013.3-.003l.745-.117a.42.42 0 0 1 .133 0zm8.867-1.06l-1.322-.158a.299.299 0 0 0-.28.126l-.762 1.092-1.92-4.284a.42.42 0 0 1 .121.001l.745.117c.105.017.21.016.31.001l.992 2.212a.299.299 0 1 0 .546-.245l-.998-2.226c.048-.045.092-.094.132-.149l.443-.61a.42.42 0 0 1 .1-.097zm.91-9.597l-.394.646a1.02 1.02 0 0 0-.136.688l.117.745a.419.419 0 0 1-.168.405l-.61.444a1.02 1.02 0 0 0-.39.584l-.178.733a.419.419 0 0 1-.31.31l-.733.177a1.02 1.02 0 0 0-.584.391l-.444.61a.418.418 0 0 1-.405.168l-.745-.118a1.02 1.02 0 0 0-.688.137l-.645.393a.419.419 0 0 1-.438 0l-.645-.393a1.02 1.02 0 0 0-.688-.137l-.745.118a.419.419 0 0 1-.406-.168l-.443-.61a1.02 1.02 0 0 0-.584-.39l-.734-.178a.419.419 0 0 1-.31-.31l-.177-.734a1.02 1.02 0 0 0-.39-.584l-.61-.443a.419.419 0 0 1-.168-.405l.117-.745a1.02 1.02 0 0 0-.136-.689l-.394-.645a.419.419 0 0 1 0-.437l.394-.645a1.02 1.02 0 0 0 .136-.689l-.117-.745a.419.419 0 0 1 .168-.405l.61-.443a1.02 1.02 0 0 0 .39-.584l.178-.734a.419.419 0 0 1 .31-.31l.733-.177a1.02 1.02 0 0 0 .584-.391l.444-.61a.418.418 0 0 1 .405-.167l.745.117c.238.037.482-.011.688-.137L9.306.7a.419.419 0 0 1 .438 0l.645.393c.206.126.45.174.688.137l.745-.117a.419.419 0 0 1 .406.168l.443.61c.142.194.35.333.584.39l.734.178a.419.419 0 0 1 .31.31l.177.733c.057.234.195.442.39.584l.61.443a.419.419 0 0 1 .168.405l-.117.745a1.02 1.02 0 0 0 .136.689l.394.645a.419.419 0 0 1 0 .437z"/>
    <path d="M13.023 6.301a.535.535 0 0 0-.45-.37l-1.799-.212-.758-1.645a.535.535 0 0 0-.491-.314.535.535 0 0 0-.49.314l-.76 1.645-1.798.213a.535.535 0 0 0-.45.37.535.535 0 0 0 .147.563l1.33 1.23-.353 1.777c-.042.209.04.417.212.542a.538.538 0 0 0 .581.034l1.58-.885 1.582.885a.535.535 0 0 0 .58-.034.535.535 0 0 0 .213-.542l-.353-1.777 1.33-1.23a.535.535 0 0 0 .147-.564zM11.018 7.77a.299.299 0 0 0-.09.277l.36 1.818-1.617-.905a.299.299 0 0 0-.292 0l-1.618.905.362-1.818a.299.299 0 0 0-.09-.277L6.67 6.51l1.841-.217a.299.299 0 0 0 .237-.172l.776-1.683.776 1.683c.044.094.133.16.237.172l1.84.218z"/>
</svg>
