<svg xmlns="http://www.w3.org/2000/svg" width="377.953" height="158.74" viewBox="0 0 100 42">
    <g stroke-width=".265">
        <path d="M17.05 40.187c-3.049-.197-5.764-1.488-7.614-3.62-1.194-1.375-2.166-3.635-2.346-5.455-.047-.48-.04-.723.011-.36.236 1.688.64 2.978 1.307 4.179.445.802.823 1.312 1.482 1.995 1.734 1.8 4.077 2.886 6.815 3.16.881.088 2.605.037 3.415-.102 2.646-.455 4.856-1.604 6.337-3.295 1.036-1.184 1.886-2.9 2.242-4.528.357-1.632.354-3.77-.01-5.454-.829-3.843-3.6-6.647-7.542-7.632-1.192-.298-2.562-.419-3.891-.344-2.986.17-5.279 1.116-7.174 2.96-.855.833-1.348 1.504-1.872 2.548-.52 1.04-.949 2.566-1.053 3.751-.02.231-.055.467-.078.525-.082.21.076-1.222.197-1.784.68-3.156 2.503-5.524 5.333-6.926 1.448-.718 2.994-1.082 4.905-1.157 3.314-.13 6.328.911 8.406 2.902 1.68 1.61 2.659 3.596 3.02 6.126.108.755.123 2.7.026 3.383-.324 2.293-1.152 4.196-2.482 5.71-2.09 2.377-5.639 3.663-9.433 3.418zm28.172-.884c-3.476-3.59-9-9.24-9.033-9.24-.024 0-.043 2.19-.043 4.868 0 3.716-.015 4.883-.063 4.931-.046.046-.478.063-1.615.063-1.138 0-1.57-.017-1.616-.063-.092-.091-.092-20.871 0-20.963.09-.09 3.141-.09 3.231 0 .048.048.063 1.11.063 4.463 0 2.818.019 4.395.051 4.384.028-.01 1.838-2.025 4.021-4.477 2.184-2.453 4-4.477 4.036-4.498.094-.056 3.589.042 3.649.102.032.032-1.47 1.855-4.121 5.003-2.294 2.725-4.166 4.983-4.16 5.018.007.035 2.42 2.5 5.364 5.479 2.943 2.977 5.35 5.45 5.35 5.496 0 .073-.245.084-2.229.097l-2.23.015zm5.027.525c-.01-.025-2.412-2.468-5.34-5.43-2.927-2.961-5.341-5.418-5.364-5.46-.027-.047.003-.127.08-.222l4.145-4.933c2.212-2.63 4.023-4.806 4.023-4.833 0-.05-2.71-.138-3.257-.105l-.293.017-4.008 4.5c-2.489 2.795-4.038 4.494-4.088 4.485-.07-.014-.08-.53-.093-4.46l-.013-4.446H32.894v20.88H36.04l.013-4.918c.012-4.388.022-4.92.095-4.933.05-.01 1.952 1.908 4.905 4.943l4.824 4.96h2.194c1.207 0 2.187-.02 2.177-.045zm1.19-.843c-.318-.37-.585-.712-.594-.759-.016-.078 1.365-.084 17.207-.071l17.224.013V39.637l-16.63.011-16.63.011zm33.784-.083v-.682l-17.141-.013c-11.346-.009-17.142.004-17.142.039 0 .053.571.729.964 1.142l.212.223 16.554-.014 16.553-.013zM16.92 37.846c-1.181-.175-1.879-.387-2.763-.84a7.193 7.193 0 0 1-3.692-4.465c-.585-2.018-.44-5.181.326-7.121.348-.881.692-1.428 1.301-2.066.822-.86 1.912-1.53 3.17-1.949.994-.33 1.428-.39 2.813-.39 1.045.002 1.277.017 1.736.118 1.903.414 3.49 1.385 4.522 2.765.719.962 1.284 2.414 1.51 3.883.107.695.123 2.5.029 3.173-.317 2.257-1.099 3.838-2.5 5.056a7.658 7.658 0 0 1-3.631 1.745c-.444.083-2.44.147-2.82.09zm2.823-.174c2.957-.586 5.067-2.553 5.8-5.409.42-1.635.436-3.793.038-5.427-.519-2.13-1.695-3.76-3.427-4.751-2.247-1.286-5.392-1.388-7.776-.253-1.508.717-2.615 1.75-3.258 3.037-.875 1.754-1.193 4.703-.75 6.951.597 3.032 2.874 5.276 5.93 5.845.814.152.837.154 1.906.136.727-.013 1.113-.045 1.537-.13zm31.182-.456c-.02-.02-.036-4.128-.036-9.13v-9.093h1.994l-.014 9.115-.013 9.115-.948.015c-.52.008-.963-.002-.983-.022zm1.892-9.108l-.013-9.036H50.966l-.013 9.036-.013 9.037H52.829zm6.859 7.259c-.966-.179-1.754-.474-2.413-.905-.767-.501-1.229-1.032-1.659-1.91-.365-.746-.43-1.162-.398-2.516.028-1.188.137-1.76.495-2.596.539-1.257 1.245-2.005 2.454-2.599.915-.449 1.886-.649 2.818-.58 1.779.133 3.054 1.078 3.627 2.69.242.683.313 1.207.318 2.36.002.581-.011 1.073-.03 1.091-.018.019-1.738.048-3.821.066-2.737.022-3.794.048-3.81.09-.057.148.091.803.264 1.166.352.742 1.036 1.225 2.155 1.522.472.125.616.14 1.443.14 1.18 0 1.645-.11 2.644-.624.492-.253.752-.356.952-.376l.276-.029.02 1.017c.025 1.168.056 1.086-.508 1.37a6.731 6.731 0 0 1-1.548.549c-.768.183-2.48.221-3.28.074zm3.068-.106c.685-.147 1.412-.405 1.85-.658l.367-.212-.009-.944c-.004-.52-.03-.965-.055-.991-.083-.083-.536.069-.998.333-.902.517-1.765.71-2.99.668-.981-.034-1.493-.148-2.193-.487-.786-.381-1.3-.992-1.475-1.755-.076-.33-.072-.73.009-.761.036-.014 1.753-.043 3.816-.064l3.751-.039-.005-1.207c-.004-1.12-.014-1.242-.14-1.71-.242-.91-.755-1.764-1.335-2.224-.354-.282-1.01-.612-1.458-.735-.43-.118-1.598-.162-2.113-.08-2.118.34-3.643 1.69-4.235 3.753-.291 1.012-.372 2.349-.203 3.334.177 1.032.83 2.081 1.695 2.722.824.611 1.922 1.014 3.204 1.177.464.058 2.03-.016 2.517-.12zm-5.47-6.122c-.124-.125.062-.96.343-1.535.519-1.065 1.574-1.709 2.793-1.706.928.003 1.644.31 2.288.983.332.347.441.734.476 1.686l.017.473-.577.032c-.957.053-5.298.108-5.34.067zm4.736-.119l1.076-.033.016-.288c.024-.417-.083-1.145-.206-1.4-.144-.302-.705-.813-1.105-1.008-1.367-.665-3-.277-3.85.915-.287.402-.457.805-.57 1.354-.063.304-.07.43-.027.482.06.072 1.925.063 4.666-.022zm5.522 1.003l.013-5.338.835-.014c.634-.011.846.002.878.052.024.037.043.345.044.684 0 .339.01.616.024.616.012 0 .148-.133.301-.295a4.105 4.105 0 0 1 2.187-1.202c.623-.126 1.966-.085 2.52.077 1.212.354 1.91.987 2.296 2.076l.148.42.016 4.13.015 4.132h-1.946v-3.459c0-4.153-.022-4.412-.412-4.844-.356-.394-.857-.625-1.568-.725-1.197-.168-2.708.504-3.129 1.39-.242.511-.256.714-.28 4.267l-.022 3.371h-1.934zm1.88 1.876c.032-3.673.044-3.835.333-4.327.191-.326.662-.732 1.094-.943 1.634-.798 3.614-.317 3.99.968.033.113.065 1.621.083 3.934l.03 3.751h1.784v-3.987c0-4.44.014-4.244-.368-5.051-.491-1.041-1.644-1.663-3.2-1.727-1.476-.06-2.51.305-3.402 1.203-.244.247-.44.404-.483.388-.055-.021-.076-.19-.087-.7l-.015-.67h-1.574l-.013 5.22c-.008 2.87-.002 5.25.012 5.286.02.052.23.064.905.053l.88-.015zm12.347 3.126c-.559-.106-.95-.23-1.346-.43-.54-.272-.717-.461-1.014-1.08l-.26-.54-.026-3.41-.027-3.41h-.823c-.481 0-.844-.023-.873-.053-.027-.03-.06-.367-.073-.75-.021-.63-.014-.703.07-.748.05-.027.46-.05.909-.05h.817V19.1l.118-.02c.064-.011.513-.01.996.004l.879.023v5.446l1.712.014c1.456.011 1.72.025 1.76.092.028.045.033.362.012.742l-.037.664-.95.034c-.522.02-1.298.034-1.724.032l-.774-.003.014 3.383.013 3.383.184.18c.284.28.639.372 1.39.36a6.551 6.551 0 0 0 2.037-.36c.266-.09.43-.12.462-.087.03.03.045.36.035.797-.018.836 0 .798-.451.99-.503.213-.998.296-1.847.308-.508.008-.952-.014-1.183-.057zm1.814-.032c.488-.06 1.069-.216 1.375-.373l.198-.1v-.734c0-.403-.02-.733-.045-.733-.024 0-.179.046-.344.103a6.3 6.3 0 0 1-2.077.341c-.851.002-1.134-.075-1.446-.395l-.207-.212-.014-3.364c-.01-2.338.003-3.381.042-3.42.036-.037.648-.066 1.745-.083l1.69-.026.014-.669.015-.669h-1.7c-1.459 0-1.71-.011-1.766-.08-.053-.063-.062-.648-.046-2.74l.02-2.662-.938-.014-.94-.015.027 2.67c.016 1.564.007 2.706-.02 2.756-.042.073-.169.085-.913.085h-.865l.015.695.015.695.878.015c.484.008.884.02.89.026.007.006.025 1.57.04 3.474l.028 3.463.233.488c.263.55.46.761.945 1.006.835.42 2.056.604 3.151.472zm2.582-8.165c-.051-.021-.065-.85-.065-3.899 0-3.482.008-3.875.083-3.904.108-.041 2.61-.041 2.72 0 .074.029.082.422.082 3.903s-.008 3.874-.083 3.903c-.099.038-2.642.035-2.737-.003zm2.768-3.9v-3.83h-2.78v7.66h2.78zm1.22 3.9c-.052-.02-.066-.577-.066-2.535 0-2.239.009-2.511.083-2.54.045-.017.678-.032 1.406-.032.959 0 1.34.018 1.386.063.087.087.09 4.903.004 5.007-.047.057-.334.07-1.404.067-.739-.002-1.374-.016-1.41-.03zm2.767-2.537v-2.467l-1.377.014-1.378.014-.013 2.387c-.008 1.313-.003 2.417.011 2.453.02.05.347.066 1.391.066h1.366zM90.056 20.8c-.048-.124-.038-1.612.011-1.69.033-.051.36-.063 1.455-.052l1.413.014v1.784l-1.424.014c-1.264.012-1.427.004-1.456-.07zm2.826-.836v-.84h-2.728l-.014.785c-.008.432-.003.816.012.853.02.055.301.066 1.378.055l1.352-.014z" fill="#6a8dab"/>
        <path d="M16.382 40.055c-2.041-.258-3.854-.978-5.404-2.145-.605-.456-1.546-1.415-1.962-2-.878-1.235-1.518-2.8-1.782-4.352-.058-.347-.14-.787-.181-.978-.085-.397-.096-1.473-.02-1.829.029-.13.085-.5.125-.821.274-2.177.967-3.933 2.13-5.396.321-.402 1.243-1.3 1.651-1.607 1.822-1.37 3.784-2.052 6.317-2.196 4.832-.273 8.888 1.915 10.696 5.77.282.601.59 1.525.737 2.206.364 1.683.367 3.822.01 5.454-.356 1.629-1.206 3.344-2.242 4.528-1.48 1.69-3.682 2.835-6.337 3.296-.83.143-2.858.182-3.738.07zm3.358-2.3a7.658 7.658 0 0 0 3.631-1.745c1.401-1.218 2.183-2.799 2.5-5.056.094-.672.078-2.478-.03-3.173-.225-1.469-.79-2.921-1.509-3.883-1.032-1.38-2.62-2.351-4.522-2.765-.459-.1-.691-.116-1.736-.117-1.385-.001-1.819.059-2.813.39-1.837.61-3.318 1.767-4.099 3.2-.42.77-.743 1.802-.905 2.886-.193 1.285-.193 3.031-.003 4.13.42 2.414 1.79 4.304 3.902 5.385.884.452 1.582.664 2.763.839.382.056 2.377-.008 2.82-.091zm21.314-2.842c-2.953-3.035-4.856-4.953-4.905-4.943-.073.014-.083.545-.095 4.933l-.013 4.917H32.894V18.94H36.04l.013 4.446c.012 3.931.023 4.447.093 4.46.05.01 1.6-1.689 4.088-4.484l4.008-4.5.293-.017c.546-.033 3.257.054 3.257.105 0 .027-1.81 2.202-4.023 4.833a5197.32 5197.32 0 0 0-4.145 4.933c-.077.095-.107.175-.08.223.023.04 2.437 2.498 5.364 5.46 2.928 2.961 5.33 5.404 5.34 5.429.01.025-.97.045-2.177.045h-2.195zm10.85 4.475c-.393-.413-.964-1.09-.964-1.142 0-.035 5.796-.048 17.142-.039l17.141.013v1.364l-16.553.013-16.554.014zm-.95-11.28l.012-9.036H52.803l.013 9.036.013 9.037H50.94zm9.272 7.273c-1.282-.163-2.38-.566-3.204-1.177-.606-.45-1.05-1.014-1.413-1.801-.465-1.006-.498-2.798-.08-4.255.593-2.063 2.118-3.413 4.236-3.753.515-.082 1.683-.038 2.113.08.448.123 1.104.453 1.458.735.58.46 1.093 1.315 1.336 2.224.125.468.135.59.14 1.71l.004 1.207-3.75.039c-2.064.021-3.781.05-3.817.064-.08.03-.085.432-.01.761.176.763.69 1.374 1.476 1.755.7.34 1.212.453 2.193.487 1.225.042 2.088-.15 2.99-.668.462-.264.915-.416.998-.333.026.026.05.472.055.99l.009.945-.367.212c-.438.253-1.165.511-1.85.658-.487.104-2.053.178-2.517.12zm2.387-6.31l.577-.031-.017-.473c-.035-.952-.144-1.339-.476-1.686-.644-.672-1.36-.98-2.288-.983-1.219-.003-2.274.641-2.793 1.706-.28.575-.467 1.41-.342 1.535.04.041 4.382-.014 5.339-.067zm4.982 6.173c-.014-.036-.02-2.415-.012-5.286l.013-5.22h1.574l.015.67c.011.51.032.679.087.7.042.016.239-.141.483-.388.891-.898 1.926-1.264 3.402-1.203 1.556.064 2.709.686 3.2 1.727.382.807.368.611.368 5.051v3.987H74.94l-.03-3.75c-.018-2.314-.05-3.822-.083-3.935-.09-.307-.209-.493-.464-.729-.991-.913-3.08-.807-4.197.213-.363.332-.529.61-.64 1.074-.074.307-.091.853-.117 3.744l-.03 3.383-.88.015c-.675.01-.886-.001-.905-.053zm14.428-.257c-.495-.062-1.217-.272-1.602-.466-.484-.245-.682-.456-.945-1.006l-.233-.488-.028-3.463a260.242 260.242 0 0 0-.04-3.474 17.563 17.563 0 0 0-.89-.026l-.878-.015-.015-.695-.015-.695h.865c.744 0 .871-.012.912-.085.028-.05.037-1.192.021-2.756l-.026-2.67.939.015.938.014-.02 2.661c-.016 2.093-.007 2.678.046 2.741.056.069.307.08 1.766.08h1.7l-.015.669-.014.669-1.69.026c-1.097.017-1.709.046-1.745.083-.039.039-.052 1.082-.042 3.42l.014 3.364.207.212c.312.32.595.397 1.446.395a6.302 6.302 0 0 0 2.077-.341c.165-.057.32-.103.344-.103.025 0 .045.33.045.733v.734l-.198.1c-.684.35-1.873.498-2.924.367zm4.118-12.06v-3.829h2.78v7.66h-2.78zm4.011 3.765c-.014-.036-.019-1.14-.011-2.453l.014-2.387 1.377-.014 1.377-.014v4.934h-1.366c-1.044 0-1.371-.016-1.39-.066zm0-5.93c-.015-.037-.02-.421-.012-.853l.014-.784h2.728V20.804l-1.352.013c-1.077.011-1.357 0-1.378-.055z" fill="#2f608c"/>
    </g>
</svg>
