<svg xmlns="http://www.w3.org/2000/svg" width="377.953" height="158.74" viewBox="0 0 100 42">
    <path d="M.364 22.225c0-4.005 1.188-7.142 3.565-9.4 2.376-2.257 5.454-3.398 9.209-3.398 2.46 0 4.681.535 6.666 1.593 1.972 1.069 3.481 2.554 4.515 4.456 1.034 1.9 1.557 4.051 1.557 6.464 0 2.447-.547 4.634-1.64 6.559-1.093 1.936-2.638 3.386-4.634 4.384-2.008.998-4.159 1.486-6.476 1.486-2.52 0-4.765-.547-6.737-1.64-1.985-1.093-3.47-2.59-4.492-4.492a12.465 12.465 0 0 1-1.533-6.012zm61.812-4.468c-.499 0-.962.095-1.39.273a3.638 3.638 0 0 0-1.129.737c-.32.32-.582.69-.784 1.105-.19.416-.32.867-.368 1.343h6.808c0-.487-.07-.939-.202-1.367a3.37 3.37 0 0 0-.606-1.093 2.86 2.86 0 0 0-.974-.737 3.441 3.441 0 0 0-1.355-.261zm5.348 7.569v2.567c-4.777 2.46-11.396.796-11.396-5.205 0-1.117.167-2.103.511-2.923a5.958 5.958 0 0 1 1.355-2.067 5.518 5.518 0 0 1 1.96-1.248 6.612 6.612 0 0 1 2.318-.416c.748 0 1.461.107 2.115.345a4.33 4.33 0 0 1 1.71 1.08c.488.488.856 1.13 1.141 1.902.274.784.416 1.723.416 2.816v.262c0 .07 0 .237-.012.499h-9.244c.618 4.48 6.808 4.325 9.126 2.388zm-16.505 6.666h39.984v1.77H52.54zM96.552 9.915h3.327v2.079h-3.327zm.024 3.125h3.327v5.834h-3.327zm-4.634-3.173h3.327v9.03h-3.327zM90.92 25.956v1.865c-2.08 1.2-5.906.547-6.523-.82-.084-.19-.535-.95-.5-1.402v-7.545l-2.067.036-.048-1.77h2.115l-.035-6.382 2.293.036-.047 6.345h4.087l-.047 1.688-4.04.047v7.676c0 .262.25.368.332.511.998.69 3.327.214 4.48-.285zM70.447 28.76V16.402h2.008v1.759c.974-1.355 2.376-2.032 4.206-2.032.808 0 1.533.13 2.198.392.678.273 1.177.63 1.51 1.058.332.44.558.95.7 1.544.084.393.12 1.07.12 2.044v7.593h-2.246v-7.522c0-.225 0-.451-.012-.653-.036-.535-.12-.95-.25-1.26-.166-.415-.475-.748-.927-1.01-.44-.25-.962-.38-1.556-.38-.963 0-1.783.285-2.484.856-.475.392-.784 1.022-.927 1.9a7.408 7.408 0 0 0-.107 1.32v6.749zM51.197 9.831h2.282v21.092h-2.282zm-7.676-.25l4.242.096-9.767 11.609 12.607 12.75-5.205.012-11.347-11.645v11.609h-3.767V9.689h3.767v10.516zM4.012 22.273c0 2.911.856 5.193 2.579 6.868 1.734 1.664 3.909 2.507 6.511 2.507 2.662 0 4.848-.843 6.56-2.53 1.71-1.7 2.578-4.088 2.578-7.19 0-1.96-.369-3.671-1.105-5.144a7.94 7.94 0 0 0-3.22-3.399c-1.415-.808-2.995-1.212-4.753-1.212-2.508 0-4.658.773-6.453 2.33-1.806 1.556-2.697 4.146-2.697 7.77z" class="fil3" clip-rule="evenodd" fill="#304c83" stroke-width=".012" image-rendering="optimizeQuality" shape-rendering="geometricPrecision" text-rendering="geometricPrecision"/>
</svg>
