<svg xmlns="http://www.w3.org/2000/svg" width="377.953" height="158.74" viewBox="0 0 100 42">
    <path d="M11.025 6.286c3.262-.129 5.912.85 7.959 2.906 2.037 2.067 3.065 4.648 3.065 7.742 0 2.65-.761 4.984-2.284 6.99-2.017 2.67-4.865 4.005-8.543 4.005-3.688 0-6.545-1.265-8.562-3.816-1.582-2.017-2.383-4.4-2.383-7.159 0-3.105 1.038-5.685 3.105-7.752 2.076-2.066 4.617-3.045 7.643-2.916zm.187.978c-1.878 0-3.302.98-4.29 2.927-.792 1.602-1.187 3.906-1.187 6.902 0 3.56.613 6.19 1.839 7.9.86 1.186 2.056 1.78 3.599 1.78 1.038 0 1.908-.258 2.6-.762.89-.662 1.582-1.71 2.077-3.154.494-1.444.741-3.322.741-5.636 0-2.768-.257-4.835-.761-6.2-.504-1.374-1.147-2.343-1.928-2.906-.781-.564-1.681-.85-2.69-.85zm18.45 18.727v5.36c0 .74.06 1.245.178 1.502.12.267.297.465.534.593.238.12.712.178 1.424.178v.574H23.74v-.574c.623-.02 1.088-.197 1.394-.533.198-.238.297-.85.297-1.83V16.064c0-1.018-.119-1.67-.346-1.957-.238-.277-.683-.436-1.345-.475v-.574h5.923v1.889c.494-.732.998-1.266 1.512-1.602a4.35 4.35 0 0 1 2.403-.712c1.038 0 1.987.327 2.838.999.85.662 1.493 1.582 1.938 2.759.445 1.176.662 2.442.662 3.796 0 1.464-.217 2.789-.682 3.995-.455 1.206-1.127 2.126-1.997 2.759-.87.632-1.84.949-2.907.949a4.57 4.57 0 0 1-2.176-.534c-.504-.257-1.038-.712-1.591-1.365zm0-1.552c.87 1.246 1.79 1.879 2.789 1.879.534 0 .989-.297 1.344-.88.525-.86.782-2.502.782-4.924 0-2.492-.287-4.183-.86-5.102-.386-.603-.9-.91-1.543-.91-1.018 0-1.849.751-2.511 2.254zm17.353-16.64v5.26h3.362v1.522h-3.362v8.889c0 .83.04 1.364.119 1.602.079.247.207.435.405.593.188.148.366.218.524.218.653 0 1.276-.515 1.859-1.523l.455.336c-.82 1.978-2.146 2.956-3.975 2.956-.9 0-1.661-.247-2.274-.76-.623-.505-1.018-1.079-1.187-1.702-.098-.346-.158-1.295-.158-2.837V14.58h-1.839v-.534c1.266-.92 2.353-1.878 3.243-2.887a17.832 17.832 0 0 0 2.334-3.362zm8.108-1.711c.652 0 1.206.227 1.66.702.456.464.683 1.028.683 1.68 0 .663-.227 1.217-.692 1.682a2.264 2.264 0 0 1-1.651.692 2.248 2.248 0 0 1-1.651-.692 2.305 2.305 0 0 1-.683-1.681c0-.653.228-1.217.683-1.681a2.184 2.184 0 0 1 1.65-.702zm2.116 6.97v11.41c0 1.019.118 1.672.346 1.948.237.277.692.445 1.364.485v.554h-7.633V26.9c.623-.02 1.088-.208 1.384-.554.208-.237.307-.86.307-1.878v-8.405c0-1.018-.119-1.67-.346-1.957-.237-.277-.682-.436-1.345-.475v-.574zm8.948 0v1.889c.771-.86 1.493-1.463 2.155-1.8a4.602 4.602 0 0 1 2.166-.514c.91 0 1.67.208 2.284.643.613.435 1.087 1.088 1.424 1.968.81-.92 1.582-1.592 2.313-1.998a4.724 4.724 0 0 1 2.324-.613c.979 0 1.76.218 2.343.683a3.55 3.55 0 0 1 1.206 1.74c.228.702.337 1.819.337 3.361v5.893c0 1.108.099 1.8.296 2.067.198.267.613.445 1.236.524v.554h-7.307V26.9c.574-.05.999-.277 1.276-.672.178-.287.267-.92.267-1.919v-6.18c0-1.295-.05-2.105-.149-2.451-.098-.356-.257-.613-.474-.781a1.228 1.228 0 0 0-.771-.258c-.426 0-.87.169-1.315.495-.445.316-.89.8-1.345 1.453v7.722c0 1.039.089 1.691.257 1.958.237.386.682.593 1.335.633v.554h-7.317V26.9c.396-.02.702-.119.93-.307.227-.178.375-.395.454-.642.08-.247.11-.801.11-1.642v-6.18c0-1.304-.05-2.125-.15-2.451-.098-.337-.266-.594-.504-.772a1.206 1.206 0 0 0-.76-.276c-.406 0-.782.108-1.108.316-.475.326-.98.87-1.513 1.641v7.722c0 1.019.099 1.691.297 2.017.197.317.603.515 1.236.574v.554h-7.288V26.9c.594-.06 1.009-.257 1.266-.583.168-.228.257-.9.257-2.008v-8.127c0-1.088-.099-1.76-.297-2.027-.197-.267-.603-.445-1.226-.524v-.574zm27.725 12.27c-1.72 1.553-3.273 2.324-4.648 2.324-.8 0-1.473-.267-2.007-.81-.534-.534-.8-1.207-.8-2.017 0-1.098.464-2.087 1.393-2.967.93-.88 2.947-2.046 6.062-3.5v-1.453c0-1.088-.06-1.77-.178-2.057-.11-.277-.337-.524-.653-.741a1.964 1.964 0 0 0-1.088-.307c-.652 0-1.196.148-1.621.445-.257.178-.396.395-.396.643 0 .217.149.484.425.8.386.445.584.87.584 1.286 0 .504-.188.93-.554 1.285-.376.346-.85.524-1.443.524-.633 0-1.167-.197-1.602-.583-.425-.386-.643-.85-.643-1.365 0-.741.287-1.443.86-2.115.584-.673 1.385-1.197 2.413-1.553a9.639 9.639 0 0 1 3.203-.534c1.335 0 2.393.287 3.184.86.771.584 1.286 1.217 1.513 1.889.148.435.208 1.424.208 2.976v5.587c0 .652.03 1.067.079 1.236.05.168.128.296.227.385.099.08.218.119.346.119.267 0 .534-.188.81-.574l.446.376c-.504.761-1.019 1.315-1.562 1.651-.534.346-1.147.514-1.84.514-.8 0-1.433-.197-1.888-.573-.455-.386-.732-.969-.83-1.75zm0-1.126v-4.816c-1.217.732-2.126 1.513-2.72 2.344-.395.554-.593 1.107-.593 1.67 0 .475.168.89.504 1.256.248.277.604.416 1.058.416.505 0 1.088-.297 1.75-.87z" class="fil7" clip-rule="evenodd" fill="#2b2a29" stroke-width=".01" image-rendering="optimizeQuality" shape-rendering="geometricPrecision" text-rendering="geometricPrecision"/>
    <path d="M35.249 32.675c.316.07.544.168.702.317.208.207.316.464.316.761 0 .218-.069.435-.207.643a1.272 1.272 0 0 1-.584.455c-.247.099-.613.148-1.117.148h-2.106v-.129h.168c.178 0 .317-.059.396-.178.05-.079.079-.247.079-.504v-2.937c0-.286-.03-.464-.1-.533-.078-.1-.207-.149-.375-.149h-.168v-.118h1.928c.356 0 .643.02.86.079.336.079.584.217.762.425.168.208.257.435.257.702 0 .227-.07.435-.208.613-.128.178-.336.316-.603.405zm-1.72-.188c.079.02.168.03.276.04.11.01.218.01.346.01.317 0 .564-.03.722-.098a.844.844 0 0 0 .366-.327.902.902 0 0 0 .129-.474.86.86 0 0 0-.317-.683c-.217-.187-.524-.286-.93-.286-.217 0-.414.03-.592.079zm0 2.176c.257.059.504.089.751.089.395 0 .702-.09.91-.267a.877.877 0 0 0 .316-.683.96.96 0 0 0-.148-.504c-.09-.168-.247-.296-.455-.385-.218-.1-.475-.139-.791-.139h-.356c-.089.01-.168.02-.227.03zm5.962-2.74v1.86c0 .356.01.573.02.652.02.08.049.139.079.168.04.03.079.05.128.05.07 0 .148-.02.237-.06l.04.12-.9.375h-.148v-.653c-.257.287-.455.465-.593.544a.935.935 0 0 1-.426.109.69.69 0 0 1-.444-.148.744.744 0 0 1-.258-.386c-.049-.158-.069-.376-.069-.662v-1.375a.666.666 0 0 0-.05-.296.291.291 0 0 0-.138-.129.794.794 0 0 0-.326-.05v-.118h1.058v2.057c0 .286.05.474.148.563a.502.502 0 0 0 .346.129c.1 0 .208-.03.327-.09.118-.059.257-.177.425-.345v-1.74c0-.169-.03-.287-.09-.357-.068-.059-.197-.089-.395-.099v-.118zm1.493-1.7c.099 0 .168.04.237.1.07.068.099.147.099.236 0 .1-.03.178-.099.248a.306.306 0 0 1-.237.099.321.321 0 0 1-.238-.1.37.37 0 0 1-.098-.247c0-.089.03-.168.098-.237a.365.365 0 0 1 .238-.099zm.277 1.612v2.462c0 .198.01.326.04.385.029.07.068.11.118.149.06.03.158.04.296.04v.128h-1.463v-.129c.148 0 .247-.01.297-.04.05-.029.089-.078.118-.148.03-.059.05-.187.05-.385V33.12c0-.336-.01-.553-.03-.652-.02-.07-.04-.119-.079-.149-.03-.03-.08-.04-.129-.04-.069 0-.138.02-.227.05l-.05-.118.91-.376zm1.868-1.612v4.074c0 .198.01.326.04.385.03.06.069.11.128.139.06.04.168.05.317.05v.128H42.14v-.129c.138 0 .227-.01.276-.04a.26.26 0 0 0 .119-.147c.03-.06.05-.188.05-.386v-2.788c0-.346-.01-.564-.03-.643a.262.262 0 0 0-.07-.158.198.198 0 0 0-.128-.04c-.06 0-.128.01-.217.05l-.06-.119.9-.376zm2.967 4.43c-.149.148-.287.267-.436.336a.977.977 0 0 1-.444.099c-.337 0-.623-.138-.87-.425-.248-.277-.366-.633-.366-1.078 0-.435.138-.84.405-1.206.277-.366.623-.554 1.048-.554a.91.91 0 0 1 .663.257v-.563c0-.347-.01-.564-.02-.643a.33.33 0 0 0-.08-.168.209.209 0 0 0-.138-.04.64.64 0 0 0-.227.05l-.04-.119.9-.376h.148v3.55c0 .366.01.583.02.662.02.08.05.139.09.168.029.03.078.05.118.05.06 0 .138-.02.237-.06l.04.12-.9.375h-.148zm0-.238v-1.582a.927.927 0 0 0-.12-.415.666.666 0 0 0-.256-.287.693.693 0 0 0-.326-.099c-.188 0-.356.09-.515.267-.197.238-.296.574-.296 1.019 0 .455.099.8.286 1.038.198.247.406.366.643.366.208 0 .396-.109.584-.307zm2.007-4.192c.099 0 .178.04.237.1.07.068.099.147.099.236 0 .1-.03.178-.099.248a.293.293 0 0 1-.237.099.321.321 0 0 1-.238-.1.37.37 0 0 1-.098-.247c0-.089.04-.168.098-.237a.365.365 0 0 1 .238-.099zm.277 1.612v2.462c0 .198.01.326.04.385.029.07.068.11.118.149.06.03.158.04.296.04v.128h-1.463v-.129c.148 0 .247-.01.297-.04.05-.029.089-.078.118-.148.03-.059.05-.187.05-.385V33.12c0-.336-.01-.553-.03-.652-.02-.07-.04-.119-.079-.149-.03-.03-.08-.04-.129-.04-.069 0-.138.02-.227.05l-.05-.118.91-.376zm1.71.643c.356-.426.692-.643 1.009-.643.168 0 .306.04.425.118a.89.89 0 0 1 .287.416c.049.138.069.346.069.623v1.305c0 .198.02.326.05.395.019.06.058.1.118.139.05.03.148.04.296.04v.128h-1.493v-.129h.06c.148 0 .247-.02.296-.059a.336.336 0 0 0 .119-.198c.01-.03.01-.138.01-.316V33.04c0-.277-.03-.484-.109-.603-.069-.129-.188-.198-.356-.198-.257 0-.524.149-.78.445v1.612c0 .207.009.336.039.385.03.07.069.12.128.149.05.03.158.04.326.04v.128h-1.492v-.129h.069c.148 0 .257-.04.306-.118.05-.08.08-.228.08-.455V33.16c0-.366-.01-.594-.02-.673a.38.38 0 0 0-.08-.168c-.03-.03-.079-.04-.138-.04-.06 0-.138.02-.217.05l-.05-.118.91-.376h.138zm3.303 1.394a1.02 1.02 0 0 1-.573-.93c-.001-.306.108-.563.335-.78.228-.218.514-.327.86-.327.287 0 .544.07.752.207h.643c.089 0 .148.011.158.011.02.01.03.02.04.03.01.02.02.06.02.108 0 .06-.01.1-.02.12-.01.01-.02.019-.04.029-.01.01-.07.01-.158.01h-.396c.119.159.188.366.188.613a.99.99 0 0 1-.326.742c-.218.198-.505.297-.87.297-.149 0-.297-.02-.455-.06a.931.931 0 0 0-.198.218.446.446 0 0 0-.05.168c0 .03.02.07.06.109.03.03.099.059.207.079.06.01.218.01.465.02.445.01.742.03.88.05.198.029.366.098.485.227a.658.658 0 0 1 .188.464c0 .257-.12.495-.356.712-.337.326-.791.485-1.335.485-.425 0-.781-.09-1.078-.287-.158-.109-.247-.227-.247-.346 0-.06.01-.109.04-.168.039-.08.108-.198.227-.346.02-.02.128-.139.336-.356-.109-.07-.198-.129-.237-.188a.277.277 0 0 1-.07-.188c0-.08.03-.168.09-.277.059-.099.207-.247.435-.445zm.573-1.879a.525.525 0 0 0-.415.198c-.109.128-.158.336-.158.603 0 .356.069.633.217.82a.549.549 0 0 0 .435.228c.168 0 .307-.07.415-.198.11-.118.159-.326.159-.593 0-.356-.07-.633-.228-.84a.508.508 0 0 0-.425-.218zm-.613 3.006a1.47 1.47 0 0 0-.227.316.51.51 0 0 0-.08.267c0 .109.06.208.188.287.218.138.534.208.95.208.395 0 .692-.07.88-.218.187-.138.276-.287.276-.455 0-.118-.05-.198-.168-.247-.108-.05-.336-.08-.672-.089-.494-.01-.88-.04-1.147-.07zm6.16-.129V35h-1.918v-.129h.158c.188 0 .326-.059.405-.168.05-.07.08-.237.08-.514v-2.937c0-.227-.01-.385-.04-.454a.331.331 0 0 0-.139-.149.672.672 0 0 0-.306-.079h-.158v-.118h1.918v.118h-.158c-.188 0-.317.06-.406.168-.05.07-.079.238-.079.514v2.937c0 .227.01.386.04.455.03.06.069.109.138.148.099.05.198.08.307.08zm1.256-2.392c.356-.426.692-.643 1.008-.643.168 0 .307.04.425.118a.89.89 0 0 1 .287.416c.05.138.07.346.07.623v1.305c0 .198.01.326.049.395.02.06.059.1.108.139.06.03.159.04.307.04v.128H61.53v-.129h.06c.138 0 .237-.02.296-.059a.48.48 0 0 0 .119-.198c.01-.03.01-.138.01-.316V33.04c0-.277-.04-.484-.11-.603-.069-.129-.187-.198-.355-.198-.267 0-.524.149-.781.445v1.612c0 .207.01.336.03.385.039.07.078.12.128.149.06.03.168.04.326.04v.128H59.77v-.129h.06c.157 0 .256-.04.316-.118.05-.08.079-.228.079-.455V33.16c0-.366-.01-.594-.03-.673a.297.297 0 0 0-.07-.168.209.209 0 0 0-.138-.04c-.059 0-.138.02-.217.05l-.05-.119.9-.375h.149zm4.44-.643v1.038h-.11c-.079-.326-.188-.544-.316-.662a.73.73 0 0 0-.504-.178.542.542 0 0 0-.366.118c-.099.09-.148.178-.148.277 0 .129.04.237.108.326.07.09.208.188.416.287l.474.237c.455.228.672.515.672.88a.821.821 0 0 1-.306.673 1.098 1.098 0 0 1-.702.257c-.188 0-.396-.03-.633-.1-.069-.019-.128-.039-.178-.039-.05 0-.089.03-.118.09h-.11V33.94h.11c.059.316.178.553.355.712a.831.831 0 0 0 .584.237c.148 0 .277-.05.366-.139a.422.422 0 0 0 .148-.326.546.546 0 0 0-.158-.385c-.109-.11-.326-.238-.643-.406-.316-.158-.524-.296-.623-.435a.755.755 0 0 1-.148-.474c0-.258.089-.465.257-.643.168-.168.386-.247.653-.247.118 0 .267.02.435.069.108.04.187.06.227.06.03 0 .06-.011.08-.03.019-.011.039-.05.068-.1zm3.321.089v1.859c0 .356.01.573.02.652.02.08.05.139.08.168.039.03.078.05.128.05a.52.52 0 0 0 .227-.06l.05.12-.9.375h-.149v-.653c-.257.287-.454.465-.593.544a.944.944 0 0 1-.435.109.663.663 0 0 1-.435-.148.69.69 0 0 1-.257-.386 2.276 2.276 0 0 1-.08-.662v-1.375c0-.138-.009-.247-.039-.296a.291.291 0 0 0-.138-.129.794.794 0 0 0-.326-.05v-.118h1.058v2.057c0 .286.05.474.138.563a.51.51 0 0 0 .356.129c.099 0 .208-.03.326-.09.119-.059.257-.177.425-.345v-1.74c0-.169-.03-.287-.098-.357-.06-.059-.188-.089-.386-.099v-.118zm1.76-1.7v4.073c0 .198.02.326.04.385.03.06.069.11.128.139.06.04.168.05.327.05v.128h-1.483v-.129c.138 0 .237-.01.286-.04.05-.029.09-.078.119-.147.02-.06.04-.188.04-.386v-2.788c0-.346-.01-.564-.02-.643-.02-.08-.04-.129-.08-.158-.03-.03-.079-.04-.128-.04-.06 0-.129.01-.217.05l-.06-.119.9-.376zm2.551 4.33c-.316.237-.504.386-.583.415a.84.84 0 0 1-.376.09.673.673 0 0 1-.524-.218.841.841 0 0 1-.198-.574.7.7 0 0 1 .1-.385c.088-.159.246-.297.464-.435a7.532 7.532 0 0 1 1.117-.485v-.129c0-.306-.05-.514-.148-.622-.09-.119-.227-.178-.415-.178a.441.441 0 0 0-.327.118c-.089.08-.128.158-.128.257l.01.198a.36.36 0 0 1-.08.237.249.249 0 0 1-.197.09.27.27 0 0 1-.208-.09.36.36 0 0 1-.079-.237c0-.198.099-.376.297-.534.188-.158.464-.237.81-.237.268 0 .485.04.663.138.129.07.218.178.287.327.04.089.06.286.06.583v1.048c0 .287 0 .465.009.534.01.07.03.109.06.128.02.03.049.04.088.04.03 0 .06-.01.09-.02.049-.03.138-.118.266-.247v.188c-.247.336-.484.504-.702.504a.306.306 0 0 1-.257-.118c-.07-.08-.099-.208-.099-.386zm0-.218V33.16a9.926 9.926 0 0 0-.642.287 1.119 1.119 0 0 0-.376.306.655.655 0 0 0 .03.761c.098.1.207.159.326.159.168 0 .385-.12.662-.337zm2.156-3.42v1.008h.702v.227h-.702v1.998c0 .197.03.336.089.405.05.07.128.099.207.099.08 0 .149-.02.218-.07a.405.405 0 0 0 .158-.197h.129c-.08.217-.188.386-.327.494a.709.709 0 0 1-.435.168.573.573 0 0 1-.296-.089.53.53 0 0 1-.218-.247 1.42 1.42 0 0 1-.07-.494V32.15h-.474v-.108a1.14 1.14 0 0 0 .366-.248c.129-.118.247-.257.336-.415.06-.089.129-.237.218-.465zm1.77-.693c.089 0 .168.04.237.1.06.069.089.148.089.237 0 .099-.03.177-.09.247a.321.321 0 0 1-.236.099.293.293 0 0 1-.238-.1.328.328 0 0 1-.099-.246c0-.09.03-.169.1-.238a.328.328 0 0 1 .237-.099zm.267 1.612v2.462c0 .198.02.326.04.385.029.07.068.11.128.149.05.03.148.04.296.04v.128h-1.473v-.129c.148 0 .247-.01.297-.04a.26.26 0 0 0 .118-.148c.04-.059.05-.187.05-.385V33.12c0-.336-.01-.553-.03-.652a.345.345 0 0 0-.07-.149.209.209 0 0 0-.138-.04c-.059 0-.138.02-.227.05l-.04-.118.91-.376zm2.313 0c.455 0 .82.178 1.098.524.237.306.356.652.356 1.038 0 .277-.07.554-.198.84a1.415 1.415 0 0 1-.534.633 1.367 1.367 0 0 1-.761.218c-.455 0-.811-.188-1.078-.554a1.732 1.732 0 0 1-.346-1.048c0-.277.07-.564.208-.84.138-.277.316-.485.543-.613.218-.139.455-.198.712-.198zm-.109.217a.685.685 0 0 0-.346.1.765.765 0 0 0-.286.375c-.07.178-.11.406-.11.682 0 .445.09.83.268 1.157.168.317.405.485.682.485a.647.647 0 0 0 .534-.267c.138-.178.208-.485.208-.92 0-.554-.119-.979-.346-1.295a.704.704 0 0 0-.604-.316zm2.888.426c.346-.426.682-.643 1.008-.643.158 0 .307.04.425.119.119.089.208.227.277.415.05.138.08.346.08.623v1.305c0 .198.01.326.039.395.03.06.069.1.118.139.06.03.159.04.297.04v.128h-1.493v-.129h.07c.138 0 .237-.02.296-.059a.384.384 0 0 0 .109-.198c.01-.03.02-.138.02-.316V33.04c0-.277-.04-.484-.11-.603-.069-.129-.187-.198-.365-.198-.257 0-.514.149-.771.445v1.612c0 .207.01.336.03.385.029.07.078.12.128.149.06.03.168.04.326.04v.128h-1.493v-.129h.07c.148 0 .256-.04.306-.118.06-.08.089-.228.089-.455V33.16c0-.366-.01-.594-.03-.673-.02-.079-.04-.138-.079-.168-.03-.03-.08-.04-.129-.04-.069 0-.138.02-.227.05l-.05-.118.91-.376h.149z" class="fil7" clip-rule="evenodd" fill="#2b2a29" stroke-width=".01" image-rendering="optimizeQuality" shape-rendering="geometricPrecision" text-rendering="geometricPrecision"/>
</svg>
