<svg xmlns="http://www.w3.org/2000/svg" width="377.953" height="158.74" viewBox="0 0 100 42">
    <g stroke-width=".265">
        <path d="M60.732 40.101c-.459-.2-.554-.607-.231-.99.15-.179.175-.259.104-.33-.07-.07-.068-.16.009-.374.086-.238.082-.308-.024-.46a.92.92 0 0 1-.126-.45c0-.61.337-.822 1.31-.822.438 0 .724.038.822.11.185.135.111.374-.116.374-.138 0-.164.052-.164.328 0 .428-.323.772-.797.847-.418.067-.43.194-.018.194.973 0 1.436.478 1.125 1.162-.205.45-1.273.682-1.894.411zm1.574-.184c.405-.302.433-.864.054-1.113-.108-.07-.442-.152-.744-.182-.408-.04-.548-.085-.548-.174 0-.08.128-.144.38-.19.542-.099.787-.352.787-.814 0-.312.024-.366.162-.366.088 0 .16-.049.16-.11 0-.102-.664-.21-1.314-.211-.55-.002-.902.778-.53 1.174.16.172.162.187.028.391-.116.176-.123.248-.042.424.085.188.073.233-.11.403-.254.235-.263.506-.025.726.242.222.408.26 1.017.227.35-.019.58-.077.725-.185zm-1.26-.146c-.21-.146-.232-.374-.053-.553.273-.273 1.242-.113 1.242.205 0 .043-.088.167-.197.276-.234.233-.713.268-.993.072zm.95-.118c.13-.13.145-.195.077-.322-.065-.123-.169-.16-.45-.16-.439 0-.676.113-.676.322 0 .337.756.452 1.049.16zm-.835-1.756c-.155-.171-.178-.662-.037-.803.148-.148.452-.115.545.06.123.23.101.62-.043.764-.166.166-.302.16-.465-.02zm.427-.089c.112-.209.106-.515-.013-.633-.136-.137-.36-.12-.418.03-.12.312.018.759.233.759.063 0 .153-.07.198-.156zm-36.927 1.737c-.023-.062-.031-.288-.018-.504l.025-.393.62-.094c.836-.127 1.048-.24 1.174-.624.08-.245.098-1.614.08-6.28-.02-5.474-.033-5.988-.16-6.22-.179-.326-.566-.564-1.117-.685-.24-.053-.48-.13-.536-.173-.125-.095-.134-.832-.011-.908.163-.1 5.401-.354 5.56-.269.12.064.148.178.148.6 0 .303.035.52.083.52.046 0 .27-.147.499-.328.472-.373.95-.628 1.592-.848.598-.205 2.011-.205 2.698-.001 1.325.393 2.405 1.372 3.017 2.733.614 1.364.77 3.46.364 4.868-.48 1.661-1.927 3.227-3.481 3.767-1.347.469-3.283.392-4.385-.174a1.023 1.023 0 0 0-.307-.111c-.063 0-.082.48-.064 1.645.023 1.52.037 1.662.193 1.872.223.301.469.412 1.219.552 1.092.204 1 .14.972.664l-.024.46-4.049.022c-3.391.017-4.056.002-4.092-.091zm8.06-.409v-.398l-.77-.136c-1.529-.27-1.557-.314-1.591-2.52-.015-.947.006-1.714.047-1.755.045-.045.23.004.47.121.761.376.981.416 2.287.416 1.066 0 1.33-.027 1.812-.18.81-.256 1.527-.703 2.174-1.356a5.566 5.566 0 0 0 1.39-2.25c.203-.6.218-.736.217-2.013-.001-1.068-.034-1.484-.147-1.892-.659-2.379-2.173-3.735-4.363-3.91-1.134-.09-2.324.298-3.319 1.084-.229.181-.454.33-.5.33-.048 0-.082-.23-.082-.561 0-.454-.027-.575-.141-.633-.15-.076-5.267.175-5.414.266-.045.028-.082.21-.082.406 0 .35.004.355.342.442.948.245 1.206.41 1.438.919.14.31.149.66.15 6.27.002 6.4.007 6.336-.414 6.61-.103.068-.478.171-.832.23l-.644.107-.026.308c-.047.577-.357.537 4.03.514l3.968-.02zm-1.234-5.488a1.733 1.733 0 0 1-.664-.565c-.486-.706-.477-.633-.477-4.068V25.86l.33-.305c.552-.51 1.474-.698 2.262-.462.692.208 1.34 1.057 1.647 2.16.223.803.203 3.422-.033 4.28-.31 1.126-.814 1.895-1.427 2.174-.482.219-1.126.195-1.638-.06zm1.544.008c.65-.272 1.225-1.165 1.477-2.296.196-.877.197-3.304.002-4.026-.28-1.031-.74-1.73-1.367-2.072-.19-.103-.444-.141-.945-.141-.755 0-1.044.105-1.51.547l-.262.248.001 3.105c.001 3.084.002 3.107.189 3.507.395.846.94 1.243 1.713 1.247.227 0 .543-.053.702-.12zm11.028 5.479c-.234-.17-.344-.592-.345-1.32 0-.507-.025-.61-.174-.731-.235-.19-.138-.308.31-.375.532-.08.588.026.588 1.112 0 .953.055 1.06.448.88.187-.085.197-.125.197-.81 0-.65-.016-.727-.161-.773-.089-.028-.162-.117-.162-.199 0-.117.087-.16.417-.205.58-.08.63.007.63 1.092 0 .755.02.875.161 1.003.262.237.067.374-.517.363a6.627 6.627 0 0 0-.852.04c-.267.038-.409.018-.54-.077zm.862-.084c.147-.076.251-.09.283-.04.055.09.627.11.71.026.03-.03-.009-.123-.086-.209-.112-.123-.15-.352-.182-1.094l-.04-.938-.282.022c-.466.035-.5.074-.273.302.197.196.208.248.18.856-.032.693-.138.874-.516.874-.316 0-.395-.21-.438-1.16l-.04-.894-.321.026c-.177.015-.335.04-.352.056-.016.017.047.128.14.247.146.185.17.325.17.965 0 .712.01.756.213.915.25.197.514.212.834.046zm6.861.043c-.308-.193-.576-.719-.576-1.13 0-.415.268-.938.576-1.126.168-.102.408-.162.649-.162h.382v-.365c0-.275-.034-.378-.14-.416-.236-.083-.335-.192-.289-.313.066-.172 1.039-.161 1.105.013.027.07.05.79.05 1.6 0 1.424.005 1.478.174 1.59.118.079.158.162.122.256-.043.113-.15.138-.558.133a7.573 7.573 0 0 0-.866.04c-.284.037-.42.011-.629-.12zm1.414 0c.391.006.503-.018.503-.11 0-.064-.053-.138-.119-.163-.098-.038-.123-.321-.14-1.64l-.023-1.593-.393-.025c-.47-.03-.655.094-.35.233.214.097.298.28.3.653.001.273-.11.342-.52.32-.66-.036-1.128.459-1.127 1.19.002.772.433 1.256 1.044 1.171a6.71 6.71 0 0 1 .825-.037zm-1.15-.408c-.21-.232-.26-1.016-.085-1.352.209-.405.725-.458.91-.094.147.29.133 1.21-.022 1.43-.164.236-.597.244-.803.016zm.64.034c.103-.04.127-.185.127-.749 0-.739-.063-.893-.366-.893-.286 0-.466.281-.502.788-.027.382-.003.498.142.682.172.218.348.269.6.172zm18.896.461c-.232-.041-.289-.094-.349-.326-.071-.278.025-.65.168-.65.037 0 .185.145.327.323.272.337.554.42.726.211.151-.182.032-.32-.496-.574-.755-.363-.9-.816-.418-1.299.179-.179.253-.195.776-.174.567.023.58.029.646.265.083.302.017.604-.133.604-.062 0-.191-.109-.286-.241-.178-.25-.455-.318-.622-.152-.153.153-.025.299.381.434.484.16.805.468.805.772 0 .695-.545.984-1.525.807zm1.1-.168a.652.652 0 0 0 .296-.799c-.052-.15-.22-.281-.584-.457-.562-.27-.727-.456-.572-.643.164-.197.492-.136.783.145l.27.262-.024-.362-.026-.363-.47-.024c-.538-.028-.817.104-.948.45-.135.356.079.695.547.868.457.168.67.332.67.514 0 .416-.556.443-.921.044-.142-.155-.285-.281-.318-.281-.032 0-.048.154-.034.342.023.321.042.345.306.392.522.092.764.071 1.025-.088zm1.89.107c-.225-.182-.333-.615-.336-1.345-.001-.465-.028-.572-.175-.691-.234-.189-.14-.308.297-.373.553-.083.601-.005.601.974 0 .456.022.887.05.957.061.162.266.163.496.002.16-.112.179-.195.179-.767 0-.606-.011-.646-.201-.733-.111-.05-.202-.155-.202-.232 0-.108.095-.154.405-.197.608-.083.642-.028.642 1.045 0 .801.018.92.161 1.05.262.237.067.373-.517.36a5.95 5.95 0 0 0-.853.043c-.29.045-.4.026-.547-.093zm.87-.069c.147-.076.251-.09.282-.04.069.11.662.102.732-.01.03-.051-.004-.125-.076-.166-.11-.062-.132-.224-.132-.986 0-1.033-.04-1.116-.51-1.04-.27.044-.504.189-.306.189.233 0 .332.265.332.891 0 .702-.136.96-.507.96-.328 0-.378-.139-.378-1.052 0-.612-.03-.886-.106-.948-.098-.081-.7-.042-.7.046 0 .02.073.129.161.242.134.17.161.326.161.922 0 .654.018.735.198.915.226.226.512.252.849.077zm4.386.004c-.238-.238-.265-.67-.057-.923.077-.094.358-.26.624-.367.49-.198.615-.359.44-.57-.156-.188-.4-.146-.4.068 0 .374-.476.532-.646.215-.28-.525.706-1.029 1.399-.713.289.132.375.401.375 1.18 0 .656.012.707.21.866.2.158.204.176.076.305-.157.157-.532.18-.67.042-.072-.071-.169-.071-.408 0-.476.143-.724.116-.943-.103zm.933-.006c.215-.11.257-.11.438.009a.522.522 0 0 0 .403.08c.244-.06.26-.171.041-.288-.144-.078-.16-.169-.16-.893 0-.758-.013-.818-.208-1.013-.185-.185-.255-.203-.658-.17-.364.03-.487.08-.639.256-.149.174-.17.251-.104.375.152.283.48.131.48-.222 0-.15.045-.185.226-.185.285 0 .419.132.419.412 0 .194-.055.24-.463.393-.598.223-.826.436-.826.773 0 .187.061.31.213.429.252.198.514.212.838.044zm-.492-.37c-.127-.238.004-.495.336-.655.147-.071.295-.112.33-.09.115.07.068.659-.063.79-.182.181-.494.158-.603-.046zm.494.007c.169-.09.229-.642.07-.642-.312 0-.635.416-.474.61.114.137.195.143.404.032zm2.461.4c-.206-.163-.212-.193-.212-1.042 0-.844-.006-.875-.18-.9-.259-.037-.278-.286-.031-.398.153-.07.209-.164.227-.384.023-.274.04-.29.306-.29.268 0 .283.015.307.301.021.252.055.302.206.302.258 0 .49.19.429.351-.034.088-.146.133-.335.133h-.285v.708c0 .776.06.902.42.902.294 0 .307.259.02.39-.309.14-.635.113-.872-.074zm.79.007c.261-.1.267-.243.01-.243-.375 0-.456-.187-.43-.995l.022-.737.262-.025c.3-.029.371-.256.08-.258-.275-.002-.366-.094-.396-.402-.022-.239-.056-.281-.228-.281-.174 0-.204.04-.226.302-.014.166-.052.302-.085.302-.033 0-.13.052-.217.115-.15.11-.149.117.065.2l.222.084v.847c0 .74.02.868.16 1.009.177.176.44.204.76.082zm3.822-.023c-.358-.24-.556-.647-.555-1.146 0-.733.501-1.248 1.215-1.248.939 0 1.469.97 1.042 1.91a1.17 1.17 0 0 1-1.702.484zm1.132-.017c.55-.285.776-.971.531-1.613-.333-.873-1.61-.928-2.009-.087-.501 1.057.499 2.206 1.478 1.7zm-.867-.323c-.31-.393-.29-1.223.035-1.582.203-.225.55-.192.757.071.15.19.17.302.145.798-.021.423-.07.622-.181.745a.487.487 0 0 1-.756-.032zm.597.058c.285-.19.372-1.044.15-1.472-.155-.3-.527-.331-.718-.059-.164.234-.165 1.04-.002 1.355.121.235.368.31.57.176zm-48.969.306c-.068-.11.097-.325.25-.325.09 0 .11-.246.11-1.278 0-1.224-.007-1.284-.174-1.395-.115-.077-.158-.163-.124-.252.044-.114.18-.135.895-.135.893 0 1.185.067 1.477.342.271.253.252.773-.04 1.068-.168.17-.194.234-.106.264.19.066.468.41.51.633a.963.963 0 0 1-.366.93c-.233.167-.367.188-1.318.212-.72.018-1.076-.003-1.114-.064zm2.212-.123c.53-.274.659-.925.262-1.322-.122-.122-.276-.24-.342-.263-.092-.032-.058-.1.141-.288.458-.43.312-1.059-.284-1.224-.424-.118-1.764-.11-1.84.012-.032.052-.015.11.038.127.299.1.335.254.335 1.437 0 1.14-.005 1.17-.202 1.352-.11.103-.2.21-.2.238 0 .028.418.051.93.051.667 0 .995-.034 1.162-.12zm-1.12-.235c-.058-.07-.085-.327-.07-.664.023-.54.028-.552.253-.577.54-.062.931.352.818.866a.694.694 0 0 1-.226.368c-.218.152-.652.156-.775.007zm.686-.028c.133-.089.274-.389.274-.581 0-.28-.363-.58-.666-.55-.25.024-.261.039-.285.422-.04.624.023.77.328.769.143 0 .3-.028.35-.06zm-.74-1.579c-.023-.06-.03-.323-.017-.583.024-.47.027-.475.285-.5.192-.018.313.028.463.178.257.257.258.564.005.817-.218.218-.665.272-.736.088zm.635-.071c.074-.055.158-.215.185-.354a.476.476 0 0 0-.516-.577c-.198.023-.218.059-.241.417-.014.216-.006.443.017.504.054.138.375.144.555.01zm5.613 1.961c0-.083.055-.173.121-.198.096-.037.12-.206.12-.814 0-.68-.017-.778-.16-.867-.363-.226-.09-.465.53-.465.287 0 .356.23.356 1.2 0 .74.022.898.133.96.08.046.113.127.083.206-.04.104-.168.13-.616.13-.502 0-.567-.016-.567-.152zm1.047-.042c0-.063-.045-.129-.1-.147-.07-.024-.113-.335-.141-1.034l-.04-1-.363.028c-.446.034-.494.076-.262.232.168.114.181.181.181.95 0 .675-.023.835-.125.875-.247.094-.02.21.412.21.324 0 .438-.03.438-.114zm1.047.042c0-.083.054-.173.12-.198.102-.04.122-.278.122-1.46v-1.414l-.207-.08c-.134-.05-.198-.128-.18-.219.02-.112.125-.145.518-.164.455-.022.496-.01.542.161.027.102.05.847.05 1.657.001 1.234.021 1.48.122 1.519.067.025.121.115.121.198 0 .136-.065.153-.604.153-.539 0-.604-.017-.604-.153zm1.128-.004c0-.042-.064-.112-.141-.155-.126-.07-.144-.255-.166-1.696l-.025-1.616h-.398c-.292 0-.398.03-.398.115 0 .064.069.137.152.164.22.07.248.26.25 1.634 0 1.12-.013 1.241-.156 1.364-.087.074-.139.164-.116.2.057.093.998.083.998-.01zm4.51.004c0-.083.054-.173.12-.198.096-.037.12-.206.12-.814 0-.68-.018-.778-.16-.867-.363-.226-.09-.465.53-.465.287 0 .356.23.356 1.2 0 .74.021.898.133.96.08.046.113.127.083.206-.04.104-.168.13-.617.13-.501 0-.566-.016-.566-.152zm1.046-.042c0-.063-.045-.129-.1-.147-.07-.024-.113-.335-.142-1.034l-.04-1-.362.028c-.446.034-.494.076-.262.232.168.114.181.181.181.95 0 .675-.023.835-.126.875-.246.094-.019.21.413.21.324 0 .438-.03.438-.114zm1.08.101c-.033-.052.017-.155.115-.234.155-.126.174-.22.174-.868 0-.651-.018-.74-.172-.848-.1-.07-.152-.17-.125-.242.066-.17.588-.255.817-.132.137.073.227.076.35.01.237-.127.675-.11.88.035.234.163.343.588.343 1.342 0 .493.028.635.134.695.08.045.113.126.083.205-.04.103-.168.13-.612.13-.612 0-.796-.111-.504-.305.157-.105.175-.187.175-.815 0-.713-.066-.892-.326-.892-.279 0-.399.266-.399.887 0 .491.03.623.17.772.093.1.145.22.116.267-.074.12-1.146.113-1.22-.007zm1.094-.057c0-.04-.054-.116-.12-.171-.091-.076-.121-.278-.121-.81 0-.644.017-.723.179-.837.213-.15.477-.162.61-.028.062.062.097.377.097.877 0 .62-.025.79-.121.827-.276.106-.095.212.362.212.498 0 .585-.07.363-.293-.091-.09-.121-.314-.121-.895 0-.684-.02-.796-.175-.96-.203-.216-.669-.254-.914-.075-.13.095-.178.095-.324 0a.582.582 0 0 0-.428-.062c-.323.065-.384.159-.175.27.147.08.164.167.164.88 0 .607-.029.817-.121.894-.218.18-.128.241.362.241.266 0 .483-.031.483-.07zm7.168-.006c0-.106.07-.18.2-.213l.202-.05v-2.534l-.207-.094c-.13-.06-.197-.147-.18-.235.022-.115.132-.144.629-.164.7-.028.966.022.966.183 0 .063-.1.162-.221.22l-.222.106-.022 1.222-.022 1.222.223.107c.123.059.224.161.224.227 0 .096-.155.124-.785.143-.742.021-.785.014-.785-.14zm1.45.005c0-.04-.092-.131-.204-.204l-.204-.134.023-1.265c.021-1.225.027-1.268.203-1.345.32-.14.144-.241-.462-.266-.666-.027-.835.055-.529.255l.206.135v2.577l-.2.09c-.108.05-.179.122-.155.16.056.09 1.321.089 1.321-.003zm1.152.021c-.03-.079.003-.16.083-.205.11-.062.133-.212.133-.843 0-.69-.018-.783-.174-.91-.095-.077-.149-.18-.119-.229.085-.137.757-.214.893-.102.083.07.158.072.275.01.089-.048.3-.085.469-.084.58.005.75.288.75 1.255 0 .606.024.73.17.885.25.267.128.354-.492.354-.616 0-.772-.105-.493-.33.162-.132.175-.205.154-.845-.027-.795-.125-.947-.5-.775-.2.09-.208.12-.208.788 0 .613.02.71.174.834.277.224.117.328-.504.328-.443 0-.572-.028-.611-.13zm1.102.003c0-.027-.073-.14-.161-.253-.233-.296-.23-1.201.006-1.5.188-.24.481-.278.673-.086.177.177.182 1.498.005 1.645-.218.18-.127.241.363.241.485 0 .58-.06.37-.235-.082-.068-.122-.338-.142-.944-.025-.778-.043-.861-.217-1.002-.227-.184-.579-.198-.893-.035-.203.104-.241.104-.33-.002-.071-.087-.18-.106-.39-.068-.379.069-.378.067-.18.32.143.18.171.326.171.875 0 .454-.037.706-.118.814-.188.25-.152.277.36.277.265 0 .483-.021.483-.047zm8.649.034c-.033-.052.018-.155.116-.234.165-.134.174-.206.174-1.47v-1.33l-.215-.156c-.146-.106-.197-.2-.162-.292.043-.11.14-.132.517-.113l.464.025.022 1.567c.02 1.46.033 1.579.19 1.745.091.098.143.218.113.265-.073.119-1.145.113-1.22-.007zm1.095-.057c0-.04-.054-.116-.12-.17-.095-.08-.122-.402-.14-1.68l-.022-1.583-.353-.025c-.444-.032-.569.077-.295.257l.205.134v1.398c0 1.144-.022 1.416-.12 1.498-.219.18-.128.241.362.241.266 0 .483-.032.483-.07zm6.603-.002c0-.084.055-.173.121-.198.096-.037.121-.206.121-.814 0-.68-.018-.778-.161-.867-.362-.227-.09-.465.53-.465.288 0 .356.23.356 1.199 0 .742.022.9.133.962.08.045.113.126.083.205-.04.104-.168.13-.616.13-.502 0-.567-.017-.567-.152zm1.047-.042c0-.063-.045-.129-.1-.147-.07-.024-.113-.335-.141-1.034l-.04-1-.363.028c-.456.034-.488.068-.24.255.182.137.202.214.228.874.025.65.01.738-.137.865-.236.202-.144.273.355.273.325 0 .438-.03.438-.114zm4.381.101c-.032-.052.018-.155.116-.234.155-.126.174-.22.174-.868 0-.651-.018-.74-.172-.848-.1-.07-.152-.17-.125-.242.066-.17.588-.255.817-.132.137.073.227.076.35.01.237-.127.675-.11.88.034.234.164.343.59.343 1.343 0 .493.028.635.134.695.08.045.113.126.083.205-.04.103-.168.13-.611.13-.613 0-.797-.111-.505-.305.157-.105.175-.188.175-.815 0-.713-.066-.892-.326-.892-.279 0-.399.266-.399.886 0 .492.03.624.17.773.093.1.145.22.116.267-.074.119-1.146.113-1.22-.007zm1.095-.057c0-.04-.054-.116-.12-.171-.091-.076-.121-.278-.121-.811 0-.643.017-.722.179-.836.23-.16.497-.16.631.002.06.072.12.414.14.797.032.608.02.685-.135.818-.263.225-.21.271.312.271.498 0 .585-.07.363-.293-.091-.09-.121-.314-.121-.895 0-.684-.02-.796-.175-.96-.203-.216-.669-.254-.914-.075-.13.095-.178.095-.324-.001a.582.582 0 0 0-.428-.061c-.323.065-.384.159-.175.27.147.08.164.167.164.88 0 .607-.029.817-.121.894-.218.18-.128.241.362.241.266 0 .483-.032.483-.07zm-44.4-2.815c-.282-.313-.092-.692.324-.644.163.02.247.09.305.256.07.198.054.251-.108.383-.236.19-.351.192-.52.005zm.476-.1c.115-.126.13-.197.064-.301-.11-.175-.326-.217-.475-.093-.152.126-.148.276.01.434.165.165.22.16.4-.04zm7.256.1c-.284-.313-.093-.692.323-.644.163.02.247.09.305.256.07.198.054.251-.108.383-.236.19-.351.192-.52.005zm.474-.1c.115-.126.13-.197.065-.301-.11-.175-.326-.217-.475-.093-.152.126-.149.276.01.434.165.165.22.16.4-.04zm29.951.084c-.117-.13-.132-.21-.07-.383.063-.181.124-.219.354-.219.233 0 .291.037.359.23.07.198.055.251-.108.383-.24.194-.351.192-.535-.011zm.49-.083c.115-.127.13-.198.064-.302-.11-.175-.326-.217-.475-.093-.152.126-.148.276.01.434.165.165.22.16.4-.04zm-72.481-1.08c-3.34-.611-5.783-2.807-6.664-5.99-.147-.53-.171-.835-.171-2.186 0-1.452.016-1.631.216-2.376 1.174-4.364 5.313-6.856 10.081-6.07 3.544.584 6.264 3.205 6.838 6.588.327 1.934.024 4.096-.81 5.757-1 1.995-2.952 3.552-5.156 4.112-1.157.294-3.206.372-4.334.166zm3.442-.081c4.336-.654 7.123-4.256 6.88-8.894-.201-3.86-2.824-6.789-6.747-7.533-.843-.16-2.654-.162-3.56-.003-3.656.637-6.236 3.33-6.743 7.038-.133.972-.058 2.576.161 3.463.77 3.112 3.474 5.478 6.808 5.959.78.112 2.355.097 3.201-.03zm-2.602-1.114c-1.473-.417-2.488-1.915-2.95-4.35-.202-1.06-.202-4.446 0-5.51.597-3.142 1.907-4.547 4.137-4.434.872.045 1.427.283 2.022.869 1.134 1.115 1.672 2.86 1.765 5.725.133 4.076-.885 6.85-2.778 7.568-.569.216-1.667.282-2.196.132zm2.309-.29c1.227-.574 2.01-1.92 2.414-4.155.208-1.147.211-4.074.006-5.304-.367-2.197-1.15-3.574-2.373-4.176-.507-.25-.583-.264-1.425-.264-.842 0-.917.014-1.424.264-1.665.82-2.563 3.22-2.561 6.84.002 3.917 1.11 6.449 3.06 6.988.688.19 1.658.11 2.303-.192zm27.569 1.442c-1.512-.24-2.423-1.125-2.65-2.577-.047-.295-.083-2.038-.084-4.006v-3.483h-.923c-.861 0-.93-.012-1.016-.172-.098-.183-.07-1.068.038-1.175.034-.034.493-.074 1.021-.09l.96-.026v-1.601c0-1.5.01-1.606.156-1.684.093-.05.813-.084 1.777-.084s1.684.034 1.777.084c.146.078.156.184.156 1.686v1.603l1.483.025c.816.014 1.511.053 1.545.087.107.107.135.992.038 1.175-.09.166-.142.172-1.584.172h-1.491l.024 3.564c.024 3.426.031 3.577.194 3.925.334.713.777.878 2.015.753.437-.044.842-.064.9-.044.074.026.097.188.08.568l-.023.532-.604.231c-1.29.495-2.75.702-3.79.537zm2.436-.197c.297-.063.84-.235 1.208-.381l.668-.267.024-.459.024-.459-1.111.016c-1.325.019-1.54-.062-1.873-.709l-.205-.398v-7.252l1.49-.04 1.49-.04.024-.585.023-.583-1.433-.002c-.788 0-1.477-.03-1.531-.064-.072-.045-.105-.507-.121-1.67l-.022-1.606H41.66l-.022 1.607c-.016 1.162-.05 1.624-.12 1.67-.055.034-.509.063-1.009.063l-.91.002.024.583.024.584.94.023.939.023.032 3.802c.03 3.654.039 3.824.209 4.338a2.846 2.846 0 0 0 2.007 1.833c.487.115 2.259.097 2.855-.03zm36.108.108c-.841-.289-1.511-.86-1.835-1.562-.156-.34-.185-.535-.184-1.248 0-.747.026-.899.216-1.307.491-1.05 1.401-1.616 3.729-2.317.753-.227 1.713-.53 2.134-.672l.765-.26.026-.843c.053-1.737-.367-2.415-1.492-2.41-.45.001-1.153.232-1.15.376.002.036.074.334.162.663.195.735.196.924.007 1.334-.307.665-.846.949-1.821.959-1.14.012-1.859-.448-2.043-1.309-.156-.727.005-1.158.655-1.752.535-.489 1.309-.872 2.31-1.143.707-.192.9-.209 2.38-.209 1.24 0 1.735.031 2.154.136 1.156.288 2.022.92 2.424 1.77.362.767.396 1.215.333 4.496-.052 2.7-.044 3.058.072 3.302.184.389.4.493 1.135.547l.646.049v.965l-.475.188c-.818.325-1.528.437-2.504.394-1.145-.05-1.658-.235-2.146-.77a4.779 4.779 0 0 1-.439-.538c-.082-.145-.112-.133-.477.188-.46.405-1.336.85-2.009 1.02-.71.181-1.978.158-2.573-.047zm2.5-.03c.715-.168 1.284-.442 1.9-.915.297-.228.576-.415.62-.415.044 0 .14.128.214.284.192.403.687.798 1.224.974.697.229 2.256.21 3.118-.036.928-.266 1.02-.341.991-.804l-.024-.378-.613-.043c-.691-.05-.965-.186-1.17-.582-.122-.236-.13-.554-.082-3.361.059-3.415.024-3.816-.4-4.596-.626-1.148-1.767-1.648-3.979-1.74-2.115-.09-3.814.34-4.974 1.258-.528.417-.74.823-.74 1.414 0 .578.221 1.018.66 1.308.316.21.383.222 1.272.222.888 0 .955-.012 1.272-.221.184-.122.397-.34.474-.484.174-.326.17-1.087-.008-1.58-.2-.554-.174-.643.245-.828.291-.13.498-.159.947-.136 1.042.052 1.38.505 1.519 2.034.045.503.06 1.005.032 1.117-.058.229-.553.448-1.864.826-3.644 1.051-4.624 1.654-4.993 3.071-.55 2.108.813 3.724 3.14 3.727.4 0 .948-.051 1.22-.116zm.272-1.738c-.587-.248-.84-.723-.838-1.573.001-.546.037-.726.223-1.106.122-.25.356-.565.52-.702.334-.28 1.648-.939 2.022-1.014l.247-.05v1.812c0 2.055.005 2.037-.69 2.444-.4.235-1.151.33-1.484.19zm1.01-.085c.21-.053.506-.221.72-.41l.363-.319v-3.54l-.18.054c-.1.03-.4.148-.665.263-1.485.643-1.971 1.251-1.972 2.472-.001.822.145 1.14.64 1.389.406.205.585.22 1.094.091zm-37.233 1.604c-.127-.127-.124-.747.004-.852.056-.046.316-.123.578-.171.558-.103.829-.26.936-.54.045-.118.077-1.698.077-3.77 0-3.565 0-3.566-.181-3.832-.267-.392-.535-.559-1.156-.72l-.556-.144-.024-.425c-.014-.233.01-.46.053-.503.044-.043 1.28-.145 2.75-.225 2.273-.125 2.785-.133 2.916-.047.01.006.037 2.131.06 4.722.04 4.334.055 4.728.186 4.921.151.223.51.411 1.106.58l.362.102.025.433c.016.29-.01.453-.08.498-.178.113-6.942.087-7.056-.027zm6.975-.053c.068-.044.097-.191.08-.413l-.024-.345-.54-.175c-.298-.096-.62-.245-.716-.331-.394-.35-.395-.373-.395-5.225 0-4.252-.01-4.554-.141-4.62-.178-.09-5.327.186-5.432.29-.041.042-.063.23-.05.42l.026.346.483.134c.653.18.958.353 1.181.666l.188.263.023 3.661c.016 2.664-.004 3.724-.072 3.89-.114.275-.532.5-1.078.58-.222.032-.43.1-.462.15-.094.147-.072.575.035.682.114.113 6.717.14 6.894.027zm1.078.053c-.127-.127-.124-.747.004-.852.056-.046.316-.123.578-.171.56-.103.829-.26.938-.547.05-.129.07-1.582.057-3.807l-.023-3.598-.2-.301c-.226-.337-.614-.57-1.092-.657-.175-.032-.363-.093-.419-.137-.114-.09-.134-.688-.029-.854.052-.082.568-.136 2.073-.217 1.101-.06 2.298-.13 2.658-.156.862-.064.915-.014.915.85 0 .357.034.639.078.639.043 0 .263-.165.49-.367 1.082-.96 1.933-1.284 3.378-1.284.75 0 1.025.035 1.45.182.783.27 1.448.83 1.902 1.598.083.142.123.124.563-.257 1.091-.943 1.633-1.234 2.707-1.451.752-.153 1.692-.118 2.37.086 1.16.35 1.969 1.38 2.199 2.798.045.28.082 1.879.083 3.582 0 1.8.033 3.16.079 3.281.099.26.474.491 1.002.616.225.054.436.137.468.186.095.143.07.733-.035.838-.113.114-6.475.14-6.652.027-.071-.045-.097-.208-.08-.502l.024-.435.482-.095c.823-.162.777.078.75-3.844l-.024-3.39-.201-.402c-.28-.557-.615-.765-1.24-.765-.642 0-1.328.317-1.8.832l-.342.373v6.598l.18.206c.1.113.381.272.625.354l.443.148.025.381c.013.212-.018.433-.07.496-.08.096-.616.115-3.21.115-2.316 0-3.14-.025-3.212-.097-.13-.13-.123-.747.008-.856.058-.048.266-.112.463-.142.197-.03.42-.087.497-.126.284-.145.316-.575.29-3.853l-.026-3.18-.216-.462c-.275-.588-.579-.786-1.203-.786-.791-.001-1.602.41-2.03 1.027l-.22.317.023 3.187c.026 3.693-.015 3.508.835 3.813l.476.17.025.38c.014.21-.018.43-.07.493-.08.096-.637.115-3.371.115-2.44 0-3.3-.025-3.373-.097zm6.652-.08c.155-.155.123-.705-.044-.762a10.795 10.795 0 0 1-.567-.236c-.673-.298-.661-.226-.661-3.928v-3.174l.367-.41c.497-.552 1.226-.912 1.862-.917.535-.005.873.138 1.177.499.408.485.419.599.419 4.26v3.41l-.214.183c-.122.105-.383.21-.604.243-.215.032-.417.1-.45.15-.093.147-.07.575.036.682.138.138 6.11.138 6.249 0 .053-.054.096-.236.096-.405 0-.261-.033-.32-.221-.393-.63-.244-.898-.422-1-.664-.083-.197-.107-.968-.107-3.442v-3.188l.292-.355c.822-.997 2.307-1.294 3-.602.516.517.54.737.515 4.496-.026 3.825.03 3.555-.757 3.71l-.473.094-.026.354c-.016.229.012.378.08.422.178.112 6.379.086 6.493-.027.106-.107.128-.537.035-.676-.033-.048-.237-.132-.454-.185a3.554 3.554 0 0 1-.623-.216c-.453-.234-.457-.267-.493-3.985-.036-3.672-.047-3.775-.484-4.626-.58-1.13-1.907-1.747-3.467-1.613-.725.063-1.294.217-1.867.505-.421.212-1.23.823-1.564 1.18-.263.283-.423.264-.604-.071-.634-1.178-2.199-1.815-3.881-1.58-1.127.158-1.815.491-2.74 1.326-.228.205-.455.374-.504.374-.058 0-.088-.25-.088-.722 0-.607-.023-.734-.141-.794-.223-.112-5.263.192-5.349.323-.105.161-.042.645.094.715.067.035.297.108.513.163.483.122.833.407 1.027.835.136.3.148.604.15 3.85.001 2.816-.021 3.58-.11 3.792-.128.308-.462.489-1.056.574-.222.031-.43.099-.462.15-.094.146-.072.574.035.68.139.14 6.432.14 6.571 0zm-11.91-13.032c-1.07-.178-1.844-1.074-1.842-2.132.001-.606.19-1.038.65-1.479.63-.605 1.6-.81 2.454-.52.517.176 1.248.895 1.386 1.364.47 1.6-.92 3.053-2.648 2.767zm1.42-.27c.509-.236 1.03-.818 1.165-1.3.3-1.073-.41-2.232-1.558-2.543-.72-.195-1.735.088-2.243.624-.505.534-.691 1.46-.423 2.104.454 1.091 1.945 1.635 3.06 1.116z"/>
        <path d="M60.907 40.085c-.253-.068-.524-.36-.524-.562 0-.1.093-.27.206-.374.183-.17.195-.215.11-.403-.08-.176-.074-.248.042-.424.134-.204.133-.22-.029-.391-.371-.396-.02-1.176.53-1.174.651.001 1.316.109 1.316.212 0 .06-.073.11-.161.11-.138 0-.162.053-.162.365 0 .462-.245.715-.788.814-.251.046-.38.11-.38.19 0 .09.141.134.549.174.302.03.636.112.744.182.379.249.351.81-.054 1.113-.216.16-1.057.261-1.4.168zm.002-.266a.472.472 0 0 1-.106-.402c.024-.165.001-.245-.069-.245-.106 0-.27.242-.27.397 0 .133.306.408.455.408.12 0 .12-.015-.01-.158zm1.129-.12c.23-.231.242-.31.07-.481-.083-.084-.272-.127-.557-.127-.46 0-.685.132-.685.404 0 .405.827.548 1.172.204zm.52-.36c0-.08-.071-.236-.158-.346-.128-.162-.252-.209-.665-.247-.609-.057-.788-.118-.788-.267 0-.062-.033-.112-.074-.112-.138 0-.147.2-.019.422.119.207.164.222.661.222.43 0 .563.031.678.158.136.15.136.23.004.607-.044.124-.01.11.152-.065.115-.124.208-.292.208-.372zm-1.49-1.398c-.14-.2-.16-.641-.038-.868.112-.21-.032-.207-.244.005-.226.226-.204.58.054.874.24.272.42.263.229-.011zm.967-.089c.061-.095.103-.339.095-.552-.015-.362-.028-.383-.24-.383-.197 0-.214.02-.14.156.102.192.11.784.01.846-.041.025-.055-.09-.031-.266.051-.384-.083-.655-.326-.655-.257 0-.376.148-.376.472 0 .384.175.552.572.552.242 0 .353-.043.436-.17zm-37.294 1.61c-.024-.061-.032-.251-.018-.42l.026-.31.644-.106c.354-.059.729-.162.832-.23.42-.274.416-.21.414-6.61-.001-5.61-.01-5.96-.15-6.27-.232-.51-.49-.674-1.438-.919-.338-.087-.343-.093-.343-.442 0-.195.038-.378.083-.406.147-.09 5.264-.342 5.414-.266.113.058.14.18.14.633 0 .33.035.56.083.56.046 0 .27-.148.5-.329.994-.786 2.184-1.175 3.318-1.084 2.191.175 3.705 1.531 4.364 3.91.113.408.145.824.146 1.892.002 1.277-.013 1.413-.216 2.014a5.566 5.566 0 0 1-1.39 2.25c-.647.652-1.365 1.1-2.174 1.356-.481.152-.746.179-1.812.179-1.306 0-1.526-.04-2.288-.416-.238-.117-.424-.166-.469-.121-.041.041-.062.808-.047 1.754.034 2.207.062 2.252 1.59 2.521l.771.136v.796l-3.968.021c-3.347.018-3.975.003-4.012-.092zm7.924-.305l-.024-.338-.575-.096c-.766-.128-1.157-.26-1.389-.467-.371-.332-.412-.57-.412-2.393V34.16l.181.043c.1.023.407.137.683.253.723.304 1.308.39 2.357.347 1.58-.066 2.718-.58 3.746-1.69 1.074-1.16 1.55-2.576 1.465-4.368-.086-1.833-.56-3.058-1.58-4.075-.95-.95-1.777-1.28-3.21-1.281-1.197-.001-2.063.32-3.03 1.125-.217.181-.434.316-.483.3-.049-.016-.107-.298-.129-.627l-.04-.598-.311-.025c-.496-.04-4.995.225-5.07.3-.036.037-.055.185-.04.33.024.25.047.267.571.398.668.167.93.35 1.165.81l.182.355v6.026c0 6.496.004 6.418-.419 6.696-.105.068-.48.173-.832.233l-.642.108-.025.337-.024.337h7.91zm-.683-5.226c-.67-.127-1.125-.511-1.516-1.282l-.201-.397v-6.428l.347-.32c.5-.46.95-.61 1.727-.575.824.038 1.284.3 1.753.997.612.912.802 1.88.741 3.784-.061 1.91-.389 2.965-1.153 3.707-.478.465-1.046.636-1.698.514zm1.142-.224c.614-.279 1.119-1.048 1.428-2.173.236-.859.256-3.478.033-4.28-.307-1.104-.955-1.953-1.647-2.16-.789-.237-1.71-.05-2.262.46l-.33.306v3.155c0 3.435-.009 3.362.477 4.068.476.692 1.525.976 2.301.624zm10.963 5.298c-.202-.159-.212-.203-.212-.915 0-.64-.025-.78-.17-.965-.094-.12-.157-.23-.14-.247.016-.016.174-.041.35-.056l.322-.026.04.894c.043.95.122 1.16.438 1.16.378 0 .484-.181.516-.874.027-.608.017-.66-.18-.856-.228-.228-.193-.267.273-.302l.282-.022.04.938c.032.742.07.971.182 1.094.077.086.116.18.087.21-.084.084-.656.063-.712-.027-.03-.05-.135-.036-.282.04-.32.166-.583.151-.834-.046zm.512.039c0-.026-.081-.114-.18-.194-.166-.133-.185-.228-.21-1.04l-.027-.893h-.239c-.23 0-.234.006-.113.179.09.13.125.379.125.91 0 .733.064.937.322 1.03.17.06.322.064.322.008zm1.078-.174c-.037-.078-.08-.549-.094-1.047l-.027-.906h-.205c-.167 0-.193.026-.14.14.11.236.133 1.363.033 1.55-.118.221.018.404.3.404.162 0 .187-.027.133-.141zm6.16.17c-.338-.216-.509-.578-.51-1.082-.001-.73.467-1.225 1.127-1.19.41.023.52-.046.52-.319-.003-.373-.087-.556-.3-.653-.306-.14-.12-.263.35-.233l.393.025.022 1.594c.018 1.318.043 1.601.141 1.64.066.024.12.098.12.162 0 .092-.113.116-.504.11a6.714 6.714 0 0 0-.826.036c-.226.032-.385.005-.533-.09zm.574.013c0-.02-.105-.092-.232-.158-.242-.125-.309-.233-.413-.67-.076-.313.04-.888.22-1.086.163-.18.088-.264-.122-.134-.613.383-.585 1.619.044 1.96.213.116.503.166.503.088zm.996-.183c-.037-.078-.079-.839-.094-1.691l-.026-1.55h-.237c-.265 0-.285.05-.113.277.157.208.153.804-.008.964-.114.114-.114.143 0 .306.15.213.175 1.27.037 1.528-.104.194.01.304.319.306.153 0 .177-.027.122-.14zm-.558-.2c.155-.22.168-1.14.022-1.43-.185-.364-.701-.31-.91.094-.174.336-.125 1.12.085 1.352.206.228.639.22.803-.015zm18.808.43c-.264-.046-.283-.07-.306-.391-.014-.188.002-.342.034-.342.033 0 .176.126.318.281.365.399.92.372.92-.043 0-.183-.212-.347-.67-.515-.468-.173-.681-.512-.546-.867.131-.347.41-.479.947-.451l.471.024.025.363.026.362-.271-.262c-.291-.281-.62-.342-.783-.145-.155.187.01.372.572.643.551.266.701.486.601.883-.105.419-.604.59-1.338.46zm.003-.326c-.135-.252-.244-.274-.244-.05 0 .154.042.206.164.206.137 0 .15-.025.08-.156zm1.286-.325c0-.252-.315-.55-.727-.687-.426-.142-.603-.347-.52-.606.028-.089.013-.158-.035-.158-.104 0-.19.32-.154.575.02.144.163.258.59.471.55.275.564.29.564.588 0 .305 0 .306.14.132.078-.095.142-.237.142-.315zm-.161-1.37c0-.112-.054-.162-.174-.162-.168 0-.169.005-.028.161.08.089.159.161.174.161.015 0 .028-.072.028-.16zm1.808 1.895c-.18-.18-.198-.26-.198-.915 0-.596-.027-.752-.16-.922-.09-.113-.162-.222-.162-.242 0-.088.602-.127.7-.046.075.062.106.336.106.948 0 .913.05 1.053.378 1.053.37 0 .507-.26.507-.96 0-.626-.099-.892-.332-.892-.198 0 .037-.145.305-.188.47-.077.51.006.51 1.039 0 .762.022.924.133.986.072.04.106.115.075.165-.069.113-.662.121-.73.011-.032-.05-.136-.036-.283.04-.338.175-.623.149-.849-.077zm.527.07c0-.026-.08-.113-.18-.193-.162-.132-.182-.232-.21-1.04l-.03-.894h-.238c-.229 0-.232.006-.111.179.09.13.125.379.125.91 0 .733.064.937.322 1.03.17.06.322.064.322.008zm1.08-.174c-.035-.078-.079-.549-.096-1.047-.031-.895-.034-.906-.226-.906-.202 0-.259.111-.105.207.058.035.082.353.07.91-.011.47-.015.883-.01.916.007.034.106.06.222.06.17 0 .198-.025.145-.14zm3.723.135a.491.491 0 0 1-.213-.429c0-.337.228-.55.826-.773.408-.152.463-.199.463-.392 0-.281-.134-.413-.419-.413-.182 0-.225.036-.225.185 0 .353-.33.505-.481.222-.066-.124-.045-.201.104-.375.152-.176.275-.225.639-.256.403-.033.473-.015.658.17.195.195.207.255.207 1.013 0 .724.016.815.161.893.218.117.203.228-.04.289a.522.522 0 0 1-.404-.081c-.181-.119-.223-.12-.438-.009-.324.168-.587.154-.838-.044zm.552.006c.028-.044-.007-.08-.077-.08-.07 0-.17-.095-.223-.21-.078-.173-.071-.252.038-.443.113-.197.116-.234.017-.234-.33 0-.555.548-.338.821.163.206.495.289.583.146zm1.05-.157c-.092-.103-.124-.324-.124-.88 0-.689-.014-.757-.206-.948-.236-.237-.335-.207-.194.057.053.099.078.314.056.48-.022.165-.014.342.018.394.032.052.034.257.003.457-.049.322-.033.38.14.516.248.195.497.133.308-.076zm-.653-.13c.13-.131.178-.72.063-.79-.112-.07-.594.213-.677.396-.18.394.304.703.614.393zm-.63-1.448c.06-.24.008-.317-.166-.25-.162.061-.166.455-.005.455.066 0 .143-.093.17-.205zm3.012 1.735c-.141-.14-.161-.269-.161-1.009v-.847l-.222-.085c-.214-.082-.216-.088-.065-.2.086-.062.183-.114.217-.114.033 0 .071-.136.085-.302.022-.262.052-.302.226-.302.171 0 .206.042.228.281.03.308.12.4.396.402.291.002.22.23-.08.258l-.262.025-.023.737c-.025.808.056.995.431.995.257 0 .25.144-.01.243-.321.122-.584.094-.76-.082zm.644 0c.104-.068.102-.078-.014-.08-.309-.002-.389-.219-.389-1.049 0-.467.035-.816.085-.847.055-.034.057-.085.006-.146-.043-.051-.09-.22-.104-.375-.018-.185-.069-.281-.148-.281-.08 0-.13.096-.147.281-.015.155-.062.324-.105.375-.05.061-.048.112.007.146.05.031.084.394.084.893 0 .734.02.862.161 1.002.175.175.374.204.564.08zm4.06.034c-.52-.256-.751-1.094-.468-1.692.4-.841 1.675-.786 2.009.087.415 1.087-.552 2.094-1.542 1.605zm.03-.282c-.265-.358-.265-1.24 0-1.597.1-.137.143-.249.094-.249-.177 0-.55.465-.603.753-.082.434.025.852.284 1.111.306.306.455.294.225-.018zm1.167.055c.438-.405.464-1.266.052-1.678-.248-.248-.51-.32-.293-.08.32.353.333 1.279.023 1.751-.166.254-.052.258.218.007zm-.298-.056c.112-.123.16-.322.181-.745.025-.496.005-.608-.146-.798-.468-.594-1.135.05-1 .967.098.665.609.97.965.576zm-49.009.278c0-.028.09-.135.201-.238.197-.182.202-.212.202-1.352 0-1.183-.036-1.337-.335-1.436-.053-.018-.07-.076-.037-.128.075-.121 1.415-.13 1.839-.012.596.165.742.794.284 1.224-.2.188-.233.256-.141.288.066.022.22.14.342.263.258.258.302.728.096 1.022-.238.34-.526.42-1.52.42-.512 0-.93-.023-.93-.05zm.93-.208c-.145-.208-.177-1.31-.04-1.394.058-.036.056-.086-.007-.162-.055-.067-.08-.345-.064-.718l.027-.608h-.315c-.3 0-.308.008-.181.148.19.21.197 2.463.008 2.734-.125.178-.123.179.286.179.41 0 .411-.001.287-.18zm1.035.101c.351-.133.531-.377.531-.72 0-.253-.048-.356-.247-.524-.364-.306-.526-.265-.273.069.228.302.118.825-.234 1.11-.19.154-.09.184.223.065zm-.218-.204a.694.694 0 0 0 .227-.368c.113-.514-.278-.928-.818-.866-.225.025-.23.037-.254.577-.014.337.013.595.07.664.124.15.558.145.775-.007zm.025-1.349c0-.055.127-.202.282-.325.222-.178.281-.283.281-.498 0-.299-.294-.606-.58-.606-.152 0-.151.006.01.212a.71.71 0 0 1-.075.997c-.162.15-.209.24-.14.267.17.069.222.058.222-.047zm-.117-.339c.253-.253.251-.56-.005-.817-.15-.15-.271-.196-.463-.178-.258.025-.261.03-.285.5-.014.26-.006.523.017.583.07.184.518.13.736-.088zm5.633 1.97c-.028-.045.006-.104.075-.13.103-.04.126-.2.126-.876 0-.768-.013-.835-.18-.949-.233-.156-.185-.198.26-.232l.363-.028.04 1c.029.699.071 1.01.141 1.034.056.018.101.085.101.147 0 .085-.114.114-.438.114-.241 0-.46-.036-.488-.08zm.765-.076c0-.042-.036-.098-.08-.126-.047-.028-.081-.443-.081-.97v-.922h-.235c-.235 0-.235 0-.115.242.128.257.125 1.434-.004 1.71-.056.121-.023.142.225.142.16 0 .29-.034.29-.076zm1.338.09c-.023-.036.03-.126.116-.2.143-.123.157-.244.156-1.364-.002-1.373-.03-1.564-.25-1.634-.083-.026-.152-.1-.152-.164 0-.084.106-.115.398-.115h.398l.025 1.616c.022 1.44.04 1.625.165 1.696.078.043.141.113.141.155 0 .093-.94.103-.997.01zm.756-.09c0-.042-.036-.098-.08-.126-.05-.03-.081-.658-.081-1.615V35.63h-.242c-.27 0-.29.049-.118.277.093.122.118.44.118 1.475 0 .755-.035 1.385-.083 1.474-.075.14-.055.156.201.156.157 0 .285-.034.285-.076zm4.872.075c-.028-.044.006-.103.075-.13.103-.039.126-.199.126-.875 0-.768-.013-.835-.181-.949-.232-.156-.184-.198.262-.232l.362-.028.04 1c.029.699.071 1.01.141 1.034.056.018.101.085.101.147 0 .085-.114.114-.438.114-.241 0-.46-.036-.488-.08zm.765-.075c0-.042-.036-.098-.08-.126-.047-.028-.081-.443-.081-.97v-.922h-.236c-.234 0-.235 0-.114.242.128.257.125 1.434-.004 1.71-.056.121-.024.142.224.142.16 0 .29-.034.29-.076zm1.369.086c0-.04.054-.116.12-.171.093-.077.122-.287.122-.893 0-.714-.017-.801-.164-.88-.21-.112-.148-.206.175-.271a.582.582 0 0 1 .428.061c.146.096.194.096.324 0 .245-.178.711-.14.914.075.154.165.175.277.175.96 0 .582.03.805.12.896.223.223.136.293-.362.293-.457 0-.639-.106-.362-.212.096-.037.12-.208.12-.827 0-.5-.034-.815-.096-.877-.133-.134-.397-.121-.61.028-.162.114-.18.193-.18.836 0 .533.03.735.121.81.219.182.128.242-.362.242-.266 0-.483-.031-.483-.07zm.727-.129c-.066-.079-.093-.39-.081-.946.022-1.082.035-1.029-.243-1.029-.253 0-.302.069-.154.217.056.056.078.408.06.982l-.027.895h.271c.23 0 .257-.018.174-.118zm1.447.043c0-.042-.036-.098-.08-.126-.045-.027-.08-.403-.08-.85 0-.904-.11-1.123-.565-1.123-.291 0-.319.125-.043.194.142.035.225.137.29.354.095.32.072 1.246-.038 1.486-.055.12-.022.14.226.14.16 0 .29-.033.29-.075zm6.088.088c-.024-.038.046-.11.156-.16l.199-.09v-2.577l-.206-.135c-.306-.2-.137-.282.53-.255.605.025.781.126.461.266-.176.077-.182.12-.204 1.345l-.022 1.265.204.134c.111.073.203.165.203.204 0 .092-1.265.094-1.321.002zm.971-.16c-.112-.124-.133-.35-.133-1.433 0-.893.03-1.316.096-1.383.076-.075.013-.096-.283-.096h-.38l.126.193c.104.16.122.407.102 1.39-.014.657-.056 1.258-.093 1.336-.06.124-.023.14.315.14.366 0 .377-.006.25-.146zm1.641.168a.658.658 0 0 1 .12-.217c.082-.108.119-.36.119-.814 0-.548-.028-.695-.17-.875-.199-.253-.2-.251.179-.32.21-.038.319-.019.39.068.089.106.127.106.33.002.314-.163.665-.15.893.035.174.14.192.224.217 1.002.02.606.06.876.141.944.211.175.116.235-.37.235-.49 0-.58-.06-.362-.241.177-.147.172-1.468-.006-1.645-.191-.192-.484-.155-.672.085-.236.3-.24 1.205-.006 1.501.088.113.16.226.16.253 0 .026-.217.047-.482.047-.266 0-.482-.027-.481-.06zm.722-.096c0-.042-.036-.098-.08-.126-.108-.066-.104-1.296.005-1.5.117-.218-.035-.392-.342-.392-.228 0-.232.006-.11.179.146.21.177 1.505.041 1.759-.075.14-.055.156.202.156.156 0 .284-.034.284-.076zm1.317-.347l-.052-.923c-.018-.345-.073-.551-.175-.664-.155-.171-.56-.224-.647-.084-.027.044.02.08.104.08.084 0 .216.07.294.156.12.132.136.284.113 1.007l-.028.851h.208c.2 0 .207-.016.183-.423zm7.703.433c0-.04.054-.116.12-.171.1-.082.121-.354.121-1.498v-1.398l-.205-.134c-.274-.18-.149-.289.295-.257l.353.025.022 1.582c.017 1.279.044 1.601.14 1.681.217.18.126.24-.363.24-.266 0-.483-.031-.483-.07zm.736-.117c-.056-.067-.097-.683-.11-1.671l-.022-1.564-.28-.027c-.275-.026-.278-.023-.136.133.13.143.141.311.119 1.698l-.026 1.538h.272c.216 0 .254-.022.183-.107zm6.963.121c-.022-.036.033-.13.124-.207.148-.127.162-.216.137-.865-.026-.66-.046-.736-.228-.874-.248-.187-.217-.22.24-.255l.362-.028.04 1c.029.699.071 1.01.142 1.034.055.018.1.085.1.147 0 .085-.114.114-.438.114-.24 0-.456-.03-.479-.066zm.756-.09c0-.042-.036-.098-.08-.126-.046-.028-.08-.443-.08-.97v-.922h-.247c-.238 0-.242.006-.12.179.146.21.177 1.505.041 1.759-.075.14-.055.156.201.156.157 0 .285-.034.285-.076zm4.67.086c0-.04.055-.116.122-.171.092-.077.12-.287.12-.893 0-.714-.016-.801-.163-.88-.21-.112-.148-.206.175-.271a.582.582 0 0 1 .428.061c.146.096.194.096.324 0 .245-.178.711-.14.914.075.154.165.175.277.175.96 0 .582.03.805.12.896.223.223.136.293-.362.293-.523 0-.576-.046-.312-.271.154-.133.167-.21.135-.817-.02-.384-.08-.726-.14-.798-.134-.162-.402-.162-.631-.001-.162.113-.18.192-.18.835 0 .533.03.736.121.81.219.182.128.242-.362.242-.266 0-.483-.031-.483-.07zm.728-.129c-.066-.079-.093-.39-.081-.946.022-1.083.035-1.029-.246-1.029-.223 0-.237.015-.154.169.056.105.08.5.063 1.047l-.027.878h.271c.23 0 .257-.018.174-.118zm1.447.043c0-.042-.036-.098-.08-.126-.045-.027-.08-.403-.08-.85 0-.904-.11-1.123-.565-1.123-.286 0-.32.124-.054.191a.5.5 0 0 1 .282.254c.117.256.125 1.362.011 1.574-.075.14-.055.156.202.156.156 0 .284-.034.284-.076zm-45.534-2.789c-.158-.158-.16-.308-.01-.434.15-.124.366-.082.476.093.065.104.05.175-.064.302-.18.2-.236.205-.402.04zm.379-.135c.056-.162-.028-.302-.183-.302-.08 0-.16.045-.18.1-.061.164.022.303.18.303.081 0 .163-.046.183-.1zm7.352.135c-.158-.158-.161-.308-.01-.434.15-.124.366-.082.476.093.065.104.05.175-.065.302-.18.2-.236.205-.4.04zm.379-.135c.056-.162-.028-.302-.183-.302-.08 0-.16.045-.181.1-.06.164.023.303.18.303.082 0 .164-.046.184-.1zm30.061.135c-.157-.158-.16-.308-.01-.434.15-.124.366-.082.476.093.066.104.05.175-.064.302-.18.2-.236.205-.402.04zm.379-.135c.056-.162-.028-.302-.183-.302-.079 0-.16.045-.18.1-.061.164.022.303.18.303.081 0 .164-.046.183-.1zm-72.217-1.035c-3.334-.481-6.037-2.847-6.808-5.96-.219-.886-.294-2.49-.16-3.462.506-3.707 3.086-6.401 6.741-7.038.907-.159 2.718-.157 3.56.003 2.797.53 4.915 2.131 6.048 4.572.997 2.147.952 5.121-.113 7.426-1.097 2.373-3.351 4.02-6.067 4.429-.846.127-2.42.142-3.2.03zm2.832-.078c1.334-.149 2.755-.666 3.801-1.384.549-.377 1.443-1.254 1.829-1.795 1.607-2.253 2.01-5.72.965-8.303-.532-1.313-1.607-2.666-2.717-3.42-.72-.488-1.886-1.016-2.782-1.258-.727-.196-.91-.213-2.398-.213-1.485 0-1.671.017-2.392.212-2.461.665-4.266 2.147-5.299 4.35-1.06 2.263-1.06 5.287-.003 7.4 1.618 3.232 4.944 4.863 8.996 4.411zm-2.396-1.028c-1.171-.387-2.029-1.413-2.567-3.073-.405-1.25-.595-3.32-.478-5.2.235-3.756 1.447-5.805 3.637-6.153 1.568-.248 2.958.563 3.761 2.193.61 1.24.889 2.834.889 5.1 0 2.23-.273 3.741-.914 5.066-.467.966-.946 1.486-1.721 1.869-.557.275-.674.303-1.383.324-.584.017-.885-.014-1.224-.126zm2.359-.17c1.893-.719 2.911-3.492 2.778-7.568-.094-2.865-.632-4.61-1.765-5.725-.595-.586-1.15-.824-2.023-.869-2.229-.113-3.54 1.292-4.136 4.435-.202 1.063-.202 4.448 0 5.51.462 2.434 1.477 3.932 2.95 4.35.528.15 1.627.083 2.196-.133zm66.248 1.098c-1.602-.546-2.313-1.885-1.881-3.544.369-1.417 1.349-2.02 4.993-3.071 1.311-.378 1.806-.597 1.864-.826.028-.112.013-.614-.032-1.117-.14-1.53-.477-1.982-1.52-2.034-.448-.023-.655.007-.946.136-.419.185-.445.274-.245.828.179.493.182 1.254.008 1.58-.077.145-.29.362-.474.484-.317.209-.384.22-1.272.22-.889 0-.956-.01-1.273-.22-.438-.29-.66-.73-.66-1.31 0-.59.213-.996.74-1.413 1.161-.918 2.86-1.347 4.975-1.259 2.212.093 3.353.593 3.978 1.741.425.78.46 1.18.401 4.596-.047 2.807-.04 3.125.082 3.361.205.396.479.532 1.17.582l.613.043.024.378c.03.463-.063.538-.99.804-.863.246-2.422.265-3.119.036-.537-.176-1.032-.57-1.224-.974-.074-.156-.17-.284-.214-.284-.044 0-.323.187-.62.415-.946.726-1.872 1.033-3.118 1.031-.54 0-.861-.047-1.26-.183zm2.83-.13a4.66 4.66 0 0 0 1.704-.963c.206-.182.413-.331.461-.331.048 0 .157.138.244.307.238.467.739.874 1.272 1.034.706.211 2.131.19 2.963-.042.886-.25 1.022-.348.99-.72l-.024-.297-.607-.044c-.698-.05-1.034-.232-1.214-.659-.123-.291-.127-.496-.082-4.33.03-2.422.023-2.562-.143-3.08-.337-1.051-1.22-1.746-2.604-2.05-.925-.203-3.114-.183-4.068.038-1.388.321-2.688 1.094-2.97 1.767-.131.31-.142.892-.024 1.205.235.619.796.907 1.77.91.81.002 1.291-.19 1.587-.635.219-.33.246-1.013.06-1.538-.22-.623-.176-.76.303-.97.51-.222 1.268-.249 1.63-.058.678.358.911.9.98 2.276.044.85.033.99-.087 1.11-.075.075-.67.303-1.32.507l-2.176.683c-2.251.708-3.038 1.347-3.316 2.692-.326 1.582.517 2.893 2.134 3.316.564.147 1.872.081 2.537-.128zm-.201-1.509c-.42-.22-.605-.449-.738-.904-.258-.888.019-1.923.671-2.512.427-.385.758-.576 1.592-.92.99-.409.953-.484.888 1.772l-.05 1.772-.384.366c-.567.54-1.416.723-1.98.426zm1.605-.22c.695-.408.69-.39.69-2.445v-1.811l-.247.05c-.374.074-1.688.732-2.023 1.013-.163.137-.397.453-.519.702-.186.38-.222.56-.223 1.106-.002.85.25 1.325.838 1.573.333.141 1.084.046 1.484-.189zm-43.22 1.877a2.846 2.846 0 0 1-2.006-1.833c-.17-.514-.178-.684-.21-4.338l-.031-3.802-.94-.023-.94-.023-.023-.584-.023-.583.909-.002c.5 0 .954-.03 1.008-.064.072-.045.105-.507.121-1.67l.022-1.606h3.624l.022 1.607c.016 1.162.05 1.624.12 1.67.055.034.744.063 1.532.063l1.433.002-.023.583-.024.584-1.49.04-1.49.04v7.253l.205.398c.333.647.548.728 1.873.71l1.111-.017-.024.46-.024.458-.668.267a9.106 9.106 0 0 1-1.208.38c-.596.127-2.367.145-2.855.03zm3.6-.345c.485-.164.928-.337.986-.385.058-.048.106-.245.106-.437v-.35l-.906.047c-1.106.058-1.481-.028-1.823-.417-.474-.54-.496-.756-.473-4.632l.02-3.5 1.49-.04 1.49-.04.025-.504.024-.503H46.82c-1.392 0-1.497-.01-1.574-.156-.05-.091-.084-.787-.084-1.692v-1.537l-1.711.021-1.711.022-.022 1.607c-.016 1.162-.05 1.624-.121 1.67-.054.034-.508.063-1.009.064l-.91.001.024.503.024.504.905.022c.793.02.915.042.986.176.053.098.083 1.483.083 3.803.001 3.937.02 4.143.434 4.85.198.339.612.724.99.922.487.255 1.042.332 2.2.306 1.098-.025 1.219-.044 2.048-.325zm1.994.095c-.107-.107-.129-.535-.035-.681.032-.051.24-.12.462-.152.546-.08.964-.304 1.078-.579.068-.166.088-1.226.072-3.89l-.023-3.661-.188-.263c-.223-.313-.528-.485-1.181-.666l-.483-.134-.025-.345c-.014-.19.008-.38.05-.42.104-.105 5.253-.38 5.43-.291.132.066.142.368.142 4.62 0 4.852.001 4.874.395 5.225.096.086.418.235.715.33l.54.175.026.346c.016.222-.013.37-.08.413-.178.112-6.781.086-6.895-.027zm6.91-.367c0-.298-.007-.304-.464-.44-.627-.188-.933-.392-1.093-.73-.121-.255-.135-.75-.135-4.844 0-4.122-.012-4.565-.13-4.61-.118-.046-2.895.068-4.641.19l-.705.049v.313c0 .18.043.327.1.345.056.018.31.09.564.16.501.14.951.478 1.172.882.123.224.137.613.137 3.833 0 3.954.007 3.893-.507 4.24-.146.098-.464.203-.705.234l-.439.054v.626H56.276V34.2zm1.143.367c-.107-.107-.129-.535-.035-.681.032-.051.24-.119.462-.15.594-.085.928-.266 1.056-.574.089-.212.11-.976.11-3.791-.002-3.247-.014-3.552-.15-3.851-.194-.428-.544-.713-1.027-.835a3.624 3.624 0 0 1-.513-.163c-.136-.07-.2-.554-.094-.715.086-.13 5.126-.435 5.349-.323.118.06.14.187.14.794 0 .472.031.722.09.722.048 0 .275-.169.503-.374.925-.835 1.613-1.168 2.74-1.325 1.682-.236 3.247.4 3.881 1.579.18.335.34.354.604.071.334-.357 1.143-.968 1.564-1.18.573-.288 1.142-.442 1.867-.505 1.56-.134 2.888.484 3.467 1.613.437.85.448.954.484 4.626.036 3.718.04 3.75.493 3.985.126.065.406.162.623.216.217.053.421.137.454.185.093.139.071.57-.035.676-.114.113-6.315.14-6.492.027-.069-.044-.097-.193-.08-.422l.025-.354.473-.094c.786-.155.731.115.757-3.71.026-3.76 0-3.98-.516-4.496-.692-.692-2.177-.395-2.999.602l-.292.355v3.188c0 2.474.024 3.245.107 3.442.102.242.37.42 1 .664.188.072.221.132.221.393 0 .17-.043.351-.096.405-.139.138-6.11.138-6.25 0-.106-.107-.128-.535-.034-.681.032-.051.234-.12.449-.151.22-.033.482-.138.604-.243l.214-.184v-3.41c0-3.66-.011-3.774-.42-4.26-.303-.36-.641-.503-1.176-.498-.636.005-1.365.365-1.862.918l-.367.409v3.174c0 3.702-.012 3.63.661 3.928.234.104.49.21.567.236.167.057.199.607.044.762-.139.138-6.432.138-6.571 0zm6.572-.356c-.023-.27-.056-.303-.433-.443-.224-.084-.514-.263-.644-.399l-.237-.246-.022-3.322-.023-3.32.248-.342c.324-.449 1.1-.945 1.659-1.06.861-.18 1.44.075 1.843.809l.241.44v7.06l-.223.192c-.137.119-.376.213-.624.245l-.4.054v.623h6.21l-.025-.3c-.024-.28-.053-.31-.428-.448-.502-.186-.742-.406-.845-.776-.047-.167-.08-1.565-.08-3.332-.001-3.393-.025-3.237.576-3.813.659-.63 1.558-.937 2.223-.758.685.185 1.09.736 1.225 1.673.1.692.103 5.914.004 6.345-.099.426-.39.666-.89.732l-.401.054v.623h6.442V34.2c0-.3-.004-.303-.483-.444-.652-.191-.96-.478-1.054-.98-.04-.216-.073-1.793-.073-3.503 0-2.79-.016-3.165-.15-3.653-.3-1.08-1.018-1.818-2.057-2.114-.372-.106-.687-.127-1.45-.096-1.448.058-2.041.31-3.274 1.385-.33.288-.64.524-.692.525-.05 0-.201-.19-.334-.426-.305-.54-.712-.898-1.38-1.214-.477-.225-.619-.252-1.463-.278-.528-.017-1.132.012-1.39.065-.672.14-1.463.572-2.139 1.169-.33.29-.637.516-.685.5-.049-.016-.103-.355-.126-.787l-.04-.759-.242-.028c-.226-.026-2.741.09-4.332.202l-.709.05.024.326c.023.314.039.33.387.419.563.144.867.336 1.107.699l.222.334.02 3.71c.015 2.867-.003 3.756-.082 3.91-.156.304-.585.549-1.07.61l-.439.054v.626H64.017zM51.565 21.263c-.785-.373-1.25-1.057-1.246-1.839.004-1.068.867-1.951 2.006-2.053 1.51-.136 2.727 1.213 2.341 2.593-.135.482-.656 1.064-1.165 1.3-.566.264-1.377.264-1.936-.001zm1.66.018c.465-.158.944-.539 1.177-.936.29-.494.31-1.25.044-1.756-.204-.388-.659-.808-1.063-.982-.404-.174-1.25-.17-1.71.007-.466.18-1.069.806-1.188 1.234a1.971 1.971 0 0 0 1.238 2.399c.402.142 1.136.16 1.501.034z"/>
        <path d="M60.625 39.816c-.183-.183-.196-.267-.078-.488.134-.25.297-.194.256.089a.472.472 0 0 0 .107.402c.13.143.13.158.01.158-.074 0-.207-.072-.295-.16zm1.572-.04c.132-.377.132-.456-.004-.607-.115-.127-.249-.158-.677-.158-.498 0-.543-.015-.662-.222-.128-.222-.119-.422.02-.422.04 0 .073.05.073.112 0 .15.18.21.788.267.413.038.537.085.665.247.211.269.198.448-.05.718-.162.175-.196.19-.153.065zm-37.392-.62l.024-.336.642-.108c.353-.06.727-.165.832-.233.424-.278.419-.2.419-6.696v-6.026l-.181-.354c-.236-.461-.498-.644-1.166-.811-.524-.131-.547-.148-.572-.399-.014-.144.005-.292.042-.33.074-.074 4.573-.34 5.069-.3l.31.026.041.598c.022.329.08.61.129.627.049.016.266-.119.483-.3.967-.805 1.833-1.126 3.03-1.125 1.433.002 2.26.331 3.21 1.281 1.02 1.017 1.494 2.242 1.58 4.075.084 1.792-.39 3.208-1.465 4.368-1.028 1.11-2.166 1.624-3.746 1.69-1.05.043-1.634-.043-2.357-.347a6.58 6.58 0 0 0-.683-.253l-.18-.043v1.703c0 1.823.04 2.061.412 2.393.231.207.622.339 1.388.467l.575.096.025.338.024.337h-7.91zm8.257-5.312c.355-.108.932-.687 1.189-1.194.383-.757.537-1.533.582-2.94.061-1.904-.128-2.872-.741-3.784-.47-.698-.929-.96-1.753-.997-.777-.035-1.227.115-1.727.576l-.347.32v6.427l.201.397c.58 1.144 1.446 1.543 2.596 1.195zm11.215 5.191c-.258-.092-.322-.296-.322-1.028 0-.532-.034-.78-.125-.911-.121-.173-.117-.179.114-.179h.239l.027.893c.025.812.044.907.208 1.04.271.219.203.308-.14.185zm7.632-.07c-.63-.341-.658-1.577-.045-1.96.21-.13.285-.047.122.134-.18.198-.295.773-.22 1.087.104.436.171.544.413.669.128.066.232.137.232.158 0 .078-.29.028-.502-.088zm22.89.07c-.26-.092-.323-.296-.323-1.028 0-.532-.034-.78-.125-.911-.121-.173-.118-.179.112-.179h.237l.03.894c.028.808.048.908.21 1.04.27.218.201.307-.142.184zm5.314 0a.53.53 0 0 1-.322-.483c0-.207.26-.508.44-.508.098 0 .095.037-.018.234-.11.19-.116.27-.038.443.053.115.153.21.223.21s.105.036.077.08c-.053.086-.168.094-.362.024zm1.105-.105c-.173-.136-.188-.194-.14-.516.03-.2.03-.405-.003-.457-.032-.052-.04-.23-.018-.394.022-.166-.003-.381-.056-.48-.14-.264-.042-.294.194-.057.192.191.207.259.207.948 0 .556.03.777.124.88.19.21-.06.27-.308.076zm2.116 0c-.14-.14-.16-.268-.16-1.002 0-.5-.035-.862-.085-.893-.055-.034-.057-.085-.007-.146.043-.051.09-.22.105-.375.017-.185.068-.282.147-.282.08 0 .13.097.148.282.015.155.062.324.104.375.051.061.049.112-.006.146-.05.031-.085.38-.085.847 0 .83.08 1.047.389 1.05.116 0 .118.011.014.079-.19.122-.389.094-.564-.08zm-43.128-.098c.19-.27.183-2.523-.008-2.734-.127-.14-.118-.147.181-.148h.315l-.027.609c-.016.372.009.65.064.717.063.076.065.126.007.162-.137.085-.105 1.186.04 1.394.125.178.124.179-.286.179-.409 0-.41-.001-.286-.18zm1.384.036c.352-.285.462-.808.234-1.11-.253-.334-.091-.375.273-.069.447.376.299 1.023-.284 1.244-.312.12-.413.09-.223-.065zm3.658.027c-.073-.087-.074-.157-.004-.288.1-.187.077-1.314-.032-1.55-.054-.114-.028-.14.139-.14h.205l.027.906c.015.498.057.97.094 1.047.054.114.03.14-.133.14-.11 0-.243-.051-.296-.115zm2.138-.025c.13-.277.132-1.454.004-1.711-.12-.241-.12-.242.115-.242h.235v.921c0 .528.035.943.08.971.17.105.07.202-.21.202-.247 0-.28-.02-.224-.141zm2.123-.015c.048-.09.083-.72.083-1.474 0-1.035-.025-1.353-.118-1.475-.172-.228-.151-.277.118-.277h.242v1.565c0 .957.031 1.585.08 1.615.169.104.07.202-.204.202-.256 0-.276-.016-.201-.156zm3.477.084c-.083-.053-.088-.107-.02-.235.138-.258.113-1.315-.037-1.528-.114-.163-.114-.192 0-.306.16-.16.166-.756.008-.964-.172-.228-.152-.277.113-.277h.237l.027 1.55c.014.852.057 1.613.094 1.69.054.114.03.142-.123.14a.679.679 0 0 1-.299-.07zm2.131-.07c.13-.276.132-1.453.004-1.71-.12-.241-.12-.242.115-.242h.235v.921c0 .528.034.943.08.971.17.105.07.202-.21.202-.248 0-.28-.02-.224-.141zm2.193-.753c.018-.574-.004-.926-.06-.982-.148-.148-.1-.217.154-.217.278 0 .265-.053.243 1.03-.012.555.015.866.08.945.084.1.057.119-.173.119h-.271l.027-.895zm1.349.754c.11-.24.134-1.166.038-1.486-.065-.217-.148-.319-.29-.354-.276-.07-.248-.194.044-.194.454 0 .563.219.563 1.123 0 .447.036.823.08.85.17.105.07.202-.21.202-.247 0-.28-.021-.225-.141zm7.01 0c.037-.078.08-.68.093-1.337.02-.982.002-1.23-.102-1.389l-.127-.193h.38c.297 0 .36.021.285.096-.068.067-.097.49-.097 1.383 0 1.084.02 1.31.133 1.434.128.14.116.147-.25.147-.338 0-.375-.017-.315-.141zm2.442-.015c.136-.254.106-1.549-.042-1.759-.12-.173-.117-.179.111-.179.307 0 .46.174.342.392-.108.204-.113 1.434-.005 1.5.168.104.07.202-.204.202-.257 0-.277-.016-.202-.156zm1.44-.695c.023-.723.006-.875-.113-1.007-.078-.085-.21-.155-.294-.155-.085 0-.131-.037-.104-.081.087-.14.493-.087.647.084.103.113.157.32.175.664l.052.923c.024.407.018.423-.183.423h-.208l.028-.851zm6.283.79c-.006-.033-.002-.445.008-.916.013-.557-.011-.875-.07-.91-.153-.096-.096-.207.106-.207.192 0 .195.01.226.906.017.498.06.97.096 1.047.053.115.026.14-.145.14-.116 0-.215-.026-.221-.06zm2.09-1.477c.022-1.387.01-1.555-.12-1.698-.14-.156-.138-.159.137-.133l.28.027.022 1.564c.013.988.054 1.604.11 1.671.07.085.034.107-.183.107H77.9l.025-1.538zm7.662 1.382c.136-.254.105-1.549-.042-1.759-.121-.173-.117-.179.121-.179h.246v.921c0 .528.035.943.08.971.17.104.07.202-.203.202-.257 0-.277-.016-.202-.156zm2.177-.074c-.259-.259-.366-.677-.284-1.111.054-.288.426-.753.603-.753.049 0 .006.112-.095.249-.264.357-.264 1.24 0 1.597.23.312.081.324-.224.018zm1.174.03c.31-.472.298-1.398-.023-1.752-.217-.24.045-.167.293.08.412.413.386 1.274-.052 1.68-.27.25-.384.246-.218-.008zm2.115-.678c.017-.547-.007-.942-.063-1.047-.083-.154-.07-.169.154-.169.281 0 .268-.054.246 1.03-.012.555.015.866.08.945.084.1.057.119-.173.119h-.271l.027-.878zm1.38.722c.113-.212.105-1.318-.012-1.574a.5.5 0 0 0-.281-.254c-.268-.067-.233-.19.054-.19.454 0 .563.218.563 1.122 0 .447.036.823.08.85.17.104.07.202-.203.202-.257 0-.277-.016-.202-.156zm-21.016-.13c0-.225.11-.203.244.049.07.13.057.156-.08.156-.122 0-.164-.052-.164-.206zm1.248-.093c0-.298-.014-.313-.564-.588-.427-.213-.57-.327-.59-.47-.036-.255.05-.576.154-.576.048 0 .063.07.035.158-.083.259.094.464.52.606.412.137.727.435.727.687 0 .078-.063.22-.141.315-.14.173-.14.173-.14-.132zm-11.823-.68c-.259-.295-.28-.648-.055-.874.212-.212.357-.215.244-.005-.121.227-.102.667.039.868.192.274.01.283-.228.01zm.895-.004c.119-.119.127-.663.013-.875-.073-.137-.055-.156.141-.156.212 0 .226.021.24.383.017.419-.138.744-.355.744-.105 0-.114-.021-.039-.096zm-20.339-.52c-.068-.028-.02-.117.141-.268a.71.71 0 0 0 .076-.997c-.162-.206-.162-.212-.01-.212.285 0 .58.307.58.606 0 .215-.06.32-.282.498-.155.123-.282.27-.282.325 0 .105-.052.116-.223.047zm38.555-.151c0-.112.056-.225.124-.252.174-.066.226.012.166.25-.068.27-.29.272-.29.002zm-7.368-.199c-.142-.156-.141-.161.027-.161.12 0 .174.05.174.161 0 .089-.013.161-.028.161a.799.799 0 0 1-.173-.16zm-25.188-1.067c-.056-.162.028-.302.183-.302.08 0 .16.045.18.1.061.164-.022.303-.18.303-.081 0-.163-.046-.183-.1zm7.731 0c-.056-.162.028-.302.183-.302.079 0 .16.045.18.1.061.164-.022.303-.18.303-.081 0-.164-.046-.183-.1zm30.44 0c-.056-.162.028-.302.183-.302.08 0 .16.045.181.1.06.164-.023.303-.18.303-.082 0-.164-.046-.184-.1zm-71.891-1.15c-2.256-.353-4.217-1.516-5.444-3.228-1.685-2.352-1.959-5.807-.677-8.545 1.033-2.204 2.838-3.686 5.3-4.351.72-.195.906-.212 2.391-.212 1.489 0 1.67.017 2.398.213 1.486.401 2.838 1.157 3.812 2.131 1.707 1.707 2.513 4.18 2.21 6.78-.242 2.086-1.066 3.832-2.402 5.092-.687.648-1.07.915-1.928 1.347-1.567.786-3.71 1.08-5.66.773zm3.083-1.189c.775-.383 1.254-.903 1.72-1.869.642-1.325.915-2.836.915-5.067 0-2.265-.278-3.86-.889-5.099-.803-1.63-2.193-2.441-3.761-2.193-2.19.348-3.402 2.397-3.637 6.152-.237 3.793.6 6.753 2.227 7.872.597.411 1.15.554 2.042.528.709-.021.826-.049 1.383-.324zm66.293 1.124c-1.617-.423-2.46-1.734-2.134-3.316.278-1.345 1.065-1.984 3.316-2.692l2.176-.683c.65-.204 1.245-.432 1.32-.508.12-.12.13-.259.088-1.109-.07-1.376-.303-1.918-.98-2.276-.363-.19-1.121-.164-1.631.059-.48.208-.522.346-.302.97.185.524.158 1.208-.061 1.537-.296.445-.776.637-1.587.635-.974-.003-1.535-.291-1.77-.91-.118-.313-.107-.894.023-1.205.283-.673 1.583-1.446 2.97-1.767.955-.221 3.144-.241 4.07-.038 1.384.304 2.266.999 2.603 2.05.166.518.172.658.143 3.08-.045 3.834-.041 4.039.082 4.33.18.427.516.61 1.214.66l.607.043.025.297c.03.372-.105.47-.991.72-.832.233-2.257.253-2.963.042-.533-.16-1.034-.567-1.272-1.034-.087-.169-.196-.307-.244-.307-.048 0-.255.149-.461.33-.853.754-1.78 1.11-3.033 1.163-.513.022-.95-.004-1.208-.071zm3.607-1.6c.181-.054.493-.258.708-.463l.384-.366.05-1.772c.065-2.256.102-2.181-.888-1.772-.834.344-1.165.535-1.592.92-.652.59-.929 1.624-.67 2.512.25.862 1.038 1.232 2.008.941zm-42.93 1.507c-.747-.21-1.27-.582-1.594-1.134-.414-.708-.433-.914-.434-4.851 0-2.32-.03-3.705-.083-3.803-.071-.134-.193-.156-.986-.175l-.905-.023-.024-.504-.024-.503.91-.001c.5 0 .955-.03 1.009-.064.071-.046.105-.508.12-1.67l.023-1.607 1.71-.022 1.712-.021v1.537c0 .905.034 1.6.083 1.692.078.146.183.156 1.575.156h1.49l-.024.503-.023.504-1.49.04-1.49.04-.021 3.5c-.023 3.876-.001 4.092.473 4.632.342.39.717.475 1.823.417l.906-.047v.35c0 .192-.048.389-.106.437-.058.048-.501.221-.986.385-.83.281-.95.3-2.049.325-.856.02-1.281-.006-1.595-.093zm5.702-.515v-.313l.44-.054c.24-.03.558-.136.704-.234.514-.347.507-.286.507-4.24 0-3.22-.014-3.609-.137-3.833-.22-.404-.671-.742-1.172-.881a28.64 28.64 0 0 1-.563-.16c-.058-.02-.1-.167-.1-.346v-.313l.704-.05c1.746-.12 4.523-.235 4.641-.19.118.046.13.489.13 4.611 0 4.093.014 4.59.135 4.844.16.338.466.542 1.093.73.457.136.463.142.463.44v.302H49.431zm8.053 0v-.313l.44-.054c.484-.061.913-.306 1.07-.61.078-.154.096-1.043.08-3.91l-.02-3.71-.22-.334c-.24-.363-.545-.555-1.108-.699-.348-.089-.364-.105-.387-.42l-.024-.326.709-.05c1.59-.11 4.106-.227 4.332-.2l.242.027.04.759c.023.432.077.77.126.787.048.016.356-.21.685-.5.676-.597 1.467-1.03 2.14-1.169.257-.053.861-.082 1.39-.065.843.026.985.053 1.461.278.67.316 1.076.673 1.38 1.214.134.235.284.427.335.426.051-.001.363-.237.692-.525 1.233-1.076 1.826-1.327 3.274-1.385.763-.031 1.078-.01 1.45.096 1.039.296 1.757 1.034 2.056 2.114.135.488.15.863.15 3.653 0 1.71.034 3.287.074 3.503.094.502.402.789 1.054.98.48.141.483.145.483.444v.302h-6.442v-.623l.401-.054c.5-.066.791-.306.89-.732.1-.43.096-5.653-.004-6.345-.136-.937-.54-1.488-1.225-1.673-.665-.179-1.564.128-2.223.758-.6.576-.577.42-.577 3.813 0 1.767.034 3.165.08 3.332.104.37.344.59.846.776.375.138.404.169.428.448l.025.3h-6.211v-.623l.401-.054c.248-.032.487-.126.624-.245l.223-.191v-7.06l-.241-.441c-.403-.734-.982-.989-1.843-.81-.558.116-1.335.612-1.66 1.06l-.247.342.023 3.321.022 3.322.237.246c.13.136.42.315.644.399.377.14.41.173.433.443l.025.291H57.484zm-5.76-12.941a1.971 1.971 0 0 1-1.239-2.4c.12-.427.722-1.053 1.188-1.233.46-.177 1.306-.18 1.71-.007.404.174.859.594 1.063.982.266.505.247 1.262-.044 1.756-.233.397-.712.778-1.178.936-.365.125-1.1.108-1.5-.034z"/>
    </g>
</svg>
