<svg xmlns="http://www.w3.org/2000/svg" width="44" height="44" viewBox="0 0 44 44">
    <path d="M.819 36.826a1.168 1.168 0 0 1-.34-.258c-.155-.172-.172-.33-.196-1.771l-.027-1.583L3.46 20.397C6.343 8.866 6.687 7.555 6.898 7.32l.233-.261H36.88l.233.261c.21.235.555 1.547 3.432 13.056l3.2 12.794v1.481c0 .814-.038 1.579-.084 1.699-.123.325-.574.575-.936.519-.163-.025-1.377-.425-2.697-.888l-2.4-.843-2.398.842c-1.319.463-2.531.861-2.695.884-.23.033-.868-.158-2.802-.837l-2.505-.88-1.953.677c-1.074.373-2.25.777-2.611.898l-.659.221-.658-.22c-.362-.122-1.537-.526-2.61-.899l-1.954-.677-2.505.88c-1.937.68-2.572.87-2.802.837-.164-.023-1.383-.42-2.709-.882l-2.411-.84-2.512.883c-1.382.485-2.59.88-2.684.877a1.19 1.19 0 0 1-.341-.075zm13.248-2.645c1.354-.47 2.58-.857 2.726-.857.145-.001 1.378.387 2.74.861l2.475.863 2.466-.863c1.357-.474 2.589-.862 2.738-.861.149 0 1.382.387 2.741.86l2.47.86 2.455-.86c1.35-.472 2.589-.86 2.752-.86.164 0 1.176.309 2.25.687 1.073.378 1.983.687 2.021.687.038 0 .058-.176.043-.392l-.026-.391-2.146-.747-2.146-.747-2.524.884c-1.389.486-2.6.882-2.694.88-.094-.002-1.297-.399-2.675-.88l-2.505-.876-1.953.677c-1.074.372-2.25.776-2.611.898l-.659.22-.658-.22a429.95 429.95 0 0 1-2.61-.898l-1.954-.677-2.505.876c-1.378.481-2.581.877-2.675.88-.093.001-1.311-.394-2.706-.879l-2.537-.881-2.134.745-2.133.746-.026.391c-.015.215.005.391.043.391s.947-.31 2.021-.688c1.074-.378 2.086-.687 2.25-.685.163.002 1.386.387 2.717.854 1.331.468 2.44.852 2.464.855.024.002 1.152-.382 2.505-.853zm-2.777-5.765c.24-1.937.408-3.547.374-3.577-.033-.03-.864-.329-1.847-.665l-1.786-.61-1.908.67-1.908.67-.868 3.433c-.477 1.887-.86 3.453-.849 3.48.01.025.822-.236 1.802-.583.981-.346 1.917-.628 2.08-.626.164 0 1.215.326 2.336.721 1.121.395 2.06.694 2.088.664.028-.03.246-1.64.486-3.577zm25.313 2.46l1.03-.35 1.421.484c.781.267 1.663.575 1.958.684l.537.2-.052-.233c-.029-.128-.423-1.7-.877-3.494l-.824-3.262-1.908-.67-1.908-.671-1.786.61c-.983.336-1.813.635-1.847.665-.052.046.736 6.834.827 7.117.023.072.395-.024 1.215-.313.65-.229 1.647-.574 2.214-.767zM21.07 28.422v-3.558l-.7-.25c-.385-.138-1.236-.432-1.89-.654l-1.188-.403-1.869.668-1.868.667-.438 3.48c-.241 1.915-.424 3.496-.407 3.514.018.018.897-.266 1.954-.63 1.056-.363 2.041-.655 2.19-.648.147.007 1.128.317 2.178.688 1.051.371 1.94.677 1.975.68.035.003.063-1.596.063-3.554zm3.876 2.878c1.067-.375 2.062-.687 2.21-.693.148-.007 1.133.286 2.19.65 1.056.363 1.935.647 1.953.629.017-.018-.166-1.6-.407-3.514l-.438-3.482-1.868-.666-1.869-.667-1.188.403c-.654.222-1.505.516-1.89.654l-.7.25v3.558c0 1.958.014 3.559.032 3.559.018 0 .907-.307 1.974-.681zm-12.96-8.426c0-.059.17-1.462.38-3.119.208-1.656.351-3.036.317-3.066-.034-.03-.732-.29-1.552-.576l-1.49-.52-1.694.583-1.695.583-.741 2.92c-.409 1.605-.733 2.962-.722 3.015.012.06.6-.11 1.542-.446.838-.298 1.602-.542 1.699-.541.096 0 .978.283 1.959.628.98.345 1.83.631 1.89.636a.098.098 0 0 0 .106-.097zm21.992-.531c1.004-.35 1.904-.637 2-.637.098 0 .862.244 1.7.542.942.336 1.53.506 1.542.446.011-.053-.314-1.41-.722-3.016l-.742-2.92-1.693-.582-1.693-.583-1.491.519c-.82.285-1.519.544-1.553.575-.034.03.109 1.412.318 3.068.208 1.657.38 3.06.38 3.119 0 .058.03.106.065.106s.885-.287 1.889-.637zm-17.463-.4l.837-.28 1.796.617c.987.339 1.824.616 1.859.615.035 0 .063-1.39.063-3.09 0-2.816-.012-3.096-.142-3.146-.079-.03-.796-.282-1.594-.56l-1.451-.507-1.654.573-1.655.573-.354 2.76c-.195 1.518-.357 2.9-.361 3.07l-.006.309.912-.327c.502-.18 1.29-.453 1.75-.606zm8.28.357c.946-.327 1.791-.594 1.878-.594.087 0 .906.262 1.82.581l1.663.582-.006-.306c-.004-.168-.166-1.547-.361-3.065l-.354-2.76-1.656-.572-1.656-.571-1.45.505c-.797.277-1.513.53-1.592.56-.13.05-.142.329-.142 3.144 0 1.7.03 3.09.067 3.09.037 0 .842-.267 1.789-.594zm-11.79-7.578c0-.059.152-1.31.338-2.781.186-1.472.339-2.78.339-2.91v-.235l-2.733.023-2.733.022-.717 2.87c-.394 1.577-.702 2.882-.685 2.9.018.017.665-.18 1.437-.44l1.403-.472 1.611.559c.886.307 1.64.56 1.675.564.035.003.064-.042.064-.1zm19.786-.488l1.573-.535 1.4.472c.769.26 1.413.458 1.43.44.018-.017-.29-1.323-.684-2.9l-.717-2.87-2.733-.022-2.734-.023v.235c.001.13.154 1.438.34 2.91.186 1.47.338 2.726.339 2.79 0 .063.048.098.107.076.058-.02.814-.28 1.679-.573zM16.44 14.19l1.44-.492 1.532.523c.843.287 1.56.522 1.596.522.035 0 .063-1.338.063-2.972V8.799h-2.76c-1.517 0-2.76.028-2.762.063-.001.035-.166 1.374-.365 2.975-.222 1.784-.328 2.898-.273 2.878.049-.018.737-.255 1.529-.525zm8.159.03l1.532-.522 1.44.492c.792.27 1.48.507 1.53.525.058.022-.045-1.043-.271-2.835-.2-1.578-.365-2.917-.367-2.975-.003-.083-.614-.106-2.764-.106h-2.76v2.972c0 1.634.03 2.972.064 2.972.035 0 .753-.235 1.596-.522z" fill="#c7cb14"/>
</svg>
