<svg xmlns="http://www.w3.org/2000/svg" width="44" height="44" viewBox="0 0 44 44">
    <path d="M10.543 35.798l-.022-2.342-2.502-.02-2.502-.022v-4.721H.471V5.859h32.963l.023 2.343.022 2.342 2.502.02 2.502.022v4.721h5.046v22.834H10.565zM42.1 26.724V16.646h-30.19v10.026c0 5.514.025 10.049.056 10.078.03.029 6.823.052 15.095.052h15.039zm-31.536 4.758v-.597l-.218.242c-.425.474-1.212.23-1.212-.376 0-.627.777-.883 1.212-.399l.218.242v-3.729l-.244.245c-.443.444-1.186.22-1.186-.357 0-.37.115-.547.419-.646a.742.742 0 0 1 .864.284c.136.206.143.134.145-1.663l.002-1.879-.244.245c-.453.454-1.185.205-1.185-.404 0-.69.796-.906 1.28-.346.14.16.146.084.148-1.674l.002-1.842-.204.205c-.268.271-.559.332-.87.181-.286-.138-.356-.264-.356-.64 0-.19.061-.308.222-.426.326-.24.672-.212.964.081l.244.245v-3.167h3.376l-.258-.203c-.504-.397-.22-1.135.437-1.135.675 0 .925.914.333 1.215-.209.106-.039.117 1.83.115 1.244 0 1.989-.029 1.88-.07-.457-.172-.588-.744-.244-1.067.23-.215.664-.257.905-.086a.653.653 0 0 1-.093 1.113c-.195.1.013.112 1.84.115l2.061.003-.265-.151c-.33-.189-.429-.53-.248-.857.298-.54 1.118-.415 1.28.194.071.262-.102.577-.39.714-.172.081.15.098 1.852.096 1.839-.002 2.036-.014 1.838-.115-.424-.215-.474-.838-.09-1.111.24-.171.674-.13.905.085.344.323.213.895-.244 1.068-.11.04.635.069 1.88.07 1.59.002 2.022-.018 1.892-.087-.624-.335-.437-1.244.255-1.244.686 0 .975.724.453 1.135l-.259.204h3.979l-.259-.204c-.504-.397-.22-1.135.438-1.135.675 0 .925.914.332 1.216-.22.112-.203.117.422.12l.652.003v-3.386h-3.351l.246.23c.319.299.319.58 0 .878-.32.299-.62.299-.938 0-.32-.298-.32-.58 0-.878l.245-.23h-3.864l.231.187c.611.491-.044 1.413-.753 1.06-.27-.134-.389-.311-.389-.578 0-.259.115-.435.373-.574.13-.07-.291-.09-1.85-.088-1.314.002-1.95.028-1.825.075.23.087.427.485.372.753-.045.224-.391.504-.623.504-.228 0-.627-.208-.689-.358-.148-.362-.02-.713.326-.89.126-.064-.342-.086-1.85-.086-1.507 0-1.975.022-1.85.086.635.325.417 1.248-.294 1.248-.691 0-.943-1.021-.31-1.26.114-.043-.586-.07-1.835-.072-1.558-.002-1.98.018-1.85.088.259.139.373.315.373.574 0 .267-.119.444-.388.578-.278.139-.498.111-.754-.095a.6.6 0 0 1 0-.965l.232-.187h-3.865l.246.23c.148.139.246.313.246.44 0 .276-.42.669-.715.669s-.715-.393-.715-.67c0-.126.098-.3.246-.439l.246-.23H7.863l.232.187c.61.491-.045 1.413-.754 1.06a1.037 1.037 0 0 1-.286-.217c-.081-.099-.103.243-.105 1.671l-.003 1.796.2-.217c.413-.45 1.18-.19 1.18.4 0 .6-.728.897-1.173.48l-.207-.192v3.557l.175-.208c.185-.22.612-.282.913-.131.256.128.38.513.257.793-.193.436-.776.537-1.138.197l-.207-.193v3.529l.207-.193a.676.676 0 0 1 .483-.191c.337.003.535.134.656.432.269.66-.711 1.166-1.18.608l-.166-.198v3.586l.222-.207c.438-.41 1.158-.128 1.158.453 0 .603-.761.87-1.18.413l-.2-.217v3.159h3.617zM9.558 15.215c-.284-.098-.419-.298-.422-.622-.005-.549.641-.814 1.121-.46.576.423-.005 1.322-.699 1.082zm-4.04 3.754v-8.385l13.265-.02 13.266-.02V7.237l-15.074-.02-15.074-.02v20.157h3.616zm1.807-6.952c.153-.082.143-.09-.105-.093-.243-.002-.273.022-.27.214.002.186.017.2.105.093a1.08 1.08 0 0 1 .27-.214z" fill="#c7cb14" stroke-width=".081"/>
</svg>
