<svg xmlns="http://www.w3.org/2000/svg" width="72" height="72" viewBox="0 0 19.05 19.050001">
    <path d="M10.033 12.01c.324-.025.62-.19.81-.454l2.913-4.026a.311.311 0 0 0-.434-.435L9.295 10.01a1.107 1.107 0 0 0-.132 1.68 1.105 1.105 0 0 0 .87.321zm-.571-1.143a.485.485 0 0 1 .198-.355l2.457-1.777-1.777 2.456a.487.487 0 0 1-.878-.324z"/>
    <path d="M17.001 6.279c-.003-.007-.003-.014-.006-.02l-.014-.016a8.456 8.456 0 0 0-1.11-1.496l.67-.668.439.44L18.3 3.2l-1.32-1.32-1.32 1.32.44.44-.668.668a8.447 8.447 0 0 0-1.496-1.109c-.006-.004-.01-.01-.015-.014-.007-.003-.014-.003-.02-.006a8.34 8.34 0 0 0-3.196-1.06v-.37h.467a.778.778 0 0 0 0-1.555h-2.8a.778.778 0 0 0 0 1.555h.466v.36c-.336.036-.671.09-1.003.166a.31.31 0 1 0 .14.607 7.91 7.91 0 0 1 .864-.149l.334-.026c.102-.007.196-.013.287-.017v.615a.31.31 0 1 0 .623 0V2.69a7.716 7.716 0 0 1 3.252.885l-.307.53a.311.311 0 0 0 .54.312l.305-.53a7.837 7.837 0 0 1 2.418 2.418l-.53.306a.31.31 0 0 0 .312.538l.53-.306a7.72 7.72 0 0 1 .887 3.303h-.615a.31.31 0 1 0 0 .622h.615a7.72 7.72 0 0 1-.886 3.303l-.531-.307a.31.31 0 1 0-.312.54l.53.305a7.837 7.837 0 0 1-2.417 2.418l-.306-.53a.31.31 0 1 0-.539.311l.307.531a7.716 7.716 0 0 1-3.253.885v-.612a.31.31 0 1 0-.622 0v.614a7.85 7.85 0 0 1-1.486-.191.31.31 0 1 0-.139.606c.621.143 1.256.215 1.885.215l.045-.001.006.001.007-.002a8.344 8.344 0 0 0 4.112-1.111c.01-.004.02-.006.029-.012.006-.004.01-.01.015-.014a8.46 8.46 0 0 0 3.04-3.036c.006-.009.014-.015.02-.024.003-.007.003-.014.006-.02a8.34 8.34 0 0 0 1.119-4.18A8.342 8.342 0 0 0 17 6.278zm-.021-3.52l.44.44-.44.44-.44-.44zm-7.52-.693v-.94H8.372a.156.156 0 0 1-.156-.155c0-.086.07-.156.156-.156h2.8a.156.156 0 0 1 0 .311h-1.09v.94a7.734 7.734 0 0 0-.31-.007l-.028.001h-.023c-.051 0-.102.003-.153.004-.036 0-.07 0-.108.002z"/>
    <path d="M6.972 4.548H5.417a.31.31 0 1 0 0 .622h1.555a.31.31 0 1 0 0-.622z"/>
    <path d="M6.972 6.725h-3.11a.31.31 0 1 0 0 .623h3.11a.31.31 0 1 0 0-.623z"/>
    <path d="M6.972 8.903H2.306a.31.31 0 1 0 0 .622h4.666a.31.31 0 1 0 0-.622z"/>
    <path d="M6.972 11.08h-5.91a.31.31 0 1 0 0 .622h5.91a.31.31 0 1 0 0-.622z"/>
    <path d="M6.972 13.258H2.928a.31.31 0 1 0 0 .622h4.044a.31.31 0 1 0 0-.622z"/>
    <path d="M6.972 15.435H4.794a.31.31 0 1 0 0 .622h2.178a.31.31 0 1 0 0-.622z"/>
</svg>
