<svg xmlns="http://www.w3.org/2000/svg" width="44" height="44" viewBox="0 0 44 44">
    <path d="M6.436 38.84a.65.65 0 0 1-.18-.147c-.028-.04-.05-.714-.05-1.499-.002-1.367.004-1.432.137-1.553.124-.112.27-.128 1.29-.148l1.149-.022V5.406l.162-.162.162-.163h12.916c12.619 0 12.92.003 13.072.127l.156.126.017 15.07.017 15.07 1.116.02c.988.019 1.133.036 1.256.147.133.12.139.187.139 1.565v1.439l-.174.137-.175.137-15.439-.002c-11.385-.002-15.474-.022-15.571-.077zm30.42-1.623l.018-.678H7.195V37.928l14.821-.017 14.82-.017zM11.11 21.565l.017-13.918.156-.126c.152-.123.418-.127 10.743-.127 9.04 0 10.606.014 10.716.094.126.093.128.321.145 14.044l.017 13.95H34.226V6.072l-12.21.017-12.21.017-.016 14.688-.017 14.688h1.32zm10.426 9.753v-4.163h-9.385v8.327h9.385zm10.376 0v-4.163h-9.385v8.327h9.385zM21.52 21.95l.017-4.18h-9.386v8.394l4.676-.017 4.676-.017zm10.376 0l.017-4.18h-9.386v8.394l4.676-.017 4.676-.017zM21.52 12.566l.017-4.18h-9.386v8.394l4.676-.017 4.676-.017zm10.392.016V8.386h-9.385v8.393h9.385z" fill="#c7cb14"/>
</svg>
